<svg xmlns="http://www.w3.org/2000/svg" viewBox="0 0 425.2 419.81"><defs><style>.cls-1{fill:#0f914c;}.cls-2{fill:#e34b1e;}.cls-3{fill:#373532;}.cls-4{fill:#259457;}.cls-5{fill:#424140;}.cls-6{fill:#f2e621;}.cls-7{fill:#4f4e4d;}.cls-8{fill:#5b5959;}.cls-9{fill:#dc6a3c;}</style></defs><title>Recurso 1</title><g id="Capa_2" data-name="Capa 2"><g id="Layer_1" data-name="Layer 1"><path class="cls-1" d="M264.83,147.31c3,.07,6-.79,8.79,1.11,4,2.7,4.41,6.77.81,9.92-4.07,3.58-8.25,7-12.46,10.44-1.1.89-1.74,1.29-.37,2.66,4,4,3.39,7.58-1.56,10.35-4.16,2.32-8.9,3-13.42,4.16-12.14,3.13-24.14,6.72-36.36,9.54-25.67,5.92-47.41-.6-65.37-19.8-4.61-4.94-8.77-10.17-11.67-16.39-4.87-10.47-1.87-19.53,4.69-27.89,6.84-8.73,16.75-10.77,27.06-11.55,3-.23,6-.08,9.05-.1,5.59.9,10.42,3.47,14.91,6.78,2,1.71,3.37,4,5.64,5.37a10.79,10.79,0,0,0,2.68,3.63c1.49,3.22,4,6.36.79,10-2.1,1.62-4.4,1.43-6.77.79s-4.44-1.69-6.85-1.79c-1.29-2.15-3.9-2.61-5.56-4.4-2.14-2.3-5-1.93-7.54-.75-4.48,2.06-4.47,2.92-.28,5.9a7.59,7.59,0,0,0,3.33,3.57,26.15,26.15,0,0,0,7.14,7.08c9,9,20.16,13.37,32.61,14.58,4,.38,8.09,1.5,12.12,0A55.86,55.86,0,0,0,238,164.29c5.17-3.53,10.36-6.34,17-5.4,3.19.46,5-1.35,4.87-4.72,0-1.32,0-2.65,0-4C261.17,148.71,263.18,148.33,264.83,147.31Z"/><path class="cls-2" d="M288.48,322.09c-5.35-3.5-10.35-6.8-15.37-10-14.92-9.68-30.65-17.75-48-22.08-22.14-5.53-42.88-3.31-60.74,12.47-5.51,4.88-10.56,10.27-14.13,16.69s-11.49,6.24-16.26,2.67c-4.6-3.44-5.09-9.51-.79-14.73,12.25-14.89,26.83-26.56,45.87-31.55,12.16-3.18,24.43-2.77,36.59.17,23.81,5.76,43.85,18.68,62.89,33.45,2.38,1.84,4.64,3.84,7.06,5.61S289,318.69,288.48,322.09Z"/><path class="cls-2" d="M235,86.35c4.36,4.78,4.9,10.58,4.18,16.6a63.87,63.87,0,0,1-4,16.48c-1.4,3.45-3.15,4.32-6.68,3.38-1.14-.31-1.32-.69-.92-1.72s.56-2.1.89-3.14c1.47-4.61,1.3-9-2.76-12.18s-8.81-4-13.61-1.69-6.84,6.52-6.35,11.93c.18,1.95,1,3.79-1.74,5.1-5.45,2.56-6.14,2.53-9.52-2.59-5.48-8.3-6.05-17.07-2.62-26.24,1.65-4.39,4-5.7,7.95-4.66,3.76,1,6.94,5.47,6.42,9a1.83,1.83,0,0,1-1.46,1.8,2.8,2.8,0,0,1-2.65-.84c-.72-.74.27-1.22.55-1.81.4-.84,1.81-1.76.12-2.61-1.31-.66-2.64-1.94-4.18-.23-1.68,1.89-2.8,3.82-2.07,6.52.93,3.42,3.38,4.79,6.56,5.37a6.83,6.83,0,0,0,7.24-3c3-4.15,2-12-2-16.49a7.35,7.35,0,0,0-1.52-1.53c-6.55-4.06-6.19-10-4.39-16.25h0c.48-.06.63-.35.58-.79,1.34-1.13,2.45-3.57,4.18-2.9s.93,3.2,1.07,4.94c.17,2,.12,4.09.22,6.14.19,3.76,2.22,5.67,6,5.72s5.78-1.87,5.9-5.71c.1-3.37.07-6.75.14-10.13,0-.67-.35-1.61.47-1.92s1.54.44,2.13,1c2.74,2.79,3.24,9.42,1,14.05a78,78,0,0,0-4.62,11.7,8.86,8.86,0,0,0,10.58,11.22A7.18,7.18,0,0,0,234,89.22a20.91,20.91,0,0,0-4-3.15C231.82,84.55,233.37,85.91,235,86.35Z"/><path class="cls-3" d="M256.66,213.58v26a3.49,3.49,0,0,0,2.4,3.64,1.45,1.45,0,0,1,1.11,1.66c-.23.88-1.08.8-1.8.8-2.06,0-4.11,0-6.17,0-.69,0-1.57.15-1.83-.74a1.41,1.41,0,0,1,1-1.69c2.45-.92,2.51-2.9,2.5-5.05q-.07-11.25,0-22.49c0-2.11.08-4.15-2.28-5.21a1.35,1.35,0,0,1-.81-1.78c.26-.74,1-.47,1.55-.54.24,0,.49,0,.73,0,7.45-.26,7.45-.26,10.31,6.61,3.15,7.56,6.31,15.13,9.58,23,2.06-2.6,2.8-5.43,3.95-8,2.73-6.18,5.43-12.38,7.86-18.68.91-2.34,2.11-3.28,4.51-2.9.83.13,1.7,0,2.54.05,1.36.16,3.26-.79,4,.6.82,1.63-1.43,1.85-2.2,2.79a4,4,0,0,0-.66,2.75c0,8.35,0,16.69,0,25,0,1.69.38,3.07,2.07,3.85a1.43,1.43,0,0,1,.92,1.77c-.29.88-1.18.68-1.86.69-2.42,0-4.83,0-7.25,0-.78,0-1.83.41-2.23-.64s.38-1.59,1.15-2c1.56-.76,1.86-2.15,1.87-3.64q0-12.33,0-24.66c0-.28-.24-.56-.45-1.05-1.28,1-1.49,2.34-2,3.48-3.68,8.66-7.29,17.36-11,26-.44,1-.57,2.48-2.24,2.44s-1.73-1.5-2.16-2.54q-6.21-14.8-12.33-29.66Z"/><path class="cls-3" d="M150.24,236c0-8.2,0-15.28,0-22.37,0-1.8-1.33-2.42-2.6-3.13a1.48,1.48,0,0,1-.9-1.44c.13-1,1-.79,1.7-.8,2.17,0,4.35,0,6.52,0,.55,0,1.28-.22,1.55.52a1.28,1.28,0,0,1-.81,1.75c-2.74,1.07-2.65,3.38-2.64,5.73q.06,13.41,0,26.81c0,.87.55,2.12-.68,2.53s-1.68-.7-2.3-1.41l-23-26.54c-.78-.89-1.59-1.76-2.92-3.24,0,9.19,0,17.68,0,26.16,0,1.56,1.36,2.15,2.53,2.8.67.38,1.16.93.85,1.76s-1,.59-1.54.6a39.45,39.45,0,0,1-4.35,0c-1.25-.11-3,.79-3.66-.6-.75-1.72,1.43-1.84,2.31-2.64a4,4,0,0,0,1.06-3.33c0-8.09,0-16.18,0-24.27a4.44,4.44,0,0,0-2.19-4.26,1.47,1.47,0,0,1-.88-1.77c.32-.94,1.21-.51,1.86-.59,3.89-.47,6.89.31,9.63,3.8C136.05,220,142.91,227.43,150.24,236Z"/><path class="cls-3" d="M318.84,246.23a18.67,18.67,0,0,1-16.39-10.52c-3.48-6.76-3-13.57,1.37-19.86,5.61-8.08,18.27-10.73,27.75-6A19.12,19.12,0,0,1,341,233.21C338.33,241.3,330.55,246.36,318.84,246.23Zm17-20.1a44.1,44.1,0,0,0-.62-4.8c-1.64-7.48-7.15-11.81-14.49-11.52-7.66.3-12.79,5-13.92,12.66a30,30,0,0,0-.1,8.31c1.63,12.68,12.27,15.19,20.47,12C334.19,240.15,335.74,233.85,335.88,226.13Z"/><path class="cls-3" d="M76.17,223.78c0-2.78,0-5.56,0-8.34,0-2,0-3.89-2.22-4.88a1.4,1.4,0,0,1-.88-1.76c.31-1,1.21-.57,1.86-.58q4-.08,8,0c.64,0,1.54-.34,1.8.64a1.48,1.48,0,0,1-1,1.73c-1.78.87-2.2,2.45-2.18,4.23.07,6.28-.29,12.57.36,18.83.52,4.92,3,7.69,7.79,8.66a23.82,23.82,0,0,0,5.39.48c8.47-.3,11.83-3.34,12.44-11.82.39-5.41.19-10.86.24-16.3,0-1.66-.43-3.11-2.11-3.87-.79-.36-1.61-.82-1.43-1.83.23-1.27,1.34-.72,2.08-.74,1.93-.08,3.86-.06,5.79,0,.65,0,1.55-.35,1.83.63a1.35,1.35,0,0,1-1,1.7c-2.54,1-2.67,3.08-2.64,5.37,0,5.31.1,10.63-.06,16-.23,7.7-4.2,12.37-11.71,13.89a29.87,29.87,0,0,1-11.54,0c-6.53-1.24-9.92-4.83-10.58-11.5-.34-3.46-.06-7-.06-10.49Z"/><path class="cls-3" d="M178.69,235.26c1.43.16,1.64,1.23,2.09,2,3.14,5.61,8.1,7.25,14.13,6.45,3.76-.5,6.43-3.07,6.84-6.4.48-3.82-1.33-6.25-4.77-7.56-3.6-1.36-7.3-2.48-10.86-3.95-4.57-1.89-6.43-4.73-6.13-8.77s3.25-7.47,7.39-8.93c5.17-1.82,9.77.66,14.34,2.08,1.77.55.44,4,.67,6,.07.65.33,1.71-.5,1.91-1.55.36-1.47-1.13-1.88-2-2.23-5-5.93-7.08-10.58-6-2.6.58-4.45,1.93-4.9,4.64s1.25,4,3.19,5.16c2.93,1.78,6.26,2.47,9.44,3.59,7,2.49,9.85,6.66,8.77,13-1,6-5.57,9.62-12.52,9.72a68.69,68.69,0,0,1-7.55-.66c-1.2-.13-2.63-.82-3.55-.39-5.22,2.46-4.11-1.38-4-4C178.32,239.21,177.73,237.15,178.69,235.26Z"/><path class="cls-3" d="M228.24,208.18c5.19,0,10.41.32,15.56-.12,3.25-.28,4.09.69,3.57,3.59-.18,1,.6,2.36-.62,2.88-1.05.45-1.58-.78-2.24-1.45-3.55-3.59-8.09-2.37-12.34-2.44-1.21,0-1,1.2-1,2,0,9.05,0,18.1,0,27.16a3.37,3.37,0,0,0,2.63,3.43c.81.29,1.56.82,1.19,1.88s-1.2.6-1.87.61c-3.14,0-6.28,0-9.41,0-.78,0-1.84.31-2-.92-.13-.87.59-1.35,1.25-1.55,2.53-.76,2.71-2.68,2.7-4.87,0-8.33-.08-16.66,0-25,0-2.19-.56-3-2.83-2.86-4.17.23-8.54-.51-11.51,3.65-.64.91-1.75.92-1.79-.72a7.9,7.9,0,0,0,0-1.09c-.49-3.29.15-4.81,4.2-4.29C218.52,208.64,223.41,208.18,228.24,208.18Z"/><path class="cls-3" d="M166.88,245.7a8.77,8.77,0,0,1-1.45,0c-1.36-.23-3.28.83-4-.68s1.5-1.81,2.22-2.82a6.15,6.15,0,0,0,.82-3.81c0-7.72,0-15.45,0-23.17,0-1.91-.21-3.62-2.15-4.59a1.55,1.55,0,0,1-1.05-1.71c.21-1,1.12-.69,1.77-.7,2.77,0,5.55,0,8.32,0,.56,0,1.3-.2,1.55.53a1.38,1.38,0,0,1-.83,1.78c-2.27,1.09-2.34,3.07-2.33,5.21,0,7.61,0,15.21,0,22.81,0,1.89.12,3.64,2.12,4.6.67.33,1.26.91,1.06,1.71-.27,1.13-1.29.83-2.1.85C169.54,245.72,168.21,245.7,166.88,245.7Z"/><path class="cls-4" d="M246.47,117.29a27.16,27.16,0,0,0-.69,3.53c-.12,1.79-.86,2.42-2.72,2.48-5.59.18-5.42.32-3.81-5.26,2.34-8.07,4-16.35,8.77-23.55,2-3,4.56-5.32,6.59-8.17l0,0c.88.21,1.84-.46,2.88.4a8.63,8.63,0,0,0-2.14,4l0,0a3.51,3.51,0,0,0-1.26,2.87A57,57,0,0,0,246.47,117.29Z"/><path class="cls-4" d="M187.17,87.78c1.3,2.6,1,5,.21,7.87a29.13,29.13,0,0,0,3.78,23.89c.62,1,2.74,1.93,1.17,3.51-1.09,1.1-5.69-.12-6.41-1.47-.51-.94-1-1.91-1.46-2.87a.38.38,0,0,0-.16-.52,16.17,16.17,0,0,0-1.36-5.34c-.09-1.36-.18-2.72-.28-4.08s0-2.88,0-4.31c.71-5.33,1.82-10.64.15-16,0-.82.27-1.69-.7-2.18-.08-.47-.17-1-.26-1.43,0-.67-.87-1.33-.24-2s1.41.06,1.84.48c1.26,1.22,2.39,2.58,3.57,3.89A.37.37,0,0,0,187.17,87.78Z"/><path class="cls-5" d="M411.49,172.8a3.39,3.39,0,0,1-2.32.51v-1.45a.22.22,0,0,1,.38-.07l1.06-.31,2.63-.4,1-.33,2.1-.32c.85.1,1.71.21,2.28-.65l1.23-2.54c2.25,5.45,2.25,5.45-2.12,8.26q-3,2-6.05,4c-.18.11-.25.39-.63,1,2.63.55,5.11,1.11,7.61,1.57,5.08.94,5.08.92,5.66,6.86-2.94-2.73-5.86-1.1-8.72-.5s-6.2-.07-7.55,3.81c-1.21-2.26-1.15-4.55-1.75-7.11,4.39,2.72,8-.19,12-.63-2.93-1.57-6.22-1.73-9.3-2.6-1.18-.33-3.16.11-3.36-1.46s1.7-1.8,2.77-2.5c2.38-1.55,4.83-3,7.46-4.65-1.39-1-2.59-.46-3.69-.62A.71.71,0,0,0,411.49,172.8Zm6.58-.75a2.58,2.58,0,0,0-.2-.67c-.33,0-.76,0-1,.21a.43.43,0,0,0,.24.76C417.43,172.4,417.76,172.16,418.07,172.05Z"/><path class="cls-5" d="M269.59,7.73a43.63,43.63,0,0,1,10.7,3.67c4.48,2.45,5.92,6.55,4,11s-5.52,6-10.38,4.6c-3.07-.86-6.09-1.89-9.78-3.05C268.52,22.27,271.89,11.87,269.59,7.73Zm12.3,10A6.4,6.4,0,0,0,279,12.42c-3.24-2.11-4.87-1.56-6.08,2.09-.76,2.29-1.38,4.62-2.26,6.86s.15,3.35,2.14,4.05C277.22,27,281.84,23.18,281.89,17.77Z"/><path class="cls-5" d="M198.29.28c4.48-.19,8.29-.65,12.07.3,4.44,1.11,6.85,4.25,6.65,8.61s-2.8,7.49-7.37,8a103.66,103.66,0,0,1-10.43.07C202,14.15,201.72,3.57,198.29.28Zm5.44,8.47h.12c0,1.21,0,2.42,0,3.62.08,3.3,1.21,4.25,4.49,3.59,3.46-.7,5-3.18,5.31-6.45A6.92,6.92,0,0,0,209.29,2c-3.9-1.43-5.62-.22-5.56,3.88C203.74,6.82,203.73,7.79,203.73,8.75Z"/><path class="cls-5" d="M61,64.17c1.71-1.9,3.77-2.62,6.14-1.46,1.9.93,2.18,2.39,1.67,6.8,3.06.63,6.1,1.37,9.7.39-1.35,2.95-3,4-5.79,3.19-1.27-.37-2.64-.36-3.9-.76-1.64-.51-3-.59-4.15,1-.41.58-1.07,1.18-.23,1.81,1.54,1.14,2.28,3.61,4.87,3.06.43-.09.78-.61,1.67.15l-5.6,5.9c1.37-4.83-1.89-6.18-4-8S58,70.47,53.54,72.39c1.18-2.58,3.11-3.94,4.79-5.52l.67.81c-1.16,2.89,1.4,3.93,3,5s2.24-1.12,3.14-2c1.24-1.3,2.52-2.72,1.35-4.73s-2.75-1.49-4.39-.83Z"/><path class="cls-5" d="M141,31a28.23,28.23,0,0,1-3.1.92c-1.27.22-1.4,0-1.88-1.66-1.33-4.66-1.57-10.22-7-13.12a33.76,33.76,0,0,1,11.05-3.94,7.83,7.83,0,0,1,8.32,3.85c2.19,3.65,1.76,7-1.3,10.94a2.7,2.7,0,0,1-2.74-.09c2.76-3,2.86-6.27.89-9.65a6.23,6.23,0,0,0-7.11-3.11c-2.7.52-4.25,1.67-2.76,4.74.89,1.84,1.46,3.84,2.26,5.73s.81,4.38,4,4.28C142.26,29.89,141.07,30.53,141,31Z"/><path class="cls-5" d="M375.41,341a10,10,0,0,1-4.45,5.27c-.27-3-2.92-3.69-4.84-3s-4.12,2.74-3.86,5.11c.24,2.19,1.76,4.26,5.08,3.11l-4.63,5.42c.32-3.83-2-6.34-3.41-9.15-1.18-2.37-2.47-4.68-3.66-7-.5-1-1.49-1.94-.44-3.27,1.19-1.5,2.39-.56,3.58-.18,3.55,1.14,7.08,2.36,10.62,3.52C371.32,341.42,373.23,342.36,375.41,341Zm-18.22-1.07c1.48,2.64,2.51,4.5,3.88,6.94.88-1.95,3.39-3,2.64-4.34C362.72,340.78,360.06,340.77,357.19,339.94Z"/><path class="cls-4" d="M246.62,89.24a5.14,5.14,0,0,1-.27,1.75,31.77,31.77,0,0,1-3.52,5.2c.13-5.38-5.9-9.78-2.09-15.68A29.52,29.52,0,0,1,247.31,72c.75-.66,1.56-1.41,2.51-.91,1.41.75.07,1.63-.17,2.39C248,78.63,245.59,83.6,246.62,89.24Z"/><path class="cls-3" d="M414.61,275.37a6.4,6.4,0,0,1-6.22,6.61,6.5,6.5,0,0,1-6.57-6.28,6.42,6.42,0,0,1,6.25-6.58A6.33,6.33,0,0,1,414.61,275.37Z"/><path class="cls-3" d="M9.27,291.69a6.4,6.4,0,0,1-6.5-6.3,6.47,6.47,0,0,1,6.35-6.51,6.5,6.5,0,0,1,6.5,6.36A6.36,6.36,0,0,1,9.27,291.69Z"/><path class="cls-5" d="M407.49,217.39c0-5.58,3.55-9.25,8.87-9.21a8.47,8.47,0,0,1,8.84,8.89c0,5.16-3.79,9.22-8.62,9.27C411.11,226.4,407.48,222.81,407.49,217.39Zm8.68-6.11c-4.39-.06-7.13,2.18-7.16,5.86,0,3.52,2.9,6.05,7.07,6.11s7.6-2.76,7.53-6.16S420.35,211.34,416.17,211.28Z"/><path class="cls-5" d="M111.43,396c4.09.28,4.24-2.3,3.85-4.21-.52-2.56-3.43-3.29-5.45-3.47-2.78-.25-3.38,2.35-3.25,5.06l-5.77-3.65c6.18-1.26,9.72-5.94,14.4-8.83,1.24-.77,2.2-2.55,4.08-1.41s.64,2.62.45,3.93c-.64,4.54-1.53,9-2,13.6-.23,2.1-.68,2.71-2.54,1.45C114.2,397.84,113.2,397.2,111.43,396Zm-.79-9.34c2.27.75,3.29,2.24,5.2,2.31.29-2.19,1.2-4.2.75-6.88Z"/><path class="cls-5" d="M257.83,415.07c-2.73,1.93-5,1.33-7.31,1.38,1.24-2.55-.16-4.81-1.94-5.2-2-.44-4.94-.67-6.38,1.85-1.18,2-.49,3.34,2.4,5a19.83,19.83,0,0,1-7.42,1.27c2.9-2.47,2.55-5.94,3.3-9,.67-2.69,1.15-5.42,1.67-8.15.21-1.06.2-2.15,1.66-2.43s1.94.64,2.53,1.56c2,3.16,4,6.32,6,9.46C253.58,412.7,254.51,414.89,257.83,415.07Zm-14.1-11.48c-.36,1.85-.7,3.6-1,5.34-.15.75-.28,1.62.84,1.46,1.29-.18,2.89-.27,3.7-1.06s-.53-1.91-1.07-2.78S245.15,404.33,243.73,403.59Z"/><path class="cls-5" d="M7.94,175.63l1.71.32,2.64.32a8.12,8.12,0,0,1,3.71.55l.81.09c.93.71,3.47-.18,2.44,2.47l.07.05c-4.13,3-9.36,4-13.55,7.19,4.31-.14,8.54,3.31,12.91-.11a10.2,10.2,0,0,1-.81,6c-2.26-3.36-12.8-5-16.29-2.53-.67-3.58.31-5.93,4-7.16,3.21-1.08,6.25-2.7,9.55-4.17-1.43-1.24-3-.62-4.32-1.19l-1-.26L7.94,177Z"/><path class="cls-5" d="M185,18.26c-1.74,1.87-3.62,1.24-5.19,1.72-1.21.37-.8-.8-.92-1.75-.23-1.88-.71-4.25-3.69-3.74-2.28.39-5,0-4.93,3.72,0,1.74,1.27,1.9,2.88,2.53-2.69,1.24-4.9,1.22-7.45,1.58,3.69-4.58,3.28-10,4.77-14.85.42-1.39,0-3.43,2.16-3.69,1.95-.23,2.15,1.7,2.88,2.81,1.86,2.82,3.57,5.74,5.33,8.63C181.75,16.69,182.67,18.1,185,18.26ZM172.86,7.42c-.67,2.26-2.59,4.37-1.19,6,.8,1,2.78-.17,4.4-.75Z"/><path class="cls-5" d="M398.18,111.77c-.9-.47-1.47-1.87-2.75-1.18s-1.3,1.94-1.09,3.18c.36,2.14.82,4.27,1.11,6.42.24,1.89-.13,3.6-1.94,4.72a5,5,0,0,1-5.46-.16c-1.78-1-6.12-8.07-5.45-9.4a9.9,9.9,0,0,1,4-3.93c.81,1.62-.4,2.51-.68,3.59a7.37,7.37,0,0,0,.87,6.24c1,1.54,2.48,2.45,4.32,1.84s1.39-2.33,1.23-3.72a34.18,34.18,0,0,0-.86-4.62c-.53-2.08-1-4.5,1-5.59a4.83,4.83,0,0,1,6.46,1.27A1.29,1.29,0,0,1,398.18,111.77Z"/><path class="cls-5" d="M335.19,38.71,341,43.2c-3-.59-3.77,1.69-5,3.25s-2.69,3.4-4,5.11c-2.19,2.84-1.75,4.27,1.73,5.3a11.38,11.38,0,0,0,3.2.33,22.9,22.9,0,0,0,2.93-.38c-2.63,3.73-4.25,4-7.37,1.62-2.43-1.9-4.84-3.84-7.43-5.91C329.44,51.42,335.8,43.09,335.19,38.71Z"/><path class="cls-3" d="M181.88,407.17c-.66.82-1.65,1.47-.8,2.79,2,3.17,2.8,7.15,6.75,9.82-3.52.21-6.12-.8-9.08-1.31,2.81-2.14,1.68-6.23-1.73-7.72l-.06-1.62c-.86-3.89-2.45-7.36-6.08-10.06,3.07-.5,5.61.31,8.42,1.15-3.89,2.18-.33,4.06-.12,6C179.72,407.61,180.93,407,181.88,407.17Z"/><path class="cls-5" d="M311.06,25.43c-3.32-1.26-4.12,1.19-5.09,3.43-.64,1.47.65,1.84,1.41,1.9,5.82.5,2.08,3,1,5.1-.23-2.27-1.67-4.95-3.33-4.12-2.29,1.15-3.35,4.19-2.44,7.51l-6.48-3.37c4.67-.26,4.91-3.78,6.2-6.29s3.91-4.85,1.42-8.64c3.34.87,5.68,2.43,8.11,3.79Z"/><path class="cls-6" d="M219.13,46.44c0,3.27-1.78,5.07-4.82,5-2.5-.09-5.18-2.73-5.12-5.06a5.53,5.53,0,0,1,5.21-5C217.38,41.33,219.16,43.23,219.13,46.44Z"/><path class="cls-5" d="M412.47,145.23c-3.76,1.2-7.52,2.46-11.31,3.59-1.67.49-2.13,1.7-2.2,3.75-1.85-2.45-2-4.92-2.82-7.33A4,4,0,0,0,401,146a84.86,84.86,0,0,1,8.18-2.81c2.73-.79,2.61-2.13.85-3.74a40.57,40.57,0,0,0-3.79-2.74c3.38-1.35,5.39-.52,6,3,.29,1.52.86,3,1.3,4.47Z"/><path class="cls-4" d="M195,76.26a4.71,4.71,0,0,0,.28.65c3.77,6.49,3.77,6.49-3.61,8.51-.11-.91-.21-1.83-.31-2.74-.47-2.65-1-5.3-2.6-7.55a.29.29,0,0,0-.17-.44c0-1.78-1.85-2.91-1.72-5L190,71.13l2.73,2.25a2.13,2.13,0,0,0,1.46,1.7Z"/><path class="cls-3" d="M96.47,53.7c.65-4.39-.4-5.28-4.52-3.84A57.67,57.67,0,0,1,85.84,52,4,4,0,0,1,81,47.09c.17-.67.3-1.48,1.24-1.52,1.11,0,.9.76.94,1.48.12,2.09,1.54,2.23,3.08,1.78S89.45,47.7,91,47.11c2.54-1,5.15-1.92,7.17.87s.67,5-1.14,7.08Z"/><path class="cls-3" d="M15.66,133c1.33-3.88,2.07-6.09,6.05-4.67,2.95,1.06,6.43.64,10.29.93-2.31-2.63-4.26-4.83-6.2-7-.37-.42-1-.92-.27-1.45s.92,0,1.38.52c2.39,2.54,4.87,5,7.32,7.47.57.59,1.43,1.08,1.11,2.09-.38,1.19-1.42,1.09-2.4,1.05L21,131.3A6.24,6.24,0,0,0,15.66,133Z"/><path class="cls-5" d="M303.26,381.67a12.88,12.88,0,0,0,.57,5.32c2.66,6.45,7.73,7.76,13.18,3.33.64.23.66.79.7,1.34-6.7,6.11-15.23,4.22-17.06-3.81a8.77,8.77,0,0,1,1.82-7.71C303.17,380.42,303.14,381.09,303.26,381.67Z"/><path class="cls-5" d="M17.8,215.43a5.32,5.32,0,0,1,0,3.69l-.33.91c-.57,3-2.55,4.17-5.4,4.24-2.29,0-4.58.11-6.87.08-1.82,0-3.52,0-4.66,2v-7.84c1.15,3.29,3,3.24,5,3.06,1.56-.14,3.13-.11,4.7-.15,5.69-.14,6.87-1.66,5.78-7.47l1.33,0h0Z"/><path class="cls-5" d="M10,148.45c2,3.93,12.26,7,16.36,5.08L24.48,160c-2.52-3.56-12.71-6.37-16.2-4.45C8.19,153.17,9.19,151.2,10,148.45Z"/><path class="cls-5" d="M368.32,94.84c4.52.64,13.13-5.69,13.72-9.42,2.25,1.69,2.35,1.81,4,5.08-3.94-.35-12.5,5.85-13.4,10.14C371.18,98.7,369.94,97,368.32,94.84Z"/><path class="cls-5" d="M112.08,25.42c-.77,4.27,4.37,13.55,8.49,14.78l-5.93,3.27c.53-4.44-4.56-13.37-8.44-14.62A20.09,20.09,0,0,1,112.08,25.42Z"/><path class="cls-5" d="M54.34,351.17c.36-.85.89-.53,1.42-.21,3.43,2.11,6.52,1.21,9.21-1.31s4.19-5.44,2.19-9c-.92-1.63.42-1.09,1-1.34,3.25,4.71,2.89,9.62-1,12.91-4,3.41-8.75,3.48-12.44.19C54.4,352.05,54.09,351.71,54.34,351.17Z"/><path class="cls-5" d="M66.23,337.35a1.3,1.3,0,0,1-1.38.9c-9.09.12-11.76,2.85-11.23,11.47-1,.84-1.17-.18-1.47-.69a9.1,9.1,0,0,1,2-11.19C57.28,334.93,62.93,333.82,66.23,337.35Z"/><path class="cls-5" d="M49,104.41c-.48,2-.48,2-3.18,5.4.42-4.33-2.93-5.3-5.32-6.87s-4-5-8.18-2.61c.83-2.83,2.46-4.39,3.88-6.07l.82.82c-.41,2.8,2.42,3,3.62,4.54.58.73,1.4.41,2.13.47,1.13,2.56,3.33,3.69,5.87,4.37l.19,0Z"/><path class="cls-3" d="M145.8,339.55c0-1.32,0-2.64,0-3.95,0-.91.59-2.2,1.24-1.69,2.27,1.75,3.54-1.18,5.39-.83,1,2.09.57,4.63,2.09,6.55-1.79,3.66-3.89,4-6.06.7-.88-1.34-1.72-.81-2.69-.8Z"/><path class="cls-2" d="M216,68.44c0,1.93,0,3.85,0,5.78,0,.88-.17,1.71-1.32,1.76s-1.42-.73-1.44-1.64q-.14-6.12-.2-12.26c0-.87,0-1.79,1.26-1.72A1.6,1.6,0,0,1,216,62c.06,2.17,0,4.33,0,6.49Z"/><path class="cls-2" d="M228.51,86.09c-1.34,2.35-2.52,4.55,1.05,5.79a1.72,1.72,0,0,1,1.07,2.35c-.42,1.28-1.57,1.32-2.67,1.13-2.7-.47-3.45-2.34-3.27-4.76S225,85.93,228.51,86.09Z"/><path class="cls-3" d="M156.13,336.26c.41-3,.8-6,1.24-9,.15-1,.5-2.17,1.77-1.72,1.47.52,0,1.34-.1,2-.72,4.36-1.81,8.73-.39,13.11.46,1.39-.53.93-1,1.08-1,.34-1.67.06-1.6-1.15l.21-4.35Z"/><path class="cls-7" d="M17.36,214,16,214a4.77,4.77,0,0,0-4.65-2.15,52.56,52.56,0,0,1-6.52.06c-2-.11-3.52.29-4.19,2.61a9.48,9.48,0,0,1-.21-6.44c.93,2.46,2.77,2.38,4.7,2.28,2.29-.12,4.6,0,6.89-.11C14.79,210.16,16.74,211.14,17.36,214Z"/><path class="cls-3" d="M165.13,363.36l-4.88-.58,1-1c3.07,1.53,2.27-1.12,2.13-2.24-.29-2.35.22-3.22,2.82-3.22s3.24,1.31,3,3.31c-.16,1.29,1.72,3.56-1.41,3.79-.88-1.47,0-3-.26-4.55-.13-.63-.27-1.21-1-1.22a1.07,1.07,0,0,0-1.11,1.14C165.26,360.3,165.21,361.83,165.13,363.36Z"/><path class="cls-3" d="M190.72,359.31c.8-.65-1.88-3,1.65-2.89,2.65.06,4.18.29,4.16,3.24,0,.84.12,1.68.14,2.51s-.41,1.07-1.12,1-1.18-.23-1-1.06a7.81,7.81,0,0,0,.26-1.77c-.05-1,.5-2.58-1-2.64-1.75-.08-1.16,1.67-1.43,2.74-.22.92,1.4,2.74-.92,2.65-1.88-.08-.43-1.7-.72-2.57A4.53,4.53,0,0,1,190.72,359.31Z"/><path class="cls-3" d="M218.16,361.29c1.48,1.48,2.06.53,2.23-.93a13.79,13.79,0,0,0-.14-2.86c-.05-.51-.12-1,.53-1.09s1.11.06,1.16.55c.22,1.9.73,3.91.32,5.69s-2.24,0-3.47.58-2-.53-2.22-1.77-.24-2.63-.35-3.94v-.92c.76-.38,1.44-.53,1.65.6a1.91,1.91,0,0,0,.24,1.89l0,1.52c-.06.07-.19.17-.18.22A4.25,4.25,0,0,0,218.16,361.29Z"/><path class="cls-8" d="M303.26,381.67c-.12-.58-.09-1.25-.79-1.53,1.33-2.47,3.92-2.67,6.14-3.74,4.22-2,5,1.19,6.75,3.63C311,378.45,306.49,375.93,303.26,381.67Z"/><path class="cls-3" d="M264.13,338.2c.16,2.46,1,3.64,3.19,1.48.77-.76,2.67.48,2.55-1.57l0,0c-1.77,2.82-3.4,5.74-7.29,2.31-.71-.62-1.39,1.89-2.86,1.26L259,340.2c2.45,1.08,3-.74,3.49-2.4s.29-3.42,2.28-4.12C264.56,335.19,264.35,336.69,264.13,338.2Z"/><path class="cls-3" d="M288.59,363c-.89.87-1.79-.41-2.7.08a1.85,1.85,0,0,1-2.89-1,2.21,2.21,0,0,1,1.24-2.77c2,0,1.14-3.07,2.69-2.44s1.07,2.69,1.24,4.18C288.24,361.75,289.07,362.26,288.59,363Z"/><path class="cls-7" d="M96.47,53.7l.59,1.36c-1,3.07-4.54,2.92-6.62,4.76-.86.77-3.1-1.82-4.69-3.49C89.89,57.12,93.73,57.4,96.47,53.7Z"/><path class="cls-3" d="M206,341c-4.84.51-4.84.51-5.09-5-.13-2.68-.13-2.68,1.17-4.62,3.17,2.78-1.39,6.14.93,9,2-.1,2.12-2,2.81-3.39Z"/><path class="cls-8" d="M181.88,407.17c-.95-.17-2.16.44-2.7-.92,3.32-.11,5-2.35,3.69-5.26A13.37,13.37,0,0,1,190,402.6C186.56,403,184.62,405.74,181.88,407.17Z"/><path class="cls-7" d="M49,104.41l-.17.07-.19,0A12.84,12.84,0,0,0,51.28,92.9c4,3.54,4.06,6,.17,9.07C50.5,102.73,49.83,103.65,49,104.41Z"/><path class="cls-3" d="M117.78,362.75c-2.85,1.44-3-.63-3.15-2.51s.19-4.65-2.46-1.1c-.34.46-1.44,0-1.92.76l0-1.24c.85,0,1.15-.73,1.61-1.29,1-1.2,2.47-1.11,3.66-.86,1.4.3.74,1.8.88,2.79.16,1.21-.47,2.91,1.81,2.64Z"/><path class="cls-3" d="M225.85,363.53c-1.71-.62-2.27-2.14-2.31-3.8a3.32,3.32,0,0,1,1.93-3.2,2.07,2.07,0,0,1,3.05.9c.68,1.37-.06,1.77-1.45,1.94C223.49,359.8,227.53,362.34,225.85,363.53Z"/><path class="cls-3" d="M175.56,362.83c-2.23,1.06-4,.65-4.83-1.79-.72-2.23,0-4.26,2.44-4.65,2.92-.46,1-2.64,1.76-3.82,2.33,1.68,1.54,3.32-.08,4.95-2.42-.33-2.39,1.33-2.25,2.92.16,1.86,1.36,1.93,2.79,1.39Z"/><path class="cls-7" d="M37,95.08l-.82-.82a32.65,32.65,0,0,0,2.31-3.59c1.76-3.7,4.28-2.7,8.05-1C41.78,90.1,38.85,91.8,37,95.08Z"/><path class="cls-3" d="M212.62,334.05c.69-.77.48-2.82,2.07-2.13.78.33,2,1.51.31,3.33-1,1.06-1.3,4.34.95,6.18-2.26.92-3,.09-3-2.19,0-1.75.78-3.57-.34-5.24Z"/><path class="cls-3" d="M308.42,363c-2.57.33-4.66.62-4.59-2.7a2.58,2.58,0,0,0-.15-.71c-.28-1.14-2.31-1.72-1.57-2.91,1.16-1.89,2.27,1.88,3.81.38.27-.26,1,.36.69.86C305.11,360.19,307.49,361.05,308.42,363Z"/><path class="cls-8" d="M398.18,111.77a1.29,1.29,0,0,0,.81-1.34c2.2,1.65,1.81,4.54,3.08,6.71.58,1-1.7,2.42-3.25,3.29C399.23,117.38,400,114.47,398.18,111.77Z"/><path class="cls-3" d="M251.84,360.59c-.35.91,1.14,2.47-.28,2.38-1.62-.11-3.51,1.48-4.93-.41-.32-.44-.59-1.56,0-1.47,3.56.59,1.77-4.14,3.91-4C252.07,357.14,251.51,359.4,251.84,360.59Z"/><path class="cls-3" d="M140,361.82c-2.16,2.32-5.1,1.35-7.59,1.34-1.61,0-2.28-1.89-.36-3.25,1.77,0,2.39,2.69,4.49,1.91l1.25.45c.06-2.07,2.45-1.15,3.12-2.43.47.05,1,.16,1,.72C141.76,361.66,140.43,361.11,140,361.82Z"/><path class="cls-3" d="M277.27,361.83c.66.27,1.29.83,2,.2a1.34,1.34,0,0,1,0,.66c-2.12.79-5.37.7-8.53-.12.4-2.61,3.25-3,4.47-4.86.92,1.13.16,2.48.49,3.69C276,362.38,276.39,363,277.27,361.83Z"/><path class="cls-3" d="M276.3,331c1.47,1.82,2.28,2.74,1,4.6-.78,1.12-.13,3.26,0,4.94,0,.49.78,1.06-.29,1.25-.63.12-1.45-.06-1.4-.73C275.77,337.89,274.59,334.62,276.3,331Z"/><path class="cls-3" d="M297.53,362.71c-1.19.52-2.43,1.3-3.45-.23a4.07,4.07,0,0,1-.68-4c.55-1.4,1.61-1.56,2.86-1.53.59,0,1.19,0,1.78,0l.57,2.24c-.87.11-2.15-.55-2.38.85s1.09,1.22,2,1.33Z"/><path class="cls-3" d="M180.45,358.21c-.51-2.18-.31-2.31,2.42-1.56.11,2.09-.67,4.25.54,6.24-1.49-.1-3.4,1.71-4.36-.74-.67-1.71.5-2.66,2-3.25.68,0,1.31-.43,1-1C181.42,356.9,180.9,357.73,180.45,358.21Z"/><path class="cls-3" d="M110.22,358.66l0,1.24c-.29,1.35,1,1.4,1.64,1.78,1.9,1,2.33,2.13.53,3.63.45-3.91-2.37-1.35-3.65-1.84l0,0c-.28-.55-.66-.56-1.12-.23-1.27-1.13.89-2.53-.37-3.84a1.6,1.6,0,0,1,.74-2.39C109.7,356.29,109.41,358.23,110.22,358.66Z"/><path class="cls-3" d="M201.07,363.75c-2.92-1.18-3.63-2.95-3-5.3.6-2.15,2.48-1.39,3.94-1.51.92-.08,1.23.58,1.45,1.29s-.16,1.08-.65,1C198.6,358.77,200.23,361.37,201.07,363.75Z"/><path class="cls-3" d="M216.21,356.6v.92c-2.34.15-1.66,3.77-4.22,3.69l-2.34.1C209.53,357.33,210.6,356.56,216.21,356.6Z"/><path class="cls-8" d="M42.73,100.09c-.73-.06-1.55.26-2.13-.47,2.9-1.18,2.53-3.22,1-5.94,2.69,1,4.35,2.58,6.85,4.55C45.7,97.92,44,98.48,42.73,100.09Z"/><path class="cls-8" d="M83.21,44.13c1.28-2,3.8-2.19,5.55-3.62.85-.69,2.75,1.07,4.19,2.9-3.43-.11-6.38-.33-8.8,1.61Z"/><path class="cls-3" d="M140.18,338.25a6,6,0,0,0,1.15-3c-1.33-1.24-1.22,1.51-2.25.5-.26-.24-.19-.9-.14-1.35.12-1.16.94-1.28,1.83-1s2.13-.55,3.38.52a9.35,9.35,0,0,0-2.08,7.11C140.07,341,141.39,338.75,140.18,338.25Z"/><path class="cls-5" d="M172.71,414.42c-.38,1.37,1.12,1.64,1.68,2.86-2.78.27-5.14-.65-8-1.31,1.64-1.66,3.65-1.38,5-2.36A1.27,1.27,0,0,1,172.71,414.42Z"/><path class="cls-7" d="M311.06,25.43l.84-.69c5.9,2.53,5.9,2.53,4.54,8.22C315.28,29.6,313.83,27,311.06,25.43Z"/><path class="cls-3" d="M221.36,338.14a6.92,6.92,0,0,1,1-1.87c.84-.84.19-3.3,2.07-2.64,1.29.46.33,2.36.42,3.6.07.83-.37,2,0,2.43,1,1.16.58,1.57-.55,1.94s-1.79,0-1.68-1.35c.05-.65.29-1.48-.76-1.68A1.25,1.25,0,0,0,221.36,338.14Z"/><path class="cls-3" d="M221.36,338.14a1.25,1.25,0,0,1,.51.43,1.84,1.84,0,0,1-.29.65c-.91.82-1.14,2.9-2.7,2.33-1.25-.45-.32-2.12-.48-3.23,0-.12,0-.29,0-.36,1.24-1.33-1.94-4.41,1.16-4.43,2.17,0,0,2.67.64,4A1,1,0,0,0,221.36,338.14Z"/><path class="cls-3" d="M259,357.39c-2.66.2-3.63,1.69-3.21,4.22.15.92.24,1.74-1.07,1.67s-1-1-.9-1.83a13.59,13.59,0,0,1,.08-1.44c.32-1.19-.89-3.31.34-3.41,1.43-.13,3.46-1.07,4.77.71Z"/><path class="cls-3" d="M124.73,362.78c3.33-1.29.54-4.2,1.88-6.3,1.12-.32,1.78,1.06,2.83,1.41-2.71.44,1.33,7.57-4.69,4.73Z"/><path class="cls-3" d="M235.11,336c-1,1.9-2,3.79-3.07,5.92-1.74-1.83.44-4.35-1.3-5.93l.06.06a1.88,1.88,0,0,1,1.58-2.61c1.13-.14.63,1.23.81,1.94.33,1.31,1.48.06,2,.68Z"/><path class="cls-7" d="M409.17,171.86v1.45c-1.65.75-4.26.36-3.28,4.56-2.19-3-1.86-5.21-2.28-7.5C405.14,172.56,407.22,172,409.17,171.86Z"/><path class="cls-3" d="M243.14,343.85c-1-3.17,1.92-6.43-.22-9.58a2.3,2.3,0,0,1,.63-.48c1.48-.68,1.54.93,2.3,1.43l-1.2,7.26-.23,1.31Z"/><path class="cls-3" d="M243.06,362.89c-1.53.57-3.06.92-4.28-.55a3.93,3.93,0,0,1-.6-4.06c.89-2.42,3-1.83,4.84-2l-.21,1.72c-.9-.37-1.85-.89-2.52.29a3.19,3.19,0,0,0,0,3.14c.62,1.2,1.6.67,2.5.34Z"/><path class="cls-7" d="M412.47,145.23l1.11-1c2.8,6,2.8,6-2,8.46C411.72,150.09,413.87,147.8,412.47,145.23Z"/><path class="cls-3" d="M297.53,362.71l.68-1.36h0c.39-.12.64-.33.41-.78v-1.4l-.57-2.24c.87-1.28.7-2.71.63-4.14,0-.55-.88-1.44.41-1.62s1.29.75,1.29,1.62c0,2.5-.18,5,.06,7.51S299.51,363.13,297.53,362.71Z"/><path class="cls-3" d="M166.61,333.47c1.42,2.3-.76,5,1,7.14a8.57,8.57,0,0,1-1.41,1c-.48.22-1.12,0-1-.56C165.52,338.55,163.2,335.66,166.61,333.47Z"/><path class="cls-3" d="M173.4,336c-.44-1.63.89-1.89,1.87-2.72,1.34,2.57-.27,5.2.87,7.54.38.78-.55.88-1.09,1-1,.2-1.23-.26-1.23-1.18,0-1.57,1.13-3.27-.47-4.68Z"/><path class="cls-3" d="M232.64,359.83c.07.7.09,1.43.23,2.13.2,1-.22,1.35-1.13,1.34s-1.29-.33-1.16-1.34a36,36,0,0,0,.13-3.6c0-.84-.79-2.11,1-2,1.36.07,1.48.93,1.17,2A12.53,12.53,0,0,0,232.64,359.83Z"/><path class="cls-3" d="M161.15,341.84c-.82-2.54.44-4.95-.41-7.23-.34-.92.45-.95.94-1.13.27-.1.88,0,.9.11.11.56.33,1.3.08,1.69C161.38,337.29,165.44,340.25,161.15,341.84Z"/><path class="cls-3" d="M149.26,356.81c1.81-.63,3.46-.88,4.93-.11.73.38,0,1.4-.48,1.84-1.37,1.37-1.51,4.14-4.1,4.25C148.93,360.59,154.19,359,149.26,356.81Z"/><path class="cls-5" d="M312.85,40c-2.89,4.72-5.48,1.21-8.08,0Z"/><path class="cls-3" d="M242.81,358l.21-1.72c-.06-1.31-.06-2.62-.22-3.92-.08-.66-.19-1.15.68-1.18.53,0,1,.16,1,.72.09,3.68.2,7.37.13,11,0,.48-1,.33-1.55,0-.1-.39-.19-.78-.29-1.17C242.79,360.46,242.8,359.21,242.81,358Z"/><path class="cls-3" d="M140,361.82c.45-.71,1.78-.16,1.9-1.26.05-.56-.52-.67-1-.72a12,12,0,0,0,.37-1.3c.08-.48.27-1.06-.55-1.13.66-.14,1.44-1,1.95-.3a6.68,6.68,0,0,1,1.14,5.66C143.24,364.23,141.23,362.58,140,361.82Z"/><path class="cls-3" d="M209.66,361.31l2.34-.1c1.16-.1,2,.65,2.85,1.22.6.39.93,1.43.29,1.87-2,1.4-3.81-.54-5.7-.88C208,363.16,209.13,362,209.66,361.31Z"/><path class="cls-3" d="M159.55,362.62c-1.51,2.2-3.07-.67-4.67,0-.32.13.07-.51.16-.75.8-2,2.68-2.75,4.47-3.56C159.78,359.73,158.18,361.19,159.55,362.62Z"/><path class="cls-8" d="M7.94,175.63V177c-1.79,0-3.63-.2-4.67,2.07-.7-2.35.16-4.27.62-6.44C4.73,174.48,6,175.56,7.94,175.63Z"/><path class="cls-3" d="M117.78,362.75l.4-.81a6.67,6.67,0,0,0,.29-4.23c-.15-.65,0-1.28.74-1.26.36,0,1,.46,1,.76.19,1.79.6,3.67.23,5.36S118.72,362.85,117.78,362.75Z"/><path class="cls-3" d="M124.73,362.78l0-.16c-1.59.95-2.81,1.13-2.25-1.35.37-1.63-1-4.64.56-4.63,2.3,0,.59,2.89,1.18,4.41C124.45,361.61,124.57,362.2,124.73,362.78Z"/><path class="cls-3" d="M279.29,362.69a1.34,1.34,0,0,0,0-.66c0-3.14.06-6.28-.06-9.42-.05-1.28,0-2,1.47-1.25l.19.76c0,1.75,0,3.5,0,5.25,0,.43,0,.86,0,1.29,0,.78,0,1.56,0,2.34s-.13,1.35-.19,2C280.17,363.16,279.65,363.24,279.29,362.69Z"/><path class="cls-3" d="M262,362.65c-1.34,1.41-2.82,1.15-3.33-.46s.16-3.32,2.54-3.06C263.73,359.81,262.12,361.4,262,362.65Z"/><path class="cls-3" d="M235.65,334.42c.14-.66.5-1.13,1.2-1.11s.93.65.83,1.29a16.11,16.11,0,0,0-.14,6.11c.2.92-.4,1-1,1.05-.84,0-.92-.59-.88-1.23.1-1.56.21-3.13.31-4.7C236.63,335.19,236.34,334.76,235.65,334.42Z"/><path class="cls-3" d="M180,340.94a1.43,1.43,0,0,1,.65,0,1.3,1.3,0,0,0,0,.62c-1.94.45-2.78-.17-3-2.3-.17-1.78,1.5-3.6-.16-5.41-.18-.2.88-1.69,1.95-1.53.75.12,1.05,1.54.88,1.67-2.23,1.78-.53,4.17-1.06,6.18C179.17,340.74,179.41,341,180,340.94Z"/><path class="cls-3" d="M269.87,338.11c1.13-1.09-1.16-2.33.42-3.63.79,2.19,4.76,2.69,3,6.36-1.28-1-1.14-3.44-3.48-2.76Z"/><path class="cls-3" d="M175.56,362.83l-.17-1c.17-1.48.74-3-.54-4.31,1.62-1.63,2.41-3.27.08-4.95-.15-.8-.08-1.39,1-1.42,1.24,0,1.3.78,1.29,1.67q0,3.4-.08,6.83c0,.37,0,.73,0,1.09C177.21,361.9,178.41,363.85,175.56,362.83Z"/><path class="cls-3" d="M264.13,338.2c.22-1.51.43-3,.65-4.52,1.62-1.29,2.61-.42,3.07,1.12.42,1.39,0,2.53-1.77,2.7A8.15,8.15,0,0,0,264.13,338.2Z"/><path class="cls-3" d="M259,340.2l.68,1.45c-2.08.06-2-1-1.82-2.7s1.55-3.75-1.05-4.85l0,.06c.21-.27.37-.65.64-.79.8-.38.55-2.25,1.84-1.59.86.44.62,1.66.17,2.52C258.5,336.21,259.34,338.25,259,340.2Z"/><path class="cls-3" d="M171.56,338.65c-.36,1.07-.12,2.41-1.6,3.2-1.13-2.51.52-5.22-.62-7.62,0,0,.75-.58,1.11-.54,1.66.17.74,1.34.76,2.15S171.44,337.71,171.56,338.65Z"/><path class="cls-3" d="M229.19,338.07a8.07,8.07,0,0,1-1.7,4.13c-1.11-2.94.13-5.46-.72-7.82-.24-.66.82-.87,1.28-.72,1.16.36.56,1.33.52,2.1S228.3,337.48,229.19,338.07Z"/><path class="cls-3" d="M256.85,334.16l0-.06c-1,1.72.28,3.74-.74,5.46-1.76.13-1.59-1-1.28-2.08.57-2-.18-3.15-2-3.76C254.27,332.54,255.45,334.39,256.85,334.16Z"/><path class="cls-3" d="M136.52,361.82c-2.1.78-2.72-1.91-4.49-1.91.58-.11,1.3,0,1.7-.37.81-.66-.29-3,1.49-2.54,1.51.37,1.1,2.38,1.23,3.76C136.48,361.11,136.5,361.46,136.52,361.82Z"/><path class="cls-3" d="M193.7,341c.5-1.41-.36-2.22-1.28-3.07s-1.94-1.88-.44-3.86c0,2.89,5.29,3.16,2.35,6.89A.81.81,0,0,0,193.7,341Z"/><path class="cls-3" d="M251.68,334.2c1.5.54.62,1.66.46,2.42a6.13,6.13,0,0,0,1,5.12c-1.5.56-2.31-.26-2.92-1.47l.16-4.24Z"/><path class="cls-7" d="M172.71,414.42a1.27,1.27,0,0,0-1.34-.81l5.59-4.48.06,1.62Z"/><path class="cls-3" d="M266.61,357.81c-.05,2.06,1.63,3.62,1.7,6.06C265.5,362.08,264.72,360.25,266.61,357.81Z"/><path class="cls-3" d="M140.18,338.25c1.21.5-.11,2.76,1.89,2.71,1.65.6,2.32-1.37,3.73-1.41l0,0c-.74,2.15-2.1,3.65-4.47,2.63C139.77,341.5,138.61,340.11,140.18,338.25Z"/><path class="cls-3" d="M212.62,334.05l0-.05c-1.39-.29-1.32.61-1.09,1.45a6.76,6.76,0,0,1-.38,4.17l-.83.1c-.86-1.67.8-4-1.3-5.31l.06-1.32C210.34,333.07,211,335.37,212.62,334.05Z"/><path class="cls-3" d="M262,362.65c.1-1.25,1.71-2.84-.79-3.52a1.32,1.32,0,0,0,.66-1.47l-.06-1.3a2,2,0,0,1,1.73,1.79l.26,1a9.39,9.39,0,0,0,.29,2.07C265.39,364.64,263.3,363,262,362.65Z"/><path class="cls-8" d="M317.71,391.66c0-.55-.06-1.11-.7-1.34.08-.22.09-.52.24-.66,1.14-1,.05-4.22,2.19-3.48,1.2.41-.21,3.15-1,4.72A3.49,3.49,0,0,1,317.71,391.66Z"/><path class="cls-3" d="M183.41,362.89c-1.21-2-.43-4.15-.54-6.24,2.36,1.54,1.07,4.24,1.9,6.28C184.87,363.18,183.89,363.46,183.41,362.89Z"/><path class="cls-3" d="M154.53,339.63c-1.52-1.92-1.09-4.46-2.09-6.55C156,334.34,155.18,337,154.53,339.63Z"/><path class="cls-3" d="M189.28,336.57c-.6-.06-1.46.92-1.77,0-.62-2-.5-2-2.58-1.38a2.68,2.68,0,0,1,3.56-2C190.26,333.73,189,335.41,189.28,336.57Z"/><path class="cls-3" d="M247.37,340.26c.69-1.94,1.92-3.87,0-5.8,1.88-1.28,2.11-1.16,2.58,1.38-.38,1.47-.75,2.94-1.13,4.41Z"/><path class="cls-3" d="M185,335.15c.51,1.77-.87,3.23-.85,5,0,1-2-.17-2.79.85A15.48,15.48,0,0,1,185,335.15Z"/><path class="cls-3" d="M159.55,362.62c-1.37-1.43.23-2.89,0-4.32-.15-.39-.49-1.06-.4-1.13a1,1,0,0,1,1.64.47,32.92,32.92,0,0,1,.47,4.11l-1,1C160,362.72,159.79,362.66,159.55,362.62Z"/><path class="cls-3" d="M206,341l-.18-4c-.14-1.45.76-2.36,1.68-3.27,0,.48.08,1,.13,1.44-.1.66-.19,1.32-.28,2a1.9,1.9,0,0,0,0,2.51c-.33.74,1.19,1.34.25,2A1.08,1.08,0,0,1,206,341Z"/><path class="cls-3" d="M309.28,359.91c.79-1.16-1-3.34,1-3.22,1.7.1.82,2.41.85,3.7,0,.83,1.1,2.65-.72,2.55C308.1,362.8,310.36,360.7,309.28,359.91Z"/><path class="cls-3" d="M193.7,341a.81.81,0,0,1,.63,0c-2.34,1.59-4.47,1.1-6.46-.68.72-.32,1.85.67,2.23-.7C191.9,338.52,191.84,342.19,193.7,341Z"/><path class="cls-3" d="M277.27,361.83c-.88,1.15-1.28.55-1.55-.43-.33-1.21.43-2.56-.49-3.69.8-1.75,1.48-.32,1.62.23A26.3,26.3,0,0,1,277.27,361.83Z"/><path class="cls-3" d="M108.77,363.47c1.28.49,4.1-2.07,3.65,1.84a1.18,1.18,0,0,1-1.51.26c-.45-.69-.9-.57-1.35,0-.68.2-1.26.17-1.53-.62C108.72,364.67,108.74,364.07,108.77,363.47Z"/><path class="cls-3" d="M24.4,118.23c.49.74,1.85,1.29,1.2,2.31s-1.67-.38-2.57-.19l-1.27-.57,1.41-3Z"/><path class="cls-3" d="M243.14,343.85l1.28-.06c-.23.95.63,2.22-.78,2.79a1,1,0,0,1-.93-.27A1.62,1.62,0,0,1,243.14,343.85Z"/><path class="cls-3" d="M261.83,356.36l.06,1.3c-.87-1.24-2.14,1.91-2.93-.27v-.08A2.06,2.06,0,0,1,261.83,356.36Z"/><path class="cls-3" d="M171.56,338.65c-.12-.94-.23-1.87-.35-2.81.68,1,1.48-.31,2.19.11l-.05-.05C172.75,336.81,172.16,337.73,171.56,338.65Z"/><path class="cls-3" d="M229.19,338.07c-.89-.59-.75-1.45-.62-2.31.6,1.33,1.54-.27,2.23.26l-.06-.06Z"/><path class="cls-3" d="M248.81,340.25c.38-1.47.75-2.94,1.13-4.41a.39.39,0,0,1,.47.19l-.15,4.24Z"/><path class="cls-8" d="M58.55,66.66a5.67,5.67,0,0,1,2.27-2.36L61,65.71l-1.18,1.1Z"/><path class="cls-7" d="M21.76,119.78l1.27.57c-.49.48-.93,1.55-1.58,1.19C20.64,121.11,21.24,120.32,21.76,119.78Z"/><path class="cls-7" d="M24.4,118.23l-1.23-1.45c0-.6.27-1.41.83-1.18C25.33,116.16,23.88,117.39,24.4,118.23Z"/><path class="cls-3" d="M207.64,335.2c0-.48-.09-1-.13-1.44.26-.82.88-.81,1.55-.67l-.06,1.32Z"/><path class="cls-3" d="M235.65,334.42c.69.34,1,.77.31,1.41l-.85.14.08.06C234.74,335.33,235,334.81,235.65,334.42Z"/><path class="cls-3" d="M210.3,339.72l.83-.1c0,.77-.26,1.36-1.16,1.33-.17,0-.34-.17-.51-.26Z"/><path class="cls-7" d="M418.62,169.78c-.57.86-1.43.75-2.28.65Z"/><path class="cls-3" d="M207.37,339.69a1.9,1.9,0,0,1,0-2.51C207.36,338,207.37,338.86,207.37,339.69Z"/><polygon class="cls-3" points="216.87 339.43 216.73 339.56 216.75 339.43 216.87 339.43"/><path class="cls-3" d="M280.7,363c.06-.68.13-1.36.19-2C280.93,361.68,282.41,362.5,280.7,363Z"/><path class="cls-8" d="M12.29,176.27,9.65,176A4,4,0,0,1,12.29,176.27Z"/><path class="cls-5" d="M53.61,349.71c1.2,0,1.7.37.74,1.47C53.28,351.1,52.87,350.7,53.61,349.71Z"/><path class="cls-3" d="M308.17,356.51c0,.06,0,.17.06.17a.82.82,0,0,0,.27,0c0-.06,0-.16-.06-.17A1.27,1.27,0,0,0,308.17,356.51Z"/><path class="cls-3" d="M218.1,359.09a1.91,1.91,0,0,1-.24-1.89A1.78,1.78,0,0,1,218.1,359.09Z"/><path class="cls-3" d="M108.77,363.47c0,.6,0,1.2-.74,1.48-.11-.57-.21-1.13-.31-1.69l1.09.24Z"/><path class="cls-3" d="M109.56,365.57c.45-.57.9-.69,1.35,0Z"/><path class="cls-7" d="M17.8,215.43,17.36,214Z"/><path class="cls-5" d="M58.55,66.66l1.27.15-.82.87-.67-.81Z"/><path class="cls-3" d="M263.82,359.16l-.26-1C263.65,358.48,263.73,358.82,263.82,359.16Z"/><path class="cls-5" d="M61,65.71l-.18-1.41.13-.13,1.1.86Z"/><path class="cls-7" d="M410.61,171.48l-1.06.31Z"/><path class="cls-7" d="M414.24,170.75l-1,.33Z"/><path class="cls-3" d="M177.09,360.74c0-.36,0-.72,0-1.09A.75.75,0,0,1,177.09,360.74Z"/><path class="cls-3" d="M218.16,361.29a4.25,4.25,0,0,1-.27-.46c0-.05.12-.15.18-.22A.65.65,0,0,1,218.16,361.29Z"/><path class="cls-3" d="M83.21,44.13l.94.89C83.14,45.45,82.85,45.13,83.21,44.13Z"/><path class="cls-3" d="M180.57,341.6a1.3,1.3,0,0,1,0-.62l.74,0a4.18,4.18,0,0,1-.09.71l-.35,0Z"/><path class="cls-3" d="M108.81,363.5l-1.09-.24h0C108.15,362.94,108.53,363,108.81,363.5Z"/><path class="cls-3" d="M180,340.94c-.55.06-.79-.2-.75-.73Z"/><polygon class="cls-5" points="19.25 179.38 19.41 179.33 19.32 179.43 19.25 179.38"/><path class="cls-7" d="M17.45,220l.33-.91Z"/><path class="cls-8" d="M9.79,177.17l1,.26Z"/><path class="cls-8" d="M16.81,176.91l-.81-.09Z"/><path class="cls-3" d="M280.9,352.12l-.19-.76a2.79,2.79,0,0,1,.32.47C281.06,351.9,281,352,280.9,352.12Z"/><path class="cls-7" d="M411.49,172.8a.71.71,0,0,1,.66-.12Z"/><path class="cls-3" d="M280.87,358.66c0-.43,0-.86,0-1.29C280.88,357.8,280.88,358.23,280.87,358.66Z"/><path class="cls-6" d="M226.14,147.19l-8.52,6.67-1.44-.11c-5.2-.67-10.59-.79-14.58-5-.65-1.28-1.27-2.59-2.89-2.89l-.67-.4c3.19-3.59.7-6.73-.79-10,1.27-6.23,4.74-11.09,10.83-12.64,5.64-1.44,11.57-1.19,16,3.88.53.6.87,1.83,2.12,1.63,1,2.43,1.95,4.85,2.93,7.27v3.56C227.52,141.65,227.41,144.64,226.14,147.19Z"/><path class="cls-2" d="M183.57,155.69l-1.49,0c-.26-.27-.5-.41-.64.1l.07.08a26.15,26.15,0,0,1-7.14-7.08c6.38-.15,12.77-.31,19.15-.42,1.16,0,2.47-.29,3.28,1l-.21.08,0,.22-.44.43-.67.78c-1.9.46-2.61,2-3.19,3.61l-.07.07C189.43,155.72,186.36,154.65,183.57,155.69Z"/><path class="cls-2" d="M184.42,144.49l-13.39.75c-4.18-3-4.19-3.84.29-5.9,2.56-1.18,5.4-1.55,7.54.75C180.52,141.88,183.13,142.34,184.42,144.49Z"/><path class="cls-9" d="M188.93,126.54a17.69,17.69,0,0,1,2.51-.14c1.83.12,4.48-1,5.28.57.65,1.25-1.12,3.38-2.15,4.95C192.3,130.54,190.89,128.25,188.93,126.54Z"/><path class="cls-2" d="M230.53,129.84c-1.44-2.28-1.83-3.5,1.89-3.31,7.55.38,15.12.28,22.68.29,2.2,0,4.14.07,4.47,2.88.31,2.65-.91,4.07-3.47,4.47l-15.27.11H237.2l-4.94-.34A6.39,6.39,0,0,0,230.53,129.84Z"/><path class="cls-4" d="M218.12,106.37c2.55.16,5.65.8,7.24,4.34s-.45,6.8-1.36,10.08c-.29,1-1.4.62-2.16.18a17.56,17.56,0,0,0-9.78-2c-2,.1-2.78-.81-3.06-2.67C208.18,110.74,211.78,106.4,218.12,106.37Z"/><path class="cls-2" d="M232.9,137.91c7.83,0,15.66,0,23.48-.16,2.82-.06,4.06,1.16,4.05,3.77s-1.31,3.78-4.11,3.67c-8.06-.33-16.13-.44-24.19-.64l0-.18-.18,0,.12-2.13.15-1.34a2.45,2.45,0,0,0,.23-2.17Z"/><path class="cls-2" d="M256.58,151.61c0,.48,0,1,0,1.44-1.51,1.4-3.3,1.62-5.29,1.56-4.09-.11-8.19-.06-12.29,0-1.14,0-2.46-.43-3.29.87-1.78.21-1.73-1.33-2.23-2.33-.14-1.54-1.19-2.25-2.49-2.74-1.86-1.91-.42-2.11,1.14-2.09,4.83.07,9.67.19,14.5.3,2.9.06,5.79.14,8.69.21C255.56,149.84,255,151.23,256.58,151.61Z"/><path class="cls-9" d="M231,150.4c1.3.49,2.35,1.2,2.49,2.74a77,77,0,0,0-17.31,12.57c-.05,0,0,.23,0,.35A11.25,11.25,0,0,1,206.12,163c-3-2.68-6.49-4.85-9.59-7.43a5.11,5.11,0,0,0-4.26-1.1c.58-1.63,1.29-3.15,3.19-3.61.94.93,1.76,2,3.18,2.28h0c.52,1.33,1.8,1.75,2.87,2.4l.61.46a21.71,21.71,0,0,0,5.31,4.22,3.89,3.89,0,0,0,2.09,1.6c3.35,2.93,5.21,2.64,9.54-1.49h0c3.74-2.56,7.49-5.1,11.21-7.68A1.86,1.86,0,0,0,231,150.4Z"/><path class="cls-9" d="M256.58,151.61c-1.63-.38-1-1.77-1.25-2.79l1.29,0C256.61,149.72,256.59,150.67,256.58,151.61Z"/><path class="cls-7" d="M418.07,172.05c-.31.11-.64.35-.93.3a.43.43,0,0,1-.24-.76c.21-.2.64-.19,1-.21A2.58,2.58,0,0,1,418.07,172.05Z"/><path class="cls-3" d="M180.45,358.21c.45-.48,1-1.31,1.55-.33.34.59-.29,1-1,1Z"/><path class="cls-3" d="M298.2,361.35l.41-.78C298.84,361,298.59,361.23,298.2,361.35Z"/><path class="cls-2" d="M192.27,154.48a5.11,5.11,0,0,1,4.26,1.1c3.1,2.58,6.57,4.75,9.59,7.43a11.25,11.25,0,0,0,10.11,3.05c1.76.33,3-.81,4.19-1.7,3.49-2.54,6.87-5.23,10.39-7.73.83-.58,1.54-2.21,3-1.07s-.49,2.08-.35,3.18a37.73,37.73,0,0,0-7.9,5.8l-.9.68,0-.06a5.87,5.87,0,0,0-2.88,2.22h0c-5.11,2.7-10.11,3-15-.54-4.55-3.34-9.15-6.6-13.73-9.89l-.81-2.39Z"/><path class="cls-9" d="M236.45,156l-.73-.56c.83-1.3,2.15-.86,3.29-.87,4.1,0,8.2-.1,12.29,0,2,.06,3.78-.16,5.29-1.56.66,2.51-.8,2.83-2.78,2.83C248,155.89,242.24,156,236.45,156Z"/><path class="cls-9" d="M192.2,154.55l.81,2.39c-2.9-2.26-6.35-.37-9.44-1.25C186.36,154.65,189.43,155.72,192.2,154.55Z"/><path class="cls-9" d="M181.44,155.81c.14-.51.38-.37.64-.1l-.3.19Z"/></g></g></svg>