<svg xmlns="http://www.w3.org/2000/svg" viewBox="0 0 425.2 528.67"><defs><style>.cls-1{fill:#2b2824;}.cls-2{fill:#199750;}.cls-3{fill:#f2e628;}.cls-4{fill:#2e87c8;}.cls-5{fill:#1e79bd;}.cls-6{fill:#368dca;}.cls-7{fill:#71675d;}.cls-8{fill:#e1491a;}.cls-9{fill:#dcd4d0;}.cls-10{fill:#8cc1dd;}.cls-11{fill:#9e9997;}.cls-12{fill:#f9f9f8;}.cls-13{fill:#f7f7f7;}.cls-14{fill:#f3f2f1;}.cls-15{fill:#fdfefe;}</style></defs><title>Recurso 1</title><g id="Capa_2" data-name="Capa 2"><g id="Layer_1" data-name="Layer 1"><path class="cls-1" d="M344.86,377.74c11.74-13.52,19.85-29.13,26-45.78,8-21.63,11-44.15,12.18-67.12,1.84-36.86-10.63-68.46-33.65-96.51-.36-.44-.67-.92-1.08-1.5,10.54-1.75,19.91,3.09,33.17,17.22,2.51-11,4.92-21.52,7.32-32,1.07-.35,1.42.36,1.82,1,17,26.91,30,55.39,34.1,87.34.63,4.93,1.28,9.67-3,13.42-1.52,1.34-1,3.07-.84,4.72,2.9,41.42-4.11,80.78-25.19,117-19.15,32.88-46.49,57.27-79.92,75-23.48,12.45-48.34,20.71-74.84,23.72-1.82.2-3.66.19-5.47.41s-3.6-.35-5.47.86c1.66,1.74,3.83,2.08,5.75,2.52a109.52,109.52,0,0,0,59.49-2.6,31.31,31.31,0,0,0,3.66-1.74c1.92-.46,3.37-1.45,4.69-4-2.2.69-3.63,1-4.71,2.12l-1.81.35-1.83.12c-3.31-2.65-.57-3.93,1.34-4.95,3.54-1.89,7.53-2.45,11.48-2.67a200.18,200.18,0,0,1,59.83,5.44c.45.1.88.26,1.32.39,9.91,2.89,9.91,2.89,9.91,13v37.36c-1.09.86-1.79.14-2.59-.22a154.82,154.82,0,0,0-61.43-14c-1.52,0-3,.19-4.57.19-4.59,0-6.88,1.75-6.21,6.83.59,4.4-2.75,6.86-5.89,9-4.23,2.95-9.22,4-14.19,4.7-19.17,2.67-38.09,1.13-56.29-5.38a20.72,20.72,0,0,0-15.37,0,115.27,115.27,0,0,1-59.87,4.67,27.14,27.14,0,0,1-11-4.28c-3.67-2.6-6.4-5.68-5.64-10.59.48-3.1-.88-4.22-3.9-4.63-11.37-1.56-22.5.15-33.55,2.39C86.86,512,75.19,515,64.39,520.47c-3,1.51-2.91.09-2.9-2.1,0-13.42.11-26.83-.06-40.24,0-3,1.37-4.4,3.81-5.43,7.49-3.2,15.44-4.63,23.41-5.82,16.17-2.41,32.39-3.75,48.7-1.49a56.78,56.78,0,0,1,7,1.86l.89.59,1.21,1.26c-.07.92-.14,1.84-.22,2.76l-2,.53-7.14-2.67a6.77,6.77,0,0,0,5.16,4.26c15.05,6.52,30.87,7.63,47,6.5,7.57-.53,15.11-1.47,23.22-5.45-7.36-.45-13.56-.76-19.75-1.22C98.26,466.9,31,406.36,9.87,319a204.06,204.06,0,0,1-5.45-58.43c.13-2.69,1.25-5.9-3.24-6.44-1-.12-.31-1.21.05-1.84L2.41,251c1.39-2.16,3.83-3.79,3.66-7.36a21.49,21.49,0,0,0-4.72,6.59l-1.11,0,.27-4.15.08-1.13c.13-1.44.27-2.88.4-4.32a1.68,1.68,0,0,0,.35-2.13c4-30.94,15.38-59.19,31.65-87,2.85,11.23,5.44,21.4,8.21,32.29C47,177.2,52.41,171.1,59.36,166.67a47.3,47.3,0,0,1,23.21-7.83c.05,1.92-1.34,2.78-2.25,3.8-20.95,23.54-34,50.59-36.74,82.25l-17.3-1.58c-5.34-.64-10.68-1.34-16-1.89-1.52-.16-3.87-1.1-3.34,2.14a5.69,5.69,0,0,0,3.91.43l15.5,1.09c5.7,1.52,11.6,1,17.38,1.78,3.4,1.12,1.79,3.84,1.59,5.79a174.45,174.45,0,0,0,5.78,68.22c7,23.86,18.6,45.2,35.82,63.32,1.4,1.83,2.72,3.74,5,4.65,1.82,3.22,5,5.09,7.59,7.49a85.65,85.65,0,0,0,18.42,13.19c1.44,2.28,4,2.81,6.18,3.9,5.54,3.22,11.09,6.41,17.32,8.15a20.47,20.47,0,0,0,8.4,3.51c2.73.93,5.43,2,8.19,2.78,26.5,7.83,53.56,9,80.85,6.25,14.83-1.51,29.37-4.7,43.16-10.65a34.31,34.31,0,0,0,9.62-4,142.56,142.56,0,0,0,34.2-21.76c2.11-2.05,5-3.32,6.29-6.2a39.35,39.35,0,0,0,8.27-8.28A14.57,14.57,0,0,0,344.86,377.74Zm-31.32,61.1,0,.05c.74,2.33,1.69,4.17,4.37,1.82,4.79-2.91,9.69-5.67,14.31-8.82,1.5-1,5.29-.91,3.58-4.45-1-2.16-2.43-5.65-4-5.82-5.63-.63-8.07-5.31-11.94-8.07-2.2-1.56-3.78-3.27-6.59-1-2.39,2-5.41,2.7-3.95,7.28,1.37,4.28,3.48,8.72,2.27,13.55-.68.25-1.81.89-2,.69-3.06-3.54-5.68-.63-8.42.48-1.63.65-2.51-.14-2.12-1.62a8,8,0,0,0-3.22-8.3c-3.58-2.39-6.37,2.31-9.76,3.34-1.11.34-3.75.64-2.55,2.78,1.42,2.54,1.74,5.84,4.73,7.45a5.08,5.08,0,0,1,2.65,4.52c-.43,3.43,1.87,5.57,2.88,8.29.61,1.63,1.59,1.87,3.19,1,4.55-2.43,9.16-4.75,13.79-7,1.71-.84,2.25-1.82,1.11-3.55-.65-1-1-2.17-1.59-3.2-.41-.69-.89-1.49-.16-2,1-.67,1.57.55,2.37.84l.23.92C312.68,438.63,313,438.81,313.54,438.84Zm-204,30.26c-.91-.83-1.83-1-2.75,0-2.46,2.29-.64,4,.9,5.58,1.08,1.07,2.65,1.67,3.23,3.41a50,50,0,0,0-16.16,3.81c-2,.94-3.25,2.45-2.63,4.7.67,2.46,2.74,2,4.52,1.54,1.41-.37,2.75-1,4.53-.33-1.69,2.25-6.46,2.79-4.87,6.25,1.81,3.94,5-1.41,7.57.05a37.45,37.45,0,0,0-2.1,4.51,2,2,0,0,0,1.32,2.55c.68.23,1.52.46,1.91-.55,1.44-3.68,5.7-4.16,7.93-7,1.12-1.43,3-2.27,4.83-.76-.5,3.45,1.54,4.4,4.32,3.86,4-.77,6.78-3.26,8.87-6.85,1.34-2.29,2.2-4.68.9-6.73a5.63,5.63,0,0,0-6.73-2.22c-1-3-1.83-6.1-2.9-9.1-.81-2.27-2.45-4.49-4.93-3.78-3.21.91-.12,3.24-.39,4.91,0,.25-.33.45-.58.77-2.52-.51-3.54-3.18-5.77-4.1l-1-.49Zm248.76-73.16c0,.58.28.9.91.76,3,3.28,7.24,2.31,9.6.51,3-2.26,6.12-5.37,6-10.09-.1-5.78-5-7.34-8.39-10.29,0-.76.09-1.52.13-2.28,1.78,1.12,3.59,2.2,5.34,3.37,3.79,2.53,8.22,2.22,10.93-.46s5.56-6.1,4.37-11.25c-1.3-5.63-6.26-6.08-9.74-8.66.63-.59,1.26-1.18,1.9-1.76,2.36-4.7,2.15-4.38,6.7-1.48,2.33,1.48,5.82,4.67,7.92,2.57,2.7-2.7,4.43-7.05,5-10.92.28-2-4.29-2-6.23-3.62-1.15-1-2.31,0-3.41-.2-1.8-.29-3.36-1-1.92-3.32.7-1.11.6-2.69,2-3.4a3.52,3.52,0,0,1,2.1,2.15c1.05,3.59,4.26,3.86,7.28,4.32s2.75-2.28,3.38-3.87c2-5.22,3.75-10.58,5.85-15.78.92-2.27.48-3.44-1.81-3.93-2.81-.6-5-2.19-8.63-.57-3.47,1.54-8.34.14-12.56-.26-2.54-.23-4.18.38-4.54,3s-3.76,4.94.06,7.56c1.6,1.09,4.05,1.93,3.42,4.77a2.67,2.67,0,0,1-2.07-.61c-2.72-2.29-4.52-2-5.94,1.63a127.83,127.83,0,0,1-6.52,13.93c-1.48,2.72-.93,4.11,1.76,5.07l-.13,1.75c-9.11,2.45-12,8.16-8.89,17.3-.07.45-.15.9-.22,1.35-6.6-1.37-10.41,2.05-13,7.57a2.7,2.7,0,0,0-.89,3.25c1.09,4,.2,5.47-4.44,5-4.4-.41-7.09,3.64-8.78,6.85a7.54,7.54,0,0,0,1.42,9.24,82.82,82.82,0,0,1,6.54,7,7,7,0,0,0,5.51,2.57,11.22,11.22,0,0,0,11.3-10.27c.42-3.86-2.06-5.75-4.35-8.52h3Zm-36.76,85.4c-4.36-1.22-6.87.59-6.66,4.8.19,3.78,4.76,9.49,8.42,10.33,3.11.7,5.79.4,6.28-3.6a2,2,0,0,1,2.85-.45c3.4,1.76,5.76,4.8,8.27,7.47,1.25,1.32,1.66,1.6,3.06.85,1.71-.92,2-2.1.92-3.68s-2.86-2.15-3.42-4c1.19-.47,2,.24,3,.59,2.06.74,4.65,3.53,6.35.58s-2-3.7-3.66-5.19c-.13-.12,0-.5-.05-.79l2.74-.15c2-.07,4.7,1.27,5.26-1.86.5-2.77-1.77-3.81-4-4.71-4.74-1.91-9.53-3.53-15.12-3.51,1.21-1.41,2.09-2.4,2.94-3.43,1.14-1.38,3.85-2.46,1.81-4.72-1.79-2-3.61-.47-5.59.52s-2.39,4.32-5.4,3.2c-.47-2,3.55-4.38.11-5.58-2.47-.85-4.19,1.82-5,4.3-.32,1-.6,2-.93,3.06C323,477.38,322.84,479.56,321.56,481.34ZM51,362.49c.45.8,1.83.42,2,1.58-.09,3.09-3.06,3.37-4.77,4.87a1.06,1.06,0,0,0-.78-.09c-1.29-1-2,0-2.83.79l-1,.66-.9.47-.69.5c-3.12.85-3.83,2.41-1.74,5.13a30.51,30.51,0,0,1,3.35,5.37c1.53,3.18,3.29,3.47,5.62.88l.68-.47a5.47,5.47,0,0,0,2.9-1.83c.56,0,.94-.2.76-.86.7-2.44,3.21-2.75,4.82-4.11.71.8,2.18.1,2.67,1.34,1,3-.49,5.33-2.15,7.62-1.43,2-2.55,4.19-4.14,6-2.36,2.72-1.74,4.71.26,7.48,2.17,3,4.18,2.68,6.93,1.48s5.71-2.08,8.51-3.26c2-.82,4-1.37,5.08.85s-1.34,3.92-2.7,4.32c-2.81.82-3.87,3.17-5.73,4.81-2.07,1.81-2.15,3.2.17,5A138.37,138.37,0,0,1,78,420.32c2.13,2.06,3.66,2.22,5.23-.4,1.35-2.26,4.73-3.47,4.27-6.47-.21-1.35-2-2.85.09-3.58A3.94,3.94,0,0,1,92.28,412c1.18,2.31-.84,4.3-2.08,4.8-3,1.22-3.46,4.06-5.17,6.05-1.58,1.84-1.12,3,1,4.23,4.6,2.68,9,5.68,13.6,8.38,1.23.72,2.79,3.09,4.18,1,1.56-2.34,4.92-4.64,3.48-7.65-1.17-2.44,0-2.45,1.24-3.62,5.31-4.85,6.08-12.65-1.09-16a31.29,31.29,0,0,1-8.78-5.67c-8.37-8.34-18.52-14.9-25.14-25l-.53-.64q-2.55-3.37-5.11-6.73h0a27.42,27.42,0,0,0-4.37-7.24l-.58-.83-1.78-3.29a1.83,1.83,0,0,0-2.22-.49c1-1.18.39-2.25-.22-3.34a136.27,136.27,0,0,1-14.16-38.77c-.56-2.66-1.79-2.9-4.2-2.27-5.63,1.47-10.17,5.69-16.15,6.25-.56.05-1,1-1.54,1.54-3.11,3.38-2.45,7.07-1.16,11,1.61,4.92,5.75,7.45,10.77,6.16,1.76-.45,3.55-.87,5.27-1.46s2.52.71,3.77,1.11c-1,.85-.62,2.63-2,3.27-1.11.51-2.36,1.64-3.29,1.42-3.22-.79-5.33,1.46-7.92,2.35-2.26.77-2.61,2-1.48,4.09,2.46,4.67,4.92,9.35,6.94,14.21,1.38,3.31,2.72,3.67,6,2.13C43.16,365.2,46.37,361.9,51,362.49Zm92.84,83.62a6.74,6.74,0,0,1,2.17-5.55,1.2,1.2,0,0,1,1.87.24,4.86,4.86,0,0,1-.3,6.29c-2.53,2.29-2,5.27-3.07,7.83-.71,1.73,0,2.81,2,3.2,3.44.67,6.83,1.56,10.24,2.33A8.29,8.29,0,0,0,167,454.18q1.22-5.12,2.28-10.25c.64-3.12-1.85-8.14-4.85-8.69-8.59-1.57-16.52-5-24.49-8.28-1-.43-2.14-.91-2.65.52-.94,2.67-3,5.1-2.64,8,.29,2.67-.65,4.29-2.49,6.14-2.32,2.33-4.82,7.19-3.41,8.55,2.83,2.74,7.52,3.57,11.47,5.12.23.09.93-.39,1-.72C142.17,451.8,144.11,449.29,143.83,446.11Zm74.62,8.39v-2.28c0-8.29-2.48-10.81-10.67-10.81-2.89,0-5.78,0-8.67,0-1.06,0-2.38-.05-2.31,1.47.13,2.83-.92,5.8.63,8.46a6.29,6.29,0,0,1,.09,6.32c-3,6.51-.83,10.16,5.92,10.18,2.13,0,4.26,0,6.39,0,5.12,0,8.58-3.58,8.62-8.81C218.46,457.54,218.45,456,218.45,454.5Zm36.28,4.36c-.73-5.05-.9-9.71-2.18-14a7.43,7.43,0,0,0-7.45-5.48c-4.08.17-8.13,1-12.19,1.59-1.22.17-2.83.27-2.31,2,.84,2.84-.13,6,2.14,8.65,1.31,1.52,1.45,3.74.64,6a10.85,10.85,0,0,0,1.07,9.16c1.14,1.83,4.22,0,6.43-.23a73.43,73.43,0,0,0,7.68-1.05C252.37,464.67,253.33,461.3,254.73,458.86Zm2.77-4c.23,1.26.47,2.16.54,3.06.35,4.19,2,5.8,6.45,4.2,3.54-1.27,7.44-1.49,11.11-2.44,1.42-.37,4.12.15,3.95-1.93-.27-3.35-.11-7.34-2.58-9.78-2.3-2.27-2.82-1.79-.88-4,.77-.85.41-1.67.22-2.55a35.75,35.75,0,0,1-1.09-5.35c-.18-2.92-1.79-3.06-4-2.55-4.74,1.07-9.47,2.19-14.25,3.05-2.53.46-2.79,1.46-2.69,4C254.46,445.74,260.6,449.46,257.5,454.87Zm-63.54,5c1.12-2.57-2.42-2.87-2.45-5.27,0-3.76-1.3-7.48-1.46-11.25-.18-4.29-3.45-3.39-5.84-4.05s-4.26-.83-5.53,2.09c-1.68,3.88-3.1,8.44-6.1,11s-3.14,5.21-3.86,8.25c-.52,2.17.07,3,2.24,3.28,5.11.7,10.18,1.62,15.27,2.39C193.53,467.46,193.62,467.36,194,459.9Zm-73.69-13.36c2.93-1.08,6.72-1,8.19-5.11a77.87,77.87,0,0,1,3.63-7.82c2.95-6,1.59-9.45-5.1-12.82-5.62-2.84-9.93-1.55-12.66,3.83-1.15,2.27-2.07,4.67-3.29,6.91C107.25,438.53,111.9,446.35,120.27,446.54Zm93.67,67.88c1-.11,2.57,1,2.83-1,.19-1.38.71-2.88-1-4.08-2.71-1.92-3.78-4,.21-6,1.64-.82,1.27-2.91.59-4.09-.88-1.52-3.11-1.2-4.07-.45-1.8,1.42-2.75,1.21-4.53-.08a3.77,3.77,0,0,0-5,.78c-.81,1.06-1.18,3.23.44,4,4.26,2,2.73,4.11,0,5.64-2,1.09-1.42,2.51-1.34,3.85.13,2,2,1.39,2.81,1a8.59,8.59,0,0,1,8.46.26C213.51,514.45,213.69,514.41,213.94,514.42Zm-52.05-22.5a7.94,7.94,0,0,0-8.26,7.87c-.23,4.47,3.14,8,7.88,8.21a8.25,8.25,0,0,0,8.74-7.94C170.46,495.41,167,492,161.89,491.92Zm98.47,2.93c-5,0-8.7,2.06-9.72,5.58-1,3.32-.39,6.45,2.39,8.72,3.19,2.61,6.75,2.47,10.31.75,1.76-.86,3.33-2.27,2.4-4.29s-2.68-2-4.45-.42a3.16,3.16,0,0,1-4.78-3.77c.5-1.14,2-1.83,2.53-1,1.42,2,3.28,2.05,4.61.83s1.06-3.85.66-5.53S261.62,495.17,260.36,494.85Zm-71.77,18c4.66.32,6.79-1.4,4.74-3.83-2.44-2.87-2.49-6.38-3.87-9.49-.63-1.42-.83-3.08-2.63-3.28-1.62-.19-2.16,1.31-2.93,2.46-2,2.95-2.89,6.55-6.15,8.83-1.11.77-2.13,4.14,1.75,4.41C182.53,512.17,185.56,512.55,188.59,512.86ZM232.35,514c3.19-.24,5.17-.55,7.13-.49,3.71.09,3.47-3.11,2.27-4.13-3.12-2.64-3.82-6.42-5.75-9.58-.79-1.3-1.59-2.29-3.1-2.25s-1.64,1.54-2.18,2.57c-1.63,3.15-1.71,6.92-4.67,9.61-1.81,1.63-.12,4.24,2.5,4.27C230.22,514,231.9,514,232.35,514Zm44.17-6.31c4.44-1,8.57-1.84,12.7-2.77,3.2-.73,1.5-3.82.92-4.13-3.75-2-5-5.9-7.46-8.84a3.33,3.33,0,0,0-3-1.55c-1.53.18-1.55,1.51-1.89,2.68-1.07,3.67-.84,7.67-3.36,11C273.71,505,273.93,507.85,276.52,507.69Z"/><path class="cls-2" d="M213.7,97.68c-.39.42-1.18.92-1.12,1.25,1,5.06-2.14,9.59-4.4,12.62s-.19,8.4-5.07,9.87c-.3.09-.17,1.71-.18,2.63-.05,2.8-.21,5.37-4,2.72a2.27,2.27,0,0,0-1.19-.34c-1.64,3.19-4.15,3.13-7.22,1.54,3.59-7,6.21-14.7,8.86-22.31a123.66,123.66,0,0,0,5.26-18.06c.16-.84.55-2.34-1-2.63a2.69,2.69,0,0,0-2.74.87c-2.45,2.57-4.94,5.36-8,7-5.89,3.24-10.34,8.1-15.49,12-3.21,2.45-7.54,4-10.54,7.3-.26.28-1,.56-1.14.45-3.4-4-4.14.83-5.93,1.87a12.75,12.75,0,0,0-2.21,2.3c-1.86,1.89-4.35,4.22-6.64,2.71-1.94-1.28.3-4,1-6,5.57-16.32,16.74-27.51,32-35a24.62,24.62,0,0,0,2.35-1.31c.22-.14.32-.49.47-.75s0-.74-.35-.56c-6.34,3.06-12.58-.18-18.84-.44s-12.4-1.82-18.54-.24c-.55-1.62.94-1.79,1-3-1.28-.74-2.84-.15-4.2-.51-1.08-.29-4.09,1.26-2.45-2.34.59-1.28-1.17-.9-1.87-.93-4.39-.2-8.73-1.14-13.16-.81a7.7,7.7,0,0,1-5.27-1.28c23.35-6,45.92-7.92,68.87-4.22l9.28,2.48c-3-2.89-6.55-3.78-10.24-4.28-4.71-2.95,1.61-2.27,1-4.46a26.23,26.23,0,0,0-9.72-2.14c-1.53-.08-2.68.21-3.83-2.21-1.31-2.75-6-2-9.08-3.27-.87-1.95,3.11-2,1.61-4-1.08-1.44-2.95-1.42-4.59-1.71l-5.37-1c0-2,2.48-1,3-3.11-2.62-.38-5.21-.78-7.81-1.12-2.21-.28-4-.36-5.53-2.92-1.81-3-6.17-1.7-9.24-2.91.11-.27.15-.63.35-.79,1.36-1.09,4.35-.73,4.2-2.84-.17-2.34-3.12-1.84-4.83-2.6-2.64-1.17-5.76-.54-8.45-2.09,2.59-2.24,3-3.94-1.1-4.33-3.18-.3-3.87-5.19-8-4.18-.83.21-.3-1.48.35-2.07a8.46,8.46,0,0,1,6.71-2.17c31.52,2.4,59.7,11.56,78.93,38.9a5.79,5.79,0,0,0,1,.79c.32-2.89,4-4,2.81-7.8-.85-2.83-2.79-5.49-2.27-8.7l-.07.06c2.4.94,4.18.43,3.37-2.43-.94-3.3-.43-6.55-.53-9.82,0-1.05-1.23-2.77,1.78-2.16,1.47.3,1.85-3,2.65-4.66.51-1.06.21-2.65,2-.61,1.31,1.48,2-.9,2.42-1.63,2.9-5.57,10.23-5.07,13.49-10C239.37,4,240.93.83,243.52,0c-.35,2.43.15,4,3.61,2.13-2.27,4.09-3.73,7.44-5.83,10.32-2.46,3.39,0,3.08,2.16,3.14-.3,1.73-1.55,2.37-2.59,3.2-1.35,1.08-3.23,1.65-.94,4,1.77,1.84-.1,4.14-1.89,4.68-4,1.22-2.74,4.82-3.81,7.3-.9,2.06,3.28,0,2.34,2.54-3.48,3.79-8.14,6.76-9.07,11,3.1-2.63,6.9-5.86,10.71-9.08,15.16-12.38,33.08-16.83,52.09-18.17a5.68,5.68,0,0,1,2.26.13c1.64.6,4.2.62,4.2,2.76,0,1.88-2.4,1.89-3.94,2.43-4.91,1.72-9.3,4.9-14.68,5.29-.31,5.34-5.32,3.39-7.89,5.22,1.49,1.3,4.1.46,5.56,2.7-2.92,2.12-6.4,1.57-9.51,2.33-1.49.36-3.27.09-1.57,2.65,1.15,1.73-.85,1.75-1.9,1.79-2.64.1-5.29,0-8.07,0,.57,2.53,3.94,1.24,3.52,3.54s-2.74,2-4.43,2.56c-.49.16-3.34-.78-1.19,1.82,1.12,1.36-.92,1.41-1.81,1.51-3.78.41-7.58.72-11.41,1.07,0,1,1.49,1.53,1,2.74-3,2.18-7.35,1.76-10.77,5.27l15.17-3.55a227.12,227.12,0,0,1,57.08,3,27.87,27.87,0,0,1-3.4,2.07c-3.48,1.33-8.09-1-10.67,3.31-6.07-1.41-11.7,3.36-17.85,1.23-1.31-.45-2.9-.75-2,1.83.71,2-1.2,2.13-2.45,2.35-2,.36-3.89-.73-5.81-.87-1.66-.12-3.92-3-5.32.92-.29.84-3.37.09-5.16-.36-2.31-.59-4.63-1.42-7.63-.11,16.56,7.64,29.38,19,37.3,35.72-6.63,1.4-9.08-5.67-14.54-6.68-.24,1.45-.45,2.73-.65,4-.5,0-1,0-1-.12-2.44-5.05-8-7.21-10.94-11.86-.64-1-1.14-2.69-3.4-.91-1.77,1.4-2.6-1.77-3.69-2.91-1.59-1.65-2.16-3.77-5.53-2.76-2.79.83-3.59-3.79-6.67-4.29-.69,3.16,2.45,4.33,3.23,6.6C238,98,238,104.86,238.15,111.66c0,1.49-1.1,3.27-.59,4.44,2,4.59-2.09,4.69-4.23,6.12-1,.65-2.84-.15-2.63-.86,1.16-4.06-4.74-5.77-3.06-9.88.22-.55-.19-1.24-1-.78-.35.2-.51.74-.76,1.12-1.47-4.25,2.69-10.12-3.69-13-.23-.1-.17-.85-.25-1.3-1.1-6.24-3.2-12.35-2.46-18.85.07-.62-.89-1.54-1.57-2-.88-.63-1.2.47-1.76.87-1.53,1.1-1.13,2.71-1.22,4.18C214.59,87,215.43,92.44,213.7,97.68Zm20.14-61.76-.3-.32a2.88,2.88,0,0,0-.28.59c0,.08.17.2.26.3Z"/><path class="cls-3" d="M262.6,198.25c2.87-1,1.81-4,2.92-5.94,5.32-9.37,13.93-13.21,24.28-10.84,5.49,1.26,10.33,3,13.27,8,4,6.68,4.32,13.84.51,20.57s-13.71,5.71-19.47-2.54c.87,6.37-2,11.36-1.65,16.82a22.07,22.07,0,0,0-2.14,10.58c-.71.66.08,1.22.12,1.83-2.26,2.3-2.23,5.56-3.44,8.29-3.32,6.72-9.05,10.75-15.64,13.7-8.12,3.63-16.87,3.86-25.54,4.55a24.86,24.86,0,0,0-3.92.95c-2.94-2.87-6.47-1.24-9.78-1.3-1.14-.27-1.64.39-1.93,1.34-3.74-1.35-7.46-.78-11.18.12-10.08-.81-20-2.32-28.92-7.53-3.72-2.17-6.68-5.23-9.57-8.36l-5.34-7.72c.3-1.23-.62-1.88-1.28-2.65q-.3-3.9-.58-7.8V207c-1.57,2-3,2.59-3.24,4.19-5.21,3.75-13.13,2.85-15.42-1.85-3.1-6.37-3.57-13.11-.45-19.35,2.62-5.24,7.13-8.31,13.7-8.25s13,.16,18.07,5.25c.43,3,2.71,5.41,2.3,8.59q0,7.41,0,14.84a59.09,59.09,0,0,0,1.65,19.91c-1.73.11-3.33-2.06-5.5-.12,3.52,1.77,5.63,4.61,7.71,7.62a16.77,16.77,0,0,0,12.9,7.46c17,1.58,34,.63,51-.46,6.66-.42,10.08-4.11,12.17-9.82.91-3.55,3.21-6.63,3.18-10.5C261.36,215.71,261,206.93,262.6,198.25Z"/><path class="cls-4" d="M179.92,230.29a59.09,59.09,0,0,1-1.65-19.91,27.11,27.11,0,0,0,0-14.84c.41-3.18-1.87-5.63-2.3-8.59-1.23-5.87-1.29-11.84-1.44-17.79,3.7-.07,7.47.35,10.91-1.55-.24,5.64-.24,11.24,1.55,16.71a16.4,16.4,0,0,0,4,7.06c3.48,3.31,6.57,3,10.24-1.49-2.36.06-4.35,1.44-6.48-.09-2.89-2.09-4.34-4.56-3.95-8.1s2.86-5.72,6.05-6.67c3.6-1.08,7.32-1.24,10.1,2a19.44,19.44,0,0,1,2.22,3.94c.7,1.37.41,4,2.72,3.44,2.11-.51,1.09-2.87,1.08-4.38,0-6.08-.28-12.15-.44-18.23,4.28.26,8.55.49,12.79-.47a45.62,45.62,0,0,0,.14,17.77,24,24,0,0,0,2.32,6.39c1.38,2.55,3.49,4.45,6.63,3.73,2.86-.66,4.7-2.53,5-6.29-3.27,2.39-6.39,4.1-9.12.2-2-2.82-1.19-8.44,1.29-10.5a7.78,7.78,0,0,1,10.7.79c2.79,2.94,3.54,6.63,3.69,10.51.05,1.22,0,2.44,0,3.65s.3,2.29,1.69,2.17c1.24-.12,1-1.35,1-2.19,0-6.08,0-12.16.06-18.25,0-2-.32-4,.54-5.85,4.26-.13,8.63,1,12.73-1.06q.3,17.91.59,35.82c-1.59,8.68-1.24,17.46-1.19,26.22,0,3.87-2.27,6.95-3.18,10.5-10.88.1-21.63,2.66-32.58,1.77-3.23-.26-5.83-.13-2.1-3.93a1.93,1.93,0,0,0-.33-3.13c-1.2-.61-2.36-.08-2.7,1.48-.81,3.69-2.18,1.37-2.9.1-1.45-2.56-2.26-5.47-5.62-6.5-1.47-.45-1.18-2.19-.49-3.14,1.84-2.51.4-4-1.62-4.76-2.33-.89-6,.51-5.33,2.22,1.95,5-1.37,6.52-4.07,8.8-.19.16-.18.56-.29.84-1.48,4-4.83,5.35-8.35,4.1C187.92,231.42,183.78,231.62,179.92,230.29Z"/><path class="cls-4" d="M117.83,325.4c0-6.1.3-12.21-.06-18.28-.78-12.9,8.56-20.86,20-22.53,15.64-2.3,27.37,8.23,27.37,24.08,0,11.42-.08,22.85,0,34.27,0,3-.5,4.48-4.07,4a44.5,44.5,0,0,0-10.94,0c-3.9.46-4.61-1.08-4.59-4.57.09-11.42-.13-22.84-.21-34.26,0-2.67.17-5.56-3.59-5.62-4-.07-4,2.85-4,5.75q0,20.11,0,40.21A21.87,21.87,0,0,1,120.23,370c-12.65,2.55-24.3-2.55-28.62-12.45a16.09,16.09,0,0,1-1.32-6.65c0-12.95.11-25.89-.06-38.84,0-3.15.77-4.47,4-4.11,4.94.54,11.34-2.14,14.48,1.09,2.89,3,.76,9.29.83,14.13q.18,12.33,0,24.68c0,3.16,1.13,5.09,4.38,5s3.84-2.43,3.84-5.11q0-11.21,0-22.39Z"/><path class="cls-5" d="M276.94,317.73c0,5.49.11,11,0,16.46-.22,8.52-4.81,14-13,15.89a47,47,0,0,1-22.62-.28c-7.33-1.94-12.12-6.76-12.9-14.29a174.17,174.17,0,0,1,0-37.85c.79-6.76,5.78-10.81,12.15-12.61,9.74-2.75,19.55-2.52,28.86,1.63,5.4,2.4,7.29,7.6,7.48,13.22C277.1,305.84,277,311.79,276.94,317.73Zm-20.28-1.08h0c0-4.42,0-8.83,0-13.25,0-2.37.43-5.14-3.3-5.32s-4.44,2.44-4.48,5.07q-.21,14.14.07,28.31c0,2.37.42,5.18,3.91,5.05s3.67-2.79,3.74-5.25C256.75,326.39,256.66,321.52,256.66,316.65Z"/><path class="cls-5" d="M299.83,350.42l-1.35-.24c-13.65-2.71-17.37-8.59-14.07-22,.41-1.69,1.41-1.71,2.66-1.71,5,0,10.05.1,15.08,0,2.43-.07,3.3.84,3.13,3.18a14.26,14.26,0,0,0,.24,3.63c.29,1.41,1,2.55,2.7,2.63a3.4,3.4,0,0,0,3.33-1.95c1.85-3.26.94-6.75-2.7-8.37a62.72,62.72,0,0,0-10.37-3.44c-15.06-3.68-16.07-15.7-13.73-25.5,1.74-7.31,7.89-10.62,14.89-11.78a46.16,46.16,0,0,1,30.51,4.95c2,5.42.67,11,.79,16.52l-.05,0c-4.39,0-8.78-.15-13.16,0-3.26.09-6.06.15-5.64-4.47a3.3,3.3,0,0,0-2.88-3.58,3.09,3.09,0,0,0-3.32.94,4.52,4.52,0,0,0,.05,5.13c1.59,2.67,4.34,3.66,7.12,4.48,5.07,1.48,10.21,2.75,15.06,4.89,5.21,4.64,6.14,10.62,5.82,17.21-.52,10.78-6,17-17.43,19.44Z"/><path class="cls-5" d="M198.5,298.93c-4.35-1.39-5.95-.61-6,3.62-.19,9.89-.09,19.78-.05,29.67,0,2.33.75,4.38,3.59,4.27,2.59-.09,3-2.11,3.16-4.21,0-.16,0-.31,0-.46.57-9.57.57-9.57,10.58-9.37s10.15.21,10.13,10.56v.46c0,12.34-1.43,14.26-13.69,16.18-8,1.25-16.09,1.71-23.89-1.32-6.92-2.68-10.94-7.87-11.17-15.23q-.52-16,0-32c.31-9.43,5.64-15.36,14.89-16.91,11.39-1.92,22.41-.87,32.48,5.43,0,1.52,0,3-.07,4.55-.34,4.47,2,10.3-1,13.06s-8.7.58-13.21.83c-.3,0-.61,0-.91,0-2.36.25-3.08-.85-3.23-3.16C199.89,302.92,201.46,300.28,198.5,298.93Z"/><path class="cls-6" d="M91.88,388.84c-2.26-.91-3.58-2.82-5-4.65,3.11-1.53,6.18-3.16,9.34-4.59,7.06-3.23,13.74-2.47,20.38,1.59,5.91,3.62,12.26,6.52,19.42,3.79a70.7,70.7,0,0,0,8.84-4.6c9.61-5.32,19.28-6.12,29.08-.57a17.63,17.63,0,0,1,1.6.88c7.35,5.27,14.33,4.93,21.79-.3,10.9-7.64,22.17-7.11,33.29,0,7.15,4.57,14.14,4.58,21.26-.4,3.44-2.4,6.94-4.83,11.17-6,6.79-1.87,12.89,0,18.92,2.79,2.06,1,4.08,2,6.14,3,7.41,3.5,14.34,2.73,21.09-1.95,11.21-7.77,24.31-7.69,35.64-.06a14.57,14.57,0,0,1-4.49,5.46c-12-6.26-17.12-7.4-26.19.11a23.61,23.61,0,0,1-2.55,1.92c-5.88,3.73-12.06,5.35-19.11,3.67-5-1.19-9.35-3.59-13.79-5.89-7.32-3.8-14.22-3.65-20.92,1.55a30.53,30.53,0,0,1-10.74,5.85c-8.13,2.2-15.5,0-22.25-4.13-9.07-5.49-17.25-5.47-25.54,1.56-4.15,3.52-9.35,4.73-14.95,4.54-6-.2-10.58-3.52-15.35-6.43a16.88,16.88,0,0,0-15.25-1.68c-4.52,1.59-8.49,4.09-12.53,6.49-7.38,4.38-14.91,4.69-21.94-.08C110.31,384.62,101.4,383.64,91.88,388.84Z"/><path class="cls-1" d="M262,162.43c-4.1,2.07-8.47.93-12.73,1.06-.86-.6-1.7-1.24-2.59-1.81-6.47-4.08-9.3-11-7.39-18a16,16,0,0,1,14.83-12,16.23,16.23,0,0,1,16.08,11c2.26,6.86-.18,14-6.33,18.45C263.27,161.6,262.64,162,262,162.43Zm-7-7.28a7.55,7.55,0,0,0,7.32-7.32,7.28,7.28,0,0,0-7.69-7.28,7.09,7.09,0,0,0-7,7.43A7.32,7.32,0,0,0,255,155.15Z"/><path class="cls-1" d="M185.45,167.61c-3.44,1.9-7.21,1.48-10.91,1.55-9.14-3.84-13.6-10.26-12.44-17.89s6.86-13.3,14.08-14.1a16.22,16.22,0,0,1,17.08,10.24c2.65,7,.37,14.38-5.87,19C186.78,166.86,186.1,167.21,185.45,167.61Zm-7.14-7a7.38,7.38,0,0,0,7.19-7.8c-.21-3.75-3.67-7.11-7.13-6.92-4.67.25-7.67,3.3-7.53,7.67A7.46,7.46,0,0,0,178.31,160.57Z"/><path class="cls-1" d="M225.33,161.36c-4.24,1-8.51.73-12.79.47-8.89-5.62-11.92-11.8-9.7-19.84,1.6-5.76,5.74-9.07,11-11.3,4.08-1.14,8-.21,11.89.94,3.94,3,7.45,6.21,8.41,11.37C235.66,151.26,232,157,225.33,161.36Zm.42-14.79a7.51,7.51,0,0,0-7.47-7.54,7.42,7.42,0,0,0-7.27,7.25,7.27,7.27,0,0,0,7,7.46A7.39,7.39,0,0,0,225.75,146.57Z"/><path class="cls-7" d="M225.7,131.63c-3.9-1.15-7.81-2.08-11.89-.94q0-16.5-.11-33c1.73-5.24.89-10.67,1.24-16,.09-1.47-.31-3.08,1.22-4.18.56-.4.88-1.5,1.76-.87.68.49,1.64,1.41,1.57,2-.74,6.5,1.36,12.61,2.46,18.85.08.45,0,1.2.25,1.3,6.38,2.91,2.22,8.78,3.69,13Q225.8,121.72,225.7,131.63Z"/><path class="cls-8" d="M280.33,234.87a22,22,0,0,1,2.13-10.58l11.37.42c5.21.19,6.89,1.87,6.44,7.1-.21,2.51,0,5.51-3.23,6.71C291.64,236.53,285.94,235.88,280.33,234.87Z"/><path class="cls-7" d="M277,245c1.21-2.73,1.18-6,3.44-8.29l13.89,2.81c1.89.76,4.11,1,3.74,4.09-.42,3.57-1.13,6.92-4,9.32-1,.82-2-.31-2.89-.75C286.44,249.83,281.73,247.39,277,245Z"/><path class="cls-7" d="M165.18,240.74l5.34,7.72c-4.72,2.45-9.49,4.8-14.13,7.38-2.06,1.14-3.43.91-4.38-1.2-1.06-2.33-2.16-4.65-3-7.07s.63-3.58,2.66-4.31C156.35,243.3,160.63,241.31,165.18,240.74Z"/><path class="cls-8" d="M222.12,262.9c3.31.05,6.84-1.58,9.78,1.29.85,4,1.55,8,2.6,11.89.83,3.13-.23,4.46-3.32,4.82-3.45.4-6.82.54-10-1.13Q221.65,271.34,222.12,262.9Z"/><path class="cls-7" d="M209,264.35c3.72-.9,7.44-1.47,11.18-.13a78.33,78.33,0,0,0-.81,14.68c-3.4,2-10,1.09-12.36-1.54-1-1.14-.61-2.25-.36-3.38C207.4,270.76,208.22,267.56,209,264.35Z"/><path class="cls-9" d="M165.18,240.74c-4.55.57-8.83,2.56-13.5,2.52-1-1.7-4.36,0-4.51-2.9-.19-3.94-.83-8,.41-11.75.55-1.69,3-1,4.59-1,9.48-.16,9.6-.14,9.42-9.59-.05-2.27,1.61-5.17-1.51-6.86.27-1.6,1.67-2.21,3.24-4.19V230.3c-.23-1.66-1.17-2.21-2.84-2.1-2.73.18-5.48.24-8.21.18s-3.81,1.26-4.3,3.69a14.35,14.35,0,0,0,.61,7.63c.45,1.34,1.27,2.17,2.7,1.71,4.15-1.33,8.81-.74,12.62-3.32C164.56,238.86,165.48,239.51,165.18,240.74Z"/><path class="cls-10" d="M145.27,271.53c1.84.33,2.55-1.16,3.66-2.14,1.83-1.6,4.17-1.4,6.45-1.56,4.45-.32,1.5,3.27,2.56,4.78.82,1.15.32,1.11-1.58,1.18s-4.16-.1-5.44.64c-2.59,1.52-3.94,0-5.68-1.05Z"/><path class="cls-10" d="M183.55,270c.06-1.06.11-2.12.19-3.18.07-.8.29-1.54,1.28-1.54.74,0,.8.6,1,1.18.91,2.05,2.83,2.54,4.78,2.33,1.24-.12,2.71-1.69,3.5.15.62,1.46.78,3.57-.46,4.75a3.15,3.15,0,0,1-4.46-.09c-.6-.59-.48-1.58-1.78-.6C183.24,276.3,183.45,273,183.55,270Z"/><path class="cls-6" d="M198.5,298.93c3,1.35,1.39,4,1.53,6,.15,2.31.87,3.41,3.23,3.16.3,0,.61,0,.91,0,4.51-.25,10.25,1.85,13.21-.83s.7-8.59,1-13.06c.12-1.51.05-3,.07-4.55,1.64.38,1.49,1.69,1.49,2.9,0,4.42-.07,8.84.05,13.25.07,2.37-.83,3.28-3.19,3.23-4.72-.09-9.45-.14-14.16,0-2.86.1-3.73-1.06-3.61-3.78A45.67,45.67,0,0,0,198.5,298.93Z"/><path class="cls-10" d="M249.5,277c-1.84-.43-3.15-1.89-5.31-2-2.75-.14-1.76-1.57-.2-2.6.13.72,0,1.62,1,1.77s1.39-.35,1.13-1.32c-.52-1.91.33-3.64.94-5.31.75-2.07,1.5-.13,2.23.22,1.89.75,3.82.06,5.73.12a3.31,3.31,0,0,1-2.78,1.92c-2,.18-2.28,1.88-1.31,2.84C253.78,275.46,250.79,275.88,249.5,277Z"/><path class="cls-10" d="M249.5,277c1.29-1.16,4.28-1.58,1.46-4.35-1-1-.66-2.66,1.31-2.84a3.31,3.31,0,0,0,2.78-1.92c4.53-.71,3.26,3.06,4,5.25.07.2-.44.75-.78.88a.94.94,0,0,1-1.3-.82c-.17-.94-.22-1.89-.37-3.27C252.77,277.18,252.77,277.18,249.5,277Z"/><path class="cls-10" d="M284.27,269.7c-1.06.43-1.09,1.35-1,2.27.28,4.9-4.13.54-5.25,2.66-1.51-1.17.13-2.46,0-3.27-.72-3.58,2.55-3.7,3.91-5.59l2.37,4Z"/><path class="cls-11" d="M220.34,361.49c-.18-2.27.41-4,3.09-4,1.71,0,3.44.71,3,2.5-.53,2,.09,5.39-3.5,5.39C220.46,365.38,220.13,363.49,220.34,361.49Z"/><path class="cls-9" d="M219.38,278.9a78.33,78.33,0,0,1,.81-14.68c.29-.94.79-1.6,1.93-1.33q-.48,8.44-1,16.88Z"/><path class="cls-10" d="M267.75,269.71c-.42.17-1.19.34-1.19.51,0,3.68-2,4.91-5.76,4.44.83-2.74,1.64-5.51,2.53-8.26.45-1.37,1.25-.86,2.42-.69,2.95.41,1.93,2.38,2,4Z"/><path class="cls-11" d="M262.33,362c1,4-3.7,1-4.19,3.25-1.93-.9-1.76-2.49-1.88-4.33-.16-2.41.59-3.39,2.86-3.39C262.09,357.5,262.38,359.56,262.33,362Z"/><path class="cls-11" d="M242.67,358.55c-1.68,2.07.16,4.39-1.47,6.59-1.54-3.27-.54-6.37-.77-9.3-.12-1.62,1.46-1.29,2.25-.51,2.33,2.3,3.83,5.36,6.68,7.23a1.32,1.32,0,0,1-.09,2c-.74.56-1.41,0-1.9-.58C245.81,362.22,244.29,360.43,242.67,358.55Z"/><path class="cls-11" d="M212.24,364.91c-1.89-.05-2.35.93-1.89,2.61.22.77.3,1.54-.85,1.53-.95,0-1.25-.66-1.28-1.5-.11-2.84-.43-5.7-.27-8.53.11-2,1.89-.51,2.82-.87,2-.8,3.52-.36,4.45,1.66a3.58,3.58,0,0,1-.45,3.43c-.89-.3-1-1.06-1.05-1.82-.18-1.46-1.05-2.4-2.46-1.9-1.7.62-1.33,2.25-.84,3.48C210.73,363.76,211.62,364.28,212.24,364.91Z"/><path class="cls-10" d="M177.7,270.29c-2.36.52-3.19,2.4-3.77,4.54-1.56-1.79-1.76-4.22-.65-5.39,2.45-2.56,5.87-1.25,9.35-1.16-.67,2.5-3.12,3.56-2.81,6.23C177.35,273.3,179,271.24,177.7,270.29Z"/><path class="cls-11" d="M294.47,363c-1.72,2.2-3,3.59-5.5,1.92s-1.66-4.06-1.1-5.92c.65-2.2,3-1.55,4.72-1.21a1.43,1.43,0,0,1,1.28,1.6c-.05.31-.56.68-.92.76-1.16.24-3.41-1.66-3.13,1.33C290.07,364.13,292.38,362.52,294.47,363Z"/><path class="cls-11" d="M199.51,365.72c-2.68-.5-4.1-1.56-3.78-4,.22-1.6.34-3.36,2.33-4,1.51-.47,2.48.14,3.53,1.26s1.31,2.58-.18,2.7C198.37,361.9,199.16,363.85,199.51,365.72Z"/><path class="cls-11" d="M43.71,246.86c-5.78-.73-11.68-.26-17.38-1.78,0-.59,0-1.18,0-1.77l17.3,1.58C43.62,245.55,43.67,246.2,43.71,246.86Z"/><path class="cls-10" d="M249.32,267.81c-.73-.35-1.48-2.29-2.23-.22-.61,1.67-1.46,3.4-.94,5.31.26,1-.11,1.47-1.13,1.32s-.9-1.05-1-1.77a19,19,0,0,0-.23-4c-.27-1-2.47-1.77-.82-2.8a9.17,9.17,0,0,1,5.21-1.05C250.16,264.72,249.56,266.48,249.32,267.81Z"/><path class="cls-10" d="M118.11,272.4c2.24,1.81,4.19-.86,7.84.87-3.34-4-3.11-5.7.72-5.45-.2,1.31-.45,2.63-.59,3.95-.08.83-.54,2,.68,2.27s1.49-.77,1.94-1.55a7.34,7.34,0,0,1,.82-.08l.18,1.81c-3.93.68-7.86,1.35-11.81.1C118,273.68,118,273,118.11,272.4Z"/><path class="cls-9" d="M294.33,239.51l-13.89-2.81c0-.61-.83-1.17-.12-1.83,5.62,1,11.32,1.66,16.72,3.65C296.13,238.84,295,238.45,294.33,239.51Z"/><path class="cls-10" d="M284.23,269.75c1.84-.29,3.89-4.59,5.37,0,.37,1.16,1.4,4-2,4.37-4.11.47-3.27-2.18-3.29-4.45Z"/><path class="cls-10" d="M106.86,271.65a12.71,12.71,0,0,1,.27-2.71c.37-1.2.23-3,2.18-2.94,1.2,0,2,.66,1.66,2.05-.3,1.14,3,3-.7,3.45-.6.08-1.3.33-1.21,1.07.15,1.16.16,2.45-1.31,2.16C106,274.39,107.07,272.72,106.86,271.65Z"/><path class="cls-10" d="M267.78,269.68c1.77,0,2.61-2.81,4.74-1.55,1.15.68.72,1.86.7,2.86,0,1.83.14,3.1-2.85,3.12-3.36,0-2.47-1.37-2.23-3.13.06-.4-.25-.85-.39-1.27Z"/><path class="cls-10" d="M118.11,272.4c-.08.64-.15,1.28-.22,1.92-1.75.05-4.46,1.78-4.59-1.51-.11-3,1.64-5.17,5.2-4.76.5,1.27-.24,2.4-.39,3.61A1,1,0,0,0,118.11,272.4Z"/><path class="cls-10" d="M319.91,269.72c-.16.88-.3,1.77-.49,2.65-.58,2.71-2.83,2.19-4.3,1.66-2.35-.85-.82-2.89-.46-4.29.62-2.48,1.83-1.54,3.14-.32.44.41,1.42.23,2.15.33Z"/><path class="cls-10" d="M324.2,273.66c-2,.59-2.9-.11-2.42-2.63.29-1.56.2-3.19,2.4-2.92,2.61.31,2.34,2.83,2.76,4.43S325.88,274.33,324.2,273.66Z"/><path class="cls-10" d="M302.57,267.87c-1.8-.43-3.94-1.62-3.77,1.92.09,1.76-1.58,2-2.67,2.65l0,0c.36-1.92,3.8-4.39-1.23-5.35-1.36-.25-.27-2.22.55-2.23,2.69,0,6.28-1.6,7,3Z"/><path class="cls-10" d="M302.53,267.91c.55.17,1.57.34,1.58.52.06,3.65,2.21,1.27,3.47,1.09a4.32,4.32,0,0,1-.33,3.63c-.79,1.76-2.64.82-3.93,1.3-.95.36-.86-1.53-.86-2.54,0-1.34.07-2.69.11-4Z"/><path class="cls-11" d="M168.9,360.33c-4.2-1.95-4.93-.07-4.56,3,.1.86-.21,1.49-1.18,1.47a1,1,0,0,1-1-1.52c.85-1.74-1.33-4.38.75-5.19C164.41,357.54,167.31,356.53,168.9,360.33Z"/><path class="cls-4" d="M299.83,350.42l16.68-.07C311,351.81,305.4,352.36,299.83,350.42Z"/><path class="cls-11" d="M188.36,355.76c3.74,2.45-.76,6.27,2,8.61a3.47,3.47,0,0,1-1.13.49,1.38,1.38,0,0,1-1.52-1.34C187.63,361.05,186.57,358.48,188.36,355.76Z"/><path class="cls-10" d="M129.7,274.22l-.18-1.81c.22-.56.43-1.13.68-1.68.83-1.8,2.36-3.49,4.15-2.43,2.34,1.39-.78,2.65-.83,4.12-.66.67-1.31,1.35-2,2Z"/><path class="cls-11" d="M314.34,364.78c-.75-1.19,4.72-1.9-.14-2.88-.34-.07-1-.45-.36-.53,1.92-.23,1.08-2.41,2.25-2.86.91-.36,1.61.21,2,1.27C319.3,363.05,318.16,364.62,314.34,364.78Z"/><path class="cls-11" d="M325,354.72c2.4,2.94.61,6.37,2,9.35.3.61-.61.85-1.19.84s-1.4,0-1.37-.79C324.61,361,324.84,357.85,325,354.72Z"/><path class="cls-11" d="M142.49,354.72c2.69-2.05,4.87-.44,5.85,1.68s-1.46,3-3.8,4.66c.77-2.76,3.26-6-1.67-5.27C142.75,355.43,142.62,355.08,142.49,354.72Z"/><path class="cls-11" d="M142.49,354.72c.13.36.26.71.38,1.07,0,2.41,0,4.83,0,7.25,0,1-.16,1.84-1.38,1.78-1.58-.07-.81-1.12-.78-1.93.06-2.11.14-4.23,0-6.34C140.67,355.15,141.11,354.57,142.49,354.72Z"/><path class="cls-10" d="M128.7,272.49c-.45.78-.85,1.82-1.94,1.55s-.76-1.44-.68-2.27c.14-1.32.39-2.64.59-3.95.31-.62.61-1.8,1.34-1.31a2.63,2.63,0,0,1,.8,3.4c-.19.24-.37.49-.56.74A1.5,1.5,0,0,0,128.7,272.49Z"/><path class="cls-11" d="M279.48,361.08c.52-1-1.46-2.58.45-3s1.47,1.51,1.37,2.51c-.15,1.35,1,3.72-.67,3.86C278.59,364.66,280,362.27,279.48,361.08Z"/><path class="cls-11" d="M177.29,358c-1.62,4.9-1.23,5.62,3.15,5.89-2,1.25-4.06,1.88-5.42-.55S174.7,359,177.29,358Z"/><path class="cls-10" d="M118.11,271.66c.15-1.21.89-2.34.39-3.61,1.48.05,3.7-.91,3.69,1.65C122.18,272.53,119.57,271.15,118.11,271.66Z"/><path class="cls-10" d="M145.27,271.53l0,1.85c-1.82,0-2,0-1.92-2,0-.82-1.28-2.32.52-2.5S145,270.53,145.27,271.53Z"/><path class="cls-10" d="M131.56,274.45c.65-.68,1.3-1.36,2-2,1,.2,1.88.6,1.07,1.75A1.78,1.78,0,0,1,131.56,274.45Z"/><path class="cls-11" d="M.24,250.21l1.11,0,1.06.77-1.18,1.31C.31,251.9-.39,251.36.24,250.21Z"/><path class="cls-11" d="M1.34,238.48A1.68,1.68,0,0,1,1,240.61,1.57,1.57,0,0,1,1.34,238.48Z"/><path class="cls-10" d="M320,269.75l.13-.88.4.19-.57.66Z"/><polygon class="cls-2" points="211.18 33.7 210.85 33.55 211.11 33.76 211.18 33.7"/><path class="cls-11" d="M.59,244.93l-.08,1.13C-.1,245.64.05,245.27.59,244.93Z"/><path class="cls-10" d="M128.25,270.65c.19-.25.37-.5.56-.74C128.62,270.15,128.44,270.4,128.25,270.65Z"/><path class="cls-10" d="M296.13,272.44l-.15.32.19-.29Z"/><path class="cls-12" d="M91.88,388.84c9.52-5.2,18.43-4.22,27.38,1.84,7,4.77,14.56,4.46,21.94.08,4-2.4,8-4.9,12.53-6.49A16.88,16.88,0,0,1,169,386c4.77,2.91,9.32,6.23,15.35,6.43,5.6.19,10.8-1,14.95-4.54,8.29-7,16.47-7,25.54-1.56,6.75,4.09,14.12,6.33,22.25,4.13a30.53,30.53,0,0,0,10.74-5.85c6.7-5.2,13.6-5.35,20.92-1.55,4.44,2.3,8.79,4.7,13.79,5.89,7.05,1.68,13.23.06,19.11-3.67a23.61,23.61,0,0,0,2.55-1.92c9.07-7.51,14.16-6.37,26.19-.11a39.35,39.35,0,0,1-8.27,8.28c-7.88-2.26-15.33-1.78-22,3.54-7.89,6.34-16.16,7.57-25,2.11-1-.64-2.2-1-3.26-1.62-10-5.55-19.69-5.47-29,1.82-7.57,6-15.3,6.45-23.62,1.13-11.11-7.1-22.39-7.18-33.22.75-7.14,5.23-14.1,4.59-21.16,0-10.44-6.77-21.19-6.64-31.3.05-9.6,6.36-18.61,6.4-28,.19a20.82,20.82,0,0,0-16.16-3.15C96.86,393.93,93.7,392.06,91.88,388.84Z"/><path class="cls-12" d="M141.39,421.57c-6.23-1.74-11.78-4.93-17.32-8.15.58-1.4,2-.9,3-1.24,6.88,1.1,12.41-2.2,17.82-5.66,9.21-5.88,18.21-7,27.4.15,4.95,3.87,10.83,4.69,16.93,3.72,4.48-.71,8.24-3.14,11.76-5.79,6.58-5,13.3-5.45,20.42-1.36,1.71,1,3.47,1.91,5.26,2.73,6.19,2.86,12.52,4.55,19.43,2.79,4.73-1.2,8.5-4,12.33-6.69,5.45-3.86,11.24-4.33,17.29-1.74,2.51,1.08,4.91,2.41,7.37,3.61,6.89,3.39,14,5.16,21.6,2.68,4.71-1.54,8.51-4.64,12.43-7.52,2.63-1.93,5.38-3.54,8.71-1.42a142.56,142.56,0,0,1-34.2,21.76c-3-1.41-6.09-2.74-9.07-4.25-9.41-4.75-18.75-5.46-27.38,1.4-8.88,7.05-17.39,7-26.8.88-8.7-5.62-18.61-6.44-27.15-.45-10,7-18.7,6.64-28.91.57C161.51,411.17,151,414.38,141.39,421.57Z"/><path class="cls-12" d="M61.13,359.76l1.78,3.29.58.83a27.42,27.42,0,0,1,4.37,7.24c-.62.27-1.61,0-1.63,1.11a.4.4,0,0,0,.24.28c1.11.2,1-.77,1.36-1.38q2.57,3.36,5.11,6.73a1.23,1.23,0,0,0,.53.64c6.62,10.09,16.77,16.65,25.14,25a31.29,31.29,0,0,0,8.78,5.67c7.17,3.39,6.4,11.19,1.09,16-1.29,1.17-2.41,1.18-1.24,3.62,1.44,3-1.92,5.31-3.48,7.65-1.39,2.1-3-.27-4.18-1-4.59-2.7-9-5.7-13.6-8.38-2.07-1.21-2.53-2.39-1-4.23,1.71-2,2.19-4.83,5.17-6.05,1.24-.5,3.26-2.49,2.08-4.8a3.94,3.94,0,0,0-4.66-2.15c-2,.73-.3,2.23-.09,3.58.46,3-2.92,4.21-4.27,6.47-1.57,2.62-3.1,2.46-5.23.4a138.37,138.37,0,0,0-10.69-9.27c-2.32-1.82-2.24-3.21-.17-5,1.86-1.64,2.92-4,5.73-4.81,1.36-.4,3.83-2,2.7-4.32s-3.12-1.67-5.08-.85c-2.8,1.18-5.73,2.05-8.51,3.26s-4.76,1.54-6.93-1.48c-2-2.77-2.62-4.76-.26-7.48,1.59-1.82,2.71-4,4.14-6,1.66-2.29,3.14-4.59,2.15-7.62,1.52-.15,3.07-.85,2.46-2.45-.52-1.39-2.06-.14-3.11.09a8.72,8.72,0,0,0-2,1c-1.61,1.36-4.12,1.67-4.82,4.11l-.76.86a5.47,5.47,0,0,1-2.9,1.83,1.13,1.13,0,0,0-.68.47c-2.33,2.59-4.09,2.3-5.62-.88a30.51,30.51,0,0,0-3.35-5.37c-2.09-2.72-1.38-4.28,1.74-5.13a1.14,1.14,0,0,0,.69-.5l.9-.47,1-.66c.8-.77,1.54-1.75,2.83-.79l.78.09c1.71-1.5,4.68-1.78,4.77-4.87Z"/><path class="cls-6" d="M325.81,397.68c-3.33-2.12-6.08-.51-8.71,1.42-3.92,2.88-7.72,6-12.43,7.52-7.59,2.48-14.71.71-21.6-2.68-2.46-1.2-4.86-2.53-7.37-3.61-6.05-2.59-11.84-2.12-17.29,1.74-3.83,2.72-7.6,5.49-12.33,6.69-6.91,1.76-13.24.07-19.43-2.79-1.79-.82-3.55-1.74-5.26-2.73-7.12-4.09-13.84-3.61-20.42,1.36-3.52,2.65-7.28,5.08-11.76,5.79-6.1,1-12,.15-16.93-3.72-9.19-7.19-18.19-6-27.4-.15-5.41,3.46-10.94,6.76-17.82,5.66a20.54,20.54,0,0,0-9.17-2.66,85.65,85.65,0,0,1-18.42-13.19,20.82,20.82,0,0,1,16.16,3.15c9.37,6.21,18.38,6.17,28-.19,10.11-6.69,20.86-6.82,31.3-.05,7.06,4.56,14,5.2,21.16,0,10.83-7.93,22.11-7.85,33.22-.75,8.32,5.32,16.05,4.83,23.62-1.13,9.26-7.29,18.91-7.37,29-1.82,1.06.58,2.23,1,3.26,1.62,8.87,5.46,17.14,4.23,25-2.11,6.62-5.32,14.07-5.8,22-3.54C330.81,394.36,327.92,395.63,325.81,397.68Z"/><path class="cls-12" d="M51,362.49c-4.62-.59-7.83,2.71-11.51,4.47-3.24,1.54-4.58,1.18-6-2.13-2-4.86-4.48-9.54-6.94-14.21-1.13-2.13-.78-3.32,1.48-4.09,2.59-.89,4.7-3.14,7.92-2.35.93.22,2.18-.91,3.29-1.42,1.4-.64,1-2.42,2-3.27-1.25-.4-2.18-1.67-3.77-1.11s-3.51,1-5.27,1.46c-5,1.29-9.16-1.24-10.77-6.16-1.29-3.93-1.95-7.62,1.16-11,.5-.54,1-1.49,1.54-1.54,6-.56,10.52-4.78,16.15-6.25,2.41-.63,3.64-.39,4.2,2.27a136.27,136.27,0,0,0,14.16,38.77c.61,1.09,1.19,2.16.22,3.34C56,359.59,53.77,361.76,51,362.49Z"/><path class="cls-6" d="M141.39,421.57c9.56-7.19,20.12-10.4,30.91-4,10.21,6.07,18.91,6.46,28.91-.57,8.54-6,18.45-5.17,27.15.45,9.41,6.08,17.92,6.17,26.8-.88,8.63-6.86,18-6.15,27.38-1.4,3,1.51,6,2.84,9.07,4.25a34.31,34.31,0,0,1-9.62,4c-7.42-6-15.3-6.3-23.07-1-3.75,2.57-7.32,5.32-12,6.39-8,1.85-15.2-.23-21.79-4.36-8.91-5.59-17-5.15-25.2,1.43a22.32,22.32,0,0,1-15.33,4.85c-6-.22-10.52-3.65-15.32-6.54-6.5-3.91-13.88-3.63-19.52.82A20.47,20.47,0,0,1,141.39,421.57Z"/><path class="cls-13" d="M149.79,425.08c5.64-4.45,13-4.73,19.52-.82,4.8,2.89,9.28,6.32,15.32,6.54A22.32,22.32,0,0,0,200,426c8.15-6.58,16.29-7,25.2-1.43,6.59,4.13,13.78,6.21,21.79,4.36,4.65-1.07,8.22-3.82,12-6.39,7.77-5.33,15.65-5,23.07,1-13.79,6-28.33,9.14-43.16,10.65-27.29,2.79-54.35,1.58-80.85-6.25C155.22,427,152.52,426,149.79,425.08Z"/><path class="cls-12" d="M143.83,446.11c.28,3.18-1.66,5.69-2.57,8.51-.11.33-.81.81-1,.72-3.95-1.55-8.64-2.38-11.47-5.12-1.41-1.36,1.09-6.22,3.41-8.55,1.84-1.85,2.78-3.47,2.49-6.14-.33-2.95,1.7-5.38,2.64-8,.51-1.43,1.62-1,2.65-.52,8,3.32,15.9,6.71,24.49,8.28,3,.55,5.49,5.57,4.85,8.69q-1.07,5.15-2.28,10.25a8.29,8.29,0,0,1-10.29,6.27c-3.41-.77-6.8-1.66-10.24-2.33-2-.39-2.68-1.47-2-3.2,1.05-2.56.54-5.54,3.07-7.83a4.86,4.86,0,0,0,.3-6.29,1.2,1.2,0,0,0-1.87-.24A6.74,6.74,0,0,0,143.83,446.11Z"/><path class="cls-14" d="M321.56,481.34c1.28-1.78,1.47-4,2.13-6,.33-1,.61-2,.93-3.06.8-2.48,2.52-5.15,5-4.3,3.44,1.2-.58,3.59-.11,5.58,3,1.12,3.52-2.25,5.4-3.2s3.8-2.5,5.59-.52c2,2.26-.67,3.34-1.81,4.72-.85,1-1.73,2-2.94,3.43,5.59,0,10.38,1.6,15.12,3.51,2.25.9,4.52,1.94,4,4.71-.56,3.13-3.29,1.79-5.26,1.86l-2.74.15c0,.29-.08.67.05.79,1.65,1.49,5.36,2.21,3.66,5.19s-4.29.16-6.35-.58c-1-.35-1.77-1.06-3-.59.56,1.84,2.45,2.52,3.42,4s.79,2.76-.92,3.68c-1.4.75-1.81.47-3.06-.85-2.51-2.67-4.87-5.71-8.27-7.47a2,2,0,0,0-2.84.45C323.34,491.53,321.76,486.92,321.56,481.34Z"/><path class="cls-14" d="M117.79,492.83c-1.88-1.51-3.71-.67-4.83.76-2.23,2.86-6.49,3.34-7.93,7-.39,1-1.23.78-1.91.55a2,2,0,0,1-1.32-2.55,37.45,37.45,0,0,1,2.1-4.51c-2.6-1.46-5.76,3.89-7.57-.05-1.59-3.46,3.18-4,4.87-6.25-1.78-.64-3.12,0-4.53.33-1.78.46-3.85.92-4.52-1.54-.62-2.25.67-3.76,2.63-4.7a50,50,0,0,1,16.16-3.81c-.58-1.74-2.15-2.34-3.23-3.41-1.54-1.55-3.36-3.29-.9-5.58h2.76c-.08,1-2.31,1-1.13,2.43.43.5,1.55,1.07,1.92.86,1.16-.69-.28-1.87.22-2.8,2.23.92,3.25,3.59,5.77,4.1.25-.32.54-.52.58-.77.27-1.67-2.82-4,.39-4.91,2.48-.71,4.12,1.51,4.93,3.78,1.07,3,1.94,6.06,2.9,9.09C126,486.9,123.73,491,117.79,492.83Z"/><path class="cls-13" d="M218.45,454.5c0,1.52,0,3,0,4.56,0,5.23-3.5,8.77-8.62,8.81-2.13,0-4.26,0-6.39,0-6.75,0-8.91-3.67-5.92-10.18a6.29,6.29,0,0,0-.09-6.32c-1.55-2.66-.5-5.63-.63-8.46-.07-1.52,1.25-1.47,2.31-1.47,2.89,0,5.78,0,8.67,0,8.19,0,10.68,2.52,10.67,10.81Z"/><path class="cls-12" d="M254.73,458.86c-1.4,2.44-2.36,5.81-6.17,6.58a73.43,73.43,0,0,1-7.68,1.05c-2.21.2-5.29,2.06-6.43.23a10.85,10.85,0,0,1-1.07-9.16c.81-2.25.67-4.47-.64-6-2.27-2.65-1.3-5.81-2.14-8.65-.52-1.71,1.09-1.81,2.31-2,4.06-.56,8.11-1.42,12.19-1.59a7.43,7.43,0,0,1,7.45,5.48C253.83,449.15,254,453.81,254.73,458.86Z"/><path class="cls-12" d="M257.5,454.87c3.1-5.41-3-9.13-3.26-14.28-.1-2.51.16-3.51,2.69-4,4.78-.86,9.51-2,14.25-3.05,2.25-.51,3.86-.37,4,2.55a35.75,35.75,0,0,0,1.09,5.35c.19.88.55,1.7-.22,2.55-1.94,2.17-1.42,1.69.88,4,2.47,2.44,2.31,6.43,2.58,9.78.17,2.08-2.53,1.56-3.95,1.93-3.67.95-7.57,1.17-11.11,2.44-4.46,1.6-6.1,0-6.45-4.2C258,457,257.73,456.13,257.5,454.87Z"/><path class="cls-13" d="M358.32,396h-3c2.29,2.77,4.77,4.66,4.35,8.52a11.22,11.22,0,0,1-11.3,10.27,7,7,0,0,1-5.51-2.57,82.82,82.82,0,0,0-6.54-7,7.54,7.54,0,0,1-1.42-9.24c1.69-3.21,4.38-7.26,8.78-6.85,4.64.43,5.53-1.08,4.44-5a2.7,2.7,0,0,1,.89-3.25c.45,5.78,2.39,10.64,8,13.36C357.58,394.47,357.88,395.35,358.32,396Z"/><path class="cls-12" d="M384,332.83c.63-2.84-1.82-3.68-3.42-4.77-3.82-2.62-.39-5.07-.06-7.56s2-3.25,4.54-3c4.22.4,9.09,1.8,12.56.26,3.64-1.62,5.82,0,8.63.57,2.29.49,2.73,1.66,1.81,3.93-2.1,5.2-3.81,10.56-5.85,15.78-.63,1.59-.27,4.33-3.38,3.87s-6.23-.73-7.28-4.32a3.52,3.52,0,0,0-2.1-2.15C389.12,331.39,385.9,333.48,384,332.83Z"/><path class="cls-12" d="M194,459.9c-.34,7.46-.43,7.56-7.73,6.46-5.09-.77-10.16-1.69-15.27-2.39-2.17-.3-2.76-1.11-2.24-3.28.72-3,.92-5.72,3.86-8.25s4.42-7.14,6.1-11c1.27-2.92,3.22-2.74,5.53-2.09s5.66-.24,5.84,4.05c.16,3.77,1.42,7.49,1.46,11.25C191.54,457,195.08,457.33,194,459.9Z"/><path class="cls-12" d="M312.83,438l-.23-.92a6.09,6.09,0,0,0-.92-3.69c1.21-4.83-.9-9.27-2.27-13.55-1.46-4.58,1.56-5.32,3.95-7.28,2.81-2.3,4.39-.59,6.59,1,3.87,2.76,6.31,7.44,11.94,8.07,1.53.17,2.92,3.66,4,5.82,1.71,3.54-2.08,3.43-3.58,4.45-4.62,3.15-9.52,5.91-14.31,8.82l-4.37-1.82,0-.05Z"/><path class="cls-12" d="M362.19,371.9c-3.15-9.14-.22-14.85,8.89-17.3l6.43,2.95c3.48,2.58,8.44,3,9.74,8.66,1.19,5.15-1.64,8.56-4.37,11.25s-7.14,3-10.93.46c-1.75-1.17-3.56-2.25-5.34-3.37A10.61,10.61,0,0,0,362.19,371.9Z"/><path class="cls-12" d="M120.27,446.54c-8.37-.19-13-8-9.23-15,1.22-2.24,2.14-4.64,3.29-6.91,2.73-5.38,7-6.67,12.66-3.83,6.69,3.37,8,6.8,5.1,12.82a77.87,77.87,0,0,0-3.63,7.82C127,445.57,123.2,445.46,120.27,446.54Z"/><path class="cls-13" d="M384,332.83c1.92.65,5.14-1.44,5.45,2.59-1.38.71-1.28,2.29-2,3.4-1.44,2.29.12,3,1.92,3.32,1.1.17,2.26-.77,3.41.2C394.72,344,399.29,344,399,346c-.55,3.87-2.28,8.22-5,10.92-2.1,2.1-5.59-1.09-7.92-2.57-4.55-2.9-4.34-3.22-6.7,1.48l-8.2-2.94c-2.69-1-3.24-2.35-1.76-5.07A127.83,127.83,0,0,0,376,333.85c1.42-3.6,3.22-3.92,5.94-1.63A2.67,2.67,0,0,0,384,332.83Z"/><path class="cls-13" d="M311.68,433.41a6.09,6.09,0,0,1,.92,3.69c-.8-.29-1.41-1.51-2.37-.84-.73.51-.25,1.31.16,2,.59,1,.94,2.21,1.59,3.2,1.14,1.73.6,2.71-1.11,3.55-4.63,2.29-9.24,4.61-13.79,7-1.6.86-2.58.62-3.19-1-1-2.72-3.31-4.86-2.88-8.29a5.08,5.08,0,0,0-2.65-4.52c-3-1.61-3.31-4.91-4.73-7.45-1.2-2.14,1.44-2.44,2.55-2.78,3.39-1,6.18-5.73,9.76-3.34a8,8,0,0,1,3.22,8.3c-.39,1.48.49,2.27,2.12,1.62,2.74-1.11,5.36-4,8.42-.48C309.87,434.3,311,433.66,311.68,433.41Z"/><path class="cls-12" d="M358.32,396c-.44-.6-.74-1.48-1.34-1.77-5.61-2.72-7.55-7.58-8-13.36,2.58-5.52,6.39-8.94,13-7.57,1.08,1.73,2.95,2.46,4.51,3.58,3.38,2.95,8.29,4.51,8.39,10.29.08,4.72-3.07,7.83-6,10.09-2.36,1.8-6.57,2.77-9.6-.51l-.91-.76Zm-.88-14.77c-.19-.29-.39-1-.79-1.13-.82-.26-1,.56-.93,1.1s.31,1.28.67,1.4C357.21,382.84,357.21,382,357.44,381.18Zm-.7,9.84c.1-.25.35-.56.28-.74s-.46-.23-.72-.34c-.1.25-.35.56-.28.74S356.48,390.91,356.74,391Z"/><path class="cls-14" d="M213.94,514.42c-.25,0-.43,0-.55,0a8.59,8.59,0,0,0-8.46-.26c-.78.34-2.68,1-2.81-1-.08-1.34-.62-2.76,1.34-3.85,2.73-1.53,4.26-3.6,0-5.64-1.62-.78-1.25-2.95-.44-4a3.77,3.77,0,0,1,5-.78c1.78,1.29,2.73,1.5,4.53.08,1-.75,3.19-1.07,4.07.45.68,1.18,1,3.27-.59,4.09-4,2-2.92,4-.21,6,1.7,1.2,1.18,2.7,1,4.08C216.51,515.41,214.91,514.31,213.94,514.42Z"/><path class="cls-14" d="M161.89,491.92c5.11.12,8.57,3.49,8.36,8.14a8.25,8.25,0,0,1-8.74,7.94c-4.74-.23-8.11-3.74-7.88-8.21A7.94,7.94,0,0,1,161.89,491.92Zm-.18,11c2,0,2.26-1.66,2.5-3.08a2.17,2.17,0,0,0-2.18-2.75c-1.67-.05-2.18,1.27-2.21,2.76S159.91,502.57,161.71,502.91Z"/><path class="cls-14" d="M260.36,494.85c1.26.32,3.58-.69,3.95.85s.8,4.19-.66,5.53-3.19,1.21-4.61-.83c-.57-.81-2-.12-2.53,1a3.16,3.16,0,0,0,4.78,3.77c1.77-1.55,3.5-1.63,4.45.42s-.64,3.43-2.4,4.29c-3.56,1.72-7.12,1.86-10.31-.75-2.78-2.27-3.35-5.4-2.39-8.72C251.66,496.91,255.33,494.87,260.36,494.85Z"/><path class="cls-14" d="M188.59,512.86c-3-.31-6.06-.69-9.09-.9-3.88-.27-2.86-3.64-1.75-4.41,3.26-2.28,4.15-5.88,6.15-8.83.77-1.15,1.31-2.65,2.93-2.46,1.8.2,2,1.86,2.63,3.28,1.38,3.11,1.43,6.62,3.87,9.49C195.38,511.46,193.25,513.18,188.59,512.86Z"/><path class="cls-14" d="M232.35,514c-.45,0-2.13,0-3.8,0-2.62,0-4.31-2.64-2.5-4.27,3-2.69,3-6.46,4.67-9.61.54-1,.64-2.53,2.18-2.57s2.31.95,3.1,2.25c1.93,3.16,2.63,6.94,5.75,9.58,1.2,1,1.44,4.22-2.27,4.13C237.52,513.45,235.54,513.76,232.35,514Z"/><path class="cls-14" d="M276.52,507.69c-2.59.16-2.81-2.67-2.13-3.58,2.52-3.36,2.29-7.36,3.36-11,.34-1.17.36-2.5,1.89-2.68a3.33,3.33,0,0,1,3,1.55c2.46,2.94,3.71,6.85,7.46,8.84.58.31,2.28,3.4-.92,4.13C285.09,505.85,281,506.73,276.52,507.69Z"/><path class="cls-8" d="M117.79,492.83c5.94-1.84,8.22-5.93,7.36-11.95a5.65,5.65,0,0,1,6.73,2.23c1.3,2.05.44,4.44-.9,6.73-2.09,3.59-4.85,6.08-8.87,6.85C119.33,497.23,117.29,496.28,117.79,492.83Z"/><path class="cls-8" d="M321.56,481.34c.2,5.58,1.78,10.19,8.05,11.53-.5,4-3.18,4.3-6.29,3.6-3.66-.84-8.23-6.55-8.42-10.33C314.69,481.93,317.2,480.12,321.56,481.34Z"/><path class="cls-9" d="M26.28,243.31c0,.59,0,1.18,0,1.77L10.83,244a4.28,4.28,0,0,0-3.91-.43c-.53-3.24,1.82-2.3,3.34-2.14C15.6,242,20.94,242.67,26.28,243.31Z"/><path class="cls-7" d="M51,362.49c2.78-.73,5-2.9,7.92-3.22a1.83,1.83,0,0,1,2.22.49L53,364.07C52.82,362.91,51.44,363.29,51,362.49Z"/><path class="cls-10" d="M117.89,409.52a20.54,20.54,0,0,1,9.17,2.66c-1,.34-2.41-.16-3,1.24C121.88,412.33,119.33,411.8,117.89,409.52Z"/><path class="cls-7" d="M371.21,352.85l8.2,2.94c-.64.58-1.27,1.17-1.9,1.76l-6.43-2.95C371.13,354,371.17,353.43,371.21,352.85Z"/><path class="cls-11" d="M1.35,250.25a21.49,21.49,0,0,1,4.72-6.59c.17,3.57-2.27,5.2-3.66,7.36C2.06,250.76,1.71,250.5,1.35,250.25Z"/><path class="cls-7" d="M366.48,376.83c-1.56-1.12-3.43-1.85-4.51-3.58.07-.45.15-.9.22-1.35a10.61,10.61,0,0,1,4.42,2.65C366.57,375.31,366.52,376.07,366.48,376.83Z"/><path class="cls-13" d="M58.44,375.38a8.72,8.72,0,0,1,2-1c1-.23,2.59-1.48,3.11-.09.61,1.6-.94,2.3-2.46,2.45C60.62,375.48,59.15,376.18,58.44,375.38Z"/><path class="cls-9" d="M110.58,469.59c-.5.93.94,2.11-.22,2.8-.37.21-1.49-.36-1.92-.86-1.18-1.42,1-1.47,1.13-2.43Z"/><path class="cls-13" d="M313.59,438.89l4.37,1.82C315.28,443.06,314.33,441.22,313.59,438.89Z"/><path class="cls-11" d="M6.92,243.56a4.28,4.28,0,0,1,3.91.43A5.69,5.69,0,0,1,6.92,243.56Z"/><path class="cls-13" d="M67.83,371.13c-.31.61-.25,1.58-1.36,1.38a.4.4,0,0,1-.24-.28c0-1.13,1-.84,1.63-1.11Z"/><path class="cls-9" d="M109.56,469.1h-2.75C107.73,468.06,108.65,468.27,109.56,469.1Z"/><path class="cls-13" d="M44.6,369.64l-1,.66Z"/><path class="cls-13" d="M312.83,438l.71.82C313,438.81,312.68,438.63,312.83,438Z"/><path class="cls-13" d="M42.74,370.77a1.14,1.14,0,0,1-.69.5Z"/><path class="cls-13" d="M73.47,378.5a1.23,1.23,0,0,1-.53-.64Z"/><path class="cls-13" d="M52.86,380.35l.76-.86C53.8,380.15,53.42,380.34,52.86,380.35Z"/><path class="cls-13" d="M49.28,382.65a1.13,1.13,0,0,1,.68-.47Z"/><path class="cls-13" d="M358.32,395.94l.91.76C358.6,396.84,358.35,396.52,358.32,395.94Z"/><path class="cls-13" d="M63.49,363.88l-.58-.83Z"/><path class="cls-13" d="M48.21,368.94l-.78-.09A1.06,1.06,0,0,1,48.21,368.94Z"/><path class="cls-15" d="M233.84,35.92l-.32.57c-.09-.1-.28-.22-.26-.3a2.88,2.88,0,0,1,.28-.59Z"/><path class="cls-1" d="M179.92,230.29c3.86,1.33,8,1.13,11.93,2.53,3.52,1.25,6.87-.08,8.35-4.1.11-.28.1-.68.29-.84,2.7-2.28,6-3.82,4.07-8.8-.67-1.71,3-3.11,5.33-2.22,2,.78,3.46,2.25,1.62,4.76-.69.95-1,2.69.49,3.14,3.36,1,4.17,3.94,5.62,6.5.72,1.27,2.09,3.59,2.9-.1.34-1.56,1.5-2.09,2.7-1.48a1.93,1.93,0,0,1,.33,3.13c-3.73,3.8-1.13,3.67,2.1,3.93,10.95.89,21.7-1.67,32.58-1.77-2.09,5.71-5.51,9.4-12.17,9.82-17,1.09-34,2-51,.46a16.77,16.77,0,0,1-12.9-7.46c-2.08-3-4.19-5.85-7.71-7.62C176.59,228.23,178.19,230.4,179.92,230.29Z"/><path class="cls-8" d="M163.9,238.09c-3.81,2.58-8.47,2-12.62,3.32-1.43.46-2.25-.37-2.7-1.71a14.35,14.35,0,0,1-.61-7.63c.49-2.43,1.66-3.75,4.3-3.69s5.48,0,8.21-.18c1.67-.11,2.61.44,2.84,2.1Q163.6,234.18,163.9,238.09Z"/><path class="cls-10" d="M178.28,195.54a27.11,27.11,0,0,1,0,14.84Q178.29,203,178.28,195.54Z"/><path class="cls-9" d="M255,155.15a7.32,7.32,0,0,1-7.4-7.17,7.09,7.09,0,0,1,7-7.43,7.28,7.28,0,0,1,7.69,7.28A7.55,7.55,0,0,1,255,155.15Zm0-11.75c-3.23-.2-5.31,1.23-5.27,4.56s2.06,4.57,5.3,4.71c3.74.16,4.88-2.52,5.07-5.07C260.28,144.64,258,143.22,255,143.4Z"/><path class="cls-9" d="M178.31,160.57a7.46,7.46,0,0,1-7.47-7c-.14-4.37,2.86-7.42,7.53-7.67,3.46-.19,6.92,3.17,7.13,6.92A7.38,7.38,0,0,1,178.31,160.57Zm-.23-2.49c3.89.35,5.12-2.52,5.21-5.31.09-3-2.37-4.06-5.31-4.05-3.09,0-5.15,1.48-5,4.41C173.11,155.88,174.54,158.34,178.08,158.08Z"/><path class="cls-9" d="M225.75,146.57a7.39,7.39,0,0,1-7.76,7.17,7.27,7.27,0,0,1-7-7.46,7.42,7.42,0,0,1,7.27-7.25A7.51,7.51,0,0,1,225.75,146.57Zm-7-4.95c-3.77,0-5.71,1.71-5.63,4.93s2.33,4.53,5.48,4.44c3-.08,5.18-1.48,4.93-4.47C223.32,143.8,221.92,141.25,218.78,141.62Z"/><path class="cls-13" d="M357.44,381.18c-.23.83-.23,1.66-1.05,1.37-.36-.12-.63-.9-.67-1.4s.11-1.36.93-1.1C357.05,380.18,357.25,380.89,357.44,381.18Z"/><path class="cls-13" d="M356.73,391c-.25-.11-.64-.16-.71-.34s.18-.49.28-.74c.26.11.65.16.72.34S356.84,390.77,356.73,391Z"/><path class="cls-1" d="M161.71,502.91c-1.8-.34-1.92-1.66-1.89-3.07s.54-2.81,2.21-2.76a2.17,2.17,0,0,1,2.18,2.75C164,501.25,163.72,502.88,161.71,502.91Z"/><path class="cls-3" d="M255,143.4c3.05-.18,5.33,1.24,5.1,4.2-.19,2.55-1.33,5.23-5.07,5.07-3.24-.14-5.26-1.47-5.3-4.71S251.72,143.2,255,143.4Z"/><path class="cls-3" d="M178.08,158.09c-3.54.25-5-2.21-5.1-5-.15-2.93,1.91-4.4,5-4.41,2.94,0,5.4,1,5.31,4.05C183.2,155.56,182,158.43,178.08,158.09Z"/><path class="cls-3" d="M218.78,141.62c3.14-.37,4.54,2.18,4.78,4.9.25,3-1.94,4.39-4.93,4.47-3.15.09-5.39-1.15-5.48-4.44S215,141.63,218.78,141.62Z"/></g></g></svg>