<svg xmlns="http://www.w3.org/2000/svg" viewBox="0 0 329.83 494.05"><defs><style>.cls-1{fill:#0f7343;}.cls-2{fill:#292523;}.cls-3{fill:#75c19f;}.cls-4{fill:#f3f7f5;}.cls-5{fill:#c1c1c1;}.cls-6{fill:#a78519;}.cls-7{fill:#211c1b;}.cls-8{fill:#197446;}.cls-9{fill:#f9f8f8;}.cls-10{fill:#ec6c1b;}.cls-11{fill:#343130;}.cls-12{fill:#566463;}.cls-13{fill:#8e8d8c;}.cls-14{fill:#2c332a;}.cls-15{fill:#fefefe;}.cls-16{fill:#fdfcf7;}</style></defs><title>Recurso 1</title><g id="Capa_2" data-name="Capa 2"><g id="Layer_1" data-name="Layer 1"><path class="cls-1" d="M.53,181.51c.24-5,.51-10,.69-15,0-1.12.34-1.44,1.54-1.26a57.66,57.66,0,0,0,6.15.6c1.07,0,1.26.48,1.3,1.38.2,4.47.46,8.95.7,13.42-.09,5,0,10,.2,15q.59,17.91,2.76,35.72a335.25,335.25,0,0,0,7.47,40.95,275.84,275.84,0,0,0,24.07,63.24A249.27,249.27,0,0,0,86.1,391.43a268,268,0,0,0,30.4,27q8.15,6.19,16.72,11.84c.63.41,1.24.88,1.75-.11a66.44,66.44,0,0,1-3.31,6.1,4.09,4.09,0,0,0-1.72,3.18l-.08,0,.08,0a6.17,6.17,0,0,0-2.47,4.47v0a2,2,0,0,0-1.17,2.13l-2.88,5.38c-.49,1.22-.18,1.53,1.52,1.53l32.41,0c.52,0,1.29-.25,1.53.21.62,1.2,1.68.92,2.66.93,1.82,0,3.64,0,5.45,0,.55,0,1.26,0,1.48-.43.42-.88,1.13-.76,1.84-.76h32.41c.34,0,.69,0,1,0,1-.09,1.29-.53.68-1.37-.25-.46-.49-.92-.74-1.37q-4.77-8.72-9.55-17.43c.63.87,1.18.27,1.71-.1a329.46,329.46,0,0,0,34.39-27.11,281.2,281.2,0,0,0,44.06-50.44,263.48,263.48,0,0,0,32-64.78,294,294,0,0,0,13-58.86c1.3-11,2.1-22.1,2.31-33.21q.19-10.62-.11-21.25c.12-2.92.3-5.85.32-8.77,0-1.07.41-1.39,1.42-1.43a31.66,31.66,0,0,0,3.22-.34c.7-.11,1,0,1.11.79.74,7.37,1.49,14.74,1.68,22.15a14.59,14.59,0,0,0,.59,4.35v31.76a23.72,23.72,0,0,0-.27,5.89c-.44,8-1.07,16-2,24q-1.87,15.69-5.3,31.14a268.83,268.83,0,0,1-24.87,67.84,273.35,273.35,0,0,1-48.15,64.75,343.34,343.34,0,0,1-45,37.82c-.43.31-1,.54-1.22,1.19h2.63q30.32,0,60.62,0c1.41,0,1.68.42,1.66,1.66-.07,4.87,0,9.74,0,14.6q0,9.57-.06,19.14-103.83,0-207.65,0c-1.42,0-1.81-.36-1.8-1.72.06-10.54,0-21.08,0-31.62,0-1.85,0-1.85,1.9-1.85h64.6c.44,0,.89,0,1.33,0,.22,0,.57,0,.39-.37-.08-.13-.43-.12-.66-.18a4.81,4.81,0,0,1-.51-.25c-26.77-17.85-50.25-39-69.47-64.36a255.66,255.66,0,0,1-37-68.89A317.11,317.11,0,0,1,3.26,255.86C1.55,242,.65,228,.28,214l0-22.29,0-2.87a16.2,16.2,0,0,0,.12-4.23l0-.88c0-.65.1-1.31.16-2Zm100,287.12c.09-5.65-3.74-9.49-9.16-9.42-10,.13-14.89,10.74-13.33,17.23,1.25,5.17,6.57,7.73,12.29,6.07S100.44,474.82,100.54,468.63ZM151.22,476a48,48,0,0,0,1.62,6.29c1.06,2.87,2.45,5.52,5.8,6.49a4.9,4.9,0,0,0,5.06-1,1.57,1.57,0,0,0,.53-1.67.92.92,0,0,0-.85-.69c-.78,0-1.06.52-1.38,1.08-.92,1.59-2.25,1.8-3.71.57a8.47,8.47,0,0,1-2.5-3.95c-1-3.05-1.56-6.22-2.32-9.35a1.4,1.4,0,0,1,.15-1.22c1.61-2.28,3.09-4.7,6.5-4.68a3.57,3.57,0,0,0,1-.21,1.09,1.09,0,0,0,.89-1.28,1.18,1.18,0,0,0-1.2-1,4.11,4.11,0,0,0-2.37.64,15.73,15.73,0,0,0-4.42,4.1c-.3.37-.41,1-1.08,1a26.05,26.05,0,0,0-1.11-3.84,1.47,1.47,0,0,0-2-.89A16.56,16.56,0,0,0,145.5,469c-.2.16-.34.32-.14.58s.39.41.73.18c.52-.35,1-.7,1.58-1,1-.62,1.69-.32,2,.74.4,1.45.73,2.93,1.08,4.4a1,1,0,0,1-.2.79,34.65,34.65,0,0,1-4.72,6c-.81.75-1.55.93-2.36,0a1.08,1.08,0,0,0-1.77-.11,1.26,1.26,0,0,0,.19,2,2.65,2.65,0,0,0,2.65.27,7.58,7.58,0,0,0,3.37-2.66C149,478.85,150,477.52,151.22,476Zm86.88,3.34c.19.67-.17,1.17-.31,1.7-.46,1.78.1,2.31,1.92,1.82a13.52,13.52,0,0,0,5.35-3.41c.22-.19.45-.38.16-.7s-.56-.26-.88,0c-.66.49-1.32,1-2,1.42-.32.2-.71.46-1.1.24s-.29-.67-.24-1c.15-.88.32-1.76.5-2.64.77-3.69,1.93-7.29,3-10.87a.75.75,0,0,0-.9-.06c-.88,1.07-2.1.72-3.22.79a8.09,8.09,0,0,0-1.31.17c-4.18,1-6.59,3.91-8.46,7.34-1.12,2.06-1.93,4.26-1.37,6.66.46,2,1.85,2.73,3.85,2a9.88,9.88,0,0,0,2.17-1.17C236.23,480.84,237.13,480.06,238.1,479.3Zm-109-13.75c-2.23,1.77-5.16.4-7.43,1.82a.84.84,0,0,1-.14.06,15.27,15.27,0,0,0-7.78,11.73,3.32,3.32,0,0,0,1.45,3.5c1.3.75,2.56.15,3.74-.49A23.6,23.6,0,0,0,123,479c-.24.88-.43,1.55-.61,2.23-.42,1.58.13,2.11,1.82,1.68,2.21-.57,3.84-2,5.47-3.46.24-.2.39-.4.13-.71s-.56-.2-.86,0c-.75.53-1.49,1.08-2.29,1.54s-1.15.19-1-.66.27-1.86.46-2.79C126.86,473.05,128,469.42,129.05,465.55Zm53.27,13.65c-.18.58-.41,1.15-.53,1.74s-.52,1.23,0,1.74,1.29.31,2,.12a13.65,13.65,0,0,0,5.21-3.36c.28-.24.47-.47.12-.81s-.52-.12-.77.05c-.59.43-1.17.86-1.77,1.27-.4.26-.86.65-1.33.39s-.32-1-.22-1.42c.4-1.95.82-3.89,1.33-5.81.66-2.47,1.41-4.93,2.15-7.5-1.38.08-2.16,1.13-3.54,1a8.13,8.13,0,0,0-6.17,2.2,16.59,16.59,0,0,0-5,6.9,9,9,0,0,0-.72,4.43c.36,2.68,2.09,3.54,4.61,2.31A26,26,0,0,0,182.32,479.2Zm20.93-1.51c-.09,4.65,2,6.1,5.73,4.86a20.35,20.35,0,0,0,5.1-2.78c.41-.28.6-.65.29-1.08s-.7,0-1,.15a10,10,0,0,1-3.89,1.93c-1.6.34-2.67-.22-2.94-1.76a12.5,12.5,0,0,1,2.2-9.69c.92-1.31,2.11-1.48,3.62-.84.4.18.78.39,1.19.55a2.11,2.11,0,0,0,2.23,0,1.23,1.23,0,0,0,.37-1.43,2,2,0,0,0-1.76-1.31,6.91,6.91,0,0,0-5.65,1.43A14.56,14.56,0,0,0,203.25,477.69Z"/><path class="cls-2" d="M140.13,0c2.21,2,2.94,4.61,3.54,7.28a35.63,35.63,0,0,1-1.52,21,15.72,15.72,0,0,1-10.08,9.83c-4.63,1.52-8.69-.34-10.49-4.72a19.64,19.64,0,0,1-1.36-8.33,88.81,88.81,0,0,1,1.26-11.25c.09-.5.11-1,.17-1.65a13.69,13.69,0,0,0-7.25,4c-1.64,1.83-1.56,3.5.13,5.36.55.62,1.06,1.26.66,2.16a1.5,1.5,0,0,1-1.37.93,2.16,2.16,0,0,1-2.09-1.33,7.28,7.28,0,0,1,.59-6.79,10.39,10.39,0,0,1,5.44-4.57c2.52-1,5.1-1.9,7.85-2.91a73.12,73.12,0,0,0-1.27,7.78c-.39,4.55-1.09,9.13.71,13.58s6,5.79,10.22,3.2a11.22,11.22,0,0,0,3.21-3.08,22.57,22.57,0,0,0,4-11.54,31.37,31.37,0,0,0-.21-7.62,13.8,13.8,0,0,0-3.81-8c-1.06-1-1.36-2.13-.36-3.36Z"/><path class="cls-3" d="M57.82,494.05q0-17.06,0-34.12c0-.54-.23-1.13.22-1.62,0,.47,0,.94,0,1.41V491.9c0,2.14-.25,1.87,2,1.87H267.84l0,.29Z"/><path class="cls-4" d="M.25,191.74l-.12,0H0v-7.94l.37,0,0,.88a17.61,17.61,0,0,0-.12,4.23Z"/><path class="cls-3" d="M329.83,231.43a.77.77,0,0,0-.27-.07,23.72,23.72,0,0,1,.27-5.89Z"/><path class="cls-5" d="M135,430.11c-.52,1-1.13.53-1.76.12q-8.58-5.64-16.72-11.84a268,268,0,0,1-30.4-27,249.27,249.27,0,0,1-40.69-55.85,275.84,275.84,0,0,1-24.07-63.24,335.25,335.25,0,0,1-7.47-40.95q-2.17-17.8-2.76-35.72c-.17-5-.29-10-.2-15,.29,1.8.64,3.59.86,5.39a124.79,124.79,0,0,0,4.31,19.74,141.21,141.21,0,0,0,11.38,27.58,152.07,152.07,0,0,0,20.12,28.68,154.66,154.66,0,0,0,41.07,32.7,162.28,162.28,0,0,0,18.25,8.58,14,14,0,0,0,4,1.32.73.73,0,0,0,.6.27c1.29.14,2.27,1,3.48,1.38a162.75,162.75,0,0,0,24.55,6c.4.06.78.12.9.58-.3.36-.78.34-1.17.49a8.86,8.86,0,0,0-4.73,3.74l-.34.26v0l0-.06c.2,0,.32-.05.3-.27.57.05.8-.45,1.19-.69a10.9,10.9,0,0,1,9.12-1.69c2.09.56,3.63,1.86,5.35,2.95l0,.22.13-.1-.21-.1c-.72-1.8-2.35-2.79-3.83-3.91.48-.68,1.17-.34,1.74-.27,3,.39,5.93.66,8.91.76,3.28.11,6.56.42,9.84.28a5.42,5.42,0,0,1,2.08.63,10,10,0,0,0,3.61.5c.57,0,1.26-.11,1.49.6a1.45,1.45,0,0,1-.69,1.6c-.75.59-1.51,1.16-2.27,1.74a58.09,58.09,0,0,0-20.62.6c-.52.1-1.11.55-1.64,0l-.25-.41c-3.13-4.53-8.7-4.94-12.4-.58-.11.16-.45.23-.19.49a3.28,3.28,0,0,0,.39-.28,17.18,17.18,0,0,1,2.68-1.43c3.59-1.26,6.62-.25,9.38,2a.3.3,0,0,0,.41.22,2.8,2.8,0,0,1-2.34.91c-2.86-2.88-6.48-2.76-9,.28l-.31.27-.09.11a.36.36,0,0,0,0,.07c0-.07,0-.14,0-.2.26.14.38.06.37-.22,2.7-1.45,5.43-2,8.25-.3-.4.69-1.22.56-1.82.87-1.78-.77-3.37-.42-5.2.91l3.56-.62c-.24.5-.77.56-1.21.73A55.9,55.9,0,0,0,116.83,341c-10.23,13.38-13.67,28.35-10,44.53,4,17.57,14.85,30.19,31.64,38.1a4.67,4.67,0,0,1,1.94,1.18l-.08.31a1.42,1.42,0,0,0-1.06.26c-.75.19-1.72-.38-2.25.58A24.72,24.72,0,0,1,135,430.11Z"/><path class="cls-5" d="M321.49,177q.31,10.62.11,21.25c-.21,11.11-1,22.17-2.31,33.21a294,294,0,0,1-13,58.86,263.48,263.48,0,0,1-32,64.78,281.2,281.2,0,0,1-44.06,50.44,329.46,329.46,0,0,1-34.39,27.11c-.53.37-1.08,1-1.7.1-1-1.44-1.3-3.23-2.54-4.56-.22-.24-.54-.59-.3-1l-.46-.44v0c0-.22,0-.43-.3-.44h0c.14-.61-.13-.87-.76-.86s-1.07,0-1.6,0h0a2.6,2.6,0,0,0-2.21-1.17c0-.48.41-.45.69-.57a54.78,54.78,0,0,0,19.18-14c12.72-14.64,16.61-31.3,12-49.8a53.84,53.84,0,0,0-7.77-16.69c.75.08,1.23.73,2,.82a3.56,3.56,0,0,0,4.14-3.42,2.35,2.35,0,0,1,1.45-2.39,2.64,2.64,0,0,1,2.84.62c1,.84,1.92,1.65,3.45,1.56,2.62-.16,4-2.12,2.83-4.44-.13-.25-.28-.5-.41-.75-.39-.82-.9-1.73-.06-2.47s1.7-.2,2.44.24a6.23,6.23,0,0,0,3.5.87,4.13,4.13,0,0,0,4-2.32c.75-1.63.18-3-1-4.25l-.41-.41c-1.7-2-1.2-3.32,1.4-3.9a11,11,0,0,1,1.9-.2,5.55,5.55,0,0,0,3.8-1.63,2.8,2.8,0,0,0-.68-4.59,16,16,0,0,0-2.31-.9c-.73-.25-1.45-.62-1.38-1.44a1.59,1.59,0,0,1,1.58-1.43c.39,0,.76-.17,1.15-.22,2.59-.32,4.59-1.77,4.82-3.51a5.41,5.41,0,0,0-3.75-5.5,7.18,7.18,0,0,1-2-.83A128.91,128.91,0,0,1,248,291.82l.35-.31-.07,0,0,0c1.68-.07,2.82-1.23,4.08-2a154.87,154.87,0,0,0,26.74-21.65,150.92,150.92,0,0,0,16.68-20.1,154.61,154.61,0,0,0,9.77-16.14,143.56,143.56,0,0,0,13.07-36.09,119.84,119.84,0,0,0,2.67-17.87A2.35,2.35,0,0,1,321.49,177Z"/><path class="cls-1" d="M184.68,342.61a.18.18,0,0,0,0,.22l-.19.33-.09.28-.21.29-.08.28a4.22,4.22,0,0,0-.31.47q-4.35,9-8.69,17.93c-.52,1.07-1.05,2.13-1.55,3.2a1.32,1.32,0,0,0,.28,1.69,1.15,1.15,0,0,0,1.49,0,20.17,20.17,0,0,0,1.78-1.24q10-8,20-16.1a2.56,2.56,0,0,0-.7-4.53c-.31-.12-.88,0-.78-.57a1.14,1.14,0,0,1,.39-.74c.37-.23.58.2.84.37a3.8,3.8,0,0,0,5.66-1.19c.26-.4.31-1.07,1.09-.94a54.92,54.92,0,0,1,9,16.28c6.32,18.49.11,40.14-15.19,52.91a54.26,54.26,0,0,1-26.23,12c-23.88,4-48.46-9.34-57.2-31.09-8-19.93-2.89-41.58,13.62-56,11.44-10,25.07-14.09,40.47-12.73a1.44,1.44,0,0,1,1.48,1,2.94,2.94,0,0,0,3.26,1.67c1.07-.09,2.12-.38,3.19-.55a1.73,1.73,0,0,1,2,.62,1.55,1.55,0,0,1-.29,1.85,11.74,11.74,0,0,0-2,2.78c-.24.59-.7.42-1.1.23-1.72-.85-3.24.06-4.82.49-.17,0-.46.22-.45.32.18,1.92-1.48,1.65-2.77,1.91.57.82,1.29.73,1.93.8.48.06,1.11-.05,1.2.56s-.62.59-1,.74-.65.17-1.05.27c.62.49,1.29.3,1.9.34,1.77.13,3.1.84,3.31,2.46s1,3,.22,4.73.15,3.6,1.67,4.92a1.72,1.72,0,0,0,3-.82,4.28,4.28,0,0,1,3.09-3.26,7.42,7.42,0,0,0,3.08-2.33Zm-32.17-7.07c-1.26-.41-1.31-.47-2.47.68-.83.84-1.28.41-1.89-.21-1.17-1.2-1.37-1.16-2.57.06a4.25,4.25,0,0,1-.86.53.9.9,0,0,0,1.07-.15c.48-.36,1-.33,1.14.28.33,1.09,1.23,1.13,2.12,1.09a14.24,14.24,0,0,1,2.29-.3c.93.1.88-.42,1-1,.11-.35-.28-.73.12-1,.74.2,1.11-.33,1.61-.67s.61-.46.4-.89-.72-.39-1.15-.4-.8.06-.82.57S152.52,335.07,152.51,335.54ZM123.09,354l-.64.59c-.93.83-1.86,1.66-2.78,2.5-.26.24-.69.46-.22.9s.62.09.87-.13c1.49-1.28,3-2.58,4.46-3.88l2.53-1.94.18.14c-.38.89-.76,1.78-1.16,2.7a1.94,1.94,0,0,0,2.31-1.53,5.46,5.46,0,0,1,1.49-2.41,2,2,0,0,1,2.41-.39,8.48,8.48,0,0,1,4.26,4.31c.23.54.63,1.14-.49,1.26-.56.07-.28.45-.13.75a7.67,7.67,0,0,1,.27,6.44,2.64,2.64,0,0,0,.74,3.13c1.59,1.21,2.08,2.9,2.67,4.59a4.55,4.55,0,0,0,.34,1.19c.44.74.3,2.17,1.42,2,.43-.06-.15-1.64-.55-2.46-.26-.53-.7-1-.07-1.59l.27.31a.49.49,0,0,0,.34.46l.44.57c.93,1.26,2.43,2.27,1.8,4.21-.15.43.48.84,1,.94,1.83.41,3.33,1.56,5.16,2a4.55,4.55,0,0,1,3.37,2.5,2.1,2.1,0,0,0,2.28,1.63c.55,0,1.25-.09,1.35.75a2.62,2.62,0,0,1-.55,2.39c-1,.82-.38,1.9-.78,2.7-.63,1.28.05,1.73,1,2.2a.8.8,0,0,1,.38.87c-.27,2.12,1.05,3.55,2.56,4.63a3.36,3.36,0,0,1,1.43,2.84c.34,4-.56,8-.67,12,0,1.31.85,2.38.53,3.7-.54,2.22.35,3.83,2.48,4.86,1.14.55,1.73.39,1.73-.83a51.38,51.38,0,0,1,.4-6.06,4.79,4.79,0,0,1,1.5-3c.72-.73,2.27-1.1,1.56-2.69-.1-.23.48-.35.83-.4a3.88,3.88,0,0,0,3.09-3.44,2.8,2.8,0,0,1,1.79-2.82,2.48,2.48,0,0,0,1.56-2.07,12.61,12.61,0,0,1,2.4-6.15c1-1.41.73-2.93-1-3.29s-3.34-1.28-5-1.75c-1.19-.33-1.47-.77-1.54-1.71s-.54-1.64-1.77-1.45c-.4.06-1,.14-1.2-.31-1.17-2.28-3.13-3.18-5.67-3.25a5.14,5.14,0,0,1-1.35-.52,2.21,2.21,0,0,0-2.65.67c-.5.66-.85.72-1.61.38s-1.48-.06-2-.64a.65.65,0,0,1-.12-.8c.85-1.2-.16-1.49-1-1.73-1.22-.36-1.14-1.11-.53-1.78s.36-1.25-.28-1.57-1.31,0-1.58.79c-.18.51-.16,1.2-1.07,1s-1.57-.45-1.7-1.33a6.72,6.72,0,0,1,0-2.68,2.52,2.52,0,0,1,2.81-2.11,5.65,5.65,0,0,0,1.75-.06c1.49-.5,2.21.27,2.81,1.36.23.41.43.84.65,1.27.77-.39.62-1,.58-1.6-.06-.9-.74-2,.12-2.69,2.5-2,3.66-4.84,5.5-7.24a2.21,2.21,0,0,1,2.91-.82c.44.23.79.18,1-.15s.66-.55.29-1.2c-.81-1.43-.21-2.34,1.47-2.51.32,0,.72-.2.94.15s-.09.61-.21.92-.77.67-.44,1.08a1.62,1.62,0,0,0,1.87.44c.66-.23,1.64-.71,1.35-1.24-.82-1.49-1.09-3.32-2.42-4.46a4.94,4.94,0,0,1-1.56-2.44,2.61,2.61,0,0,0-.82-1.51c-.21.63-.5,1.08-1.3,1.09-1.08,0-.47-.68-.59-1.06s-.53-.41-.82-.52c-.73-.28-1.51-.45-2.22-.76s-1.08-.13-1.14.72c-.15,2.14.11,4.42-1.91,6a1.9,1.9,0,0,0-1.53-1.65,15,15,0,0,1-2.28-1c-2.23-1.2-2.39-2.39-.53-4.07s3.53-3.59,6-4.82a7.18,7.18,0,0,0-2.21-.95c-.8-.14-1.17-.82-1.72-1.27-.37-.3-.67-.78-1.23-.49s-.5.76-.43,1.25c0,.21.11.46-.16.62-.81-.17-1.78-1-2,.68-.06.42-.88.18-1.34.16a.3.3,0,0,1-.2-.52c.92-1,.36-2,.21-3.09-.11-.75-.29-.87-.94-.76a5.11,5.11,0,0,1-3.87-.77,2.76,2.76,0,0,0-3.91.68,1.57,1.57,0,0,0-.38,1.58c.22.63.85.5,1.38.53.73,0,1.68-.14,2,.54a1.55,1.55,0,0,0,1.63.89,1.59,1.59,0,0,1,1.33.49c.15.21-.1.52-.31.74-.48.49-1,.22-1.47,0-1.47-.53-3-1-4.42-1.57a3.81,3.81,0,0,0-3.1-.09,5,5,0,0,1-3.61.15c-2.24-.8-4.61-.91-6.9-1.41a5.91,5.91,0,0,0-3.31.3c-.5.16-1.24.17-1.29.74s.56.83,1,1.1c.29.16.89.13.62.72a.88.88,0,0,1-1.17.57c-.42-.12-.86-.19-1.29-.27a.87.87,0,0,0-1.12.67c-.13.52.36.59.7.73s1,.37,1.5.58c.33.15.89.13.82.64a1.16,1.16,0,0,1-.91,1,2.92,2.92,0,0,1-1,.12,3.71,3.71,0,0,0-3.16,1.4c.31.43,1,.31,1.08.91-1.5.64-1.52,1.08-.37,2.16.93.88,1.95.69,3,.55C124,353.4,123.23,353.49,123.09,354Zm47.43-23.66c-2.91.06-5.85-.57-8.64.64-.36.16-.64-.11-.95-.24s-.93-.86-1.36-.13a1,1,0,0,0,.42,1.55c.34.15.49.41.31.65s-.61.24-.9,0a1.61,1.61,0,0,1-.32-.48c-.29-.56-.78-.51-1.25-.32s-.56.59-.47,1.07c.13.64.18,1.3.3,1.94.05.24.21.43-.18.49-1.62.25-.61.75-.08,1.07a9.56,9.56,0,0,0,2.24,1.06c1.05.3,2.18.45,2.52-1,0-.13.1-.31.2-.34a5.94,5.94,0,0,0,3.38-3.12,1.91,1.91,0,0,1,1.46-.83A5.38,5.38,0,0,0,170.52,330.3ZM166.75,345c.73-.22,1.25,1.22,1.79.2.41-.78-.17-1.53-1-2-.12-.07-.28-.08-.41-.14-.36-.15-.6-.44-.46-.78.52-1.3-.43-1.66-1.33-1.66-1.15,0-2-1.69-3.3-.5a.78.78,0,0,1-.34-.24c-.7-.93-1.81-.84-2.79-1s-1.38.54-1.55,1.33.5,1.08,1.14,1.12c1.33.08,2.47.84,3.83.86a1.86,1.86,0,0,1,1.63,1.27c.29.74-.47,1-.9,1.45s-1,.57-1,1.35c1.43-.22,2.27.61,3.07,1.54.28.32.64.67,1.13.46a1.12,1.12,0,0,0,.72-1.13C166.94,346.4,166.83,345.7,166.75,345Zm-10.83,28.7a1.79,1.79,0,0,0-1.54.61.55.55,0,0,0-.17.48.52.52,0,0,0,.47.21c1.11-.44,1.87.05,2.73.7a1.31,1.31,0,0,0,1.87-.53c.34-.76-.58-.84-1.07-1C157.47,373.91,156.68,373.81,155.92,373.66ZM154,338.35c-1.15,0-1.82.24-1.76.95s.17,1.71,1.06,1.73a1.49,1.49,0,0,0,1.37-1.53C154.74,338.76,154.39,338.35,154,338.35Zm5.35,37.84a2,2,0,0,0,2.48.55c.31-.09.14-.39,0-.56A1.75,1.75,0,0,0,159.38,376.19Zm-7-38.69h1.8c.34,0,.58-.12.59-.47a.67.67,0,0,0-.14-.51.65.65,0,0,0-.81,0C153.4,336.76,153,337.07,152.39,337.5Z"/><path class="cls-6" d="M104.74,198.06c-1.6,7.45-3.45,14.77-5.42,22.06-2,7.52-4,15-6.14,22.53-2,7-4.7,13.69-9.82,19.21-5.39,5.8-12.18,7.39-19.91,6.1a14.52,14.52,0,0,1-6.6-2.93,5.73,5.73,0,0,1-2.15-3.12,3.67,3.67,0,0,1,1.17-4.11,4.25,4.25,0,0,1,4.41-.55,10.49,10.49,0,0,1,3.27,2.13,17.41,17.41,0,0,0,2.92,2.12c4.32,2.35,8.6,1.63,12.48-2.17,3.43-3.37,5.42-7.58,7.18-11.88,4.2-10.24,7-20.89,9.5-31.58,1.61-6.75,3.08-13.53,4.58-20.31.5-2.26.87-4.54,1.28-6.82.09-.48.31-1.12-.65-1-8.29,1-16.65,2.07-23.34,7.5-5.85,4.76-7.58,13.21-3.45,19.33a16.81,16.81,0,0,1,1.24,2.24,3.71,3.71,0,0,1-.71,4.44,4.49,4.49,0,0,1-4.92.73,7.43,7.43,0,0,1-4-6.06c-.9-6.64-.09-13,4-18.68A28.37,28.37,0,0,1,87.12,186c6.8-1.53,13.74-2.2,20.59-3.41l.14,0c3.44-.57,3.42-.56,4.19,2.69a272.74,272.74,0,0,0,10.39,34.28c2.93,7.79,5.75,15.62,8.64,23.43.14.38.21.83.75,1.09.69-2.56,1.41-5.1,2.06-7.65,1.58-6.22,3.19-12.43,4.67-18.68A133.74,133.74,0,0,1,145.14,197c1.74-4.16,3.8-8.15,7.12-11.42,4.27-4.23,9.73-5.48,15.56-6.08,7.57-.78,15.18-1.08,22.77-1.69.37,0,.84-.32,1.1,0s-.12.69-.3,1a187.55,187.55,0,0,0-14.79,34.08c-2.18,6.69-3.57,13.55-2.56,20.64,1,6.67,4,12.05,10.78,14.67,5,1.93,10.08,1.24,15-.59,7.55-2.83,13.12-8.08,17.94-14.14a81.57,81.57,0,0,0,16-42,34.56,34.56,0,0,0-4.41-19.77,7.07,7.07,0,0,1-1-2.92c-.25-3.56,2-6.08,5.79-5.89a71.09,71.09,0,0,1,8.45,1.12c4.91.86,9.83,1.67,14.33,4,9.73,5,15.09,14.48,14.12,25-.2,2.19-.48,4.32-1.84,6.17a5.55,5.55,0,0,1-3.48,2.39,4.26,4.26,0,0,1-4.22-1.41,3.43,3.43,0,0,1-.45-3.86,21.51,21.51,0,0,1,1.52-2.73c4.46-7.24,1.23-16.83-6.65-21.18A43,43,0,0,0,242,167.92c-1.24-.21-2.44-.75-3.73-.52,3.16,9.1,2.26,18.31.85,27.48-2.15,14-7.46,26.87-15,38.91-5.11,8.11-11.61,14.89-20.48,19.36a41.76,41.76,0,0,1-19.32,4.69c-10.93-.06-18-6.08-20.83-15.85-1.71-5.89-1.25-11.8-.18-17.69,1.77-9.83,5.95-18.89,10-28,1.9-4.28,4-8.49,6-12.74a3.67,3.67,0,0,0,.15-.63A47.79,47.79,0,0,0,162,185.66c-5.61,2-8.74,6-11,11.06a172.79,172.79,0,0,0-7.71,22.37c-2,7-3.83,14-5.57,21.08-1.7,6.87-3.32,13.76-5,20.64-.47,2-.94,3.94-1.47,6.13C119.67,244.8,112.61,221.29,104.74,198.06Z"/><path class="cls-7" d="M111.65,126.63a7,7,0,0,0,4.4,5,51.81,51.81,0,0,1,8.84,4.75c1.76,1.16,3.13,2.59,3.22,4.8s-.92,3.32-3.13,3.51a31.61,31.61,0,0,1-10.59-1.35,18.87,18.87,0,0,1-3.73-1.28,2.59,2.59,0,0,0-2.91.3,39.1,39.1,0,0,1-9.81,4.77c-1.37.44-2.24,1.52-3.26,2.37s-2.26,1.32-3.59.56a3.27,3.27,0,0,1-1.37-3.86,12.46,12.46,0,0,1,.6-1.3,20.28,20.28,0,0,1-11.8-1.21,126,126,0,0,0-13.42-5.31c-.7-.21-1-.75-1.26-1.28a55.51,55.51,0,0,1-6.72-18.74c-.32-2-.36-2.06,1.67-2.42,9.46-1.67,18.86-3.58,28.28-5.39a82.63,82.63,0,0,1,21.42-1.16,4,4,0,0,1,1.56.35,51.45,51.45,0,0,0,16.11,4.65A12.88,12.88,0,0,1,131,116a98.9,98.9,0,0,1,18,13.63c1.41,1.36,1.91,3.1,1.06,4.18-1.05,1.32-2.62,1.41-4.15,1.3-2.86-.2-5.17-1.65-7.4-3.23a7.29,7.29,0,0,0-1.8-1c.3.47.57,1,.88,1.41,2.27,3.25,2.63,7.17,4,10.72a7.51,7.51,0,0,0,.9,2.22,10.82,10.82,0,0,1,.29,3.35l-1.31.8c.32.27,1-.08,1,.42s-.57.39-.91.38a19.89,19.89,0,0,1-3.78-.11c-.09-1,.9-.3,1.23-.72a8.82,8.82,0,0,1-5.13-4.77c-1.88-4.2-5-7.74-6.72-12a5.42,5.42,0,0,0-3.87-2.78,45.39,45.39,0,0,1-7.74-2.59,8.38,8.38,0,0,0-3.71-.67l-.17-.09Z"/><path class="cls-7" d="M190,144.91l-2,1.43c-2.89,1-3.62.9-4.79-.79,0-.83.05-1.67.07-2.51a25.84,25.84,0,0,0,2.18-6.1,29.85,29.85,0,0,1,3.62-8.68c-.24.15-.48.29-.71.45s-.46.36-.7.53a16.74,16.74,0,0,1-6.9,3.33,6.2,6.2,0,0,1-2.19.06c-1.23-.22-2.51-.48-2.93-1.81a3.29,3.29,0,0,1,1.12-3.48,91,91,0,0,1,15.41-12c2.41-1.44,4.68-3.07,7.64-3.46A52.27,52.27,0,0,0,216,107.18c1.32-.64,2.89-.44,4.35-.48a107.07,107.07,0,0,1,27,3c6.72,1.52,13.53,2.74,20.32,4,1.41.25,1.59.76,1.39,1.91a48.17,48.17,0,0,1-8.54,19.53,2.14,2.14,0,0,1-1,.76c-3.44,1.39-6.8,2.91-10.14,4.51a22.15,22.15,0,0,1-13.84,2,3.78,3.78,0,0,1,.51,3.84,2.77,2.77,0,0,1-4.46,1,17.46,17.46,0,0,0-6-3.47,33.72,33.72,0,0,1-7.85-4.15,1.93,1.93,0,0,0-2.12-.22,38.1,38.1,0,0,1-12.82,2.9c-1.83.13-3.73,0-4.76-1.81-.83-1.5-.29-3.83,1.38-5.3,3.07-2.71,6.78-4.45,10.53-6.1a6.76,6.76,0,0,0,4.25-5.13,10.5,10.5,0,0,0-3.86.72,52,52,0,0,1-7.6,2.6,6.14,6.14,0,0,0-4.53,3.82,22.61,22.61,0,0,1-3,5.16,60.37,60.37,0,0,0-3.33,6.13c-.24.24-.51.45-.45.84h0A7.16,7.16,0,0,0,190,144.91Z"/><path class="cls-6" d="M186.46,340.63a7.36,7.36,0,0,1,.28-3.36,2.23,2.23,0,0,0-.56-2.84,2.78,2.78,0,0,0-3.18-.07c-.6.3-1.12.75-1.71,1.09a3,3,0,0,1-3.57,0,2.94,2.94,0,0,1-1.1-3.43,5.08,5.08,0,0,1,1.22-2.07,4.85,4.85,0,0,0,.85-1c.57-1,1-2.05.15-3.17a3,3,0,0,0-3-1c-.83.09-1.62.4-2.44.5-1,.11-2.09.19-2.67-.76a2.63,2.63,0,0,1,.19-2.71,8.45,8.45,0,0,1,2.42-2.6,6.22,6.22,0,0,0,1.57-1.46,2,2,0,0,0-1-3.12,4.92,4.92,0,0,0-2-.3,5.45,5.45,0,0,1-3.63-.89c-1.76-1.26-1.65-3.17.22-4.27a12.45,12.45,0,0,1,3.48-1.08c1.37-.33,2.49-.92,2.77-2.37s-.56-2.61-1.87-3.37a8,8,0,0,1-1.84-1.15,2.41,2.41,0,0,1,1.15-4.28,5,5,0,0,1,2.34,0,7.23,7.23,0,0,0,1.29.21,3.09,3.09,0,0,0,2.89-1.07c.64-1,.16-2-.46-2.9-.16-.23-.34-.46-.51-.68-.82-1.06-1.85-2.06-.66-3.49a4,4,0,0,1,4.86-1.15,8.92,8.92,0,0,0,1.08.42c2.79.75,4.41-.49,4.32-3.26a3.49,3.49,0,0,1,3-3.73,1.79,1.79,0,0,1,2,1.05s0,.09,0,.13c1.28,2.28,2.92,3.22,4.9,2.79,1.77-.38,3.25-2.45,3.37-4.68a3.31,3.31,0,0,1,3-3.44,3,3,0,0,1,3.53,1.59c.16.29.3.59.45.89a3.52,3.52,0,0,0,6.16.73,13.69,13.69,0,0,0,.84-1.16,3.1,3.1,0,0,1,3.91-1.34,3.26,3.26,0,0,1,2.47,3.27c0,.66-.17,1.32-.15,2a3.21,3.21,0,0,0,2,3.21,3.7,3.7,0,0,0,3.82-.75,7.15,7.15,0,0,1,1.93-1.5,3.33,3.33,0,0,1,3.75.79c1,1.19.55,2.28-.34,3.31-.12.15-.24.3-.35.46-.6.91-1.36,1.83-.61,3s2,1.1,3.14.78a9.62,9.62,0,0,1,3.06-.32c2,.11,2.87,1.53,2,3.27a10.13,10.13,0,0,1-1.76,2.42c-2.47,2.74-1.85,5,1.69,6.3a13.54,13.54,0,0,1,2.58,1c1.53,1,2.44,2.45,2.19,3.7s-1.67,2.36-3.51,2.6a9.87,9.87,0,0,0-2.28.49,2.44,2.44,0,0,0-1.82,2.33,2.47,2.47,0,0,0,1.9,2.42,9.61,9.61,0,0,1,2.53,1.08,1.56,1.56,0,0,1,.34,2.56,4,4,0,0,1-3.1,1.36,9.83,9.83,0,0,0-2.91.4c-2.52.76-3.25,2.74-1.74,4.82a17.23,17.23,0,0,0,1.1,1.33c.79.87,1.32,1.85.75,3a3.4,3.4,0,0,1-3.07,1.65,4.68,4.68,0,0,1-2.39-.59c-.43-.22-.87-.43-1.31-.62a2.69,2.69,0,0,0-3.14.41c-.91.86-.65,1.92-.41,2.93a6.28,6.28,0,0,0,.69,1.4c.48.86.69,1.71-.2,2.42a2.42,2.42,0,0,1-3,.12c-.69-.43-1.18-1.1-1.92-1.5a3.51,3.51,0,0,0-5.41,2.66c0,.24,0,.48,0,.71a2.42,2.42,0,0,1-3.84,1.72,9,9,0,0,1-2.25-2c-1.33-1.52-2.75-1.7-4.52-.63-.18,0-.32,0-.36.22v0a6.47,6.47,0,0,0-2.61,2.6,2.58,2.58,0,0,1-2.59,1.49,3,3,0,0,1-2.54-2.09,5,5,0,0,1-.19-2,2.72,2.72,0,0,0-2.2-2.95,3.29,3.29,0,0,0-3.48,1.54c-.36.56-.68,1.14-1,1.72a2,2,0,0,1-2.41,1.12h0ZM205.1,336a28.67,28.67,0,0,0,11.72-2.45c15.11-6.65,20.14-24.79,8.64-37.14-10.11-10.87-29-11.09-39.41-.48-7.62,7.77-9.2,18.61-3.73,27.62C187.37,331.86,195.31,335.58,205.1,336Z"/><path class="cls-8" d="M210.1,343.2a53.84,53.84,0,0,1,7.77,16.69c4.61,18.5.72,35.16-12,49.8a54.78,54.78,0,0,1-19.18,14c-.28.12-.72.09-.69.57a2.61,2.61,0,0,0-1.29.3A63.92,63.92,0,0,1,164,428.84a.46.46,0,0,0-.26,0,62.69,62.69,0,0,1-15.15-1.76c-2.55-.66-5.05-1.47-7.57-2.21l-.58,0a4.67,4.67,0,0,0-1.94-1.18c-16.79-7.91-27.63-20.53-31.64-38.1-3.7-16.18-.26-31.15,10-44.53A55.9,55.9,0,0,1,141.1,323c.44-.17,1-.23,1.21-.73.76.09,1.38.69,2.2.59l.32.24c.15.25.31.48.66.44,0,0,.11-.07.1-.09a.7.7,0,0,0-.7-.41l-.25-.32c0-.43-.45-.5-.69-.74.6-.31,1.42-.18,1.82-.87h.68a2.8,2.8,0,0,0,2.34-.91h0c.53.58,1.12.13,1.64,0a58.09,58.09,0,0,1,20.62-.6c-.69,1.61-1.84,2-3.67,1.79a52.63,52.63,0,0,0-20.09,1.85c-1.11.3-2.2.66-3.29,1-1.72-1.37-2.77-1.31-3.58.2a.52.52,0,0,0-.56.32l-.22.29.12.06.1-.36a.53.53,0,0,0,.6-.27,6.49,6.49,0,0,1,2.67,0,62.26,62.26,0,0,0-12.5,6.55c-12.57,9-20.25,20.8-22.32,35.74-3.47,25,11.44,48.48,35.85,56.83,30,10.29,63-6.09,71.33-35.68,4.68-16.66,1.47-32.07-9.19-46-.31-.41-1.27-.89-.62-1.43a1.6,1.6,0,0,1,2.12.37C208.53,341.64,209.32,342.41,210.1,343.2Zm-62.95-21.41a1.89,1.89,0,0,0-.35-.34c-.06,0-.2.05-.31.08a2.71,2.71,0,0,0,.35.41C146.94,322,147.08,322,147.15,321.79Z"/><path class="cls-6" d="M62.56,190l-7.25,10.41c-1.75,2.51-1.76,2.52.15,4.88,2.46,3,4.95,6.07,7.42,9.1.26.32.48.66.88,1.19l-11.39-3.11c-.47-.13-.94-.24-1.41-.35-3.32-.81-3.31-.8-5.22,2-2.22,3.21-4.47,6.4-6.7,9.6-.13.18-.15.47-.59.41-.12-2.6-.25-5.22-.37-7.83-.09-2.17-.23-4.34-.25-6.51,0-1-.27-1.35-1.31-1.62-4.82-1.24-9.6-2.61-14.79-4,2.69-1,5-1.81,7.38-2.63s4.58-1.64,6.9-2.37c1.14-.36,1.41-.94,1.35-2.08-.26-4.66-.37-9.33-.54-14,.58-.06.69.35.91.62,2.91,3.54,5.84,7.07,8.71,10.64a1.26,1.26,0,0,0,1.7.5c4.17-1.5,8.35-3,12.53-4.43.54-.19,1.1-.35,1.65-.53Z"/><path class="cls-6" d="M285.3,224.13a27.7,27.7,0,0,1-.28-4.53c-.14-3.35-.28-6.7-.36-10,0-.87-.35-1.19-1.22-1.42-4.86-1.27-9.69-2.63-14.89-4.06,2.65-1,5-1.81,7.29-2.63s4.78-1.67,7.18-2.47a1.51,1.51,0,0,0,1.15-1.8c-.21-4.44-.35-8.87-.51-13.31,0-.31,0-.62,0-1.3,1.34,1.6,2.47,2.92,3.57,4.27,2,2.47,4.08,4.94,6.06,7.45a1.21,1.21,0,0,0,1.67.46c4.58-1.65,9.18-3.24,13.78-4.85.13,0,.28,0,.76-.15-1.24,1.81-2.32,3.43-3.44,5-1.63,2.34-3.23,4.71-4.95,7a1.54,1.54,0,0,0,.1,2.29c2.84,3.35,5.61,6.76,8.39,10.16.27.32.5.67,1,1.31l-5.28-1.41c-3.2-.86-6.42-1.69-9.6-2.61a1.37,1.37,0,0,0-1.8.66c-2.53,3.69-5.11,7.34-7.67,11C286,223.52,285.79,223.92,285.3,224.13Z"/><path class="cls-6" d="M200.24,146.22a11.92,11.92,0,0,1,.59,8.77c-1.72,5.83-6,9.79-11.13,12.8-11.26,6.55-23.56,8.41-36.51,7a45.81,45.81,0,0,1-17.39-5.24c-4.64-2.57-8.53-5.89-10.33-10.93a13.63,13.63,0,0,1,1-11.24c-.61,8.91,4.47,14,11.6,17.66,8.85,4.54,18.42,5.59,28.29,4.75a51.82,51.82,0,0,0,21.84-6.44c4.78-2.75,8.83-6.23,11-11.37A16.93,16.93,0,0,0,200.24,146.22Z"/><path class="cls-2" d="M50.55,81.58c-2.93-3-5.89-6.08-8.79-9.15a30.1,30.1,0,0,1-4.67-6.17c-1.47-2.72-1.64-5.39.33-8A4.11,4.11,0,0,1,38.81,57a1.73,1.73,0,0,1,2.46.45c.6.87.24,1.61-.56,2.2-.27.21-.55.4-.83.6-2,1.42-2.31,2.82-1.15,4.91a43.61,43.61,0,0,0,6.27,8c3.92,4.3,8.13,8.35,12.24,12.48.29.3.7.52.81,1-9.18-1-18-3.51-26.84-5.83,0,.66.39.84.65,1.09,3.93,3.77,7.63,7.75,11.32,11.75A15.75,15.75,0,0,1,47,100.17a7.15,7.15,0,0,1-2.8,7.68,6,6,0,0,1-1.27.69c-1.22.46-2.51.07-2.75-.85-.31-1.21.57-1.68,1.53-2,.32-.12.66-.2,1-.31,2.33-.82,3.15-2.34,2.51-4.68A12.92,12.92,0,0,0,43,96.53c-2.72-3.84-12.5-13.91-16.35-16.82-1.3,2.5-2.52,5-2.47,7.85a5.76,5.76,0,0,0,5.67,5.75c.85,0,1.69.08,2.13,1a1.29,1.29,0,0,1-.34,1.56,2.37,2.37,0,0,1-2.46.48,9.5,9.5,0,0,1-6.65-9.64A17.8,17.8,0,0,1,24.33,81c.67-1.52,1.45-3,2.05-4.54.32-.84.71-.78,1.42-.52,7.31,2.65,14.91,4.28,22.51,5.93.17.07.35.12.47-.06C50.79,81.81,50.63,81.67,50.55,81.58Z"/><path class="cls-8" d="M316.74,143.5a8.78,8.78,0,1,1,.17-17.55,8.78,8.78,0,1,1-.17,17.55Zm4.59-8.74a4.37,4.37,0,0,0-4.41-4.36,4.34,4.34,0,1,0,4.41,4.36Z"/><path class="cls-8" d="M21.64,135.08a9,9,0,0,1-9.16,8.69,8.8,8.8,0,1,1,.07-17.58A8.94,8.94,0,0,1,21.64,135.08Zm-9.14,4.23a4.44,4.44,0,0,0,4.57-4.25A4.55,4.55,0,0,0,8,134.88,4.4,4.4,0,0,0,12.5,139.31Z"/><path class="cls-2" d="M153.23,33.69c1.21-5.32,2.39-10.47,3.55-15.63.16-.69.68-1.63-.09-2.06s-1.31.45-1.87.86A17.9,17.9,0,0,0,153,18.47c-.39.37-.64.27-1,0s-.25-.52.06-.79c2-1.76,3.91-3.6,6.58-4.42,2.16-.65,2.74-.15,2.28,1.94-.27,1.24-.51,2.49-.84,4.07a37.85,37.85,0,0,1,5.82-4.74,10.76,10.76,0,0,1,3-1.48c1.9-.51,3.09.32,3.09,2.23a18.08,18.08,0,0,1-1,4.69c-.87,3.23-2.1,6.38-2.57,9.71-.08.6-.35,1.34.33,1.68s1.17-.26,1.65-.64c.83-.66,1.64-1.35,2.46-2,.27-.22.52-.47.84-.06s.35.52,0,.85a18.22,18.22,0,0,1-6,4.5c-1.76.72-3-.09-3.1-2-.16-2.6.74-5,1.38-7.49.56-2.14,1.19-4.27,1.75-6.42.15-.57.47-1.28-.13-1.72a1.81,1.81,0,0,0-1.94.18c-3.62,1.91-6.12,4.64-6.87,8.68-.44,2.36-1.07,4.69-1.51,7.06-.19,1-.57,1.6-1.77,1.46A18.92,18.92,0,0,0,153.23,33.69Z"/><path class="cls-2" d="M283.85,89.41a27.69,27.69,0,0,1-6.1-1.47,13.14,13.14,0,0,1-2-1c-2.19-1.4-2.45-3.36-.7-5.28a10.15,10.15,0,0,1,4.31-2.61,22.79,22.79,0,0,1,12.17-.8,11.82,11.82,0,0,1,7.57,4.75c.54.75.87,1.67,2.17,1.54.33,0,.74.53,1.27,1-2.89,1-5.63,2-8.36,2.95a85.9,85.9,0,0,0-8.74,3.68c-.46.22-1.13.39-1.11,1s.72.85,1.26,1c1,.34,2,.6,2.94.88.42.12.67.29.56.8s-.41.56-.85.46c-2.34-.52-4.73-.89-6.8-2.18a8.86,8.86,0,0,1-1.4-1c-1.17-1.13-1-1.91.5-2.55.49-.2,1-.36,1.51-.54Zm6.63-9.84c-4.72.22-8,1.16-10.74,3.3-1.91,1.47-1.72,3.15.46,4.21a9.28,9.28,0,0,0,7.29.32c2.67-.9,5.3-1.94,8-2.85.88-.29.72-.68.4-1.23C294.41,80.84,292.33,79.44,290.48,79.57Z"/><path class="cls-2" d="M103.58,24.27c.8,3.73,1.52,7.33,2.36,10.91.51,2.15,1.2,4.27,1.84,6.39.13.43.25,1,.85,1s.86-.44,1.09-.84c.53-.9,1-1.83,1.46-2.77.2-.42.28-.76.92-.49s.48.48.33.88A18.64,18.64,0,0,1,109,45.73,5.5,5.5,0,0,1,107.38,47c-.95.47-1.64.23-1.91-.77s-.54-2.3-.87-3.75A23.85,23.85,0,0,1,102.2,48c-1,1.54-2,3.21-4.21,3.06s-3.26-1.83-3.9-3.61a18.38,18.38,0,0,1,2.14-17.18,10.41,10.41,0,0,1,4.47-3.38c.78-.36,1.64-.56,1.68-1.68C102.4,24.8,103,24.55,103.58,24.27ZM95.29,38.62A14.65,14.65,0,0,0,97,45c.52,1,1.13,2,2.42,2A3.14,3.14,0,0,0,102,45.11a8.83,8.83,0,0,0,1.1-6.55C102.65,36,102,33.5,101.51,31c-.2-1.05-.63-1-1.49-.72C96.74,31.42,95.3,33.65,95.29,38.62Z"/><path class="cls-4" d="M187.06,341.46a2,2,0,0,0,2.41-1.12c.33-.58.65-1.16,1-1.72a3.29,3.29,0,0,1,3.48-1.54,2.72,2.72,0,0,1,2.2,2.95,5,5,0,0,0,.19,2,3,3,0,0,0,2.54,2.09,2.58,2.58,0,0,0,2.59-1.49,6.47,6.47,0,0,1,2.61-2.6c.43.93-.54,1.55-.54,2.38-.78-.13-.83.54-1.09.94a3.8,3.8,0,0,1-5.66,1.19c-.26-.17-.47-.6-.84-.37a1.14,1.14,0,0,0-.39.74c-.1.58.47.45.78.57a2.56,2.56,0,0,1,.7,4.53q-10,8.06-20,16.1a20.17,20.17,0,0,1-1.78,1.24,1.15,1.15,0,0,1-1.49,0,1.32,1.32,0,0,1-.28-1.69c.5-1.07,1-2.13,1.55-3.2q4.35-9,8.69-17.93a4.22,4.22,0,0,1,.31-.47c0,.44,0,.85.63.9a2.56,2.56,0,0,1-.13.69q-3.08,6.38-6.17,12.75L174.7,366a2.16,2.16,0,0,0,1.13-.51L187.67,356c2.84-2.29,5.66-4.59,8.53-6.85a1.42,1.42,0,0,0,.58-1.84c-.32-.77-1-.76-1.7-.79s-1.2.56-1.68,1c-2.21,1.93-4.4,3.89-6.53,5.77-1.67-4,.86-6.8,3-9.78-1.55.55-2.87-.28-4.27-.24C185.81,342.44,187.09,342.44,187.06,341.46Zm7-2.95c-1.2-.59-1.53-.5-2.39.62C192.51,339,193.18,338.36,194.06,338.51Z"/><path class="cls-2" d="M248,291.82a128.91,128.91,0,0,0-8.67,10.89c-2.35-.67-2.85-2.15-1.21-3.93a12.5,12.5,0,0,0,2.58-3.86,2.16,2.16,0,0,1,1.26.67c.89.77,1.22.11,1.64-.49s.63-.9-.18-1.53c-2.29-1.8-5-2.9-7.47-4.35-.46-.26-.87-.77-1.43,0-.45.64-.83,1.15,0,1.73a3.09,3.09,0,0,1-.79.31c-.6.07-1.34.39-1.73-.3s.34-1,.65-1.4a18.14,18.14,0,0,1,3.59-3.52,11.61,11.61,0,0,1,5-2.82c.59-.14.95-.28.94-1.09-.06-3.31,2.31-5.29,5.79-4.89.68.08.84-.14,1-.64.75-2,2-3.66,2.86-5.6a4.85,4.85,0,0,1,7-2.51,2.32,2.32,0,0,1,1.35,3.17,5.94,5.94,0,0,1-3.59,3.69c-.77.32-1.28.63-1.3,1.59A3.51,3.51,0,0,1,254,279.5a.85.85,0,0,0-.27,1.29c1.31,2.39.93,4.13-1.14,5.91a3.18,3.18,0,0,1-.81.62c-2,.75-2.88,2.35-3.47,4.18l0,0,.07,0C248.12,291.46,248.11,291.67,248,291.82Zm-.45-13.41c-2.44,0-3.67,1-4.1,2.74-.27,1.09.1,1.73,1.3,1.86A4.68,4.68,0,0,1,249,286.2c.36,1.06.85,1.05,1.64.45a9.53,9.53,0,0,0,1.92-1.72,2.69,2.69,0,0,0,.12-3.42A7.69,7.69,0,0,0,247.59,278.41Zm-2.71,10.72c.19.83-.34,1.62-.66,2.45a.88.88,0,0,0,.32,1.22c.55.37.94.06,1.26-.32a8.36,8.36,0,0,0,2.07-3.37,3.62,3.62,0,0,0-2.83-4.63c-3.14-.82-5.52.59-7.76,2.38-.32.26-1.33.6-.49,1.26.57.46,1.26,1.22,2.11.25a5.71,5.71,0,0,1,2.47-1.49C243.52,286.12,244.89,287,244.88,289.13Zm11.65-20.08c-1.83,0-4.12,2.35-4.06,4a.67.67,0,0,0,.36.67,4.07,4.07,0,0,0,5.46-.91c.59-.74,1.23-1.58.75-2.56S257.32,269.34,256.53,269.05Zm-4.33,6a2.57,2.57,0,0,0-2,2.32c0,.57,1.4,1.66,2.13,1.66s2-1.78,1.91-2.6C254.08,275.22,253,275.17,252.2,275.08Zm-8.52,13.85c0-.87-.49-1.21-1.33-1a4.63,4.63,0,0,0-1.35.53c-.54.3-1.36.55-1.37,1.15s.86.65,1.34.92c1.94,1.08,2.63.71,2.7-1.43A.66.66,0,0,0,243.68,288.93Z"/><path class="cls-2" d="M70.33,66.27c0,3.63-.53,6.22-2.61,8.3a5.71,5.71,0,0,1-7.83.69c-5-3.89-7.18-9-6.22-15.15a8.31,8.31,0,0,1,1.8-3.83,5.82,5.82,0,0,1,8.17-1.51A13.44,13.44,0,0,1,70.33,66.27Zm-1.79,2.92c0-4.18-4.69-10.3-8.91-11.64-2.7-.85-4.72.79-4.37,3.72.63,5.17,3.8,8.72,8.41,11C66.4,73.69,68.55,72.16,68.54,69.19Z"/><path class="cls-2" d="M201.47,18.76c-2.11-.34-4-.8-6-.44-1.36.24-2.14.84-1.8,2.33.19.85.07,1.75-1.1,1.72s-1.45-.82-1.41-1.79A4.13,4.13,0,0,1,194.6,17a15.8,15.8,0,0,1,7.14.3,7.26,7.26,0,0,0,2.9,0,1.06,1.06,0,0,1,1.26.75.9.9,0,0,1-.62,1.14c-3.28,1.44-4.8,4.3-6.15,7.23-1.22,2.64-1.18,5.5-1.2,8.5,4.8-2.08,9.18-4.48,12.08-8.77a5.12,5.12,0,0,0,.93-4.69,3.22,3.22,0,0,1-.12-.69c-.15-1.29.44-2.14,1.52-2.12,1.3,0,1.66.87,1.61,1.92a12.53,12.53,0,0,1-3.31,7.56,29.81,29.81,0,0,1-15.81,9.24c-.4.1-1.05.4-1-.5.29-3.24.08-6.52.75-9.73C195.36,23.57,196.94,21.68,201.47,18.76Z"/><path class="cls-2" d="M83.86,57.33c1.23-4.72,2-9.14.79-13.68-.55-2-1.45-3.8-3.63-4.67a3.46,3.46,0,0,1-1-.62,1.37,1.37,0,0,1-.35-2,1.56,1.56,0,0,1,2.19-.42,5,5,0,0,1,1.67,1.57,16.21,16.21,0,0,1,3.29,9.93,28.4,28.4,0,0,1-3,13.7c-.12.24-.28.47-.46.78-2.59-2.21-5.23-4.26-7.54-6.65a10.6,10.6,0,0,1-3-8.43c0-.69.1-1.38.18-2.43-1.84,1.56-3.5,2.84-4.38,4.79a1.47,1.47,0,0,0,.81,2.12c.62.34,1.34.69,1.13,1.61a1.16,1.16,0,0,1-1,.9,2,2,0,0,1-1.88-.88,3.92,3.92,0,0,1-.36-4.53,14.54,14.54,0,0,1,4.29-4.78,9.38,9.38,0,0,0,2.32-2.51,1,1,0,0,1,1.39-.42.84.84,0,0,1,.5,1.06c-.91,3,.27,5.65,1.41,8.27C78.52,53.09,81.19,55.07,83.86,57.33Z"/><path class="cls-9" d="M131.59,302.35l-.9-2,.3-.18c.36,0,.13.6.64.53l-.11-1a.61.61,0,0,0-.18-.62l0-.11-.09-.09-.12-.89-.16-.3c0-.4.08-.81-.23-1.15a.14.14,0,0,0-.08-.22c0-.31.1-.65-.23-.89,0-1-.67-1.84-.35-2.83v0a17.23,17.23,0,0,0,13-2.82l.68,2.82-3,5.28a1.37,1.37,0,0,0,1.16,0l.29-.13,2.36-.41.33.38c.13,1.34.92,2.68-.06,4h0c-.32-.12-.5-.09-.31.3l0,0c-.21-.33-.43-.07-.59,0a13.59,13.59,0,0,1-5.66,1.81c-2.26.18-4.9,1.25-6.45-1.54C131.85,302.3,131.69,302.34,131.59,302.35Z"/><path class="cls-2" d="M216.32,42.6c-.31,0-.9,0-1.48-.09-3-.45-4.31-2.31-3.35-5.06A18.82,18.82,0,0,1,225,24.83a7.08,7.08,0,0,1,5,.72,2.88,2.88,0,0,1,1.51,4.05A5.88,5.88,0,0,1,228,32.68c-2.83,1.11-5.83,1.18-8.81,1.39-.77,0-1.74-.28-2.21.69-.63,1.31-1.54,2.58-1.15,4.13.24,1,1.09,1.26,2,1.4a14.3,14.3,0,0,0,5.36-.61q.57-.12,1.14-.27c.46-.12.85-.19,1,.41a.69.69,0,0,1-.53,1A24.27,24.27,0,0,1,216.32,42.6Zm1.93-9.78c1-.09,1.8-.11,2.57-.24,2.07-.34,4.16-.67,5.86-2a2.69,2.69,0,0,0,.91-3.39c-.6-.94-2-1.18-3.43-.55a7,7,0,0,0-1.49.88A20.2,20.2,0,0,0,218.25,32.82Z"/><path class="cls-10" d="M185.6,343.24c1.4,0,2.72.79,4.27.24-2.14,3-4.67,5.75-3,9.78,2.13-1.88,4.32-3.84,6.53-5.77.48-.42.87-1,1.68-1s1.38,0,1.7.79a1.42,1.42,0,0,1-.58,1.84c-2.87,2.26-5.69,4.56-8.53,6.85l-11.84,9.52a2.16,2.16,0,0,1-1.13.51l3.72-7.67q3.09-6.37,6.17-12.75a2.56,2.56,0,0,0,.13-.69h0a.56.56,0,0,0,.36-.56l0,0a.26.26,0,0,0,.19-.35Z"/><path class="cls-2" d="M275.78,60.56c1.27-1.42,2-1,2.87-.11,1.64,1.75,1.82,1.89,3.69.55,2.34-1.67,4.42-1.53,6.67.3l-6.44,3.6c1.16,1,2.18,1.78,3.14,2.65.26.24,1.08.51.33,1-.5.34-1,1-1.72.12s-1.63-1.63-2.42-2.47a1,1,0,0,0-1.38-.22c-3.34,1.87-6.71,3.7-10.07,5.55a5.79,5.79,0,0,0-.72.5c-.53.41-1.24.79-1.16,1.52s.88,1.06,1.58,1.3a22.42,22.42,0,0,0,5,1.13c.61.07,1,.21.85,1s-.56.57-1.06.48a59.4,59.4,0,0,1-8.05-1.6,8,8,0,0,1-1.48-.63c-2-1.08-2.27-2.47-.55-4a14,14,0,0,1,2.46-1.78c3.37-1.91,6.75-3.82,10.19-5.63,1.11-.59,1.14-1,.2-1.73C277,61.57,276.4,61.05,275.78,60.56Z"/><path class="cls-2" d="M251.39,53.06c0-2.13-.61-4.12-.11-6.17A6.09,6.09,0,0,1,259,42.35a8.57,8.57,0,0,1,4.29,2.59,3.34,3.34,0,0,1,1,2.16c0,1-.37,1.9-1.61,2a1.57,1.57,0,0,1-1.86-1.56c-.06-.56-.16-1.12-.23-1.68a2.24,2.24,0,0,0-1.87-2.09,2.64,2.64,0,0,0-2.81,1.12,4.16,4.16,0,0,0-.74,3c.14,1.6.37,3.2.38,4.79,0,4.76-3.62,7.49-8.45,6.3a10,10,0,0,1-5.32-3.35A3.79,3.79,0,0,1,241.3,51a2,2,0,0,1,2.78-.75c1,.61,1.06,1.56.23,2.67-1,1.38-.84,2.5.6,3.48a4.44,4.44,0,0,0,5.07.35A3.51,3.51,0,0,0,251.39,53.06Z"/><path class="cls-2" d="M285.86,101a3.55,3.55,0,0,1,2-2.83,1.93,1.93,0,0,1,2.78.66c.58,1.15.05,1.86-1,2.39-1.76.86-2.06,1.9-1.07,3.55a4.2,4.2,0,0,0,3.86,2.4c1.81-.07,2.76-1.23,3.41-2.71a30.6,30.6,0,0,1,2.28-4.89,6.31,6.31,0,0,1,10.14-.69,8.39,8.39,0,0,1,2,3.74,3.21,3.21,0,0,1-.14,1.94,1.77,1.77,0,0,1-2.35,1.3,1.59,1.59,0,0,1-1-2.42,9.44,9.44,0,0,0,.56-1.45,2.23,2.23,0,0,0-.76-2.68,2.74,2.74,0,0,0-3-.15,4.07,4.07,0,0,0-1.84,2c-.58,1.35-1.12,2.71-1.71,4.06-2.29,5.27-8,6.06-11.83,1.65A9.12,9.12,0,0,1,285.86,101Z"/><path class="cls-2" d="M241.17,37.57c2.35-.73,4.49-1.73,6.79-2.34a8.05,8.05,0,0,1,2.75-.41c1.16.09,1.88.66,1.83,1.8S251.7,38,250.71,38a10.92,10.92,0,0,1-1.62-.08c-5-.75-8.89,1.26-12.17,4.63-1.77,1.83-3.46,3.75-5.06,5.72a1.48,1.48,0,0,1-2.26.43c-2.06-1.11-2.08-1-.54-2.74q4.59-5.08,9.14-10.19a9.58,9.58,0,0,0,.8-1c.2-.3.63-.57.39-1s-.76-.35-1.19-.33a12.56,12.56,0,0,0-3.14.72c-.47.14-.85.26-1-.34s.16-.62.58-.75a16.51,16.51,0,0,1,8.24-.83c1.9.37,2.1.86.94,2.27C242.93,35.57,242,36.56,241.17,37.57Z"/><path class="cls-2" d="M261.41,67.39a14.94,14.94,0,0,1-4.8-.51c-2.3-.71-2.71-2.32-.91-3.9A66.12,66.12,0,0,1,264.27,57c1.35-.86,2.73-1.67,4.08-2.53.35-.22.86-.43.77-.93s-.72-.65-1.16-.68a19.24,19.24,0,0,0-2.94,0c-.63.05-1,0-1.13-.71-.15-.88.56-.63.94-.68a13.75,13.75,0,0,1,7.35.81c2.37,1,2.5,2.23.39,3.6-3.82,2.47-7.69,4.88-11.49,7.38-.82.53-2.23,1.1-1.93,2.06s1.86.58,2.87.69a12.18,12.18,0,0,0,1.48,0c.44,0,.86-.09.89.59s-.39.75-.92.74Z"/><path class="cls-2" d="M185.22,13.53c1.75,0,2.35.68,1.76,2.31-1.35,3.78-2.8,7.53-4.17,11.3-.41,1.11-.71,2.25-1,3.39-.11.39-.25.88.21,1.17s.86,0,1.22-.24c1-.64,1.93-1.29,2.86-2,.42-.32.64-.19,1,.14s.35.61-.07.91c-1.88,1.34-3.61,2.92-5.88,3.69-2.47.84-3.8-.21-3.29-2.65.93-4.45,2.77-8.62,4.35-12.87.28-.76,1.12-1.76.33-2.31s-1.66.43-2.4.92a13.82,13.82,0,0,0-1.48,1.17c-.42.37-.68.15-1-.12s-.44-.41-.14-.81C178.68,15.91,183.15,13.56,185.22,13.53Z"/><path class="cls-7" d="M141.93,297.93a1.37,1.37,0,0,1-1.16,0l3-5.28c.38,0,.77.11,1.1-.17l.61-.2.28.08.59-.2.61-.19.38-.14,2.28-.43.57-.17.6-.07.3.07.57-.19.61-.19.25.08.31-.14a9.29,9.29,0,0,1,2.34-.43.62.62,0,0,0,.62-.19l.62-.2.21.09.35-.15.86-.11.3-.1,2.1-.54.46-.15,1-.16.37-.14.81-.11.84-.09-2.31,4.18-.17.23-.14.3-.2.27c-.61.83-1.66.58-2.46.93l-.62.2a1.83,1.83,0,0,0-1.21.24l-.12,0-.1.09h-.89l-.58.19-.61.19-.25-.09-.31.13-.61.21a.54.54,0,0,0-.61.18l-1.13.05-.3.1-.93.29-.54.17h-.89l-.29.09-.93.3-.37.14-1.08,0a.31.31,0,0,0-.26.07l-.4.18h-.31l-.5.18-2.36.41Z"/><path class="cls-7" d="M131.34,299.15a.61.61,0,0,1,.18.62c-.28,0-.49.12-.53.42l-.3.18-.6.08-.23-.08-.33.13-.9.13-.58.19-1,.31-.24.07H126a.36.36,0,0,0-.25.06l-1,.32-.24-.09-.32.14-.89.13-.59.19-.84.11-.34.14-1.08.17-.4.15-.85.11-.29.1a1.39,1.39,0,0,1-.94.16l-.57.19-.89.12c-.38-.44-.52-.19-.6.2l-.6.06a.34.34,0,0,0-.2,0,1.69,1.69,0,0,1-1.22.26l-.32.12-.91.15a2.05,2.05,0,0,1-1.14-.27c.79-1.42,1.58-2.83,2.39-4.24.18-.31.36-.69.86-.58l.53-.16.91-.14a.32.32,0,0,0,.23-.06,1.29,1.29,0,0,1,1-.21l.52-.15.92-.14a.42.42,0,0,0,.22-.05,1.77,1.77,0,0,1,1.21-.25l.3-.1a1.31,1.31,0,0,1,.93-.17l.56-.18.87-.12.29-.08.94-.3.35-.15,1.1,0a.35.35,0,0,0,.26-.08,1.32,1.32,0,0,1,.95-.19l.55-.16.9-.13a.34.34,0,0,0,.24-.06,1.21,1.21,0,0,1,1-.21.56.56,0,0,0,.56-.27v0l.34,0c.33.24.22.58.23.89a.32.32,0,0,0,.08.22c.31.34.2.75.23,1.15l.16.3.12.89A.3.3,0,0,0,131.34,299.15Z"/><path class="cls-11" d="M101.41,81.85c-.89,4.47-1.35,8.77-1.91,13.07-.26,2-.25,2,1.76,2.06.27,0,.78-.28.77.28s-.51.34-.81.34a32.19,32.19,0,0,0-4.39,0,36.37,36.37,0,0,0,.85-3.76c.08-.69-.09-1-.83-.87H96.7c-2.44-.35-4.3.24-5.44,2.61A11.52,11.52,0,0,1,88.4,99a4.4,4.4,0,0,1-3.3,1.32c-.61,0-1.19-.3-1.11-1s.75-.67,1.24-.56a3.26,3.26,0,0,0,3.34-1.29,36.67,36.67,0,0,0,3.14-3.92c2.38-3.34,4.62-6.77,7.42-10.07a11.44,11.44,0,0,0-4.27.63,2.13,2.13,0,0,0-1.53,2.81c.19.64.21,1.22-.57,1.29s-1-.51-1-1.15a4,4,0,0,1,2.61-3.62,13.13,13.13,0,0,1,4.3-.83A6.92,6.92,0,0,0,101.41,81.85Zm-2.58,3.52c-2,1.88-3.17,4.29-5,6.67,1.38,0,2.39,0,3.4,0,.52,0,.78-.16.85-.7.24-2,.54-4,.81-6,.2.08.21-.06.22-.18S99,85.09,99,85Z"/><path class="cls-2" d="M130.46,295.5l-.34,0-.72-3.14-.17-.29V291l.22-.33c1.78-1.82,4.19-2.36,6.56-3l.35-.13,1.42-.14.48-.1a3.11,3.11,0,0,0,.43,0c3.8-.13,4.22.17,5.08,3.59l.15.39c.06.55-.16,1.32.91,1.14-.33.28-.72.15-1.1.17l-.68-2.82a17.23,17.23,0,0,1-13,2.82l-.16-.18c0,.05,0,.1,0,.13s.12.14.2,0C129.79,293.66,130.51,294.54,130.46,295.5Z"/><path class="cls-11" d="M174,85.79c.06-.82,0-1.91-1.13-2.31a3.17,3.17,0,0,0-3.47,1,2.55,2.55,0,0,0-.49,3.36,12.42,12.42,0,0,0,1.82,2c1.55,1.55,2.95,3.16,2,5.49-1.07,2.56-3.3,3.62-6,3.92a5,5,0,0,1-4.3-1.38,1.93,1.93,0,0,1-.69-1.51,1.09,1.09,0,0,1,.89-1.14.92.92,0,0,1,1.17.78c.34,1.33.88,2.43,2.57,2.42a4.49,4.49,0,0,0,4.26-2.51c.75-1.47.22-2.74-.89-3.85-.48-.48-.91-1-1.4-1.46-1.36-1.26-2.26-2.69-1.52-4.54a5.58,5.58,0,0,1,4.47-3.48,11.51,11.51,0,0,1,3.51.24c.56.07.57.39.48.81-.2,1-.38,1.94-.56,2.92-.06.31,0,.78-.46.76-.65,0-.27-.57-.32-.89A3,3,0,0,1,174,85.79Z"/><path class="cls-11" d="M198.88,90.36c-1.11-.06-1.37,1-2.23,1a4.07,4.07,0,0,1,3-2.34c.63-.05.95.14.83.79-.06.36-.12.73-.22,1.3a16.27,16.27,0,0,1,2.72-1.88c1.22-.46,1.91-.15,2.17,1,.5,2.24-1.22,5.87-3.32,7a2.65,2.65,0,0,1-2.11.35c-1-.34-1.2.14-1.31.88a2.68,2.68,0,0,1-.07.27c-.65,2.42-.65,2.42,1.46,3.64-1.66,0-3.32-.06-5.08,0,1.88-.81,1.84-2.51,2.22-4C197.57,95.78,198.2,93.13,198.88,90.36Zm4.81,1.34a1.07,1.07,0,0,0-.56-1.2c-.6-.26-1.12.09-1.61.43a5.71,5.71,0,0,0-2.21,3.85c-.15.74-.67,1.54.49,2a1.84,1.84,0,0,0,2.4-.75A7.82,7.82,0,0,0,203.69,91.7Z"/><path class="cls-11" d="M129.92,96.23a14.06,14.06,0,0,1-1.79,1.21c-1.38.67-2.32.13-2.44-1.33-.25-2.87,2.66-6.58,5.62-7,.8-.12.74-.59.88-1.06.62-2.17,1.73-3.9,4.17-4.5a2.23,2.23,0,0,1,1.3-.06.69.69,0,0,1,.49.79.61.61,0,0,1-.58.54l-.44,0c-2.6.11-2.61.11-3.24,2.56s-1.24,5-1.85,7.42a2.63,2.63,0,0,0-.09,1.55c.83.13,1.25-.82,2.28-.88a6.18,6.18,0,0,1-2.62,2c-1.19.56-1.49.33-1.45-1a.38.38,0,0,0,.14-.54Zm-2.59-1.33a1.2,1.2,0,0,0,.54,1.35c.58.3,1-.09,1.46-.39,1.54-1.1,1.62-2.83,2-4.41.32-1.22-.08-1.58-1.35-1.27a2.15,2.15,0,0,0-1.37,1A8,8,0,0,0,127.33,94.9Z"/><path class="cls-11" d="M119.58,95.67c-.56.5-1,1-1.61,1.41s-1.06.94-1.82.58-.41-1.08-.49-1.73A23.87,23.87,0,0,1,113,97.52c-1.25.57-1.92,0-1.65-1.26.31-1.53.76-3,1.15-4.53.11-.43.48-1,0-1.26s-.75.29-1.09.53c-.18.13-.34.38-.9,0a6.68,6.68,0,0,1,3-1.92c.8-.17.88.45.75,1-.35,1.61-.74,3.22-1.12,4.82-.11.45-.39,1,0,1.33s1-.17,1.41-.44a5.44,5.44,0,0,0,2.17-3.57c.19-.77.49-1.53.62-2.32s.76-.64,1.23-.57c.67.09.26.58.19.87-.45,1.74-1,3.46-1.38,5.2-.08.31-.45.75,0,1s.67-.24,1-.42S118.88,95.34,119.58,95.67Z"/><path class="cls-11" d="M189.86,88.82c-.63,2.51-1.57,4.87-1.76,7.43.93.17,1.33-.76,2.27-.86a4.73,4.73,0,0,1-1.91,1.8,2.08,2.08,0,0,1-1.79.45c-.78-.29.05-1-.3-1.53a17.39,17.39,0,0,1-2.16,1.36c-1.23.58-2.08,0-2.23-1.28-.32-2.73,3-7.31,6.12-6.91C188.75,89.37,189.14,88.84,189.86,88.82Zm-6.33,5.7c0,.83-.08,1.45.55,1.76s1.14-.14,1.59-.47c1.31-1,1.45-2.52,1.85-3.91.13-.44.64-1.06.15-1.4a1.83,1.83,0,0,0-1.95.16C184.16,91.61,183.83,93.2,183.53,94.52Z"/><path class="cls-11" d="M242,95c-.08.29-.07.45-.14.53-1.49,1.56-3.9,2.5-4.9,1.92s-1-2.95.05-5a6.08,6.08,0,0,1,2.7-3.07c.94-.44,2-.78,2.77.26s0,1.8-.72,2.48a9.15,9.15,0,0,1-2.64,1.49c-1,.48-1.56,1.63-1,2.36.73.91,1.48.19,2.2-.12C240.89,95.63,241.24,95.11,242,95Zm-3.63-1.73a4.89,4.89,0,0,0,2.67-2,.91.91,0,1,0-1.49-1A4.08,4.08,0,0,0,238.41,93.31Z"/><path class="cls-11" d="M140.74,95.17a8.16,8.16,0,0,1,2.5-5.11,3.29,3.29,0,0,1,1.49-.88c.82-.22,1.7-.37,2.25.45s.16,1.55-.41,2.19a8.57,8.57,0,0,1-3.08,1.86,1.62,1.62,0,0,0-.87,2.28c.65.88,1.35.24,2.07,0s1.27-1.23,1.62-.7-.78,1-1.29,1.37a5,5,0,0,1-1.41.75C141.66,98.14,140.69,97.49,140.74,95.17Zm2-1.72c1.27-.66,2.3-1.08,2.84-2.13a.91.91,0,0,0-.2-1.27,1,1,0,0,0-1.31.22A5.68,5.68,0,0,0,142.7,93.45Z"/><path class="cls-11" d="M211.54,95a8,8,0,0,1,2.57-5,3.25,3.25,0,0,1,1.64-.88c.72-.12,1.51-.21,2,.5a1.61,1.61,0,0,1-.28,2.08,6.76,6.76,0,0,1-3.17,2,1.48,1.48,0,0,0-.88,2.28c.48,1,1.32.33,2,0l.12-.07c.57-.17,1.26-1.08,1.52-.66.41.67-.69.9-1.14,1.31a4.54,4.54,0,0,1-1.37.79C212.46,98.2,211.46,97.55,211.54,95Zm2-1.65a5.41,5.41,0,0,0,2.64-1.8c.35-.5.51-1.09-.08-1.5s-1.13,0-1.5.43A5.25,5.25,0,0,0,213.55,93.35Z"/><path class="cls-12" d="M183.21,143c0,.84-.05,1.68-.07,2.51-.25.36-.48.89-.95.19a3.18,3.18,0,0,0-3.66-1.39c-2.53.56-4-.76-5.13-2.76.71-.24,1.49.14,2.14-.27h1.17c.34.29.76.16,1.14.22,1.05,1.42,2.61.59,3.93.85C182.3,142.49,183.17,142,183.21,143Z"/><path class="cls-2" d="M143.07,306.63c.27,1.75-1.1,2.14-2.36,2.61l-.36.15c-2.63,0-2.63,0-3.49-2.52,0-.21.11-.47-.27-.47-.85-.27-1.82.25-2.62-.37a25.9,25.9,0,0,0,8.83-1.33l0,.43.1.89Z"/><path class="cls-11" d="M228.55,90.57a11.11,11.11,0,0,1,2-1.84c.44-.24.84-.26,1.14.21s-.06.79-.41.89c-3.42,1-4.12,3.73-4.71,6.56a3,3,0,0,1-.18.69c-.27.59-.85.43-1.28.34s-.2-.52-.12-.82c.41-1.64.84-3.29,1.24-4.94.31-1.26.29-1.26-1.18-1.23a6.3,6.3,0,0,1,2.12-1.27c.93-.35,1.14.09,1,.89-.07.31-.34.68,0,.93C228.29,91.1,228.44,90.74,228.55,90.57Z"/><path class="cls-11" d="M146.32,313.74c1.48,1.12,3.11,2.11,3.83,3.91l0,0c-1.72-1.09-3.26-2.39-5.35-2.95a10.9,10.9,0,0,0-9.12,1.69c-.39.24-.62.74-1.19.69l0,0a8.86,8.86,0,0,1,4.73-3.74c.39-.15.87-.13,1.17-.49l1.44-.14.41-.1.36,0,.43.15.81.12.36.15Z"/><path class="cls-9" d="M142.8,304.7A25.9,25.9,0,0,1,134,306c-.62,0-1.37.14-1.51-.77.46-.17-.1-1.27,1-.92a10.12,10.12,0,0,0,5.24-.07c2.07-.43,4.23-.73,5.88-2.23l0,0c.23,0,.38,0,.31-.3h0c.64-.24,1.05-.22,1,.63,0,.41-.66.59-.38,1.08v0h-.33l0,.31h0C144.21,303.68,143.6,304.42,142.8,304.7Z"/><path class="cls-13" d="M175.54,141.32c-.65.41-1.43,0-2.14.27,1.12,2,2.6,3.32,5.13,2.76a3.18,3.18,0,0,1,3.66,1.39c.47.7.7.17.95-.19,1.17,1.69,1.9,1.81,4.79.79.09.83-.16,1.22-1.16,1.17-2-.09-4-.06-6-.08-.17-2.79-.17-2.79-2-2.79-2.95,0-2.95,0-3,2.84-1.1-.54-2-1.19-1.8-2.57a.68.68,0,0,0-.6-.83l0,0a.42.42,0,0,0-.32-.59l0,0c0-.2,0-.35-.31-.29v0a5.14,5.14,0,0,0,0-.68c-.18-1.07.23-1.56,1.39-1.37C174.68,141.29,175.12,141.29,175.54,141.32Z"/><path class="cls-5" d="M168.38,147.22c-1-.44-1.39-1.42-2.14-2.08-.47-.42-.71-.41-1.18,0-.75.66-1.14,1.66-2.13,2.08l-.18-2.54,2.67-3.37.45,0,2.68,3.39Z"/><path class="cls-12" d="M168.55,144.68l-2.68-3.39a11.79,11.79,0,0,0,1.33,0c2.09-.23,4,0,5.21,1.94a.27.27,0,0,0,.46.06v0c-.15.34,0,.44.31.29l0,0c-.31.4,0,.51.32.59l0,0,0,.56Z"/><path class="cls-12" d="M165.42,141.31l-2.67,3.37-4.92,0,0-.56,0,0c.24,0,.32-.09.31-.3v0s.12,0,.14,0C160,141.12,162.62,141,165.42,141.31Z"/><path class="cls-12" d="M150.73,144.63c1.68-3,3.87-3.92,7.62-3.17l-2.94,3.21Z"/><path class="cls-2" d="M168.55,144.68l4.92,0c.44.79.14,1.63.2,2.44,0,.14-.18.42-.27.41-1.67-.07-3.39.53-5-.27Z"/><path class="cls-2" d="M157.83,144.64l4.92,0,.18,2.54c-1.64.78-3.36.23-5,.27-.34,0-.27-.43-.27-.7,0-.69,0-1.39,0-2.09l0,0Z"/><path class="cls-6" d="M234.58,291c-.85-.58-.47-1.09,0-1.73.56-.79,1-.28,1.43,0,2.49,1.45,5.18,2.55,7.47,4.35.81.63.58,1,.18,1.53s-.75,1.26-1.64.49a2.16,2.16,0,0,0-1.26-.67c.14-2.77-1.14-4.06-4-4.05C236,290.87,235.29,290.93,234.58,291Z"/><path class="cls-2" d="M191,5.22a2.65,2.65,0,0,1-2.59,2.53,1.64,1.64,0,0,1-1.7-1.87,2.5,2.5,0,0,1,2.56-2.51A1.69,1.69,0,0,1,191,5.22Z"/><path class="cls-2" d="M281.14,46.5a2,2,0,0,1,2.12,1.86,2.48,2.48,0,0,1-2.66,2.1c-1.12,0-2-.48-2.11-1.7S279.72,46.49,281.14,46.5Z"/><path class="cls-7" d="M150.73,144.63l4.68,0c.05.85.11,1.7.17,2.56l-.38.38h-.33l-2.62,0a1.82,1.82,0,0,0-1.22,0C150,146.69,150.52,145.65,150.73,144.63Z"/><path class="cls-7" d="M175.84,147.48c0-2.84,0-2.84,3-2.84,1.82,0,1.82,0,2,2.79a28.49,28.49,0,0,1-4.33.14h-.41A.37.37,0,0,1,175.84,147.48Z"/><path class="cls-11" d="M134.56,147.18c.32.29.69.56.76,1,.13.88.27,1.78-1.2,1.54a8.3,8.3,0,0,0-1.32,0c-2.56,0-2.56,0-2.36-2.5Z"/><path class="cls-5" d="M137.77,150a19.89,19.89,0,0,0,3.78.11c.34,0,.93.19.91-.38s-.66-.15-1-.42l1.31-.8a.61.61,0,0,0,0,.14.39.39,0,0,0,.08.09,12.38,12.38,0,0,0,3.66-3.76c1.18.51.75,1.5.44,2.13C145.63,149.92,140.73,151.4,137.77,150Z"/><path class="cls-7" d="M195.26,144.65c.16,2.31.16,2.31-2.25,2.31a6.63,6.63,0,0,0-1.18,0c-1.21.21-1.7-.25-1.49-1.42l.79-1Z"/><path class="cls-12" d="M146.54,145a12.38,12.38,0,0,1-3.66,3.76.39.39,0,0,1-.08-.09.61.61,0,0,1,0-.14,10.82,10.82,0,0,0-.29-3.35Z"/><path class="cls-5" d="M155.58,147.23c-.06-.86-.12-1.71-.17-2.56l2.94-3.21c.35.82-.28,1.57-.2,2.37v0a.31.31,0,0,0-.31.3l0,0c-.34.11-.29.38-.28.64l0,0C157.05,145.63,157.19,147.08,155.58,147.23Z"/><path class="cls-12" d="M144.57,302c-1.65,1.5-3.81,1.8-5.88,2.23a10.12,10.12,0,0,1-5.24.07c-1.09-.35-.53.75-1,.92a9.46,9.46,0,0,1-.69-2.37l-.19-.27a.62.62,0,0,1,0-.27c.1,0,.26-.05.28,0,1.55,2.79,4.19,1.72,6.45,1.54a13.59,13.59,0,0,0,5.66-1.81C144.14,302,144.36,301.71,144.57,302Z"/><path class="cls-12" d="M195.26,144.65l-4.13-.05c0-.49.73-.82.31-1.39h0c.7.13.6-.56.92-.82C194.16,142.16,194.65,143.48,195.26,144.65Z"/><path class="cls-12" d="M134.56,147.18l-4.12,0a1.46,1.46,0,0,1,.25-.48c.67-.67,1-1.91,2.25-1.67C134,145.27,134.14,146.38,134.56,147.18Z"/><path class="cls-12" d="M145.45,303.48c-.28-.49.35-.67.38-1.08.07-.85-.34-.87-1-.63,1-1.32.19-2.66.06-4l.17-.56h.31c0,1.55.61,3,.87,4.47C146.39,302.45,146.38,303.15,145.45,303.48Z"/><path class="cls-14" d="M140.4,324.42c.81-1.51,1.86-1.57,3.58-.2l.3.76-1.17-.52a6.49,6.49,0,0,0-2.67,0Z"/><path class="cls-4" d="M184.68,342.61l-.89-.06a7.74,7.74,0,0,1,1.11-2.41C185.75,341.18,185.75,341.18,184.68,342.61Z"/><path class="cls-5" d="M191.44,143.21c.42.57-.34.9-.31,1.39l-.79,1c-.13-.21-.05-.53-.36-.64A7.16,7.16,0,0,1,191.44,143.21Z"/><path class="cls-12" d="M142.8,304.7c.8-.28,1.41-1,2.36-.95-.55.85-1.58.94-2.39,1.38Z"/><path class="cls-2" d="M111.55,303.76a2.05,2.05,0,0,0,1.14.27l-1.17.36-.29-.08Z"/><path class="cls-5" d="M192.37,142.38c-.32.26-.22,1-.92.82-.06-.39.21-.6.45-.84Z"/><path class="cls-4" d="M186.46,340.63l.59.82C186.45,341.45,186.44,341.05,186.46,340.63Z"/><path class="cls-9" d="M111.23,304.31l.29.08c0,.18,0,.35,0,.52a.69.69,0,0,1-.6-.26Z"/><path class="cls-2" d="M115.94,303.4c.08-.39.22-.64.6-.2A.59.59,0,0,1,115.94,303.4Z"/><path class="cls-5" d="M151,147.6a1.82,1.82,0,0,1,1.22,0A1,1,0,0,1,151,147.6Z"/><path class="cls-9" d="M152.51,295.77a.54.54,0,0,1,.61-.18C153,296,152.88,296.23,152.51,295.77Z"/><path class="cls-13" d="M177.85,141.54c-.38-.06-.8.07-1.14-.22C177.13,141.23,177.55,141.09,177.85,141.54Z"/><path class="cls-9" d="M163.7,288.55l-.84.09A.57.57,0,0,1,163.7,288.55Z"/><path class="cls-2" d="M130.11,295.55a.56.56,0,0,1-.56.27Z"/><path class="cls-9" d="M157.8,294.66l.62-.2A.65.65,0,0,1,157.8,294.66Z"/><path class="cls-2" d="M118.94,302.73l.29-.1C119.14,302.68,119.13,302.94,118.94,302.73Z"/><path class="cls-2" d="M117.43,303.08l.57-.19Z"/><path class="cls-2" d="M146.32,292.2l-.59.2a.83.83,0,0,0,.15-.23Z"/><path class="cls-9" d="M143.07,306.63l-.2-.61A.62.62,0,0,1,143.07,306.63Z"/><path class="cls-9" d="M136.59,306.4c.38,0,.27.26.27.47Z"/><path class="cls-2" d="M122.74,302l.59-.19Z"/><path class="cls-9" d="M150.16,291.27l-.57.17Z"/><path class="cls-2" d="M151.63,291.08l-.57.19a.63.63,0,0,0,.16-.23Z"/><path class="cls-2" d="M155.76,290.21a.62.62,0,0,1-.62.19A.65.65,0,0,1,155.76,290.21Z"/><path class="cls-2" d="M128.05,300.82l.58-.19Z"/><path class="cls-2" d="M154.9,295.15l.58-.19Z"/><path class="cls-2" d="M115.33,298.78l-.53.16Z"/><path class="cls-2" d="M118,298.22l-.52.15Z"/><path class="cls-4" d="M185.08,344.35a.56.56,0,0,1-.36.56C184.69,344.64,184.73,344.4,185.08,344.35Z"/><path class="cls-2" d="M122.12,297.33l-.56.18Z"/><path class="cls-9" d="M149.61,296.38l.54-.17Z"/><path class="cls-2" d="M127.43,296.22l-.55.16Z"/><path class="cls-5" d="M154.87,147.62h.33C155.09,147.81,155,147.81,154.87,147.62Z"/><path class="cls-13" d="M176.07,147.58h.41C176.34,147.78,176.21,147.78,176.07,147.58Z"/><path class="cls-5" d="M.53,181.51v.28a.59.59,0,0,1-.09-.2S.5,181.54.53,181.51Z"/><path class="cls-2" d="M121.56,302.2l.34-.14Z"/><path class="cls-9" d="M131.58,302.62l.19.27Z"/><path class="cls-2" d="M115.14,303.5a.34.34,0,0,1,.2,0l-.09.09Z"/><path class="cls-12" d="M145.15,303.76l0-.31h.33C145.5,303.7,145.37,303.78,145.15,303.76Z"/><path class="cls-2" d="M113.6,303.88l.32-.12Z"/><path class="cls-9" d="M140.35,309.39l.36-.15Z"/><path class="cls-9" d="M124.54,301.49l.24.09-.37.14A1.71,1.71,0,0,1,124.54,301.49Z"/><path class="cls-5" d="M142.29,312.62l-.41.1A.28.28,0,0,1,142.29,312.62Z"/><path class="cls-2" d="M124.54,301.49a1.71,1.71,0,0,0-.13.23l-.19-.09Z"/><path class="cls-9" d="M143.08,312.73l-.43-.15Z"/><path class="cls-9" d="M144.25,313l-.36-.15Z"/><path class="cls-2" d="M125.73,301.26a.36.36,0,0,1,.25-.06Z"/><path class="cls-9" d="M126.86,301.2l.24-.07A.4.4,0,0,1,126.86,301.2Z"/><path class="cls-2" d="M125.93,296.57a.35.35,0,0,1-.26.08Z"/><path class="cls-9" d="M160.88,293.53l.2-.27Z"/><path class="cls-9" d="M161.22,293l.17-.23Z"/><path class="cls-2" d="M151.08,295.92l.3-.1Z"/><path class="cls-2" d="M145.79,297a.31.31,0,0,1,.26-.07Z"/><path class="cls-4" d="M185.23,344a.26.26,0,0,1-.19.35Z"/><path class="cls-2" d="M128.57,296a.34.34,0,0,1-.24.06Z"/><path class="cls-4" d="M184.17,343.73l.21-.29Z"/><path class="cls-2" d="M148.43,296.47l.29-.09Z"/><path class="cls-4" d="M184.47,343.16l.19-.33Z"/><path class="cls-2" d="M120.63,297.68l-.3.1Z"/><path class="cls-9" d="M145.88,292.17a.83.83,0,0,1-.15.23l-.28-.08Z"/><path class="cls-9" d="M129.23,292.1l.17.29Z"/><path class="cls-2" d="M119.12,298a.42.42,0,0,1-.22.05l.1-.09Z"/><path class="cls-9" d="M147.31,291.87l-.38.14Z"/><path class="cls-4" d="M204.09,340c0-.18.18-.23.36-.22Z"/><path class="cls-9" d="M154,295.25l.25.09-.37.14A1.27,1.27,0,0,1,154,295.25Z"/><path class="cls-2" d="M116.47,298.58a.32.32,0,0,1-.23.06Z"/><path class="cls-2" d="M154,295.25a1.27,1.27,0,0,0-.12.23l-.19-.1Z"/><path class="cls-9" d="M124.57,296.68l-.35.15Z"/><path class="cls-9" d="M147.13,296.91l.37-.14Z"/><path class="cls-2" d="M120.08,302.52l.4-.15Z"/><path class="cls-2" d="M123.28,297.13l-.29.08Z"/><path class="cls-9" d="M151.22,291a.63.63,0,0,1-.16.23l-.3-.07Z"/><path class="cls-9" d="M156.37,295l.1-.09.12,0A.3.3,0,0,1,156.37,295Z"/><path class="cls-2" d="M129.53,300.5l.33-.13c-.05.07-.09.15-.14.23Z"/><path class="cls-9" d="M143.93,291.38l-.15-.39Z"/><path class="cls-2" d="M152.8,290.83l-.31.14a1.34,1.34,0,0,0,.13-.23Z"/><path class="cls-9" d="M129.72,300.6c.05-.08.09-.16.14-.23l.23.08Z"/><path class="cls-9" d="M152.62,290.74a1.34,1.34,0,0,1-.13.23l-.25-.08Z"/><path class="cls-9" d="M129.46,290.71l-.22.33Z"/><path class="cls-2" d="M156.94,290l-.35.15.13-.23Z"/><path class="cls-9" d="M156.72,289.87l-.13.23-.21-.09Z"/><path class="cls-2" d="M158.1,289.74l-.3.1Z"/><path class="cls-9" d="M160.66,289.05l-.46.15Z"/><path class="cls-9" d="M162.05,288.75l-.37.14Z"/><path class="cls-9" d="M136.37,287.61l-.35.13Z"/><path class="cls-9" d="M138.27,287.37l-.48.1Z"/><path class="cls-9" d="M191.32,427.13c-.24.43.08.78.3,1,1.24,1.33,1.55,3.12,2.54,4.56l9.54,17.43c.25.45.49.91.74,1.37-.4.44-.92.21-1.38.21l-34.09,0a3.59,3.59,0,0,0-2,.31,2.13,2.13,0,0,0-.15-1.24c-.27,1.23-.27,1.24-1.51,1.24l-4.52,0c-.56-.56-1.29-.3-1.93-.3q-16.92,0-33.82,0c-.56,0-1.2.22-1.62-.37l2.88-5.38a6.26,6.26,0,0,0,1.17-2.13v0a32.48,32.48,0,0,0,2.47-4.47l-.08,0,.08,0a20,20,0,0,0,1.72-3.18,66.44,66.44,0,0,0,3.31-6.1,24.49,24.49,0,0,0,2.08-4.12c.77-.13,1.8.67,2.25-.58a1.42,1.42,0,0,1,1.06-.26c-.22.51-.43,1-.64,1.54a58.38,58.38,0,0,0-2.85,6.67l0,0a4.74,4.74,0,0,0-1.18,2.87v0a18.89,18.89,0,0,0-2.68,5.69l0,0a14.94,14.94,0,0,0-2.08,4.56v0c-.22,0-.28.12-.24.31l-.66,1.41a9,9,0,0,1,1.32-.29,85.29,85.29,0,0,0,17.38-3c5.19-1.34,10.06-.86,14.07,3.06l0,0c.4.6.48,1.38,1.09,1.94,1.48-3.56,4.3-5,8.06-5.42a26.47,26.47,0,0,1,8.71.83c5.58,1.28,11.12,2.79,16.92,3.16l-.31-.76c-.13-.24,0-.66-.53-.6v0a7,7,0,0,0-1.78-4v0c.33-.37,0-.67-.14-1-.9-2.06-1.81-4.12-2.75-6.16a65.86,65.86,0,0,0-3.31-7.07l0,0a15.19,15.19,0,0,0-1.22-3.12c.1-.3.42-.16.6-.27h0c.4,1.27,1.7.24,2.36.85h0a.38.38,0,0,0,.3.44v0C190.86,427,190.91,427.23,191.32,427.13Zm-62.87,19.65a.4.4,0,0,0,.18-.47s-.08-.09-.11-.08c-.21.07-.22.25-.22.43-.17.14-.41.39-.17.51S128.33,446.91,128.45,446.78Zm1.38-2.91a.49.49,0,0,0,.3-.56,5.06,5.06,0,0,0,.26-.44s-.1-.09-.16-.14l-.21.47c-.27.12-.26.36-.28.59a.34.34,0,0,0-.23.4c0,.06.11.09.17.14Zm66.93-2.56.19.46s.1-.06.11-.09a.32.32,0,0,0-.23-.43l-.16-.5c-.06.05-.18.12-.17.13S196.67,441.17,196.76,441.31Zm-63.29-4.74a.37.37,0,0,0,.17-.46s-.07-.06-.11-.09c-.07.15-.14.29-.2.44s-.43.37-.18.5S133.34,436.7,133.47,436.57Zm4.05-8.29c.08-.14.18-.28.25-.43s-.1-.1-.16-.15c-.07.16-.15.31-.22.47a.39.39,0,0,0-.2.47s.07.07.11.1ZM200,447.84c0,.18,0,.36.21.44a.21.21,0,0,0,.1-.09.33.33,0,0,0-.21-.44,1.07,1.07,0,0,0-.67-1A1.71,1.71,0,0,0,200,447.84Zm-7.08-14.18c0,.12.06.25.11.37s.19,0,.2,0a.32.32,0,0,0-.2-.43,1.08,1.08,0,0,0-.68-1A1.86,1.86,0,0,0,192.92,433.66ZM135.72,432a2.29,2.29,0,0,0,.61-1.91c-.24.6-.48,1.2-.71,1.8-.06.1-.13.19-.18.29s.06.06.09.1Zm43.62,15.63a.58.58,0,0,0,1,0l-.88-.12c-1.26-.74-2.7-.44-4.05-.66A14.78,14.78,0,0,0,179.34,447.58Zm15.08,2.54c-2.88-.6-5.86-.37-8.71-1.17a28.18,28.18,0,0,0,8.73,1.36l6.44.1c.21,0,.56.07.45-.3-.05-.15,0-.53-.55-.35C198.71,450.51,196.53,449.91,194.42,450.12Zm-67-1.75a7.54,7.54,0,0,0-1.09,2.22c5.55-.22,11-.13,16.39-1.49a1.4,1.4,0,0,0-1.28-.11,62.68,62.68,0,0,1-12.68,1.1c-1.66,0-1.67,0-1.21-1.58.15-.12.26-.24.07-.41Zm29.1-.64c-4.58-1.21-8.9.42-13.3,1.13C147.68,448.57,152,446.94,156.53,447.73Zm28.63,1.08c-.73-.09-1.39-.66-2.39-.27C183.68,448.74,184.36,449.11,185.16,448.81Zm-50.24-15.18c.21-.41.64-.66.3-1.24C135.12,432.82,134.69,433,134.92,433.63Zm-3.71,7.14a1.28,1.28,0,0,0-.44,1.16C131.1,441.57,131.38,441.32,131.21,440.77Zm64.85-.86c.23-.45-.08-.63-.36-.91C195.54,439.47,195.83,439.66,196.06,439.91ZM181.39,448c-.08-.05-.15-.13-.22-.14s-.56-.12-.47.16S181.15,448.19,181.39,448ZM195,437.67a1.09,1.09,0,0,0,0,.35c0,.06.12.09.19.14a1,1,0,0,0,.07-.33S195.15,437.75,195,437.67ZM182.11,448l-.31.24a.56.56,0,0,0,.73,0Zm9.79-16.83c-.05.06-.13.13-.13.2s0,.19.09.2.22-.06.18-.2A1.21,1.21,0,0,0,191.9,431.2Zm-59.45,7.54-.09-.22c-.06.08-.15.14-.18.23s.08.13.13.19Zm66.38,6.31-.14-.24c0,.07-.13.14-.13.22s.08.15.12.23Zm-9.26-18.5c-.06.07-.14.14-.14.21s.08.16.12.23.14-.14.14-.21S189.61,426.63,189.57,426.55ZM133,437.43l-.09-.09a.65.65,0,0,0-.08.17s0,.06.08.09Zm-.38.48s-.09.06-.08.08a1.34,1.34,0,0,0,.07.18s.09-.06.08-.09A.51.51,0,0,0,132.62,437.91Zm62.91.64-.1-.05s-.07.07-.1.1l.2.06Zm.81,1.63s-.09.06-.08.08a.71.71,0,0,0,.08.18s.08-.07.08-.09A.89.89,0,0,0,196.34,440.18Zm-58.34-13-.09,0a.5.5,0,0,0-.11.1l.19.05A.38.38,0,0,1,138,427.21ZM192.16,432s-.06.08,0,.1.13.14.19,0,0-.08-.05-.1S192.19,432,192.16,432Zm6.93,13.67-.1-.1-.1.1.15.1Zm.15.51s-.06.08-.05.1.13.15.19,0,0-.08,0-.1S199.27,446.18,199.24,446.18ZM128,447.64l-.09-.09a1.3,1.3,0,0,0-.08.17s0,.06.08.09Zm10.37-20.95s-.07-.09-.09-.08a.53.53,0,0,0-.17.08s.06.09.08.09A.76.76,0,0,0,138.35,426.69Zm-7.8,15.47s-.09.06-.08.08a.58.58,0,0,0,.08.18s.08-.06.08-.08A.58.58,0,0,0,130.55,442.16Z"/><path class="cls-4" d="M100.54,468.63c-.1,6.19-4.54,12.23-10.2,13.88s-11-.9-12.29-6.07c-1.56-6.49,3.33-17.1,13.33-17.23C96.8,459.14,100.63,463,100.54,468.63Zm-3.8.65c0-.61.05-1.23,0-1.84-.44-4.73-4-7.58-8.26-6.59a7.33,7.33,0,0,0-4.65,3.22,15.12,15.12,0,0,0-1.94,12.11c.64,2.77,2.35,4.84,5.43,5.27s5.41-1,7.06-3.42A14.78,14.78,0,0,0,96.74,469.28Z"/><path class="cls-4" d="M151.22,476c-1.24,1.56-2.24,2.89-3.32,4.16a7.58,7.58,0,0,1-3.37,2.66,2.65,2.65,0,0,1-2.65-.27,1.26,1.26,0,0,1-.19-2,1.08,1.08,0,0,1,1.77.11c.81.92,1.55.74,2.36,0a34.65,34.65,0,0,0,4.72-6,1,1,0,0,0,.2-.79c-.35-1.47-.68-2.95-1.08-4.4-.3-1.06-1-1.36-2-.74-.54.33-1.06.68-1.58,1-.34.23-.53.08-.73-.18s-.06-.42.14-.58a16.56,16.56,0,0,1,4.31-2.68,1.47,1.47,0,0,1,2,.89,26.05,26.05,0,0,1,1.11,3.84c.67,0,.78-.61,1.08-1a15.73,15.73,0,0,1,4.42-4.1,4.11,4.11,0,0,1,2.37-.64,1.18,1.18,0,0,1,1.2,1,1.09,1.09,0,0,1-.89,1.28,3.57,3.57,0,0,1-1,.21c-3.41,0-4.89,2.4-6.5,4.68a1.4,1.4,0,0,0-.15,1.22c.76,3.13,1.29,6.3,2.32,9.35a8.47,8.47,0,0,0,2.5,3.95c1.46,1.23,2.79,1,3.71-.57.32-.56.6-1.12,1.38-1.08a.92.92,0,0,1,.85.69,1.57,1.57,0,0,1-.53,1.67,4.9,4.9,0,0,1-5.06,1c-3.35-1-4.74-3.62-5.8-6.49A48,48,0,0,1,151.22,476Z"/><path class="cls-4" d="M238.1,479.3c-1,.76-1.87,1.54-2.85,2.22a9.88,9.88,0,0,1-2.17,1.17c-2,.75-3.39,0-3.85-2-.56-2.4.25-4.6,1.37-6.66,1.87-3.43,4.28-6.35,8.46-7.34a8.09,8.09,0,0,1,1.31-.17c1.12-.07,2.34.28,3.22-.79a.75.75,0,0,1,.9.06c-1.07,3.58-2.23,7.18-3,10.87-.18.88-.35,1.76-.5,2.64-.05.36-.17.8.24,1s.78,0,1.1-.24c.69-.44,1.35-.93,2-1.42.32-.24.58-.32.88,0s.06.51-.16.7a13.52,13.52,0,0,1-5.35,3.41c-1.82.49-2.38,0-1.92-1.82C237.93,480.47,238.29,480,238.1,479.3Zm-6-1.79c.1,1-.21,2.23,1.06,2.75s2.16-.22,3.08-.88a6.21,6.21,0,0,0,2-2.41c1.16-2.42,1.54-5.06,2.36-7.57.23-.69-.29-.7-.69-.76a5.2,5.2,0,0,0-5.12,1.82A12.33,12.33,0,0,0,232.11,477.51Z"/><path class="cls-4" d="M129.05,465.55c-1,3.87-2.19,7.5-3,11.24-.19.93-.34,1.86-.46,2.79s.35,1.06,1,.66,1.54-1,2.29-1.54c.3-.21.55-.38.86,0s.11.51-.13.71c-1.63,1.44-3.26,2.89-5.47,3.46-1.69.43-2.24-.1-1.82-1.68.18-.68.37-1.35.61-2.23a23.6,23.6,0,0,1-4.13,3.22c-1.18.64-2.44,1.24-3.74.49a3.32,3.32,0,0,1-1.45-3.5,15.27,15.27,0,0,1,7.78-11.73.84.84,0,0,0,.14-.06C123.89,466,126.82,467.32,129.05,465.55Zm-12.28,11.91c.07,1.09-.21,2.29,1,2.81s2.09-.18,3-.8a6.73,6.73,0,0,0,2.56-3.55c.64-2.08,1.15-4.19,1.83-6.26.27-.84-.07-1-.76-1.05a5.25,5.25,0,0,0-5.06,2A12,12,0,0,0,116.77,477.46Z"/><path class="cls-4" d="M182.32,479.2a26,26,0,0,1-4.62,3.23c-2.52,1.23-4.25.37-4.61-2.31a9,9,0,0,1,.72-4.43,16.59,16.59,0,0,1,5-6.9,8.13,8.13,0,0,1,6.17-2.2c1.38.15,2.16-.9,3.54-1-.74,2.57-1.49,5-2.15,7.5-.51,1.92-.93,3.86-1.33,5.81-.1.46-.35,1.1.22,1.42s.93-.13,1.33-.39c.6-.41,1.18-.84,1.77-1.27.25-.17.48-.33.77-.05s.16.57-.12.81a13.65,13.65,0,0,1-5.21,3.36c-.66.19-1.39.42-2-.12s-.15-1.17,0-1.74S182.14,479.78,182.32,479.2Zm.63-10.64a4.93,4.93,0,0,0-4.21,1.95,11.8,11.8,0,0,0-2.63,7.78c.08,2,1.32,2.66,3.17,1.7a7.26,7.26,0,0,0,3.56-4.5c.55-1.72,1-3.45,1.49-5.18C184.78,468.75,184.64,468.57,183,468.56Z"/><path class="cls-7" d="M123.43,451.37c.42.59,1.06.37,1.62.37q16.9,0,33.82,0c.64,0,1.37-.26,1.93.3v.32c1.31.63,2.7.21,4,.26.7,0,1.51.37,2.13-.28v-.28a3.59,3.59,0,0,1,2-.31l34.09,0c.46,0,1,.23,1.38-.21.61.84.32,1.28-.68,1.37-.34,0-.69,0-1,0H170.32c-.71,0-1.42-.12-1.84.76-.22.47-.93.43-1.48.43-1.81,0-3.63,0-5.45,0-1,0-2,.27-2.66-.93-.24-.46-1-.21-1.53-.21l-32.41,0C123.25,452.9,122.94,452.59,123.43,451.37Z"/><path class="cls-8" d="M267.84,493.76H60.09c-2.22,0-2,.27-2-1.87V459.72c0-.47,0-.94,0-1.41.53-.38,1.15-.19,1.72-.19q32.22,0,64.45,0c.57,0,1.28.35,1.73-.34.23.06.58.05.66.18.18.33-.17.36-.39.37-.44,0-.89,0-1.33,0H60.31c-1.89,0-1.9,0-1.9,1.85,0,10.54,0,21.08,0,31.62,0,1.36.38,1.72,1.8,1.72q103.83,0,207.65,0Z"/><path class="cls-4" d="M203.25,477.69a14.56,14.56,0,0,1,5.53-10,6.91,6.91,0,0,1,5.65-1.43,2,2,0,0,1,1.76,1.31,1.23,1.23,0,0,1-.37,1.43,2.11,2.11,0,0,1-2.23,0c-.41-.16-.79-.37-1.19-.55-1.51-.64-2.7-.47-3.62.84a12.5,12.5,0,0,0-2.2,9.69c.27,1.54,1.34,2.1,2.94,1.76a10,10,0,0,0,3.89-1.93c.26-.19.58-.67,1-.15s.12.8-.29,1.08a20.35,20.35,0,0,1-5.1,2.78C205.24,483.79,203.16,482.34,203.25,477.69Z"/><path class="cls-12" d="M129.94,439.41a32.48,32.48,0,0,1-2.47,4.47A6.17,6.17,0,0,1,129.94,439.41Z"/><path class="cls-12" d="M131.66,436.22a20,20,0,0,1-1.72,3.18A4.09,4.09,0,0,1,131.66,436.22Z"/><path class="cls-12" d="M127.48,443.86a6.26,6.26,0,0,1-1.17,2.13A2,2,0,0,1,127.48,443.86Z"/><path class="cls-11" d="M136.12,319.16c3.7-4.36,9.27-4,12.4.58l-.14.18c-2.76-2.23-5.79-3.24-9.38-2a17.18,17.18,0,0,0-2.68,1.43A1.34,1.34,0,0,0,136.12,319.16Z"/><path class="cls-11" d="M146.45,321.05h-.68c-2.82-1.71-5.55-1.15-8.25.3l0,0C140,318.29,143.59,318.17,146.45,321.05Z"/><path class="cls-14" d="M144,321.93c.24.24.68.31.69.74l-.14.14c-.81.1-1.43-.5-2.19-.59l-3.56.62C140.58,321.51,142.17,321.16,144,321.93Z"/><path class="cls-12" d="M136.87,433.37a58.38,58.38,0,0,1,2.85-6.67c.21-.51.42-1,.64-1.54l.08-.31.58,0c-1.16,2.54-2.31,5.09-3.48,7.63C137.39,432.84,137.47,433.36,136.87,433.37Z"/><path class="cls-13" d="M139.3,425.42c-.45,1.25-1.48.45-2.25.58C137.58,425,138.55,425.61,139.3,425.42Z"/><path class="cls-11" d="M136.32,319.37a3.28,3.28,0,0,1-.39.28c-.26-.26.08-.33.19-.49A1.34,1.34,0,0,1,136.32,319.37Z"/><path class="cls-11" d="M148.77,320.15h0a.3.3,0,0,1-.41-.22l.14-.18Z"/><path class="cls-11" d="M134.52,317.06c0,.22-.1.29-.3.27l0,0,.34-.26Z"/><path class="cls-11" d="M137.15,321.57l0,.21a.36.36,0,0,1,0-.07l.09-.11Z"/><path class="cls-11" d="M137.17,321.6l.31-.27,0,0c0,.28-.11.36-.37.22Z"/><path class="cls-11" d="M150.15,317.65l.21.1-.13.1,0-.22Z"/><polygon class="cls-11" points="134.22 317.33 134.19 317.39 134.2 317.35 134.22 317.33"/><path class="cls-13" d="M188.21,425.44c-.18.11-.5,0-.6.27h-.44c-.4-1.2-1.47-1.1-2.46-1.14a2.75,2.75,0,0,1,3.5.87Z"/><path class="cls-13" d="M190.57,426.28c-.66-.61-2,.42-2.36-.85.53,0,1.06,0,1.6,0S190.71,425.67,190.57,426.28Z"/><path class="cls-13" d="M191.32,427.13c-.41.1-.46-.14-.46-.44Z"/><path class="cls-15" d="M248,291.82c.07-.15.08-.36.35-.31Z"/><path class="cls-13" d="M190.87,426.71a.38.38,0,0,1-.3-.44C190.88,426.28,190.89,426.49,190.87,426.71Z"/><path class="cls-15" d="M123.92,352.81c-1.07.14-2.09.33-3-.55-1.15-1.08-1.13-1.52.37-2.16-.07-.6-.77-.48-1.08-.91a3.71,3.71,0,0,1,3.16-1.4,2.92,2.92,0,0,0,1-.12,1.16,1.16,0,0,0,.91-1c.07-.51-.49-.49-.82-.64-.49-.21-1-.37-1.5-.58s-.83-.21-.7-.73a.87.87,0,0,1,1.12-.67c.43.08.87.15,1.29.27a.88.88,0,0,0,1.17-.57c.27-.59-.33-.56-.62-.72-.48-.27-1.08-.59-1-1.1s.79-.58,1.29-.74a5.91,5.91,0,0,1,3.31-.3c2.29.5,4.66.61,6.9,1.41a5,5,0,0,0,3.61-.15,3.81,3.81,0,0,1,3.1.09c1.45.58,3,1,4.42,1.57.51.19,1,.46,1.47,0,.21-.22.46-.53.31-.74a1.59,1.59,0,0,0-1.33-.49,1.55,1.55,0,0,1-1.63-.89c-.34-.68-1.29-.51-2-.54-.53,0-1.16.1-1.38-.53a1.57,1.57,0,0,1,.38-1.58,2.76,2.76,0,0,1,3.91-.68,5.11,5.11,0,0,0,3.87.77c.65-.11.83,0,.94.76.15,1.08.71,2.09-.21,3.09a.3.3,0,0,0,.2.52c.46,0,1.28.26,1.34-.16.26-1.64,1.23-.85,2-.68.27-.16.19-.41.16-.62-.07-.49-.09-1,.43-1.25s.86.19,1.23.49c.55.45.92,1.13,1.72,1.27a7.18,7.18,0,0,1,2.21.95c-2.44,1.23-4.1,3.14-6,4.82s-1.7,2.87.53,4.07a15,15,0,0,0,2.28,1,1.9,1.9,0,0,1,1.53,1.65c2-1.62,1.76-3.9,1.91-6,.06-.85.29-1.09,1.14-.72s1.49.48,2.22.76c.29.11.69.12.82.52s-.49,1.09.59,1.06c.8,0,1.09-.46,1.3-1.09a2.61,2.61,0,0,1,.82,1.51,4.94,4.94,0,0,0,1.56,2.44c1.33,1.14,1.6,3,2.42,4.46.29.53-.69,1-1.35,1.24a1.62,1.62,0,0,1-1.87-.44c-.33-.41.3-.71.44-1.08s.41-.59.21-.92-.62-.18-.94-.15c-1.68.17-2.28,1.08-1.47,2.51.37.65-.08.86-.29,1.2s-.58.38-1,.15a2.21,2.21,0,0,0-2.91.82c-1.84,2.4-3,5.27-5.5,7.24-.86.67-.18,1.79-.12,2.69,0,.63.19,1.21-.58,1.6-.22-.43-.42-.86-.65-1.27-.6-1.09-1.32-1.86-2.81-1.36a5.65,5.65,0,0,1-1.75.06,2.52,2.52,0,0,0-2.81,2.11,6.72,6.72,0,0,0,0,2.68c.13.88.89,1.17,1.7,1.33s.89-.51,1.07-1c.27-.76.84-1.15,1.58-.79s1,.82.28,1.57-.69,1.42.53,1.78c.81.24,1.82.53,1,1.73a.65.65,0,0,0,.12.8c.56.58,1.42.35,2,.64s1.11.28,1.61-.38a2.21,2.21,0,0,1,2.65-.67,5.14,5.14,0,0,0,1.35.52c2.54.07,4.5,1,5.67,3.25.23.45.8.37,1.2.31,1.23-.19,1.69.39,1.77,1.45s.35,1.38,1.54,1.71c1.68.47,3.21,1.37,5,1.75s2,1.88,1,3.29a12.61,12.61,0,0,0-2.4,6.15,2.48,2.48,0,0,1-1.56,2.07,2.8,2.8,0,0,0-1.79,2.82,3.88,3.88,0,0,1-3.09,3.44c-.35.05-.93.17-.83.4.71,1.59-.84,2-1.56,2.69a4.79,4.79,0,0,0-1.5,3,51.38,51.38,0,0,0-.4,6.06c0,1.22-.59,1.38-1.73.83-2.13-1-3-2.64-2.48-4.86.32-1.32-.56-2.39-.53-3.7.11-4,1-8,.67-12a3.36,3.36,0,0,0-1.43-2.84c-1.51-1.08-2.83-2.51-2.56-4.63a.8.8,0,0,0-.38-.87c-1-.47-1.65-.92-1-2.2.4-.8-.27-1.88.78-2.7a2.62,2.62,0,0,0,.55-2.39c-.1-.84-.8-.75-1.35-.75a2.1,2.1,0,0,1-2.28-1.63,4.55,4.55,0,0,0-3.37-2.5c-1.83-.45-3.33-1.6-5.16-2-.47-.1-1.1-.51-1-.94.63-1.94-.87-2.95-1.8-4.21l-.44-.57a.38.38,0,0,0-.34-.46l-.27-.31c-.24-.29-.48-.3-.56.08a8.26,8.26,0,0,0-.11,1.22h0l-.48-.44c-.59-1.69-1.08-3.38-2.67-4.59a2.64,2.64,0,0,1-.74-3.13,7.67,7.67,0,0,0-.27-6.44c-.15-.3-.43-.68.13-.75,1.12-.12.72-.72.49-1.26a8.48,8.48,0,0,0-4.26-4.31,2,2,0,0,0-2.41.39,5.46,5.46,0,0,0-1.49,2.41,1.94,1.94,0,0,1-2.31,1.53c.4-.92.78-1.81,1.16-2.7l-.18-.14c-.84.65-1.68,1.3-2.53,1.94a2.58,2.58,0,0,0-1.44.84c-.45.38-.75.41-.89-.23l.64-.59C124.25,353.63,124.45,353.34,123.92,352.81Z"/><path class="cls-4" d="M170.52,330.3a5.38,5.38,0,0,1-3.32,2,1.91,1.91,0,0,0-1.46.83,5.94,5.94,0,0,1-3.38,3.12c-.1,0-.17.21-.2.34-.34,1.47-1.47,1.32-2.52,1a9.56,9.56,0,0,1-2.24-1.06c-.53-.32-1.54-.82.08-1.07.39-.06.23-.25.18-.49-.12-.64-.17-1.3-.3-1.94-.09-.48,0-.87.47-1.07s1-.24,1.25.32a1.61,1.61,0,0,0,.32.48c.29.24.66.33.9,0s0-.5-.31-.65a1,1,0,0,1-.42-1.55c.43-.73.92,0,1.36.13s.59.4.95.24C164.67,329.73,167.61,330.36,170.52,330.3Zm-12,5c.78-.21,1.38-.34,1.45-1.05a.41.41,0,0,0-.46-.44C158.57,333.82,158.71,334.55,158.49,335.26Z"/><path class="cls-4" d="M166.75,345c.08.74.19,1.44.22,2.14a1.12,1.12,0,0,1-.72,1.13c-.49.21-.85-.14-1.13-.46-.8-.93-1.64-1.76-3.07-1.54,0-.78.65-1,1-1.35s1.19-.71.9-1.45a1.86,1.86,0,0,0-1.63-1.27c-1.36,0-2.5-.78-3.83-.86-.64,0-1.33-.25-1.14-1.12s.52-1.52,1.55-1.33,2.09.09,2.79,1a.78.78,0,0,0,.34.24c1.3-1.19,2.15.5,3.3.5.9,0,1.85.36,1.33,1.66-.14.34.1.63.46.78.13.06.29.07.41.14.8.44,1.38,1.19,1,2C168,346.18,167.48,344.74,166.75,345Z"/><path class="cls-4" d="M152.5,335.53c-.4.29,0,.67-.12,1-.16.55-.11,1.07-1,1a14.24,14.24,0,0,0-2.29.3c-.89,0-1.79,0-2.12-1.09-.18-.61-.66-.64-1.14-.28a.9.9,0,0,1-1.07.15,4.25,4.25,0,0,0,.86-.53c1.2-1.22,1.4-1.26,2.57-.06.61.62,1.06,1.05,1.89.21,1.16-1.15,1.21-1.09,2.47-.68Z"/><path class="cls-4" d="M155.92,373.66c.76.15,1.55.25,2.29.47.49.16,1.41.24,1.07,1a1.31,1.31,0,0,1-1.87.53c-.86-.65-1.62-1.14-2.73-.7a.52.52,0,0,1-.47-.21.55.55,0,0,1,.17-.48A1.79,1.79,0,0,1,155.92,373.66Z"/><path class="cls-4" d="M122.45,354.55c.14.64.44.61.89.23a2.58,2.58,0,0,1,1.44-.84c-1.48,1.3-3,2.6-4.46,3.88-.25.22-.5.49-.87.13s0-.66.22-.9C120.59,356.21,121.52,355.38,122.45,354.55Z"/><path class="cls-4" d="M154,338.35c.36,0,.71.41.67,1.15a1.49,1.49,0,0,1-1.37,1.53c-.89,0-1-1.06-1.06-1.73S152.88,338.32,154,338.35Z"/><path class="cls-5" d="M140.33,371.44a8.26,8.26,0,0,1,.11-1.22c.08-.38.32-.37.56-.08-.63.56-.19,1.06.07,1.59.4.82,1,2.4.55,2.46-1.12.16-1-1.27-1.42-2a4.55,4.55,0,0,1-.34-1.19l.48.44-.08-.07Z"/><path class="cls-5" d="M152.51,335.54c0-.47,0-.94,0-1.4s.39-.59.82-.57.91-.08,1.15.4,0,.63-.4.89-.87.87-1.61.67Z"/><path class="cls-4" d="M159.38,376.19a1.75,1.75,0,0,1,2.45,0c.17.17.34.47,0,.56A2,2,0,0,1,159.38,376.19Z"/><path class="cls-4" d="M152.39,337.5c.61-.43,1-.74,1.44-1a.65.65,0,0,1,.81,0,.67.67,0,0,1,.14.51c0,.35-.25.48-.59.47Z"/><path class="cls-4" d="M123.92,352.81c.53.53.33.82-.83,1.15C123.23,353.49,124,353.4,123.92,352.81Z"/><path class="cls-5" d="M141.27,370.45a.38.38,0,0,1,.34.46A.49.49,0,0,1,141.27,370.45Z"/><path class="cls-15" d="M111.65,126.63v-.25l.17.09A.93.93,0,0,1,111.65,126.63Z"/><path class="cls-4" d="M205.1,336c-9.79-.42-17.73-4.14-22.78-12.45-5.47-9-3.89-19.85,3.73-27.62,10.4-10.61,29.3-10.39,39.41.48,11.5,12.35,6.47,30.49-8.64,37.14A28.67,28.67,0,0,1,205.1,336Zm.17-1.21A26.61,26.61,0,0,0,219,331.14c13.52-7.8,15.49-25.24,4-35.49-9-8-23.22-8.55-33.31-1.28-9.15,6.58-12.13,18.58-6.68,28C187.83,330.73,195.56,334.5,205.27,334.79Z"/><path class="cls-9" d="M184.71,424.57c1,0,2.06-.06,2.46,1.14.55,1,.66,2.3,1.66,3.12l0,0c-.38.49.09.84.26,1.22,1.29,3,2.56,6,3.93,8.88a18.14,18.14,0,0,0,2,4.1v0a11.38,11.38,0,0,0,1.78,4v.55c-1.41-.14-2.83-.22-4.23-.44-4.91-.76-9.67-2.24-14.56-3.1-5.37-.95-10.47-.84-14,4.13V428.84A63.92,63.92,0,0,0,184.71,424.57Zm3.16,6,0-.36c-7.27,0-14.54-.78-21.81.36Zm-21.7,5.17c1.59.62,20.53.59,21.84,0C182.61,435.18,169.63,435.21,166.17,435.75Zm.21,4.43c7.25.27,14.49.3,21.73-.06C180.86,440,173.62,439.1,166.38,440.18Zm.16-7.27h21.25C180.71,432.68,173.63,432,166.54,432.91Zm-.22,1.5h21.16C180.44,434.07,173.4,433.45,166.32,434.41Zm.22,3.42H188C180.84,437.43,173.69,436.9,166.54,437.83Zm21.93,4.56c-7.13-.38-14.29-1-21.43,0Z"/><path class="cls-9" d="M136.87,433.37c.6,0,.52-.53.67-.86,1.17-2.54,2.32-5.09,3.48-7.63,2.52.74,5,1.55,7.57,2.21a62.69,62.69,0,0,0,15.15,1.76q0,9.64.07,19.29c-.46.26-.44-.82-1-.33l0,0a4,4,0,0,0-2.25-2.57A14.93,14.93,0,0,0,149.29,444a97.28,97.28,0,0,1-17.36,3.15c-.38,0-1.12.4-.83-.56l-.11-.23v0a9.34,9.34,0,0,0,2.08-4.56l0,0a18.66,18.66,0,0,0,2.68-5.69v0a4.68,4.68,0,0,0,1.18-2.87Zm1.47,2.19c7.29.29,14.58.39,21.87,0C152.92,434.55,145.62,435.4,138.34,435.56Zm1.73-4.94c1.52.72,20.58.61,21.58,0C154.46,429.77,147.26,430.71,140.07,430.62Zm-1.24,3.12,0,.36H159.4C152.55,433.08,145.68,433.84,138.83,433.74Zm20.77,3.8c-7-1-14.08-.38-21.12,0ZM136.34,442h21.14C150.45,441.14,143.42,441.69,136.34,442Zm3.16-9.31H161C153.83,431.82,146.66,432.33,139.5,432.73Zm19.15,7.12c-7.2-1-14.39-.38-21.58,0Z"/><path class="cls-12" d="M163.81,448.14q0-9.64-.07-19.29a.46.46,0,0,1,.26,0q0,9.65,0,19.28A.14.14,0,0,1,163.81,448.14Z"/><path class="cls-11" d="M147.15,321.79c-.07.25-.21.24-.31.15a2.71,2.71,0,0,1-.35-.41c.11,0,.25-.12.31-.08A1.89,1.89,0,0,1,147.15,321.79Z"/><path class="cls-14" d="M144.89,323a.7.7,0,0,1,.7.41s-.06.09-.1.09c-.35,0-.51-.19-.66-.44Z"/><path class="cls-14" d="M139.84,324.74a.52.52,0,0,1,.56-.32l0,0a.53.53,0,0,1-.6.27Z"/><path class="cls-14" d="M139.84,324.73l-.1.36-.12-.06.22-.29Z"/><path class="cls-14" d="M144.64,322.67l.25.32-.06.06-.32-.24Z"/><path class="cls-15" d="M50.55,81.58c.08.09.24.23.23.25-.12.18-.3.13-.47.06Z"/><path class="cls-3" d="M194.06,338.51c-.88-.15-1.55.46-2.39.62C192.53,338,192.86,337.92,194.06,338.51Z"/><path class="cls-6" d="M247.59,278.41a7.69,7.69,0,0,1,5.11,3.1,2.69,2.69,0,0,1-.12,3.42,9.53,9.53,0,0,1-1.92,1.72c-.79.6-1.28.61-1.64-.45a4.68,4.68,0,0,0-4.23-3.19c-1.2-.13-1.57-.77-1.3-1.86C243.92,279.39,245.15,278.43,247.59,278.41Z"/><path class="cls-12" d="M244.88,289.13c0-2.15-1.36-3-3.51-2.25a5.71,5.71,0,0,0-2.47,1.49c-.85,1-1.54.21-2.11-.25-.84-.66.17-1,.49-1.26,2.24-1.79,4.62-3.2,7.76-2.38a3.62,3.62,0,0,1,2.83,4.63,8.36,8.36,0,0,1-2.07,3.37c-.32.38-.71.69-1.26.32a.88.88,0,0,1-.32-1.22C244.54,290.75,245.07,290,244.88,289.13Z"/><path class="cls-10" d="M256.53,269.05c.79.29,2,.15,2.51,1.18s-.16,1.82-.75,2.56a4.07,4.07,0,0,1-5.46.91.67.67,0,0,1-.36-.67C252.41,271.4,254.7,269.07,256.53,269.05Z"/><path class="cls-12" d="M252.2,275.08c.83.09,1.88.14,2,1.38.09.82-1.29,2.6-1.91,2.6s-2.13-1.09-2.13-1.66A2.57,2.57,0,0,1,252.2,275.08Z"/><path class="cls-4" d="M243.68,288.93a.66.66,0,0,1,0,.14c-.07,2.14-.76,2.51-2.7,1.43-.48-.27-1.34-.37-1.34-.92s.83-.85,1.37-1.15a4.63,4.63,0,0,1,1.35-.53C243.19,287.72,243.68,288.06,243.68,288.93Z"/><path class="cls-2" d="M131,300.19c0-.3.25-.4.53-.42l.11,1C131.12,300.79,131.35,300.2,131,300.19Z"/><path class="cls-2" d="M145.08,297.21l-.17.56-.33-.38Z"/><path class="cls-12" d="M144.86,301.76c.07.26-.08.31-.31.3C144.36,301.67,144.54,301.64,144.86,301.76Z"/><path class="cls-2" d="M130.77,296.61a.32.32,0,0,1-.08-.22A.14.14,0,0,1,130.77,296.61Z"/><path class="cls-2" d="M131.16,298.06l-.16-.3Z"/><path class="cls-2" d="M141.93,297.93l.29-.13Z"/><path class="cls-2" d="M131.34,299.15a.3.3,0,0,1-.06-.2l.09.09Z"/><path class="cls-4" d="M98.83,85.37,99,85c0,.06.1.11.1.17s0,.26-.22.18Z"/><path class="cls-9" d="M130.11,292.67c-.08.11-.16.1-.2,0s0-.08,0-.13l.16.18Z"/><path class="cls-15" d="M129.92,96.23l.38-.29a.38.38,0,0,1-.14.54Z"/><path class="cls-15" d="M173.47,144.1c-.35-.08-.63-.19-.32-.59A.42.42,0,0,1,173.47,144.1Z"/><path class="cls-15" d="M173.17,143.53c-.35.15-.46.05-.31-.29C173.12,143.18,173.17,143.33,173.17,143.53Z"/><path class="cls-15" d="M157.58,144.72c0-.26-.06-.53.28-.64l0,.56Z"/><path class="cls-15" d="M157.84,144.1a.31.31,0,0,1,.31-.3C158.16,144,158.08,144.12,157.84,144.1Z"/><path class="cls-11" d="M163.81,448.14a.14.14,0,0,0,.2,0c3.51-5,8.61-5.08,14-4.13,4.89.86,9.65,2.34,14.56,3.1,1.4.22,2.82.3,4.23.44.14.46.34.08.52,0l.31.76c-5.8-.37-11.34-1.88-16.92-3.16a26.47,26.47,0,0,0-8.71-.83c-3.76.4-6.58,1.86-8.06,5.42-.61-.56-.69-1.34-1.09-1.94C163.37,447.32,163.35,448.4,163.81,448.14Z"/><path class="cls-11" d="M131.1,446.62c-.29,1,.45.59.83.56A97.28,97.28,0,0,0,149.29,444a14.93,14.93,0,0,1,11.32,1.24,4,4,0,0,1,2.25,2.57c-4-3.92-8.88-4.4-14.07-3.06a85.29,85.29,0,0,1-17.38,3,9,9,0,0,0-1.32.29l.66-1.41Z"/><path class="cls-13" d="M127.57,448.51c-.47,1.58-.46,1.59,1.2,1.58a62.68,62.68,0,0,0,12.68-1.1,1.4,1.4,0,0,1,1.28.11c-5.38,1.36-10.84,1.27-16.39,1.49a7.54,7.54,0,0,1,1.09-2.22A1.85,1.85,0,0,0,127.57,448.51Z"/><path class="cls-12" d="M195,443a18.14,18.14,0,0,1-2-4.1c-1.37-2.93-2.64-5.91-3.93-8.88-.17-.38-.64-.73-.26-1.22a65.86,65.86,0,0,1,3.31,7.07c.94,2,1.85,4.1,2.75,6.16C195,442.34,195.34,442.64,195,443Z"/><path class="cls-13" d="M156.53,447.73c-4.54-.79-8.85.84-13.3,1.13C147.63,448.15,152,446.52,156.53,447.73Z"/><path class="cls-13" d="M194.44,450.31a28.18,28.18,0,0,1-8.73-1.36c2.85.8,5.83.57,8.71,1.17A.31.31,0,0,1,194.44,450.31Z"/><path class="cls-12" d="M135.72,436.18a18.66,18.66,0,0,1-2.68,5.69A18.89,18.89,0,0,1,135.72,436.18Z"/><path class="cls-12" d="M194.44,450.31a.31.31,0,0,0,0-.19c2.11-.21,4.29.39,6.36-.36.51-.18.5.2.55.35.11.37-.24.3-.45.3Z"/><path class="cls-12" d="M160.8,452.37v-.32l4.52,0c1.24,0,1.24,0,1.51-1.24a2.13,2.13,0,0,1,.15,1.24v.28Z"/><path class="cls-12" d="M133.06,441.85a9.34,9.34,0,0,1-2.08,4.56A14.94,14.94,0,0,1,133.06,441.85Z"/><path class="cls-12" d="M196.78,447a11.38,11.38,0,0,1-1.78-4A7,7,0,0,1,196.78,447Z"/><path class="cls-12" d="M188.83,428.83c-1-.82-1.11-2.08-1.66-3.12h.44A15.19,15.19,0,0,1,188.83,428.83Z"/><path class="cls-13" d="M179.34,447.58a14.78,14.78,0,0,1-4-.77c1.35.22,2.79-.08,4.05.66Z"/><path class="cls-12" d="M136.89,433.34a4.68,4.68,0,0,1-1.18,2.87A4.74,4.74,0,0,1,136.89,433.34Z"/><path class="cls-13" d="M185.16,448.81c-.8.3-1.48-.07-2.39-.27C183.77,448.15,184.43,448.72,185.16,448.81Z"/><path class="cls-13" d="M135.62,431.84l.71-1.8a2.29,2.29,0,0,1-.61,1.91Z"/><path class="cls-13" d="M134.92,433.63c-.23-.63.2-.81.3-1.24C135.56,433,135.13,433.22,134.92,433.63Z"/><path class="cls-13" d="M131.21,440.77c.17.55-.11.8-.44,1.16A1.28,1.28,0,0,1,131.21,440.77Z"/><path class="cls-13" d="M192.92,433.66a1.86,1.86,0,0,1-.57-1.14,1.08,1.08,0,0,1,.68,1Z"/><path class="cls-13" d="M200,447.84a1.71,1.71,0,0,1-.57-1.13,1.07,1.07,0,0,1,.67,1Z"/><path class="cls-13" d="M196.06,439.91c-.23-.25-.52-.44-.36-.91C196,439.28,196.29,439.46,196.06,439.91Z"/><path class="cls-12" d="M197.3,447.56c-.18.05-.38.43-.52,0V447C197.27,446.9,197.17,447.32,197.3,447.56Z"/><path class="cls-13" d="M181.39,448c-.24.22-.62.26-.69,0s.28-.18.47-.16S181.31,447.92,181.39,448Z"/><path class="cls-13" d="M195,437.67c.12.08.24.12.24.16a1,1,0,0,1-.07.33c-.07-.05-.18-.08-.19-.14A1.09,1.09,0,0,1,195,437.67Z"/><path class="cls-13" d="M179.43,447.47l.88.12a.58.58,0,0,1-1,0Z"/><path class="cls-13" d="M182.11,448l.42.25a.56.56,0,0,1-.73,0Z"/><path class="cls-13" d="M137.39,428.17l.22-.47c.06.05.17.13.16.15s-.17.29-.25.43A.69.69,0,0,1,137.39,428.17Z"/><path class="cls-13" d="M137.52,428.28l-.22.46s-.1-.06-.11-.1a.39.39,0,0,1,.2-.47A.69.69,0,0,0,137.52,428.28Z"/><path class="cls-13" d="M191.9,431.2a1.21,1.21,0,0,1,.14.2c0,.14,0,.24-.18.2s-.1-.14-.09-.2S191.85,431.26,191.9,431.2Z"/><path class="cls-13" d="M193,433.56a.32.32,0,0,1,.2.43s-.19.05-.2,0-.07-.25-.11-.37Z"/><path class="cls-13" d="M133.33,436.46l.2-.44s.1.05.11.09a.37.37,0,0,1-.17.46Z"/><path class="cls-13" d="M133.47,436.57c-.13.13,0,.54-.32.39s0-.36.18-.5Z"/><path class="cls-13" d="M132.45,438.74l-.14.2c-.05-.06-.14-.14-.13-.19s.12-.15.18-.23Z"/><path class="cls-13" d="M196.76,441.31c-.09-.14-.18-.28-.26-.43s.11-.08.17-.13l.16.5Z"/><path class="cls-13" d="M130,443.2l.21-.47c.06,0,.17.12.16.14a5.06,5.06,0,0,1-.26.44Z"/><path class="cls-13" d="M129.74,443.79c0-.23,0-.47.28-.59l.11.11a.49.49,0,0,1-.3.56Z"/><path class="cls-13" d="M129.83,443.87l-.15.46c-.06-.05-.15-.08-.17-.14a.34.34,0,0,1,.23-.4Z"/><path class="cls-13" d="M198.83,445.05l-.15.21c0-.08-.12-.16-.12-.23s.09-.15.13-.22Z"/><path class="cls-13" d="M128.3,446.66c0-.18,0-.36.22-.43,0,0,.1,0,.11.08a.4.4,0,0,1-.18.47Z"/><path class="cls-13" d="M128.45,446.78c-.12.13,0,.54-.32.39s0-.37.17-.51Z"/><path class="cls-13" d="M200.1,447.75a.33.33,0,0,1,.21.44.21.21,0,0,1-.1.09c-.21-.08-.21-.26-.21-.44Z"/><path class="cls-13" d="M196.83,441.25a.32.32,0,0,1,.23.43s-.07.06-.11.09l-.19-.46Z"/><path class="cls-13" d="M189.57,426.55c0,.08.12.16.12.23s-.09.14-.14.21-.12-.15-.12-.23S189.51,426.62,189.57,426.55Z"/><path class="cls-13" d="M133,437.43l-.09.17s-.09-.06-.08-.09a.65.65,0,0,1,.08-.17Z"/><path class="cls-13" d="M132.62,437.9a.67.67,0,0,1,.07.18s-.05.06-.08.09a1.34,1.34,0,0,1-.07-.18S132.59,437.93,132.62,437.9Z"/><path class="cls-13" d="M195.53,438.55v.11l-.2-.06s.06-.08.1-.1Z"/><path class="cls-13" d="M196.34,440.17a1.42,1.42,0,0,1,.08.18s-.06.06-.08.09a.71.71,0,0,1-.08-.18S196.31,440.2,196.34,440.17Z"/><path class="cls-13" d="M138,427.21a.38.38,0,0,0,0,.1l-.19-.05a.5.5,0,0,1,.11-.1Z"/><path class="cls-13" d="M135.72,432l-.19.28s-.1-.08-.09-.1.12-.19.18-.29Z"/><path class="cls-13" d="M192.16,432s.07,0,.09,0,.06.07.05.1-.13.13-.19,0S192.14,432,192.16,432Z"/><path class="cls-13" d="M199.09,445.67l-.05.1-.15-.1.1-.1Z"/><path class="cls-13" d="M199.24,446.18s.08,0,.1,0,0,.07,0,.1-.13.14-.19,0S199.22,446.22,199.24,446.18Z"/><path class="cls-12" d="M131.1,446.62l-.35.08c0-.19,0-.31.24-.31Z"/><path class="cls-13" d="M128,447.64l-.09.17s-.08-.06-.08-.09a1.3,1.3,0,0,1,.08-.17Z"/><path class="cls-13" d="M127.43,448.37l.2-.27c.19.17.08.29-.07.41Z"/><path class="cls-13" d="M138.35,426.7l-.18.08s-.06-.06-.08-.09a.53.53,0,0,1,.17-.08S138.32,426.66,138.35,426.7Z"/><path class="cls-13" d="M130.55,442.16a.58.58,0,0,1,.08.18s-.06.05-.08.08a.58.58,0,0,1-.08-.18S130.52,442.19,130.55,442.16Z"/><path class="cls-1" d="M96.74,469.28A14.78,14.78,0,0,1,94.37,478c-1.65,2.45-4,3.85-7.06,3.42s-4.79-2.5-5.43-5.27a15.12,15.12,0,0,1,1.94-12.11,7.33,7.33,0,0,1,4.65-3.22c4.25-1,7.82,1.86,8.26,6.59C96.79,468.05,96.74,468.67,96.74,469.28Z"/><path class="cls-8" d="M232.11,477.51a12.33,12.33,0,0,1,2.69-7.05,5.2,5.2,0,0,1,5.12-1.82c.4.06.92.07.69.76-.82,2.51-1.2,5.15-2.36,7.57a6.21,6.21,0,0,1-2,2.41c-.92.66-1.88,1.36-3.08.88S232.21,478.54,232.11,477.51Z"/><path class="cls-8" d="M116.77,477.46a12,12,0,0,1,2.57-6.88,5.25,5.25,0,0,1,5.06-2c.69.07,1,.21.76,1.05-.68,2.07-1.19,4.18-1.83,6.26a6.73,6.73,0,0,1-2.56,3.55c-.87.62-1.83,1.28-3,.8S116.84,478.55,116.77,477.46Z"/><path class="cls-8" d="M183,468.56c1.69,0,1.83.19,1.38,1.75-.49,1.73-.94,3.46-1.49,5.18a7.26,7.26,0,0,1-3.56,4.5c-1.85,1-3.09.3-3.17-1.7a11.8,11.8,0,0,1,2.63-7.78A4.93,4.93,0,0,1,183,468.56Z"/><path class="cls-4" d="M160.8,452.37l6.18,0c-.62.65-1.43.31-2.13.28C163.5,452.58,162.11,453,160.8,452.37Z"/><polygon class="cls-1" points="140.33 371.44 140.26 371.36 140.34 371.43 140.33 371.44"/><path class="cls-8" d="M158.49,335.26c.22-.71.08-1.44,1-1.49a.41.41,0,0,1,.46.44C159.87,334.92,159.27,335.05,158.49,335.26Z"/><path class="cls-6" d="M205.27,334.79c-9.71-.29-17.44-4.06-22.24-12.38-5.45-9.46-2.47-21.46,6.68-28,10.09-7.27,24.36-6.72,33.31,1.28,11.47,10.25,9.5,27.69-4,35.49A26.61,26.61,0,0,1,205.27,334.79Zm.87-32.52a15.75,15.75,0,0,0-5.48,1,9.61,9.61,0,0,0-4.51,3.61c-2.19,3.11-1.94,6.36-.5,9.56,1.06,2.38,3.27,3.55,5.68,4.7,4.31,2.07,8.28.35,11.57-2,2.67-2,3.24-4.76,3.18-8s-1.85-5-3.79-6.77A7.53,7.53,0,0,0,206.14,302.27Zm-3-3.77a13.92,13.92,0,0,0-1.74-5,1.36,1.36,0,0,0-1.78-.75,23.34,23.34,0,0,0-8.77,4.11c-.61.47-.62.88-.13,1.39a29.31,29.31,0,0,0,4.37,3.94,1.18,1.18,0,0,0,1.67,0,12.56,12.56,0,0,1,5.76-2.66C203.09,299.4,203.28,299.18,203.14,298.5Zm2.13,29.7a14.16,14.16,0,0,1-.21-2c0-1.24-.5-1.76-1.82-1.75A10.24,10.24,0,0,1,198.1,323c-.77-.43-1.23-.44-1.79.34a18.1,18.1,0,0,0-2.53,4.75.85.85,0,0,0,.46,1.24,20,20,0,0,0,7.1,2.54C205.37,332.31,204.92,333.16,205.27,328.2Zm1.34-36.28c-1.91,0-1.88,0-1.91,1.82a21.28,21.28,0,0,0,.56,4.76c.16.76.42,1,1.22,1a12.24,12.24,0,0,1,6.14,1.18,1,1,0,0,0,1.43-.41,15.12,15.12,0,0,0,2.11-4.92c.2-.79-.11-1.21-.87-1.52A22.92,22.92,0,0,0,206.61,291.92ZM220,308.87a16.53,16.53,0,0,0,6-2.5c.54-.36.21-.76.08-1.13a18.17,18.17,0,0,0-5.35-7.76c-.47-.42-.79-.5-1.33,0a29,29,0,0,0-4.19,4.68c-.39.55-.23.81.18,1.14a11.15,11.15,0,0,1,3.53,4.92A.88.88,0,0,0,220,308.87Zm-35.92,7.57a17.63,17.63,0,0,0,4.46,8.89c.36.39.64.15,1-.08a23,23,0,0,0,4.83-4.07c.38-.43.52-.74.08-1.2a10.24,10.24,0,0,1-2.76-5.34c-.1-.57-.37-.87-1.11-.79a21.35,21.35,0,0,0-5.78,1.52C184.25,315.59,183.94,315.85,184.05,316.44Zm2.76-4.44a22.88,22.88,0,0,0,4-.29c.68-.13,1-.35,1-1.08a9.76,9.76,0,0,1,1.6-5.36c.44-.71.4-1.12-.37-1.57a17.84,17.84,0,0,0-5.24-2.11,1.26,1.26,0,0,0-1.54.67,18.89,18.89,0,0,0-2.65,7.27c-.4,2.35-.29,2.43,2.2,2.47Zm25.64,18.74a3.15,3.15,0,0,0,.51-.11,23.5,23.5,0,0,0,8.24-4.75c.7-.62.56-1,0-1.56a33.62,33.62,0,0,0-4.75-3.53,1.06,1.06,0,0,0-1.51.2,12.46,12.46,0,0,1-5.23,3c-.72.2-1,.53-.81,1.31a16.13,16.13,0,0,0,2.51,5.07A.88.88,0,0,0,212.45,330.74Zm14.83-18.24a2.45,2.45,0,0,1,0-.6c.26-1.29-.23-1.7-1.62-1.68a47.09,47.09,0,0,0-5.7.63c-.58.09-.87.36-.85.94a11.09,11.09,0,0,1-1.4,5.85c-.31.58-.22.88.4,1.23a19.69,19.69,0,0,0,5.93,2c.65.12.72-.24.94-.61A16.4,16.4,0,0,0,227.28,312.5Z"/><path class="cls-12" d="M187.87,430.58H166.1c7.27-1.14,14.54-.31,21.81-.36Z"/><path class="cls-12" d="M166.17,435.75c3.46-.54,16.44-.57,21.84,0C186.7,436.34,167.76,436.37,166.17,435.75Z"/><path class="cls-12" d="M166.38,440.18c7.24-1.08,14.48-.15,21.73-.06C180.87,440.48,173.63,440.45,166.38,440.18Z"/><path class="cls-11" d="M166.54,432.91c7.09-1,14.17-.23,21.25,0Z"/><path class="cls-11" d="M166.32,434.41c7.08-1,14.12-.34,21.16,0Z"/><path class="cls-11" d="M166.54,437.83c7.15-.93,14.3-.4,21.44,0Z"/><path class="cls-11" d="M188.47,442.39H167C174.18,441.41,181.34,442,188.47,442.39Z"/><path class="cls-12" d="M138.34,435.56c7.28-.16,14.58-1,21.87,0C152.92,436,145.63,435.85,138.34,435.56Z"/><path class="cls-12" d="M140.07,430.62c7.19.09,14.39-.85,21.58,0C160.65,431.23,141.59,431.34,140.07,430.62Z"/><path class="cls-11" d="M138.83,433.74c6.85.1,13.72-.66,20.57.36H138.86Z"/><path class="cls-11" d="M159.6,437.54H138.48C145.52,437.16,152.57,436.59,159.6,437.54Z"/><path class="cls-11" d="M136.34,442c7.08-.35,14.11-.9,21.14,0Z"/><path class="cls-11" d="M139.5,432.73c7.16-.4,14.33-.91,21.49,0Z"/><path class="cls-11" d="M158.65,439.85H137.07C144.26,439.47,151.45,438.9,158.65,439.85Z"/><path class="cls-10" d="M206.14,302.27a7.53,7.53,0,0,1,6.15,2.09c1.94,1.75,3.73,3.71,3.79,6.77s-.51,6-3.18,8c-3.29,2.4-7.26,4.12-11.57,2-2.41-1.15-4.62-2.32-5.68-4.7-1.44-3.2-1.69-6.45.5-9.56a9.61,9.61,0,0,1,4.51-3.61A15.75,15.75,0,0,1,206.14,302.27Zm-5.63,9.64a4.6,4.6,0,0,0,4.85,4.61,4.82,4.82,0,0,0,5-4.52c0-2.34-2.26-4.46-4.9-4.51A4.85,4.85,0,0,0,200.51,311.91Z"/><path class="cls-16" d="M203.14,298.5c.14.68,0,.9-.62,1a12.56,12.56,0,0,0-5.76,2.66,1.18,1.18,0,0,1-1.67,0,29.31,29.31,0,0,1-4.37-3.94c-.49-.51-.48-.92.13-1.39a23.34,23.34,0,0,1,8.77-4.11,1.36,1.36,0,0,1,1.78.75A13.92,13.92,0,0,1,203.14,298.5Z"/><path class="cls-16" d="M205.27,328.2c-.35,5,.1,4.11-3.93,3.64a20,20,0,0,1-7.1-2.54.85.85,0,0,1-.46-1.24,18.1,18.1,0,0,1,2.53-4.75c.56-.78,1-.77,1.79-.34a10.24,10.24,0,0,0,5.14,1.52c1.32,0,1.84.51,1.82,1.75A14.16,14.16,0,0,0,205.27,328.2Z"/><path class="cls-16" d="M206.61,291.92a22.92,22.92,0,0,1,8.68,1.9c.76.31,1.07.73.87,1.52a15.12,15.12,0,0,1-2.11,4.92,1,1,0,0,1-1.43.41,12.24,12.24,0,0,0-6.14-1.18c-.8.05-1.06-.23-1.22-1a21.28,21.28,0,0,1-.56-4.76C204.73,291.89,204.7,291.89,206.61,291.92Z"/><path class="cls-16" d="M220,308.87a.88.88,0,0,1-1.08-.67,11.15,11.15,0,0,0-3.53-4.92c-.41-.33-.57-.59-.18-1.14a29,29,0,0,1,4.19-4.68c.54-.48.86-.4,1.33,0a18.17,18.17,0,0,1,5.35,7.76c.13.37.46.77-.08,1.13A16.53,16.53,0,0,1,220,308.87Z"/><path class="cls-16" d="M184.05,316.44c-.11-.59.2-.85.72-1.07a21.35,21.35,0,0,1,5.78-1.52c.74-.08,1,.22,1.11.79a10.24,10.24,0,0,0,2.76,5.34c.44.46.3.77-.08,1.2a23,23,0,0,1-4.83,4.07c-.36.23-.64.47-1,.08A17.63,17.63,0,0,1,184.05,316.44Z"/><path class="cls-16" d="M186.81,312h-1c-2.49,0-2.6-.12-2.2-2.47a18.89,18.89,0,0,1,2.65-7.27,1.26,1.26,0,0,1,1.54-.67A17.84,17.84,0,0,1,193,303.7c.77.45.81.86.37,1.57a9.76,9.76,0,0,0-1.6,5.36c0,.73-.33.95-1,1.08A22.88,22.88,0,0,1,186.81,312Z"/><path class="cls-16" d="M212.45,330.74a.88.88,0,0,1-1.08-.34,16.13,16.13,0,0,1-2.51-5.07c-.21-.78.09-1.11.81-1.31a12.46,12.46,0,0,0,5.23-3,1.06,1.06,0,0,1,1.51-.2,33.62,33.62,0,0,1,4.75,3.53c.6.54.74.94,0,1.56a23.5,23.5,0,0,1-8.24,4.75A3.15,3.15,0,0,1,212.45,330.74Z"/><path class="cls-16" d="M227.28,312.5a16.4,16.4,0,0,1-2.29,7.76c-.22.37-.29.73-.94.61a19.69,19.69,0,0,1-5.93-2c-.62-.35-.71-.65-.4-1.23a11.09,11.09,0,0,0,1.4-5.85c0-.58.27-.85.85-.94a47.09,47.09,0,0,1,5.7-.63c1.39,0,1.88.39,1.62,1.68A2.45,2.45,0,0,0,227.28,312.5Z"/><path class="cls-16" d="M200.51,311.91a4.85,4.85,0,0,1,5-4.42c2.64.05,4.94,2.17,4.9,4.51a4.82,4.82,0,0,1-5,4.52A4.6,4.6,0,0,1,200.51,311.91Z"/></g></g></svg>