<svg xmlns="http://www.w3.org/2000/svg" viewBox="0 0 425.2 452.57"><defs><style>.cls-1{fill:#8ab0c4;}.cls-2{fill:#1e3d5b;}.cls-3{fill:#282521;}.cls-4{fill:#296488;}.cls-5{fill:#e24c1f;}.cls-6{fill:#ec9336;}.cls-7{fill:#756854;}.cls-8{fill:#e7e6e6;}.cls-9{fill:#484746;}.cls-10{fill:#3a3937;}.cls-11{fill:#8a8377;}.cls-12{fill:#269558;}.cls-13{fill:#535251;}.cls-14{fill:#656463;}.cls-15{fill:#fdfdfd;}.cls-16{fill:#f5c720;}</style></defs><title>Recurso 1</title><g id="Capa_2" data-name="Capa 2"><g id="Layer_1" data-name="Layer 1"><path class="cls-1" d="M227.41.6a4.09,4.09,0,0,1-.07-.6H268.6c0,.23-.06.46-.1.7Z"/><path class="cls-2" d="M114.61,211.75a24.09,24.09,0,0,0,.31,7.09c.08,2.18.07,4.37.25,6.55,1,11.83,2.51,23.57,6.58,34.82.15,2.54.72,4.9,2.8,6.61-1.08,1.34.22,2.31.63,3.33,9.92,24.75,28,41.18,52.32,51.24,8.6,3.57,17.38,6.71,26,10.16,5.57,2.21,10.85,4.93,14.32,10.5,8.27-10.66,21-12.62,32.34-17.26,9.49-3.88,18.89-7.84,27.45-13.52A87.7,87.7,0,0,0,310,272.42c1.91-.26,3.83-.48,5.72-.81.94-.16,1.42-1.4.72-1.58-3.48-.88-2-4.39-3.58-6.21,3.8-7.65,5.07-16,6.35-24.28,4.16-26.92,2.89-53.83-1.3-80.58-2.48-15.82-3-31.18,3.83-46.11A64.56,64.56,0,0,1,335,93.37c1.86-1.82,2.91-2.22,5.21-.14,10.81,9.83,16.12,22,17.94,36.4,3.92,31.05,7,62.12,5.21,93.46-1.74,29.63-7.14,58.37-21.72,84.75-14.46,26.16-36.37,43.8-63.34,55.75-12.45,5.51-25.38,9.78-38,14.84-6.15,2.46-12.15,5.24-17.21,9.64a20.74,20.74,0,0,0-4.84,6.5c-8.37-12.91-22.43-16-35.3-20.92-14.88-5.73-29.81-11.28-43.47-19.69-28.61-17.61-46.11-43.42-55.36-75.24-8.43-29-10.14-58.64-8.93-88.6a544.29,544.29,0,0,1,6.6-64.58A75.87,75.87,0,0,1,95,92.66c1.65-2.31,2.69-2.48,4.68-.53,16,15.7,22.49,34.75,19.77,56.88-1.62,13.12-4,26.15-4.2,39.41a35.44,35.44,0,0,0-.59,8.54l0,1.56A77.93,77.93,0,0,0,114.61,211.75Zm58.21,133.91c-2.7.79-3.59,3.13-5.3,5.74,2.91-.83,3.44-4.13,7.13-2.82,3.48,1.23,2.19,4.36,4.24,6.43a76.39,76.39,0,0,0-.32-13.57c-.19-1.89-1.22-2.37-2.43-.82s-3.42,2.65-3.39,5.11Zm-15.66-10.94a7.45,7.45,0,0,0-7-7.4,7.73,7.73,0,0,0-7.78,7.5,7.42,7.42,0,0,0,7.37,7.38A7.72,7.72,0,0,0,157.16,334.72Zm48.51,26.64c-4.31-5.1-3.23-9.53,1.61-13.67-3.42.05-3.67,3.54-6,4-1.77-1.46-1.4-4.47-4.36-5.38.11,3.11,3.19,5,2.57,7.71-.56,2.42-3.84,3.45-4.4,6.45,2.48-.3,3.2-2.16,4.3-3.48,1.26-1.52,1.88-1.23,2.66.39S203.05,360.85,205.67,361.36Zm27.6.43.89-.61c-2-4.1-4-8.21-6.06-12.28-.58-1.14-1.91-1.47-2.35-.21-1.55,4.47-3.27,8.94-3.84,14.2,2.76-1.28,1.74-4.83,5.46-5.27C231.35,357.15,231.23,360.64,233.27,361.79Zm46.11-12.35c1.77-2.81,0-5.45,3.08-7.39,3.41-2.18,4.67,1.94,7.94,1-4-3.3-7.46-6.28-11.06-9.12-1-.78-2.25-.36-2.18,1A83.42,83.42,0,0,0,279.38,349.44Zm-19.26-4.67c-2.88-3.15-6.48-3.37-9.4-.95a7.66,7.66,0,0,0-.9,10.48c2.44,3.06,5.87,3.4,9.19.93-6.93-.54-9.17-2-9-6a5.53,5.53,0,0,1,1.61-3.83C254.05,343,257,344.48,260.12,344.77Z"/><path class="cls-1" d="M268.6,124.41a70.23,70.23,0,0,1,12.1,18.85c.87,2,1.41,3.49,4.43,2.58,3.35-1,5.72,2.34,4.08,5.57-.79,1.55-1.11,2.19.55,3.3,2.55,1.7,3.06,4.16,1.12,6.68-.75,1-.93,1.34,0,2.47,2.12,2.69,1.42,5.2-2,6.18a4.46,4.46,0,0,0-3.67,4.13,82.39,82.39,0,0,1-7.5,24.77c-.61,1.19-.78,2.14.63,2.91a3.71,3.71,0,0,1,1.84,2.38c1,3.55-4.73,2.3-4.12,6.28s-3,3.69-5.79,3.49l-.4-.29.26.43a19.81,19.81,0,0,1-.91,3.36c-1.15,2.46-4.15,3.43-5.63,1.55-1.68-2.13-2.77-1.35-4.41-.24a72.61,72.61,0,0,1-24.75,10.84c-2.24.5-3.32,1.33-3.3,3.83,0,1.85-.27,4.06-2.63,4.71-2.16.6-3.29-1-4.44-2.44-3.23,4.19-3.68,4.33-8.22,1.38-1.3-.84-2.11-.15-3.2.14-3.22.87-5.55-.84-5.2-4.15.21-2-.43-2.43-2.13-2.7-9.77-1.6-18.73-5-26.08-11.93-1.21-1.14-2-.8-2.78.37-1,1.5-2.41,2.48-4.27,2s-2.61-2.06-2.55-3.89-.76-2.3-2.37-2a5.06,5.06,0,0,1-.78,0c-1.26,0-3.1-1-2.7-1.53,3.42-5-9.5-5.66-2.81-11.16,1.22-1,.89-1.92.21-3-5.12-8.24-7.3-17.33-7.62-26.93-.05-1.54-.55-2.17-2.16-2.55-3.59-.86-4.24-2.49-2.23-5.54,1-1.56,1.72-2.69-.19-4a2.72,2.72,0,0,1-.81-1.29c-1.31-3.39,4.69-3.76,3-7.82-1.25-2.92.68-4.25,6-4.46,1.66-.07,1.85-1.23,2.35-2.16a112,112,0,0,1,14.27-20.73c1.19-1,2.32-2.05,3.58-3,6.12-4.37,8.24-13.85,4.45-20.75-.37,2.06-.69,4-1,5.85a13.78,13.78,0,0,1-4.2,7.7c-2.34,2.19-6.8,3-8.89,1-2.32-2.1-4-4.53-2.71-8.21,3.11-9.06,15.75-12.55,23.08-6.23,2.93,2.53,5,5.46,4.18,9.43a18.81,18.81,0,0,1-5.59,10.45A93.41,93.41,0,0,0,168.62,141c-7.42,12.12-10.84,25.15-7.85,39.31,5,23.84,25.87,40.16,47,44.46,17.76,3.62,34.21-.64,48.66-11.66,14.89-11.38,23.05-26.44,22.89-45.34-.1-12.08-4.7-22.86-11.13-33-4.43-7-10.89-12.08-16.07-18.34-2.37-2.85-4.07-6.28-2.76-9.67,3.57-9.28,11-15.17,21.48-7.61a23.46,23.46,0,0,1,4.59,4.69c1.47,1.9,2.27,4.09.81,6.46s-2.86,4.93-6.31,5.06c-4.85.17-8.3-3.63-8.51-9.46,0-1.18.85-3-.77-3.39-1.38-.33-2.42,1.11-3.24,2.37-3.55,5.41.68,13.92,7.95,15.91h.05l.78.76,0,0,.76.73,0,0c0,.59.16,1.14.83,1.35l.14.17Z"/><path class="cls-3" d="M173.58,75.61c-14.69,5.77-28.69,4.18-42.09-3.94-.26-3.41-3-5.92-3.38-9.29l-1.28-2.76c1.1-.89,2-.11,3,.14,6.09,1.63,8.63-.52,7.33-6.89-.92-4.5-2.67-8.84-4.14-13.22-.76-2.24-2.79-3.22-5.35-4.33,11.58-6.66,23.14-6.38,35-3,1.61.71,2.71,2.66,4.88,2l1.06,0A5.58,5.58,0,0,0,170.2,38a11.72,11.72,0,0,1,3.55,5.86c.44,2.31.92,4.18,3.44,5.28,1.75.77,3.28,3,3.08,4.61-.46,3.52,3.15,5.3,2.89,8.5C180.18,66.86,175.92,70.55,173.58,75.61Z"/><path class="cls-3" d="M272.44,33.15c12.36-4.76,24.42-4.42,37,2.08-5.32,2-6.79,5.9-7.39,10.22a12.32,12.32,0,0,1-1.4,4c-1.7,3.28-.92,6.55,0,9.81.51,1.9,2.06,1.73,3.48,1.38,1.87-.46,3.7-1.06,6.24-1.8l-1.63,3.42a1.09,1.09,0,0,0-.47,1.48l0,.08c-.74,2.31-1.49,4.63-2.24,6.94-13.12,8.62-27.08,10.74-42,5.39-2.25-5.43-6.11-9.66-10.14-13.78.43-2.27.5-4.7,2.8-6.14a1,1,0,0,0,.54-1.25c-1.06-3.37,1.41-4.89,3.53-6.52.67-.52,2.11-.6,2-1.51-.45-4.35,3-6.89,4.51-10.31,1,0,2-.07,2.21-1.4Z"/><path class="cls-4" d="M169,120.77c-7-3.13-10.18-7.58-9.58-13.4.74-7.08,6.62-13.06,14.55-14.79,9.77-2.13,18.52,2.38,22.58,11.53,2.79,6.27,1.06,11.7-3.15,16.5-2.73,3.11-5.89,5.83-8.79,8.79a76.09,76.09,0,0,0-12.85,17.49c-8.3,15.64-8.15,31.25,1.46,46.12,11.42,17.65,27.58,27.77,49.11,26.27,16.08-1.13,29.89-8.09,40.73-20.28,11.1-12.49,15.17-35.52,4.25-54.64-5.43-9.53-11.61-18.45-19.69-25.88-4.55-4.18-5.35-9-3.5-14.45C248,92.43,263,87.67,273,94.72a22.48,22.48,0,0,1,7.26,7.82c4.46,8.37-.57,17.06-10,17.32-1,0-2.08,0-3.11,0-7.66-3.1-10.55-7.87-8.24-13.65,1,1.11.93,2.63,1.44,3.91,1.6,4,4.28,7,8.77,7.24,4.25.21,6.8-2.72,8.74-6.14,2.08-3.68.4-6.78-1.75-9.67a19.82,19.82,0,0,0-8.3-6.24c-5.74-2.47-10.95-1.42-15.25,3-6.78,7.06-6.94,13.63-.4,20.89,3.9,4.33,8.42,8.06,11.93,12.77,23,30.82,15.71,63.93-13.47,83-20.43,13.34-46,12.09-66.07-2.52-21.69-15.82-28.61-40.26-17.94-63.86,4.79-10.59,12.32-19.08,20.91-26.77,9.33-8.34,8.42-20.2-1.73-25-3.08-1.48-6.36-1.11-9.57-1-6.85.32-11.31,4.1-13,10.74-1.78,6.84,3.92,12.34,10.81,10.71,3.52-.83,4.88-3.93,7.46-6.36C180,118.22,176.88,120.57,169,120.77Z"/><path class="cls-5" d="M253.82,62.35c4,4.12,7.89,8.35,10.14,13.78-3.88,4.24-7,9.11-11.58,12.79-10.5,8.44-22.55,11.48-35.74,11.08-18.17-.54-32.45-8-42.24-23.57a4.89,4.89,0,0,0-.82-.82c2.34-5.06,6.6-8.75,9.58-13.36.38-.06.88,0,1.12-.19,9.1-8,20.11-11,31.82-12.25l1.83,0c2.95.29,5.9.59,8.85.86,1.29.13,2,.66,1.37,2-1.05,2.21-1.86,4.65-3.38,6.49-1.09,1.31-3.13-.25-4.76-.06-.77.1-1.55,0-2.33,0a16.31,16.31,0,0,0-15.38,14.7,16.14,16.14,0,0,0,11.95,16.83c11.9,3.19,22.45-5.92,20.72-18.09-.32-2.28.49-3.12,2.28-3.61,2.51-.68,2,1.62,2.2,2.67,1.27,5.77-.48,11-3.51,15.81-1.73,1.66-3.47,3.31-6,5.72,3.56-.78,6-1.22,8.14-2.86,6.73-2.54,11.62-7.31,15.78-13,1.07-1.46.93-2.63,0-4.2-1.77-2.92-4.69-4.68-6.8-7.32C248.77,63.52,251.69,63.7,253.82,62.35ZM205.32,58A36.39,36.39,0,0,0,184,72.61c-1.43,2-1.28,3.27,0,5.13a36.36,36.36,0,0,0,17.32,13.59c1.1.41,2.42,2.47,3.6.59.77-1.22-.95-2.09-1.73-3-4.47-4.9-6-10.56-5.14-17.14C198.78,66.68,202,63,205.32,58Z"/><path class="cls-6" d="M248.42,179.69c1.07,1.53,2.13,3.08,3.23,4.6.79,1.1,2.12,2,.78,3.63s-2.77,1.38-4.4.45a14.78,14.78,0,0,0-10.5-1.33c-1.72.65-3.57,1.09-4.52,2.93a16.77,16.77,0,0,0-4.49,8.42c-.59,2.88-2.51,2.71-4.41,3.29-2.35.72-2.65-1.35-3.28-2.45-1.69-2.91-3.44-5.68-6.25-7.64-1.44-2-3.63-2.59-5.91-3-5.16-1-9.64,1-14,3.21-1,.52-1.72,1.51-3,.21s-.49-1.94.07-3c1.61-3.18,3.69-6.21,3.71-10,1.67-4.81.53-9.25-3.15-12.28-1.22-1.69-3-2.71-4.64-3.89-1-.74-2-1.54-1.68-3.1s1.53-1.55,2.56-1.91c3.06-1,6.45-1.44,8.48-4.44,4.47-3.6,3.77-8.42,3.13-13.23a24.47,24.47,0,0,0-.05-2.71c-.15-1.23-.15-2.27,1.19-2.93s2.35-.22,3.49.67c3.54,2.73,7.22,5.25,11.64,6.42,1.24,3.06,1.42,5-2.59,6.79-11,4.79-15.61,16.67-9.47,27.64,6.74,12.05,19.95,13.81,30.68,4.22,6.77-5.89,8.17-12.34,4.45-20.51-.32-2.44-.67-4.86-3.59-5.64l0,0c-.65-2.94-3.14-4.1-5.44-5.21-2.52-1.22-3.81-2.82-3.18-5.67,4.28-1,8.48-2.19,12.06-4.85,1.91-1.43,3.25-1,4.31,1-3.68,7.73-.55,15.61,7,17.73,2.43.17,4.87.41,7.3.47,1.64,0,2.7.38,2.78,2.32s-1.06,1.88-2.41,2.16c-4.3.89-8.58,1.93-10,7C246.46,172.59,246,176.15,248.42,179.69Z"/><path class="cls-7" d="M183,242.23h1.55c.51.66,1,.68,1.56,0l4.58.19.06,1.82c-2.89.31-1,1.66-.43,2.43,3.82,5.22,7.72,10.4,11.59,15.58L211.36,275c.72-3.44-1.59-4.7-2.51-6.59,2.34.23,2.34.23,2.41-1.23,0-4.28,0-8.56-.07-12.83-.1-6.75-1.42-8.48-7.9-10.57-.31-.11-.55-.44-1.5-1.2h19c.29.73-.11,1.05-.62,1.22-4.64,1.51-6.38,5-6.39,9.55,0,11.15-.11,22.3,0,33.45,0,2.8-.65,3.57-3.61,3.83-6.15.54-10.14-1.3-13.63-6.76-6.33-9.93-13.63-19.23-20.53-28.79-.58-.8-1.21-1.56-2.27-2.9,0,10.09-.21,19.48.09,28.85.16,4.73,3.67,7.11,8.48,8.18-1.84,1.92-3.7,1.22-5.31,1.27-3.5.1-7,0-10.5,0-.7,0-1.68.34-2-.65s.58-1.26,1.29-1.55c3.72-1.51,4.67-4.83,4.74-8.24.2-10.24.24-20.49.06-30.72,0-2.71-1-5.47-4.78-5.32-.86,0-2.12.11-1.89-1.23.19-1.18,1.42-.87,2.28-.85,3.5.09,7,.22,10.49.33A6.72,6.72,0,0,0,183,242.23Z"/><path class="cls-7" d="M124.55,266.82c-2.08-1.71-2.65-4.07-2.8-6.61.08-9.45.22-18.91.2-28.37,0-2.55.6-5.18-.48-7.67l.07-1.9h17c0,.52,0,1,0,1.56a.42.42,0,0,1-.25.35,9.69,9.69,0,0,0-.51,2.21q0,18.68.08,37.36c0,.91-.09,1.84.75,2.49a12.94,12.94,0,0,0,1.56,2.41c.94,1,1.47.55,1.41-.72a1.6,1.6,0,0,1,1.58-.86l0,.1.5.65c7.56,3.88,15.81-.86,16-9.36.18-7.51,0-15,.07-22.54,0-8.82-.58-9.7-8.35-12.34,1.91-1.4,11-1.81,17.37-.79a.81.81,0,0,1-.51,1.21c-4.91,1.68-6.07,5.66-6.14,10.19-.1,6.86-.36,13.75,0,20.59.75,13.83-8.4,18.08-20,17.44A35,35,0,0,1,124.55,266.82Z"/><path class="cls-8" d="M169,120.77c7.91-.2,11-2.55,12.41-9.89-2.58,2.43-3.94,5.53-7.46,6.36-6.89,1.63-12.59-3.87-10.81-10.71,1.74-6.64,6.2-10.42,13-10.74,3.21-.15,6.49-.52,9.57,1,10.15,4.85,11.06,16.71,1.73,25-8.59,7.69-16.12,16.18-20.91,26.77-10.67,23.6-3.75,48,17.94,63.86,20,14.61,45.64,15.86,66.07,2.52,29.18-19,36.42-52.15,13.47-83-3.51-4.71-8-8.44-11.93-12.77-6.54-7.26-6.38-13.83.4-20.89,4.3-4.47,9.51-5.52,15.25-3a19.82,19.82,0,0,1,8.3,6.24c2.15,2.89,3.83,6,1.75,9.67-1.94,3.42-4.49,6.35-8.74,6.14-4.49-.22-7.17-3.24-8.77-7.24-.51-1.28-.4-2.8-1.44-3.91-2.31,5.78.58,10.55,8.24,13.65l-1.73.93c-7.27-2-11.5-10.5-7.95-15.91.82-1.26,1.86-2.7,3.24-2.37,1.62.37.73,2.21.77,3.39.21,5.83,3.66,9.63,8.51,9.46,3.45-.13,4.81-2.63,6.31-5.06s.66-4.56-.81-6.46a23.46,23.46,0,0,0-4.59-4.69c-10.45-7.56-17.91-1.67-21.48,7.61-1.31,3.39.39,6.82,2.76,9.67,5.18,6.26,11.64,11.35,16.07,18.34,6.43,10.15,11,20.93,11.13,33,.16,18.9-8,34-22.89,45.34-14.45,11-30.9,15.28-48.66,11.66-21.13-4.3-42-20.62-47-44.46-3-14.16.43-27.19,7.85-39.31a93.41,93.41,0,0,1,17.92-20.84,18.81,18.81,0,0,0,5.59-10.45c.84-4-1.25-6.9-4.18-9.43-7.33-6.32-20-2.83-23.08,6.23-1.26,3.68.39,6.11,2.71,8.21,2.09,1.9,6.55,1.14,8.89-1a13.78,13.78,0,0,0,4.2-7.7c.35-1.89.67-3.79,1-5.85,3.79,6.9,1.67,16.38-4.45,20.75-1.26.9-2.39,2-3.58,3,.08-1.17.68-2.59-1.54-2.36C171.07,121.54,169.86,121.8,169,120.77Z"/><path class="cls-7" d="M312.84,263.82c1.57,1.82.1,5.33,3.58,6.21.7.18.22,1.42-.72,1.58-1.89.33-3.81.55-5.72.81-5.32-1.39-10.73-.15-16.09-.5-1.85-.12-3.78.36-5.9-.48,1.28-2.17,3.33-.76,5.05-2l-12.73-35.31c-.06-1-.69-1.26-1.53-1.33q1.58-4.26,3.14-8.54l15.57-.14h0l-.21,1.5c-3.13.22-1,2-.74,2.93,3.39,10.07,6.89,20.09,10.37,30.12,1.41,4.08,2.84,8.15,4.51,12.92,1.68-3.59-.81-5.8-.89-8.33.16-.63.15-1.36.89-1.68C311.91,262.31,312.37,263.07,312.84,263.82Z"/><path class="cls-7" d="M252.41,292.19c-11.92,3.63-24.74-3.88-29.26-17.15-4.9-14.34,2.63-29.6,16.41-33.2A22.75,22.75,0,0,1,256.14,244c2.55,1.31,4.47,1.39,6.66-.41.82-.68,1.85-1.95,3-1.24s.49,2.13.5,3.24c.05,5.21,0,10.43,0,16.43-2.21-1.7-1.91-3.4-2.3-4.76-1.71-6-5.8-10-11.24-12.66a8.14,8.14,0,0,0-7.5-.11c-1,.54-2.33-1.86-3.14.35-1.47,1.08-1.77,2.69-2,4.35-.72,8.4-.23,16.83-.28,25.25,0,4-.61,8,.41,11.95a2.92,2.92,0,0,0,1.85,2.5l0,0c.32.69.63.63.93,0l1.56-.05c1.91,2.14,4.48,1.66,6.91,1.7C251.8,291,252.11,291.61,252.41,292.19Z"/><path class="cls-9" d="M217.93,49.77l-1.83,0q0-19.41,0-38.83c0-7.33-.52-7.88-8-8.46-.52,0-1,0-1.55,0-11.52,0-23,0-34.56-.09-2.5,0-3.28.58-3.26,3.18.09,9.57-.09,19.14-.17,28.7l-1.07,0c0-9-.08-17.95-.16-26.92,0-1.6.49-3.46-1.62-4.29l.93-2.27c13.32,0,26.64,0,40-.18a11,11,0,0,1,4,.85c5.84,2.27,11.22-.84,16.82-.89L268.5.7c.64.78,1.29,1.56,1.93,2.35-2.23.7-1.76,2.58-1.76,4.18q0,12.17,0,24.33c0,1.25-.31,2.6.73,3.66-.19,1.33-1.2,1.37-2.21,1.4-.05-10.11-.21-20.23-.09-30.34,0-2.91-.52-4.12-3.75-3.93-4.91.3-9.86,0-14.78.1-9,.25-18.1-.66-27.12.79-3,.48-3.63,1.73-3.6,4.51C218,21.75,217.93,35.76,217.93,49.77Z"/><path class="cls-2" d="M229.65,410.07a11.64,11.64,0,1,1-11.71-11.55A11.65,11.65,0,0,1,229.65,410.07Zm-11.56,5.51A5.32,5.32,0,1,0,218,405a5.32,5.32,0,1,0,.11,10.63Z"/><path class="cls-10" d="M26.09,426.5c-2.88.67-2.78,2.88-2.81,5.14-.06,4.4-.18,8.8-.41,13.19-.2,3.89-2.56,6-6.17,7-8.86,2.49-14.17-1.42-14.19-10.5,0-3.63,0-7.26,0-10.88,0-1.58.11-3.32-2.47-3.29,3.21-1.33,6.32-.85,9.73-.61-4.22.68-3.41,3.74-3.43,6.33,0,3.75-.09,7.51.09,11.26.19,4,2.46,5.68,7.2,5.69s7.21-1.77,7.4-5.59c.23-4.65,0-9.32.16-14C21.2,428,20,427.11,18,426.5Z"/><path class="cls-10" d="M323.21,430.5c-.62-2-2.63-1.94-4.06-2.74a1.4,1.4,0,0,0-1.51-.35c-7.53.25-11.28,3.13-12.07,9.26-.86,6.69,2.59,11.53,9.71,13.6.22.44.49.49.82.11l1.53,0c.3.37.57.33.82-.06l4.26-.82,1.1,1c-10,4.59-20.5.19-22.13-9.25-1.05-6.07,1.64-11.11,7.39-13.85l.77-.36,2.11-.54,1-.3a20.7,20.7,0,0,1,11.62,1.08c.06.64.13,1.28.19,1.93l-.15,1.3Z"/><path class="cls-10" d="M36.63,435.53c5.29-2.54,9.15-.4,9.35,5.24a50.94,50.94,0,0,1,0,7c-.27,2.54,1.45,3.46,3.16,3.44s3.73-.7,3.58-3.37-.05-5.18,0-7.77c.05-1.93-.32-3.44-3.43-3.06,2.2-2.17,4.48-1.51,6.71-3.06,0,3.65-.15,6.67.05,9.67.18,2.78-1.46,6.22,2.42,8.27-4.77,0-9.54,0-14.31,0-1.53,0-1.65-.78-1.59-2,.12-2.46.11-4.92.22-7.38.18-3.78-1.32-6-5.38-5.81Z"/><path class="cls-10" d="M145.34,436.38c1.49-1.38,3.32-1.7,5.27-2.06,1.27-.24,3.38,2.29,3.67-.5.23-2.2,1.63-5.18-1.63-6.74-.2-.1-.31-.4-.47-.62.12-.09.23-.23.37-.27,5.48-1.52,5.44-1.51,5.36,4s-.1,10.86-.1,16.29c0,2-.52,4.32,2.76,4.91-2.44-.27-5.08,2.36-6.58-1.44-.38-1-1.34.75-2.19.76l-.12-1.2c2.56-2.51,4-9.05,2.2-11.18-2.17-2.56-5-2.78-8-1.27Z"/><path class="cls-10" d="M125.44,51a47.16,47.16,0,0,0-17.91-.25c.31-3.34,2.47-5,4.94-6.06a40.69,40.69,0,0,1,8.14-2.48c2.75-.53,5,0,4.52,3.78A27.77,27.77,0,0,0,125.44,51Z"/><path class="cls-6" d="M246.69,202.57c-.2,1.26-.42,2.7-1.88,2.94-1.85.29-.9-2.22-2.57-2.67-1.18,1.07,1.06,3.79-1.52,4.23-1.81.31-1.49-1.85-2.89-2.69-.69.9-.45,3.63-2.56,2.4-1.57-.91-.16-2.21.28-3.34a12.07,12.07,0,0,0,.52-2.25c.49-2.77,1-5.42,4.86-5a1.11,1.11,0,0,0,1.25-1.48l-.08.05c2.27,1.52,4.56,3,6.79,4.56,1.33.93,3.29,2,2,3.88-1.5,2.21-2.68-.48-4-.84,0-.55.19-1.27-.68-1.32-.2,0-.58.44-.63.72C245.43,202.62,246,202.67,246.69,202.57Z"/><path class="cls-10" d="M311.2,50.56a28.78,28.78,0,0,0,.69-4.17c.1-3.9,1.06-4.93,4.71-4.15s7.63,1.52,10.63,4.24a5.84,5.84,0,0,1,2.15,4.38c-6.19-1.67-12.14-.32-18.1-.39Z"/><path class="cls-7" d="M273.22,252.61l-.54,2.43-.21,1.73c-2.22,5.48-3.59,10.55,7.22,15.27-4.12,0-8.25.09-12.36,0-2-.06-4.9,1.08-5.84-.66s2.26-2.14,3.31-3.54c3-4,3.86-8.94,6.16-13.23a1.42,1.42,0,0,0,.66-1.72.78.78,0,0,1,.14-.61l.73,0Z"/><path class="cls-6" d="M207.85,197.79c3.63,2,3.44,5.94,4.72,9.1.43,1.05.59,2.85-1.23,3.1-2.27.3-1.86-1.53-1.88-2.91,0-.38-.08-.75-.14-1.3-1.84.25-1.24,3.79-3.75,2.78-1.66-.67-.13-2.39-1-3.35-1.41-.46-3.49,6.32-4.37-.4a1,1,0,0,0-.7-.68c-.86-.1-2.12,1.24-2.5-.5-.32-1.45,1.25-1.84,2.08-2.47,2.58-2,4.82-5.13,8.85-3.31Z"/><path class="cls-11" d="M269.43,35.22c-1-1.06-.72-2.41-.73-3.66q0-12.16,0-24.33c0-1.6-.47-3.48,1.76-4.18,2.48.26,1.69,2.19,1.71,3.56.14,8.85.21,17.69.3,26.54Z"/><path class="cls-11" d="M165.7,3.09c2.11.83,1.61,2.69,1.62,4.29.08,9,.11,18,.16,26.92-2.16.64-3.26-1.31-4.87-2,1.78-.81,1.17-2.44,1.18-3.75.06-7.24,0-14.48,0-21.71C163.79,5.19,163.76,3.66,165.7,3.09Z"/><path class="cls-6" d="M190.71,147.85a25.44,25.44,0,0,1-9.42,1.59c-1.41,0-3.18.14-2.93-2,.26-2.33,1.93-1.42,3.28-1.14a4,4,0,0,0,1.17-.14c-.36-1.42-2.48-3.31-1.68-3.48,3-.6,2.75-1.94,2.56-4.37-.09-1.09,2.18.47,3.64.15,1-.83-1.44-3.07.77-3.28,1.76-.17,1.64,2,2.27,3.11,1.73,3.14,2.58,6.38.28,9.66Z"/><path class="cls-10" d="M38,67.88c-2.69,1.22-4.6,2.13-4.58,4.92-1.78-1-2.5-2.67-3.45-4.2,3.89-.41,13-7.17,13.82-10.41a9.83,9.83,0,0,1,3.44,4.43c-3-.18-3.14-.09-6.7,3.55,2.84-.65,5.43,1.49,7.6-1.25.57-.73,1.16.14,1.5.6.5.68,1.49,1.36.74,2.31-.22.29-1.14.07-1.73,0-8.79-.42-8.8-.42-10,8.34a15.46,15.46,0,0,1-.39,3.1c-.81-1.73-5.1-2-1.61-5.59C37.62,72.64,37.42,70.34,38,67.88Z"/><path class="cls-6" d="M249.93,145.62a15.07,15.07,0,0,0,1.49-7.3c0-1.23-.2-2.7,1.58-3.11a1.74,1.74,0,0,1,1.78.47c1,1.21,0,2.14-.5,3.15a5.36,5.36,0,0,0-.27,1c1.45.68,1.76-1,2.68-1.1s2.64-.84,2,1.41c-.13.5-.35,1.32.16,1.31,4.88-.15,2.2,2.33,2.09,4.61-.14,3.07,1.57-.63,2.38.17-1.37,2.45-4.84,3.63-9.58,3.26C253.34,147.34,251.65,146.46,249.93,145.62Z"/><path class="cls-10" d="M397.83,450c0-1.8,1.87-2.64,2.19-4.44,1-5.37.21-7.1-5.24-10.39,1.71-.54,4.55,1.12,5.07-1.13.59-2.5,1.5-5.84-2.07-7.43.16-.3.2-.48.28-.5,5.4-1.38,5.36-1.38,5.29,4.15s-.05,10.89-.06,16.34c0,2-.48,4.31,2.89,4.68-2.53,0-5.31,2.3-6.61-1.52A8.11,8.11,0,0,0,397.83,450Z"/><path class="cls-10" d="M226.43,448.12a19.39,19.39,0,0,0,.73-2.19c1.28-6.13.41-7.93-5-10.44,1.47-1.32,4.83,1.32,5.06-2,.16-2.35,1.86-5.78-2.51-6.62.26-.4.35-.76.52-.79,5.55-1.11,5.51-1.1,5.43,4.54-.08,5.43,0,10.85-.12,16.27-.05,2.11.25,3.8,2.77,4.37-2.86.79-5.55,1.5-6.79-2.19C226.5,448.76,226.47,448.44,226.43,448.12Z"/><path class="cls-1" d="M218.77,129.35a7.39,7.39,0,0,1-3.31-3.21c-.49-2.08-1-4.16-.05-6.25,2.63-4.61,6.5-6,10.45-3.66,4.27,2.49,5.09,6.75,2.22,11.51C225.32,130.28,221.92,129.1,218.77,129.35Zm7.86-4.76c-.07-3.2-1.92-5.2-4-5.26-2.33,0-5.3,2.4-5.08,4.35a4.54,4.54,0,0,0,5.19,4.4C225.13,127.93,226.62,126.34,226.63,124.59Z"/><path class="cls-10" d="M194.56,448.25a30.24,30.24,0,0,0,.87-4.12c.45-6.16.33-6.29-5.21-8.48,1.27-1.77,5.45,1.47,5.09-2.88-.17-2.13,1.22-4.71-1.67-6,.32-.43.43-.74.6-.78,4.88-1.11,4.79-1.11,4.64,3.84-.17,5.43,0,10.87-.27,16.3a5.08,5.08,0,0,0,3,5.39l-.65.62a10.46,10.46,0,0,0-4.85-.09l-.7-.5c-.06-.51-.11-1-.16-1.52.2-.6-.14-.81-.65-.89Z"/><path class="cls-6" d="M256.11,173.63c.24-1,.11-2.32,1.55-2.66l7,.16c.67,1.08,5.13,1.58.52,3.48a.68.68,0,0,0-.11,1.24c4.91,2.76.75,2.91-1.24,3.8.48,1.12,2.61,2,1.22,3.37s-2.24-.55-3.2-1.17c-2.22-1.43-4.32-3-6.47-4.58C255.39,176,256.6,175,256.11,173.63Z"/><path class="cls-10" d="M57.5,224.72c1.93.46,3.68.42,4.89-1.89,1.19,3.36.35,4.54-2.76,4.38-3.49-.18-7,0-10.5,0-1.38,0-2.8-.21-3.81,2.62-.2-4-.72-6.59-.39-9.1.53-3.94,3.91-4.09,6.91-4s5.86.72,6,4.6A23.74,23.74,0,0,1,57.5,224.72Zm-5.82.25c1.92-.41,4.79.1,4.65-3.12-.13-3.07-2.9-2.82-5-2.81s-5-.1-5,2.84C46.27,225.16,49.33,224.64,51.68,225Z"/><path class="cls-10" d="M262.49,427.2c1.23-2.2,3.4-1.47,5-1.91,2-.53,1.17,1.52,1.18,2.42q.06,9.5-.09,19c0,2.1,0,4,2.78,4.66a20,20,0,0,1-9.14-.17c3-.67,3.18-2.24,3.17-4,0-5.56-.12-11.13,0-16.68C265.51,428.3,264.76,427.21,262.49,427.2Z"/><path class="cls-10" d="M122.76,358.5c4.8,1.26,0,4.1.17,6.27,5.52,2.16,5.89,3.38,3.21,8.88-.82,1.68-3.14,3.1-.91,5.72-2.36-.1-3.59-1.22-5.39-2.23,3.6-1.35,4.14-4.6,5.46-7.3a2,2,0,0,0-.8-2.7,2.13,2.13,0,0,0-3.09.59,51.59,51.59,0,0,0-3.16,5.31c-1.4,2.67-1.35,2.7-4.26.82C118.31,369.64,120.45,364.31,122.76,358.5Z"/><path class="cls-10" d="M335.66,441.47c.94-.22,2.26.06,2.31-1.45a3.09,3.09,0,0,0-1.93-3.09,4.81,4.81,0,0,0-4.8.29c-.68.45-1,1.47-1.46,2.24a1.43,1.43,0,0,1-.72-2.46,8.7,8.7,0,0,1,8.16-2.45c2.75.63,4.08,2.46,4.12,5.31,0,2.32.21,4.64.31,7,.09,1.81-.49,3.9,2.43,4.57-2.61.41-5.07,1.66-6.34-1.56a6.34,6.34,0,0,0-1.4.22C338.91,445.13,340,444,335.66,441.47Z"/><path class="cls-10" d="M64.94,175.41c0,3.72,0,3.72-5.41,3.68.26,2.32,1,4.92-1.55,6.42-2.75,1.65-5.74,1.29-8.59.21-2.57-1-3.11-3-2.79-5.64.48-4,2.52-4.89,6.16-4.14,2.51.52,5.13.46,7.69.76C62.06,176.89,63.58,176.93,64.94,175.41Zm-11.28,9c2.12-.23,4.75.12,4.64-2.89-.12-3.24-3-3.06-5.26-3.21s-5-.44-4.92,2.74C48.2,184.52,51.58,183.67,53.66,184.37Z"/><path class="cls-10" d="M246,450.39l3.88-1.13-.06,1.32c-5.53,2.78-10.33,2.14-12.87-1.72a9.73,9.73,0,0,1,1.86-12.21l1.07,1.08c-1.9,4,.66,4.31,3.58,4.32l1.65,0,2.8-.64.39,1.43c-1.92.11-3.83.25-5.74.32-3.52.11-4,1-2.42,4.1,1.09,2.08,3,2.68,5,3.1Q245.64,450.95,246,450.39Z"/><path class="cls-10" d="M36.63,435.53l.75,1.22c-4.44,2.74-5,12.3-.78,14.71a19.81,19.81,0,0,1-8.5,0c4.7-3,1.74-7.7,2.48-11.57.38-2-.36-3.32-2.76-3.61,2.26.38,4.43-4.51,6.61.36C34.71,437.24,35.72,435.62,36.63,435.53Z"/><path class="cls-11" d="M143.16,267.07a1.6,1.6,0,0,0-1.58.86c-1.22-1.46-.76-3.22-.77-4.85,0-11.92,0-23.83,0-35.75,0-1.62.47-3.58-2.24-3.5,0-.52,0-1,0-1.56a17.62,17.62,0,0,1,9.16.69c-6.72.11-5,4.7-5,8.22q-.06,15.47,0,30.94A48.87,48.87,0,0,0,143.16,267.07Z"/><path class="cls-10" d="M50.54,152.87c.29-3.36.4-5.86.76-8.32s2-3.26,4.2-3.07S59,143.2,59,145.37a17.64,17.64,0,0,1-.71,3.85c1.5.41,3.14.95,4.08-.78.78-1.43-.08-2.4-1.52-3a1,1,0,0,1-.48-1.59c.58-.84,1.35-.49,2.06-.11,1.84,1,1.82,2.67,1.6,4.4-.25,2-1.07,3.59-3.3,3.65a47.16,47.16,0,0,1-5-.48C54,151.21,52.24,150.41,50.54,152.87ZM55.11,149a2.58,2.58,0,0,0,2.38-3A2.25,2.25,0,0,0,55,143.66c-1.76,0-2.35,1.4-2.34,2.94A2.31,2.31,0,0,0,55.11,149Z"/><path class="cls-10" d="M353.49,436.08c2-2.17,4.32-2,6.75-1.08s3.2,3.19,3.23,5.66c0,2.32,0,4.65,0,7-.05,1.74.11,3.27,2.74,3.4-1.45,1.24-2.65.61-3.71.8-2.07.37-2.76-.46-2.54-2.56.25-2.3.18-4.64.24-7,.09-3.55-1.32-5.72-5.2-5.58Z"/><path class="cls-10" d="M353.49,436.08l1.49.65c-2.73,1-3.67,3-3.54,5.73.07,1.55,0,3.1,0,4.65.14,5,.15,5-5.13,4.59,3-4.62,2.46-13.84-.9-15.49,2.1.22,4.23-4.36,6.37.34A10.24,10.24,0,0,0,353.49,436.08Z"/><path class="cls-10" d="M56.14,263.89c.11-3.09,2-2.16,3.31-1.2,1.61,1.15,1.64,3.1,1.48,4.95s-1.28,2.45-2.78,2.78-3,.68-4.55.92-3.17.55-4.18,2.84c-.84-3.09-.86-5.59-1.76-7.93-.64-1.66.38-3.27,2.16-4,2.29-1,4-.07,5.4,1.72a16.5,16.5,0,0,1,.23,2.7c-.21,2.5,1.21,2.09,2.64,1.52,1-.4,1.81-1.1,1.48-2.37C59.11,264,57.54,264.07,56.14,263.89ZM52,264c-1.53.08-2.55.82-2.62,2.28s.49,2.85,2.21,3a2.28,2.28,0,0,0,2.75-2.41A2.63,2.63,0,0,0,52,264Z"/><path class="cls-10" d="M45.51,240.92c.61-1-.26-1.77-.37-2.63-.31-2.62-.21-5.06,3.14-5.57,2.8-.43,4.45,1.37,4.66,4.79,0,.75-.92,1.89.52,2.21a3.1,3.1,0,0,0,2.59-.45,2,2,0,0,0,.66-2.08,1.77,1.77,0,0,0-1.61-1.44c-1-.22-1.81-.82-1.15-1.84s1.69-.5,2.45,0c1.78,1.09,2,2.94,1.85,4.77-.19,2-1.53,3-3.55,3.48-2.74.64-5.78-.88-8.39,1.61C45.71,244.3,45.4,242,45.51,240.92Zm5.94-3.37c-.07-1.65-.78-2.71-2.59-2.61-1.59.09-2.22,1.07-2.2,2.59,0,1.71.89,2.76,2.58,2.67A2.28,2.28,0,0,0,51.45,237.55Z"/><path class="cls-6" d="M187.62,176.75c-.2,1.37-1.25,1.93-2.33,2.47l-8.53-.1c-.4-1.35.75-1.83,1.46-2.56,1.66.16,3-.67,4.85-1.21-1.76-1.08-3-.16-4.16-.24-1.4-.09-3.42.35-2.93-2.27,1.15-.43,3.17-.43,1.21-2.4-.54-.54-1.41-1-.78-1.86.52-.67,1.45-.48,2.18-.21,2.53.94,5,1.93,7.54,2.9C186.42,173.15,185.46,175.37,187.62,176.75Z"/><path class="cls-10" d="M94.6,442.88c-2.43.11-4.87.3-7.31.31-2.05,0-2.37.91-1.85,2.68.93,3.21,3.37,4.73,8.36,5a7.79,7.79,0,0,1-10.58-1.49c-2.87-3.62-2.2-9.57,1.44-12.77l1.08,1.07c-1.57,3.48-.17,4.6,3.29,4.26a39.26,39.26,0,0,1,4.2,0Z"/><path class="cls-10" d="M416.64,441.48c.91-.22,2.27.16,2.43-1.19.21-1.84-.94-3-2.53-3.73a.85.85,0,0,0-1.17-.3l-1.56.18-1.11-1.06c6.27-2.42,9.49-.44,9.81,6.06.09,1.8.1,3.6.13,5.4s-.27,3.78,2.56,4.38c-3.32,1.59-5.31.31-7.11-1.61a.55.55,0,0,0-.14-.53v.07a1,1,0,0,0,.82-1C420.15,445.29,419.93,442.9,416.64,441.48Z"/><path class="cls-10" d="M85.67,340.94c1.06-.05.69,2.75,2.44,1.26.77-.67,1.65-1.44,1.42-2.61A2.1,2.1,0,0,0,87,337.8c-1,.07-2,.54-2.88-.35,2.5-2.31,3.52-2.38,5.62-.4s2.63,3.89.46,6.34c-1.93,2.19-5.4,3.17-5.29,7.53-2.13-2.25-3.56-4.14-5.36-5.7s-1.75-4,.39-5.7c2.38-1.85,4.3-1,5.71,1.43-.72,1.05-1.29,0-1.88-.16-1.92-.56-3.09.27-3.24,2.08a2.53,2.53,0,0,0,2.48,2.84c2,.15,2.75-.94,2.56-2.86C85.55,342.22,84.53,341.53,85.67,340.94Z"/><path class="cls-10" d="M119.09,435.91c-1.21.78-2.47,1.63-2,3.33.37,1.46,1.77,1.71,3,2.06.49.14,1,.2,1.5.34,2.57.7,5.7.9,5.61,4.62-.1,3.51-2.37,5.2-5.64,5.77l0-1.18c1.59-.69,3.21-1.49,3-3.54s-2.28-2.16-3.82-2.66c-1-.32-2-.5-3-.77-1.89-.52-3.3-1.58-3.38-3.69-.08-2.38.74-4.29,3.28-5Z"/><path class="cls-10" d="M70.9,450.12c.22,1,.14,1.85-1.09,2s-1.54-.77-1.89-1.59c-1.57-3.65-3.14-7.31-4.64-11-.67-1.67-1.23-3.37-3.05-4.5h8.69c-3.19,1.27-2.89,3-1.76,5,1.37,2.42,1.56,5.42,3.59,7.55a1.45,1.45,0,0,1,.83,1.46l-.17.1Z"/><path class="cls-11" d="M242.14,244.82c.81-2.21,2.14.19,3.14-.35a8.61,8.61,0,0,0-1.56,5.42c.08,11.06.06,22.13,0,33.19a20.89,20.89,0,0,0,.86,5.68l-1.56.05-.93,0,0,0Q242.13,266.85,242.14,244.82Z"/><path class="cls-10" d="M178.31,451.65a7.62,7.62,0,0,1-3.91-.08c.13-1.56-.46-2.51-2.12-2.62,1.76-1.9,1.74-4.06,1-6.42l-4.22.9-.13-1.18a5.39,5.39,0,0,0,1.06-.4c1.12-.78,3.45.42,3.53-2,.07-1.93-1.38-2.85-3-3.47-.18-.42-.44-.49-.79-.19l-2.36.42,0-1.38c6.05-2.24,9.31-.18,9.46,6.05.06,2.3,0,4.61-.06,6.92l0,.77,1.44,1.77Z"/><path class="cls-10" d="M60.82,103.53c-.61-1.1-1.38-2-2.75-1.33-1.1.55-1,1.67-1,2.72a15.28,15.28,0,0,1,.07,2.7,3.68,3.68,0,0,1-5.51,2.8c-3-1.69-2.49-5-2.49-7.47,0-1.12,2.84-2.58,4.87-.53.66.67.92-.4,1.35-.76,3.12-2.65,5.19-2.07,6.83,1.87ZM55,105.83c-.49-.88.63-2.92-1.36-2.8a2.9,2.9,0,0,0-2.76,3.13c.08,1.33.67,2.64,2.25,2.58S55,107.32,55,105.83Z"/><path class="cls-10" d="M226.43,448.12c0,.32.07.64.11,1-2.34,3-5.21,4.4-8.81,2.46s-4.48-5.22-4-8.94c.37-2.81,1.16-5.51,5.15-6.18-2.13,4.46-3.27,8.65.54,12.24C221.77,450.87,224.2,449.78,226.43,448.12Z"/><path class="cls-10" d="M105,435.22l.08,1.55c-1,2.1.72,1.39,1.61,1.53l-.75.78c-.93.58-.91,1.46-.76,2.38,0,1.68.12,3.36,0,5-.16,2.5.15,4.57,3.26,5.12H99c5.27-3.05,2.17-7.93,2.93-11.89.41-2.11-.93-3-3-3.08,1-1.7,2.53-1.25,3.82-1.5Z"/><path class="cls-10" d="M166.2,387.67c-.73,1.07.56,1.54.72,2.36a4.09,4.09,0,0,1-1.36,4.19c-1.69,1.4-7.41.42-8.25-1.78a3.28,3.28,0,0,1,2.19-4.51c1.29-.39.33-1.2.32-1.84-.1-4,2.07-5.33,6-3.8l-1,.87c-1.27-.06-3-.33-2.81,1.53.22,2.26,2,3.2,4.22,3.06Zm-6-.47c-.58,2.79-1.07,4.86,1.57,5.84,1.2.45,2.73.29,2.89-1C165,389.15,162,389.12,160.16,387.2Z"/><path class="cls-10" d="M137.88,451.8a27.36,27.36,0,0,1-7.1-.28c2.83-4.47,1.9-13.57-1.45-15.2,1.82-1.26,4-1.09,5.84-1.89C136.91,440,133.22,446.42,137.88,451.8Z"/><path class="cls-10" d="M193.35,450.29c-3.26,2.73-6.56,2.72-9.24,0-3-3.07-3.12-9.31-.16-12.5.9-1,1.77-2.36,3.76-1.47-2.93,3.32-3.45,7.06-1.38,10.9,1.34,2.49,3.66,3.13,6.36,2.29Z"/><path class="cls-11" d="M311.45,261.56c-.74.32-.73,1.05-.89,1.68-4.77-12.18-8.73-24.64-12.92-37l1-.84C303.21,237.33,307.67,249.32,311.45,261.56Z"/><path class="cls-10" d="M390.82,436.74a43.31,43.31,0,0,0-1.16,4.72c-.75,5.59,1.82,8.21,8.23,8.54-2.72,2.77-5.67,3.14-8.44.92s-3.54-5.33-3-8.69C386.92,439.71,387.6,437.16,390.82,436.74Z"/><path class="cls-10" d="M382.23,451.65h-2l-1.29,0c-.88-.39-.57-1.13-.51-1.8l-.18-2.45c-.5-1.82,1.79-4.77-2.12-5.2,2.81-2.64,2.7-3.33-.86-5.66-.73-1.18-2.44,0-3.11-1.3,5.86-2.07,9,0,9.33,6,.18,3.16-.7,6.42.78,9.47C382.26,451,382.24,451.32,382.23,451.65Z"/><path class="cls-10" d="M287.47,449.07l.6,1.45.75.25h0l0,.86c-1.79-.16-4.59,1.76-4.52-2.21l-.21-1.95c-.28-1.53.72-3.25-.68-4.62v-1.36c2-3.61-.75-4.31-3.16-5.24-.6-.67-1.8.07-2.25-1,6.05-2.26,9.31-.2,9.43,6,.05,2.3,0,4.61,0,6.91Z"/><path class="cls-10" d="M151.68,449.5l.12,1.2c-3.73,2.55-7.55,1.82-9.79-1.86a8.84,8.84,0,0,1,3.33-12.46c.19.22.38.45.58.67a18.15,18.15,0,0,0-1.55,3C142.61,446,146.06,450.35,151.68,449.5Z"/><path class="cls-11" d="M190.72,244.27l-.06-1.82c6,5.9,10.31,13.13,15.73,19.47,1.54,1.8,2.26,4.41,4.87,5.21-.07,1.46-.07,1.46-2.4,1.23Z"/><path class="cls-10" d="M272.3,382.11c1-1.41,2-3.06,3.95-2.41s1.25,2.65,1.32,4.08c.23,4.53.33,9.06.41,13.6,0,1.07.55,2.76-1.06,2.87-1.89.13-1.11-1.69-1.15-2.65-.21-4.27-.39-8.55-.31-12.82,0-2.41-.86-3.2-3.11-2.75Z"/><path class="cls-10" d="M58,246.29c.79,2.55,1.44,4.62-2.3,4.43-1.06-.05-2.15.78-3.22,1.21-.62.25-1.31.59-.94,1.35a2.22,2.22,0,0,0,1.34,1.17,8.35,8.35,0,0,0,3.45,0c3-.89,3.41.47,2.73,3.1-3.33-2.4-7.4-1.61-11-2.9-.82-.3-1.94-.2-2-1.37s1-1.33,1.81-1.71C51.27,249.89,55.12,249.17,58,246.29Z"/><path class="cls-12" d="M256.11,173.63c.49,1.35-.72,2.38-.68,3.64a6,6,0,0,1-6.26,1.73,11.57,11.57,0,0,1,.07-8.45C252.72,168.92,254.35,171.42,256.11,173.63Z"/><path class="cls-10" d="M47.85,97.25c-2.21-1.2-3.41-3.21-1.44-4.31,3.77-2.12,7.39-4.78,11.88-5.41.66-.1,1.28-.32,1.63.45s.17,1.41-.58,1.55c-2.09.41-1.15,2.15-1.47,3.56-3-3.69-5.42,0-8.06.37C47.71,93.79,47.38,95.23,47.85,97.25Z"/><path class="cls-10" d="M79,334c-1.37,3.16-3.53,3.73-7.12,1.8,4.16-.81,5.59-2.51,3.74-6.25-1-2.05.4-3.72,2.48-4.48s3.47.42,4.44,2.1c2.28,3.95,2.16,4.2-2.23,5.68-.38-1,.18-1.68.78-2.41a2.15,2.15,0,0,0-.29-3.13,1.78,1.78,0,0,0-2.47-.27c-1,.75-.7,1.83-.42,2.85C78.29,331.29,78.65,332.66,79,334Z"/><path class="cls-10" d="M70.47,132.59c1,3.12-.37,3.91-3.3,3.58-3.61-.4-7.24-.55-10.86-.78-1.22-.08-2.67-.62-3.36,1.27V131C55.83,133.64,67.25,134.49,70.47,132.59Z"/><path class="cls-10" d="M284.08,447.47l.21,1.95c-1.08.67-2.16,1.36-3.25,2-2.59,1.55-5,1.38-6.88-1.07-1.64-2.2-.43-6.09,2.27-7.25a14.83,14.83,0,0,1,7-1.62v1.36c-.38,0-.76.07-1.13.15-2.21.44-4.63.63-5.24,3.44a2.5,2.5,0,0,0,1.07,3C280.71,450.8,282.38,449,284.08,447.47Z"/><path class="cls-12" d="M196.92,152.38c-1.26.59-2.06,2.17-4,1.09-2.46-1.36-2.12-3.5-2.2-5.62l-.06.07c1.93-1.25,3.17-3.92,6.16-3l1.79,1.14.19.18C199.13,148.6,197.85,150.43,196.92,152.38Z"/><path class="cls-12" d="M207.93,197.85c-.52-1.58-2.68-1.16-3.25-2.87-1.15-3.43.34-5.07,4.76-5l3.4,1.66c.95,4.11-.22,5.55-5,6.12Z"/><path class="cls-12" d="M242.18,194.69c-6.4,1.26-7.87.37-7.65-4.68l3.67-1.73c5.76.12,6.65,1.58,3.9,6.46Z"/><path class="cls-10" d="M152.09,390.05c-2.05.4-4.38.29-4-2a37.8,37.8,0,0,1,4-12.7c.34-.6.8-1.07,1.53-.73a1.17,1.17,0,0,1,.51,1.65c-.79,1.64.59,2.21,1.82,3C151.54,380.24,149.28,386.82,152.09,390.05Z"/><path class="cls-1" d="M225.75,142.47c-7.07.44-8.87-.89-9.54-7,.1-.25.19-.5.29-.76s.47-.56.7-.85l0,.06c.65-.26.79-.85.93-1.44a2,2,0,0,0,.64-.3c3.8-3.14,6.62-.75,9.43,1.68l.71,1.67-.45,3.1C228,140.25,226.54,141.11,225.75,142.47Zm-3.23-9.4c-2.65.1-4.12,1.63-4.09,4.14a4.24,4.24,0,1,0,8.47-.33C226.82,134.31,225.2,133,222.52,133.07Z"/><path class="cls-12" d="M244.93,148.7l1.13-1.5c2.95-1.25,4.9.46,6.82,2.29.46,2.77.32,5.25-3,6.22-2.36-1.64-4.83-3.19-5.55-6.28l.07-.09C244.84,149.32,245,149.12,244.93,148.7Z"/><path class="cls-10" d="M369.8,288.82c-.19-.17-.55-.34-.55-.5,0-3.71-.76-7-4.43-8.81-.13-.06-.06-.73.08-1,.29-.64.83-.54,1.26-.17,4.48,3.77,10.2,6,13.64,11.06-2.95,1.17-3.82-1.95-5.78-2.83-1-.46-1.84-1.55-3.12-1C369.3,286.14,369.79,287.59,369.8,288.82Z"/><path class="cls-10" d="M172.28,449c1.66.11,2.25,1.06,2.12,2.62-1.28.23-2.1-1.42-3.86-.34-3.26,2-6.06,1.19-7.22-1.39-1.27-2.82.35-6,3.76-7.29a9.58,9.58,0,0,1,1.88-.3c0,.4.09.79.13,1.18-2.23,1.11-3.65,2.84-2.27,5.22S170.4,449.6,172.28,449Z"/><path class="cls-10" d="M399.05,68.51c-.78-3.49-1.46-7.06-5.92-7.73a2.35,2.35,0,0,1-.35-.11c2-3.39-2-5.1-2.2-7.88,0-.27.51-.85.64-.81a2.3,2.3,0,0,1,1.18.78c2.81,4.15,5.58,8.32,8.37,12.49,1.51,2.27-.83,2.37-1.82,3.24Z"/><path class="cls-10" d="M387.26,136.58c-1.08,1.2-4.45-1.71-4.2,1.15.09.27,1.33-1.27-.3-1.27-3.08,0-6.15-3.05-9.27,0-.61.58-1.11-.31-1.32-.81-.47-1.15-.52-2.31.82-3,1.18-.59,13.39,2.18,14.25,3.22C387.36,136,387.26,136.35,387.26,136.58Z"/><path class="cls-10" d="M45.15,205.63c-1.41-1.1-.65-2.61-.67-3.94,0-1.66.67-1.72,2.16-1,3.55,1.7,7.26,1.63,11.78-.08-2.37,3.08.54,6.2-1.53,8.93l-.72-1.64c.09-1.68-.35-3.34-2.15-3.56C51,204,47.71,202.63,45.15,205.63Z"/><path class="cls-12" d="M188.79,169.71l2-1c3.65,1.21,4.91,4.75,3.16,8.81-1.91.29-3.82.61-5.46-.82l-1-3.87c0-.53.1-1.07.16-1.6l.22-.63.64-.71.21.11Z"/><path class="cls-10" d="M368,326.45c-3.86-1.91-5.3-5.78-7.92-8.58-1.29-1.39-2.24-1.73-3.1.49-.36-1.79-.37-3.41,1.35-4.12s2.41,1.05,3.3,2.05q2.82,3.21,5.53,6.52C368,323.77,369.15,324.68,368,326.45Z"/><path class="cls-10" d="M63.61,299.88c-3,1-4.1,3.83-5.74,6.42-1.08-2.05-2.77-3.89.78-5.11A2,2,0,0,0,59.92,299l.08-1.36c3.49-.1,4-3.35,5.88-5.58.8,1.9,3.08,3.69-.72,4.92-.51.16-1.78,1-.56,2Z"/><path class="cls-10" d="M134.11,370c1.81.3,3,1.11,1.6,3.75-1.53,3-2.72,6.11-4,9.21-.9,2.23-2.48,2.5-4.66,2.06C131.11,380.68,132.62,375.58,134.11,370Z"/><path class="cls-10" d="M370.56,442.77l3.16.39c-1.17,1.07-2.6,1.54-2.9,3.14-.48,2.5,1.44,4.24,4,3.49a9.49,9.49,0,0,0,3.43-2.42l.18,2.45c-.86-.45-1.47.1-2.05.58-2.65,2.2-5.44,3.11-8.1.2C366.41,448.55,367.42,445.48,370.56,442.77Z"/><path class="cls-10" d="M51.12,77.52c1.74,1.73,1.75,3-.87,4.45s-6.25,1.81-7.2,5.79c-1.65-1-2-2.77-2.89-4.35C44.75,83.07,48.08,81,51.12,77.52Z"/><path class="cls-10" d="M71.58,449.05a1.45,1.45,0,0,0-.83-1.46c1.1-2.6,2.22-5.2,3.3-7.81.74-1.79,1.87-3.74-1.64-4.13,1.33-1.45,2.54-.78,3.63-.86s2,0,3.68,0C75.38,439,74.64,444.63,71.58,449.05Z"/><path class="cls-10" d="M385.84,253.18a1.58,1.58,0,0,1-1.55-1,.94.94,0,0,1,.4-1.32c3.36-1.36.9-2.42-.26-3.21A54.64,54.64,0,0,0,379.3,245c-.89-.46-2.26-.75-1.6-2.11s1.57-.11,2.29.14c1.46.51,2.85,1.22,4.27,1.83,2.37,1,4.17,4.87,3.34,7.14A1.72,1.72,0,0,1,385.84,253.18Z"/><path class="cls-10" d="M411.82,442.73l3.61.52c-2.72.94-4.09,2.35-3.46,4.76.81,3.12,3.63,1.19,5.38,2-2.89,2.8-5.92,3.12-7.88.83S408.49,445.31,411.82,442.73Z"/><path class="cls-10" d="M386.84,106.74c-3.79-1-6.35-3.45-9.3-5.24-.86-.52-1.85-.82-2.73-1.3-.59-.32-1.62,1.86-1.78-.3a2,2,0,0,1,1.7-2.24C376.44,97.36,386.31,104.62,386.84,106.74Z"/><path class="cls-10" d="M136.88,384.83c3.23-2.1,5.51-8.05,4.55-11,3.77.35,3.6.29,2.59,3.68-.86,2.85-3.61,5.37-1.77,9.07C140.31,386.72,138.88,385.62,136.88,384.83Z"/><path class="cls-10" d="M59.43,309.76c3.58,1.09,9.75-1.39,11.45-4.28,1.59,2,2,3.51-1,4.45-1.83.57-3.56,1.47-5.37,2.14-1.34.49-2.69.9-2.09,3.51C60.43,313.62,60.09,311.91,59.43,309.76Z"/><path class="cls-10" d="M303.6,378.36c0,1.91-1.28,2.65-2.75,2-.78-.35-2.29-.78-2.09-2.55a36.59,36.59,0,0,0-.13-5.82c-.05-1.19-.2-2.41,1.86-2.78.31,2.26.7,4.51.92,6.78.13,1.48.53,2.52,2.25,2.43Z"/><path class="cls-10" d="M333.79,359.65c.45,1.55-.84,2.56-1.7,2.2-2.81-1.18-2.8,1.08-3.56,2.48l0,0c1.91-3.37-.2-6.39-.8-9.55-.22-1.14-1.46-2.77.34-3.31,1.52-.46,1.25,1.55,1.82,2.42,1.21,1.84.65,4.69,3.27,5.73l.3,0Z"/><path class="cls-10" d="M386.22,167.29c-2.15-2.07-5.07-2.37-7.67-3.42-1-.4-2.79-.34-2.41-1.9.44-1.77,1.88-.24,2.85-.36,2.22-.26,4.6,3,6.7-.34.23-.36.93.16,1.15.61.47,1,.85,2.18-.15,2.83-1.26.82-1.61,1.5-.56,2.66Z"/><path class="cls-2" d="M128.11,62.38c.37,3.37,3.12,5.88,3.38,9.29-3.32-1.4-6.07-3.63-8.87-5.71C124,63.59,127.12,64.76,128.11,62.38Z"/><path class="cls-11" d="M252.41,292.19c-.3-.58-.61-1.15-.92-1.73,5-1.22,9.39-3.41,12.47-7.74.44-.61,1-1.32,1.85-.54s.36,1.41-.19,2C261.91,288,258,291.49,252.41,292.19Z"/><path class="cls-10" d="M386.13,167.37c1.39.74,2.33,1.86,1.64,3.41s-2.26.87-3.65.87c-1.94,0-4.28-3.44-6,.42a3.84,3.84,0,0,1-1.37-2c-.13-1.35.42-2.41,1.92-2.18a33.65,33.65,0,0,1,5.2,1.34c1.94.63,2.69.06,2.34-2Z"/><path class="cls-10" d="M58.34,191.7c.72,2.34-.16,3.06-2.84,3.08-3,0-6.34-1.57-9.35,1-.71-1.64-.18-3.26-.18-4.89C50,192.91,54,192.74,58.34,191.7Z"/><path class="cls-10" d="M377.43,147.08c2.2.59,4.7,1.22,7.17,2a1.69,1.69,0,0,1,.87,1.14c.12.53-.24.92-.9.94-3.06,0-6.06-2.47-9.25-.15-.3.22-1-1.32-.9-2.26C374.58,147,376.06,147.43,377.43,147.08Z"/><path class="cls-10" d="M379.53,198.68c-.72-.29-.91-1.22-1-2.06-.17-1.24.48-2.14,1.74-1.94,1.52.24,3,.92,4.47,1.26,1,.21,1.86,1,3,.41.48-.25.41-2,1.47-.67a2.63,2.63,0,0,1,.24,2.61,1.27,1.27,0,0,1-1.47,1,25.22,25.22,0,0,0-2.61-.7C383.46,198.41,381.51,195.89,379.53,198.68Z"/><path class="cls-10" d="M332.42,442.83c.39.25,1.09.5.32,1-1.78,1.14-2.53,2.77-1.65,4.63,1,2.13,2.94,1.6,4.75,1.07.12,0,.36.3.55.47-2.38,2.74-4.95,3.53-7.84.72-.2-1.29.59-2.79-.78-3.85C328.12,444.14,329.6,442.71,332.42,442.83Z"/><path class="cls-10" d="M293.49,372.73c1.51.15,1.36,1.37,1.68,2.49.64,2.17-1,5.22,2.41,6.44.56.2-.18,1.07-.63,1.41a1.9,1.9,0,0,1-3-.43c-.83-1.23-.29-2.78-.64-4.11s.82-3.6-2.13-3.29c-1,.1-.31-.62-.18-.9A2.59,2.59,0,0,1,293.49,372.73Z"/><path class="cls-10" d="M380,188.26c2.47.6,4.85,1.17,7.23,1.78.91.23,1.82.61,1.75,1.74-.1,1.52-2,.16-2.36,1.36-2.72-1.1-5.46-2.17-8.15-3.34-.22-.1-.34-1-.15-1.37C378.76,187.72,379.49,188.33,380,188.26Z"/><path class="cls-10" d="M349.07,432.52c1.65-4.46,2.72-5,6.37-3.74,2.15.74,4.26,2.08,6.35-.45-1,3.37-2.93,4.36-6,3.12C353.67,430.62,351.54,429.47,349.07,432.52Z"/><path class="cls-10" d="M112.12,358.83l-1.59-.36c-.42-.28-.63-.07-.78.32-4.66,4.21-5.34,6.3-3.12,9.53l0,1.16c-3.4-1.46-4-4-2.71-7.2,1.7-4.1,4.47-5.66,8.19-4.78C112.1,357.94,112.11,358.39,112.12,358.83Z"/><path class="cls-10" d="M328.53,364.33c-1.49,2.25-2.53,2.43-3.55.45a43.9,43.9,0,0,1-1.51-4.36c-.26-.68-.3-1.53-1.13-1.91-.6-.27-1.4,1-1.6.11a2.17,2.17,0,0,1,1.88-2.51c1.32-.32,1.81.61,2.16,1.65.5,1.46,1.09,2.9,1.45,4.39a3,3,0,0,0,2.33,2.22Z"/><path class="cls-10" d="M58.5,119.87c-.9-3.24-2.65-1.26-4.11-.62-.67.3-1.36,1.18-2,.42-.84-1,.35-1.58.93-2.13,3.6-3.35,9.65-2.55,11.77,1.53l-1.19,0c-1.64-.82-3.63-3.63-4.35.77Z"/><path class="cls-11" d="M278.78,232.78c.84.07,1.47.36,1.53,1.33q-2.73,7.11-5.47,14.24l-1.6,0A102,102,0,0,1,278.78,232.78Z"/><path class="cls-10" d="M333.79,359.65l-.3.06-.3,0c2.3-3.31.3-6.44-.42-9.62-.21-1-1-2.21.25-2.69s1.43,1.09,1.81,1.93c.69,1.52,1.26,3.1,1.87,4.67.91,2.32.86,2.22-1.66,3.45C334.41,357.71,334.2,358.88,333.79,359.65Z"/><path class="cls-10" d="M340.22,341.81c-1.43,2.5,2,3.44,1.84,5.64-.06,1.05.82,2.14,1.24,3.22a1.35,1.35,0,0,1-.42,1.74c-1,.63-1.33-.39-1.65-1a48.58,48.58,0,0,1-2.11-4.58,2.77,2.77,0,0,0-3.19-2.06c.36-2.68,2.9-1.93,4.32-2.91Z"/><path class="cls-10" d="M303.66,378.42c1.55-3.16,1.39-6.47.9-9.82-.1-.73-.28-1.74.69-2,1.3-.28,1.3.89,1.45,1.74a25.1,25.1,0,0,1,.63,4.19c0,2,2.36,5.65-2.81,4.66-.23,0-.61.73-.92,1.12Z"/><path class="cls-10" d="M380.68,81.48c1.82.86,2.79,2.61,4.14,4s2.84,1.94,3.71-.58h.64c.8,2-.94,3.32-1.61,5.47l-4.93-4.41a7.54,7.54,0,0,0-1.74-1.53C378.52,83.4,378.5,83.45,380.68,81.48Z"/><path class="cls-10" d="M377.55,125.38a4.09,4.09,0,0,0,.76.69c1.29.71,4.14-.16,3.64,2.14-.34,1.53-2.63-.11-4,0-1.78.17-4.19-2.58-5.3,1.19-.1.35-1.22-.64-1.36-1.38-.25-1.3-.39-2.64,1.47-2.93,1.62-.25,3.16,1.11,4.81.25Z"/><path class="cls-10" d="M340.25,341.85c1.06-.33.61-1.25.74-1.94.2-1.09.68-2,1.86-2.18s1.71.9,2.14,1.85c.85,1.88,1.69,3.76,2.56,5.64.44.95,1.12,2.13-.23,2.61s-1.36-1.14-1.79-1.92a30.22,30.22,0,0,1-1.59-3.53c-.93-2.35-2.12-2.69-3.72-.57Z"/><path class="cls-10" d="M382.67,144.49c-2.66.46-5.25-2.84-8.05,0-.36.36-1-.91-1.12-1.67-.11-1,.16-2.06,1.32-1.89,3.05.46,6.07,1.11,9.08,1.79.28.06.64.85.58,1.25C384.29,145.17,383.33,144.52,382.67,144.49Z"/><path class="cls-10" d="M383.94,159.22c-2.79-1-5.45-1.86-8.09-2.83a1.14,1.14,0,0,1-.48-.92c0-.67.58-.79,1.1-.69,3,.61,6,1.22,9,1.91a1.11,1.11,0,0,1,.71,1.56C385.79,159.39,384.52,158.43,383.94,159.22Z"/><path class="cls-10" d="M392.4,77.36c-.86-2.78-2.85-4.82-4.63-7-.65-.8-1.65-1.73-.56-2.61s1.5.49,2.06,1.1c1.39,1.52,2.66,3.15,4.12,4.59,2.09,2.08,1.5,3.2-1.13,3.8Z"/><path class="cls-10" d="M176,394c-2.77,0-2.07,2.16-2.27,3.74l-1,1c-1.53-3.63-.12-8.42,3-10.22,1.1-.63,2.25-1,3.38,0l0,.79c-1.45.16-2.71.57-3,2.26,0,.08-.12.17-.1.25a2.84,2.84,0,0,0,.15.47v.86Z"/><path class="cls-10" d="M45.22,207.2c2.52,2.39,7.64,2.71,11,.69l.72,1.64c-1.45,2.37-3.8,1.5-5.86,1.58s-4.16-.7-5.92,1.07C44.47,210.45,45.12,208.83,45.22,207.2Z"/><path class="cls-10" d="M270.36,388.57c-.46,1.1,1.32,4.11-1.13,4.23-1.6.08-.36-3.07-.79-4.7-.38-1.45,1.05-3.93-2.17-3.8-.84,0-.23-.58-.16-.7a2.94,2.94,0,0,1,2.54-1.5,1.5,1.5,0,0,1,1.68,1.28C270.45,384.92,270.36,386.47,270.36,388.57Z"/><path class="cls-10" d="M251.61,399.51c-.24-2.93-.46-5.86-.74-8.79-.09-1,0-2,1.08-2.09s1,.94,1.1,1.7c.35,2.4.66,4.82,1.06,7.22s-.73,2.62-2.58,1.87Z"/><path class="cls-10" d="M355.89,337.47a5.43,5.43,0,0,1-.85,1.12,1.19,1.19,0,0,1-1.65-.49c-1.68-2.42-3.27-4.9-4.81-7.41-.19-.31,0-1,.23-1.38a1.05,1.05,0,0,1,.95-.14C351.84,331.92,353.86,334.71,355.89,337.47Z"/><path class="cls-10" d="M258.49,386.48c.13,2.3-.66,4.56-.08,6.9.46,1.88,1.29,2.72,3.23,2.08a2.51,2.51,0,0,1-3.1,2.12c-1.59-.31-2.22-1.76-2.39-3.21A9.48,9.48,0,0,1,258.49,386.48Z"/><path class="cls-10" d="M376.24,257.12c-.67-2-1.06-4.15,1.31-4.84s4.44,1,5.88,2.86c1.15,1.49-2.58.86-1.36,2.63a6.38,6.38,0,0,0-.42-1.45C380.41,254,378,254.32,376.24,257.12Z"/><path class="cls-10" d="M376.92,109c-3.35-2.1-4.12-1.82-4.79,1.9-1.27-1.87-1.67-3.81.09-5.24s3.64-.22,5.14,1a18.48,18.48,0,0,1,2,2.29C378.57,110.19,377.74,108.38,376.92,109Z"/><path class="cls-10" d="M63.9,119.1l1.19,0a5.62,5.62,0,0,1,.38,1.46c-.06,3-2.51,5.84-5,5.14-2.81-.79-1.7-3.7-2-5.8h1c.87.91-.4,3.26,1.87,3.11S64.16,121.09,63.9,119.1Z"/><path class="cls-10" d="M377.86,119.38c-1.94-.69-3.9-1.34-5.81-2.09-.66-.25-1.65-.47-1.36-1.53s1.33-.77,1.9-.48c2.86,1.46,6.65.77,8.8,3.82Z"/><path class="cls-10" d="M357.8,326.22c-1.11-1.34-2-3.24-4.28-1.94-.59.33-1.24.56-1.55-.27a1.33,1.33,0,0,1,.48-1.68c1.52-1.07,3-2.05,4.72-.3a8.61,8.61,0,0,1,2.84,5.68l-.95,0-.94-1.18A.39.39,0,0,0,357.8,326.22Z"/><path class="cls-10" d="M96.55,442.54a1.69,1.69,0,0,1-2,.34L93.23,442c1-2.6.11-4.58-2.12-6.07.55-.91,1.49-.58,2.29-.72A4.31,4.31,0,0,1,96.58,439a1.5,1.5,0,0,0,.43,1.61,1.47,1.47,0,0,1-.23,1.61C96.59,442.25,96.51,442.35,96.55,442.54Z"/><path class="cls-10" d="M248.34,442.87l-.39-1.43c0-2.26-.42-4.36-2.68-5.55.57-.86,1.52-.43,2.28-.68a4.72,4.72,0,0,1,3.09,3.17,1.24,1.24,0,0,0,.42,1.52l.09,2.22c-.4-.05-.58.12-.53.52Z"/><path class="cls-10" d="M389.17,84.87h-.64c-1.54-3.22-2.82-6.74-7.47-6.22,1.24-3.08,2.49-3.33,5-1.36,1.34,1.08,1.13,3.4,3.23,3.73h0C387.84,82.27,389.81,83.58,389.17,84.87Z"/><path class="cls-10" d="M399.05,68.51l-.1,0c.88,1.47.07,2.47-1.1,3.09-1,.51-1.93,0-2.8-.67-1.8-1.4-2.62-3.46-3.36-5.41-.5-1.3.15-2.52,1.73-.88l.47.87C395,67.54,395.61,70.45,399.05,68.51Z"/><path class="cls-10" d="M383.7,236c-4-1.66-4.35-1.43-4.66,3.11l.09.07c-.27-.58-.51-1.18-.83-1.73a3.37,3.37,0,0,1,.19-4.26c1.42-1.54,3.09-.7,4.56,0a14.87,14.87,0,0,1,2.41,1.83C385.2,235.94,384.34,235.75,383.7,236Z"/><path class="cls-10" d="M106.64,438.3c-.89-.14-2.59.57-1.61-1.53,1.21,1,1.5-.4,2-.85,1.33-1.18,2.92-2.33,4.45-1.23,1.37,1,.52,2.8.06,4.55C110,438.44,108.45,437.18,106.64,438.3Z"/><path class="cls-10" d="M262.36,394.76c0-1.91.09-3.83,0-5.73-.13-2.12-1.21-3.31-3.52-2.87,1.09-1.15,2.26-2.31,4-1.32a4,4,0,0,1,1.84,4C264.48,391,264.12,393.18,262.36,394.76Z"/><path class="cls-10" d="M121.48,450.85l0,1.18a16.78,16.78,0,0,1-2.62.34c-5-.14-5.27-.59-4-6.16C115.59,450.22,118.34,450.85,121.48,450.85Z"/><path class="cls-10" d="M374.45,303.28c-.32,3-1.67,3.88-4.1,2.49a10.82,10.82,0,0,1-4.35-5.24l1.48,0c1.91,2,3.63,4.41,7,2.8Z"/><path class="cls-10" d="M287.29,384.64c-.16-1.71-.28-3.43-.5-5.13-.25-1.88-1.22-3-3.3-2.74,3.32-2.21,5.22-1.48,5.53,2.25C289.19,381.06,289,383.12,287.29,384.64Z"/><path class="cls-10" d="M381.06,92.62c-2.15-2.54-2.15-2.54-5.4-.82-.39-1.76.11-3.06,1.67-3.74s2.85.28,3.75,1.29c.74.83,3,1.43,1.18,3.29Z"/><path class="cls-10" d="M282.63,379c.06,1.66,0,3.32.19,5,.18,2,1.45,2.84,3.35,2.91-3.28,2.19-5.38,1.32-5.46-2.47C280.67,382.52,280.27,380.22,282.63,379Z"/><path class="cls-10" d="M389.27,208.61c.73,2.66-.73,3.19-3,3.24-1.1,0-2.42-1.55-3.33.32l.22,0c.73-2.3-2.28-1.95-2.52-3.56l.84-.16c2.06.17,4,1.54,6.17.68Z"/><path class="cls-10" d="M370.37,290.36a2.16,2.16,0,0,1,2.18.35c1.85,1.94,4.15,1.66,6.45,1.47-.58,3.39-2.59,3.31-5,2A8.89,8.89,0,0,1,370.37,290.36Z"/><path class="cls-10" d="M383.7,236c.64-.23,1.5,0,1.76-1,1.31.7,1.85,2,2.59,3.2.85,1.34.42,1.91-.94,2.86-1.93,1.35-1.38-.39-2.07-1C383.55,238.92,384,237.38,383.7,236Z"/><path class="cls-13" d="M132.86,51.81c-2.59-1.29-4.89-2.62-4.3-6,.15-.81.36-1.51,1.37-1.49s.91.69,1,1.34C131.09,47.8,132.91,49.47,132.86,51.81Z"/><path class="cls-10" d="M359.06,327.73l.95,0c.74,1.88,1,3.77-.57,5.34a1.35,1.35,0,0,1-2-.38c-1.33-1.77-1.12-3.57.08-5.35a3.8,3.8,0,0,0,.31-1.1.39.39,0,0,1,.32.33c-.73,1.24-.66,3,.47,3.22C359.89,330,358.84,328.46,359.06,327.73Z"/><path class="cls-10" d="M378.7,227.55c-.66-1.91-.77-3.37.88-4,2.2-.86,4.2-.29,6.05,1.63C383.43,226.92,380.12,223.94,378.7,227.55Z"/><path class="cls-10" d="M386.24,218c1.06,1.23,2.77,1.9,3.36,4-3.14-1.09-6.71-.08-8.85-3.26l.75-.17h3.07A1.64,1.64,0,0,0,386.24,218Z"/><path class="cls-10" d="M119.09,435.91l-1.55-.74c1.6-1.23,3.44-.83,5.2-.68,3.25.26,4.09,2,2.43,5.77C124.28,436.44,121.92,435.75,119.09,435.91Z"/><path class="cls-11" d="M272.47,256.77l.21-1.73,12.31.47c0,.48,0,1-.05,1.45A69.25,69.25,0,0,1,272.47,256.77Z"/><path class="cls-10" d="M172.65,398.71l1-1c1.52,1.78,3.17,2.7,5.21.72.62-.6,1.4-1,1.94-.11s-.18,1.54-.82,1.92C177.13,402,174.67,401.34,172.65,398.71Z"/><path class="cls-10" d="M372.94,299.88c-2-1.82-3.77-4.18-7.05-3.22l0,0c.28-3.4,2.33-2.78,4.38-1.85a5.88,5.88,0,0,1,3.07,3.33Z"/><path class="cls-13" d="M304.46,51.46c-.61-2.46,1.81-4.17,1.63-6.54,0-.17.79-.58,1.21-.57.78,0,.92.72,1,1.38.5,3.15-1.15,4.78-3.93,5.64Z"/><path class="cls-10" d="M377.86,119.38l3.53-.28c-.1.36-.39.8-.28,1.08,1.4,3.52-.05,5-3.56,5.2l0,0C377.66,123.37,382.09,121.61,377.86,119.38Z"/><path class="cls-14" d="M306,70.74c.75-2.31,1.5-4.63,2.24-6.94-.35,2.13,1,2.92,3,3.37A8.86,8.86,0,0,1,306,70.74Z"/><path class="cls-10" d="M181.43,389.1a3.08,3.08,0,0,1,1.68,2.46c.18,1.58.28,3.44-1,4.38-1.41,1.08-2.71-.38-3.88-1.24,1.12,0,2.42.26,2.5-1.5,1.44-1.8-.33-2.75-1.06-4Z"/><path class="cls-6" d="M183.56,182.09c-1.22,1.12-1.95,3.14-4.05,2.78-1.43-.26-1.27-1.64-1.23-2.77,1.36-.38,2.34-1.58,3.89-1.61C183.45,180.45,183.82,180.93,183.56,182.09Z"/><path class="cls-10" d="M366.49,309.73c-.7-2.41-1.7-4.44-4.81-3.75.66-1.84,1.77-2.83,3.77-1.82,1.61.81,2.22,1.95,1.18,3.71C366.35,308.35,366.53,309.1,366.49,309.73Z"/><path class="cls-10" d="M135.86,428.59c-.28,1.1-.85,2-2.1,1.88a2,2,0,1,1,.28-4C135.34,426.54,135.72,427.48,135.86,428.59Z"/><path class="cls-10" d="M381.06,92.62l1.2,0c-1.63,2.18-.12,3.11,1.61,3.78.65.25,1.23.27,1.08,1.17-.12.66-.3,1.29-1,1.45a1.73,1.73,0,0,1-1.72-.6C380.56,96.73,381.1,94.62,381.06,92.62Z"/><path class="cls-10" d="M378.31,204.77c.56-3.81,2.67-4.28,7.19-1.6l0,1.89-1.6-.33c-.14-.39-.31-.73-.83-.56l-3.09,0Z"/><path class="cls-10" d="M60,297.66,59.92,299c-.87-.2-1.89-.8-2.58-.54-3.93,1.51-2.5-1.55-2.87-3.16C56.08,296.76,58.26,296.69,60,297.66Z"/><path class="cls-6" d="M260.61,168.91a21.49,21.49,0,0,1,2.75-2c1.05-.56,2.53-.75,3.26.17.91,1.16-.22,2.1-1.16,2.83C263.89,169.33,261.92,170.8,260.61,168.91Z"/><path class="cls-14" d="M112.12,358.83c0-.44,0-.89,0-1.33,2.46.94,3.83,2.55,3.12,5.32-.18.7-.53,1.57-1.52,1.35a1.24,1.24,0,0,1-.94-1.77A3.23,3.23,0,0,0,112.12,358.83Z"/><path class="cls-10" d="M56.17,428.34a1.82,1.82,0,0,1-1.76,2.1,1.87,1.87,0,0,1-2.21-2.05,1.83,1.83,0,0,1,2-1.93A1.79,1.79,0,0,1,56.17,428.34Z"/><path class="cls-10" d="M362.07,309.86l6,2.68c.13.84.75,1.89,0,2.48s-1.59-.38-2.26-.82C364.1,313.12,362.11,312.29,362.07,309.86Z"/><path class="cls-10" d="M106.6,369.48l0-1.16c2.42,1,3.81-1.38,5.87-2C111.64,369.93,110.39,370.55,106.6,369.48Z"/><path class="cls-10" d="M60.82,103.53h1.4c-.07,1.69,2,4.08-1.5,4.65-.72.12-1.6.62-2.1-.23s.33-1.36,1-1.74A2.82,2.82,0,0,0,60.82,103.53Z"/><path class="cls-10" d="M383.19,212.19l-.22,0c1.08,1,.83,2.29,1,3.5l-.2.2.17.23a12.56,12.56,0,0,1-2.48-1.76c-.94-1.1-2.93,1.89-2.85-.55.05-1.46,2.22-1.72,3.83-1.49A2.84,2.84,0,0,0,383.19,212.19Z"/><path class="cls-10" d="M164.84,383.16l1-.87c.68,1.22,3.37,0,3,2.19-.22,1.3-.28,3.35-2.61,3.19l.05.08C165.93,386.17,166.37,384.36,164.84,383.16Z"/><path class="cls-10" d="M63.61,299.88l1-.85c2.29-.14,5.19-1.21,4.57,3.32Z"/><path class="cls-10" d="M372.16,435.21c.67,1.3,2.38.12,3.11,1.3-2.44-.11-4.58.34-5.6,3.87C368,436.54,369.91,435.8,372.16,435.21Z"/><path class="cls-13" d="M373.1,263.33c1.58.43,3.67-1.31,4.63,1.05.23.55.1,1.43-.62,1.58C375.06,266.4,373.94,265.09,373.1,263.33Z"/><path class="cls-11" d="M121.47,224.17c-1.66-.94-4.91,2.25-5.27-2v0h.31l.27-.16,4.76.33C121.52,222.9,121.49,223.53,121.47,224.17Z"/><path class="cls-12" d="M216.5,133.79h-2.29l-.8-.84c0-.7.08-1.4.11-2.1l.69-.44c1.73-.44,2.36.76,3,2-.21.49-.54,1,0,1.49l0-.06Z"/><path class="cls-10" d="M376.92,109c.82-.66,1.65,1.15,2.46,0a2.15,2.15,0,0,1,2,2.27c-1.33,2.54-2.65.2-4,0C376.6,110.67,376.83,109.84,376.92,109Z"/><path class="cls-10" d="M377.4,111.28c1.33.21,2.65,2.55,4,0,.2,1.29,1.5,3.18-.48,3.64C378.39,115.52,377.85,113.22,377.4,111.28Z"/><path class="cls-10" d="M352,339.9c.88-.2,1.82-.42,1.51,1a1.85,1.85,0,0,1-2.14,1.66,1.61,1.61,0,0,1-1.64-1.72C349.82,339.33,351,339.66,352,339.9Z"/><path class="cls-10" d="M392.4,77.36l-.14-.11c2.2,3.86-1.07,3.28-3,3.74l0,0C388.4,78.15,390.72,78,392.4,77.36Z"/><path class="cls-10" d="M385.47,205.06l0-1.89c3.46.29,3,3.3,3.77,5.44l-1.59.54C388.11,207.15,386.24,206.4,385.47,205.06Z"/><path class="cls-12" d="M228.45,133.4l-.09-2.82,1.31-.72.8.14.13.18.22,0c.15,1,.3,2,.44,2.95a.43.43,0,0,0-.18.64l.13.16-.15-.14Z"/><path class="cls-11" d="M297.49,224.1l-15.57.14C287.1,222.65,292.29,223.39,297.49,224.1Z"/><path class="cls-10" d="M278,435.29c.45,1,1.65.29,2.25,1-2.06.34-3.66,1.35-4.77,4.16C274.07,436.69,275.83,435.87,278,435.29Z"/><path class="cls-10" d="M93.4,435.2c-.8.14-1.74-.19-2.29.72a5.79,5.79,0,0,0-5.37,1.77l-1.08-1.07C87.29,434.4,90.13,433.5,93.4,435.2Z"/><path class="cls-10" d="M247.55,435.21c-.76.25-1.71-.18-2.28.68a5.9,5.9,0,0,0-5.35,1.84l-1.07-1.08C241.45,434.4,244.28,433.46,247.55,435.21Z"/><path class="cls-10" d="M412.7,435.38l1.11,1.06c-1.66.41-2.05,2.16-3.51,3.48C409.07,437,410.46,436,412.7,435.38Z"/><path class="cls-10" d="M167.42,435.28l0,1.38-2.49,3.14C163.3,436.55,165.37,435.92,167.42,435.28Z"/><path class="cls-8" d="M378.31,204.77l1.64-.62c-.47,1.79,1.5,2.71,1.56,4.32l-.84.16C378.53,208.17,377.48,207,378.31,204.77Z"/><path class="cls-10" d="M372.94,299.88l.36-1.76c2.05,1.35,2.55,3,1.15,5.16h0C374.19,302,372.42,301.47,372.94,299.88Z"/><path class="cls-10" d="M180.77,393.2c-.08,1.76-1.38,1.49-2.5,1.5-.85,0-1.77.23-2.3-.74l.17-.86c.09-.09.26-.19.24-.26a2.79,2.79,0,0,0-.24-.6,2.84,2.84,0,0,1-.15-.47c0-.08.06-.17.1-.24A7.6,7.6,0,0,0,180.77,393.2Z"/><path class="cls-10" d="M251.53,399.42c-1,.71-1.64,2.3-3.28,1.18,1.51.84,2.23-.77,3.36-1.09Z"/><path class="cls-7" d="M273.24,248.33l1.6,0a9.43,9.43,0,0,1-1.63,4.26l-.72-.38c0-.55-.05-1.11-.07-1.66l.48-1.44.35-.81Z"/><path class="cls-10" d="M386.24,218a1.64,1.64,0,0,1-1.67.56c-.21-.84-.42-1.68-.64-2.51l-.16-.22.2-.2C385.49,215.73,386.12,216.63,386.24,218Z"/><path class="cls-11" d="M183,242.23a6.72,6.72,0,0,1-6.24-.06Z"/><path class="cls-10" d="M367.48,300.48l-1.48,0c-1-.73-.89-1.61.15-1.9C367.8,298.17,367.32,299.64,367.48,300.48Z"/><path class="cls-10" d="M327.77,446.87c1.37,1.06.58,2.56.78,3.85C327.29,449.64,327.32,448.3,327.77,446.87Z"/><path class="cls-8" d="M181.43,389.1l-1.72.13a.83.83,0,0,1-.62,0l0-.79C180.27,387.11,181,387.55,181.43,389.1Z"/><path class="cls-10" d="M323.21,430.5h1.41c.12.84.46,2.07-.73,2.06S323.19,431.3,323.21,430.5Z"/><path class="cls-8" d="M381.5,218.61l-.75.17c-.36-.33-.88-.59-1-1s.34-.56.71-.51C381.2,217.37,381.41,218,381.5,218.61Z"/><path class="cls-10" d="M382.23,451.65c0-.33,0-.65,0-1,.59,0,1.48-.21,1.39.66S382.81,451.94,382.23,451.65Z"/><path class="cls-7" d="M284.94,257c0-.48,0-1,.05-1.45.73,0,1.86-.3,1.92.56C287,257.46,285.73,256.92,284.94,257Z"/><path class="cls-10" d="M288.81,451.63l0-.86c.52-.16,1.06-.1,1,.54C289.8,451.76,289.36,452.17,288.81,451.63Z"/><path class="cls-10" d="M105,435.22l-2.27-.08C103.45,434.66,104.24,433.69,105,435.22Z"/><path class="cls-10" d="M105.13,441.46c-.15-.92-.17-1.8.76-2.38Z"/><path class="cls-10" d="M324.77,429.21l-.19-1.93C325.88,427.8,325.34,428.5,324.77,429.21Z"/><path class="cls-10" d="M194.56,448.25l.06.86-.19.76-1.08.42-.66-.8Z"/><path class="cls-10" d="M323.72,449.1c.39-.5.9-1.1,1.48-.51s.13,1.12-.54,1.41Z"/><path class="cls-10" d="M249.86,450.58l.06-1.32c.43-.51.67-.15.71.23A.88.88,0,0,1,249.86,450.58Z"/><path class="cls-11" d="M186.08,242.26c-.53.66-1.05.64-1.56,0Z"/><path class="cls-11" d="M272.42,250.57c0,.55,0,1.11.07,1.66l-.73,0A1.47,1.47,0,0,1,272.42,250.57Z"/><path class="cls-11" d="M271.62,252.86a1.42,1.42,0,0,1-.66,1.72A1.63,1.63,0,0,1,271.62,252.86Z"/><path class="cls-10" d="M251.06,439.9a1.24,1.24,0,0,1-.42-1.52A1.39,1.39,0,0,1,251.06,439.9Z"/><path class="cls-10" d="M97,440.62a1.5,1.5,0,0,1-.43-1.61A1.46,1.46,0,0,1,97,440.62Z"/><path class="cls-10" d="M317.64,427.41a1.4,1.4,0,0,1,1.51.35Z"/><path class="cls-10" d="M286.49,386.59c.17-.72-.39-1.75.85-2C287.05,385.23,286.77,385.91,286.49,386.59Z"/><path class="cls-8" d="M267.83,123.64c-.67-.21-.79-.76-.83-1.35A1.29,1.29,0,0,1,267.83,123.64Z"/><path class="cls-14" d="M308.22,63.72a1.09,1.09,0,0,1,.47-1.48Z"/><path class="cls-11" d="M297.31,225.6l.21-1.5c.82,0,1.06.57,1.14,1.27l-1,.84A1.05,1.05,0,0,1,297.31,225.6Z"/><path class="cls-10" d="M323.72,449.1l.94.9-.85.5-1.1-1Z"/><path class="cls-11" d="M273.25,248.32l-.35.81Z"/><path class="cls-13" d="M379,239.09l.19,0-.11.08Z"/><path class="cls-8" d="M365.89,296.66l-.37.34c0-.09,0-.21,0-.25a.67.67,0,0,1,.3-.11Z"/><path class="cls-10" d="M313,426.2l-1,.3Z"/><path class="cls-10" d="M309.84,427l-.77.36Z"/><path class="cls-8" d="M216.5,133.79l.7,0c-.23.29-.47.57-.7.85Z"/><path class="cls-8" d="M116.78,221.94l-.27.16h-.31c.06-.18.11-.36.17-.54Z"/><path class="cls-10" d="M261.56,395.53c.11-.46.23-.91.86-.85C262.33,395.16,262.12,395.53,261.56,395.53Z"/><path class="cls-10" d="M96.55,442.54c0-.19,0-.29.23-.31l.07.28Z"/><path class="cls-8" d="M213.41,133l.8.84Z"/><path class="cls-10" d="M250.62,442.64c-.05-.4.13-.57.53-.52C251.27,442.6,251.1,442.78,250.62,442.64Z"/><path class="cls-10" d="M393.89,65.49l-.47-.87C393.58,64.91,393.74,65.2,393.89,65.49Z"/><path class="cls-14" d="M109.75,358.79c.15-.39.36-.6.78-.32Z"/><path class="cls-8" d="M268.6,124.41l-.63-.6Z"/><path class="cls-8" d="M267,122.25l-.76-.73Z"/><path class="cls-13" d="M304.4,51.37l-.43.46,0-.35.53,0Z"/><path class="cls-10" d="M176.85,449l0-.77a3.31,3.31,0,0,1,.18.53C177,448.85,176.91,448.94,176.85,449Z"/><polygon class="cls-8" points="188.78 169.71 188.72 169.97 188.51 169.86 188.78 169.71"/><path class="cls-10" d="M311.28,50.47l.05.19s-.12-.12-.13-.11S311.28,50.47,311.28,50.47Z"/><path class="cls-8" d="M266.19,121.5l-.78-.76Z"/><path class="cls-10" d="M287.47,449.07l-.09-.87a4.58,4.58,0,0,1,.22.58C287.62,448.86,287.52,449,287.47,449.07Z"/><path class="cls-10" d="M169.75,436.24c.35-.3.61-.23.79.19Z"/><path class="cls-10" d="M70.9,450.12l.51-1Z"/><path class="cls-11" d="M143.7,267.82l-.5-.65Z"/><path class="cls-10" d="M194.43,449.87l.19-.76c.51.08.85.29.65.89Z"/><polygon class="cls-10" points="272.35 382.03 272.41 382.24 272.31 382.11 272.35 382.03"/><path class="cls-10" d="M417.3,450c-.58-.86.15-.83.65-1a.55.55,0,0,1,.14.53Z"/><path class="cls-10" d="M246,450.39q-.4.56-.81,0Z"/><path class="cls-10" d="M288.82,450.77l-.75-.25Z"/><path class="cls-10" d="M316.1,450.38c-.33.38-.6.33-.82-.11Z"/><path class="cls-10" d="M318.45,450.34c-.25.39-.52.43-.82.06Z"/><path class="cls-10" d="M178.31,451.65l0-.86.9.43Z"/><path class="cls-10" d="M415.37,436.26a.85.85,0,0,1,1.17.3Z"/><path class="cls-10" d="M195.43,451.52l.7.5C195.57,452.31,195.43,452,195.43,451.52Z"/><path class="cls-10" d="M201,452.11l.65-.62C201.67,452,201.6,452.32,201,452.11Z"/><path class="cls-10" d="M378.94,451.62l1.29,0C379.79,452,379.36,452.09,378.94,451.62Z"/><path class="cls-15" d="M157.16,334.72a7.72,7.72,0,0,1-7.39,7.48,7.42,7.42,0,0,1-7.37-7.38,7.73,7.73,0,0,1,7.78-7.5A7.45,7.45,0,0,1,157.16,334.72Zm-1.93,0a5.21,5.21,0,0,0-5.12-5.58,6,6,0,0,0-5.89,5.48,5.4,5.4,0,0,0,5.41,5.76A5.6,5.6,0,0,0,155.23,334.72Z"/><path class="cls-15" d="M205.67,361.36c-2.62-.51-2.91-2.45-3.65-4s-1.4-1.91-2.66-.39c-1.1,1.32-1.82,3.18-4.3,3.48.56-3,3.84-4,4.4-6.45.62-2.67-2.46-4.6-2.57-7.71,3,.91,2.59,3.92,4.36,5.38,2.36-.48,2.61-4,6-4C202.44,351.83,201.36,356.26,205.67,361.36Z"/><path class="cls-15" d="M233.27,361.79c-2-1.15-1.92-4.64-5.9-4.17-3.72.44-2.7,4-5.46,5.27.57-5.26,2.29-9.73,3.84-14.2.44-1.26,1.77-.93,2.35.21,2.07,4.07,4.05,8.18,6.06,12.28Zm-6.38-11.1c-.45,1.88-2.43,3.56-1.11,5.52.32.48,2.91.31,3.12-.16C229.84,354,227.9,352.51,226.89,350.69Z"/><path class="cls-15" d="M279.38,349.44a83.42,83.42,0,0,1-2.22-14.54c-.07-1.37,1.19-1.79,2.18-1,3.6,2.84,7.08,5.82,11.06,9.12-3.27,1-4.53-3.14-7.94-1C279.4,344,281.15,346.63,279.38,349.44Zm-.83-14.23,1.16,6.39c1.52-.2,3.44-1,3.35-1.73C282.83,337.89,280.63,337.27,278.55,335.21Z"/><path class="cls-15" d="M172.75,345.73c0-2.46,2.14-3.5,3.39-5.11s2.24-1.07,2.43.82a76.39,76.39,0,0,1,.32,13.57c-2-2.07-.76-5.2-4.24-6.43-3.69-1.31-4.22,2-7.13,2.82,1.71-2.61,2.6-4.95,5.3-5.74.69,2.14,3.14,3,4.1,2.09,1.36-1.22.52-3.65.4-5.84C175.12,342.88,174.77,345.3,172.75,345.73Z"/><path class="cls-15" d="M260.12,344.77c-3.1-.29-6.07-1.81-8.52.64a5.53,5.53,0,0,0-1.61,3.83c-.15,4,2.09,5.45,9,6-3.32,2.47-6.75,2.13-9.19-.93a7.66,7.66,0,0,1,.9-10.48C253.64,341.4,257.24,341.62,260.12,344.77Z"/><path class="cls-15" d="M270.1,214.14l-.26-.43.4.29Z"/><path class="cls-15" d="M168.55,34.27c.08-9.56.26-19.13.17-28.7,0-2.6.76-3.21,3.26-3.18,11.52.14,23,.08,34.56.09.52,0,1,0,1.55,0,7.45.58,8,1.13,8,8.46q0,19.41,0,38.83C204.39,51,193.38,54,184.28,62.06c-.24.21-.74.13-1.12.19.26-3.19-3.35-5-2.89-8.49.2-1.57-1.33-3.84-3.08-4.61-2.52-1.1-3-3-3.44-5.28A11.72,11.72,0,0,0,170.2,38,5.58,5.58,0,0,1,168.55,34.27Z"/><path class="cls-15" d="M217.93,49.77c0-14,.08-28-.05-42,0-2.78.6-4,3.6-4.51,9-1.45,18.08-.54,27.12-.79,4.92-.13,9.87.2,14.78-.1,3.23-.19,3.79,1,3.75,3.93-.12,10.11,0,20.23.09,30.34-1.51,3.42-5,6-4.51,10.31.09.91-1.35,1-2,1.51-2.12,1.63-4.59,3.15-3.53,6.52a1,1,0,0,1-.54,1.25c-2.3,1.44-2.37,3.87-2.8,6.14-2.13,1.35-5,1.17-6.78,3.43,2.11,2.64,5,4.4,6.8,7.32.95,1.57,1.09,2.74,0,4.2-4.16,5.67-9.05,10.44-15.78,13-2.26.21-2.24-1.29-2.14-2.86,3-4.86,4.78-10,3.51-15.81-.23-1,.31-3.35-2.2-2.67-1.79.49-2.6,1.33-2.28,3.61,1.73,12.17-8.82,21.28-20.72,18.09A16.14,16.14,0,0,1,202.3,73.81a16.31,16.31,0,0,1,15.38-14.7c.78,0,1.56.06,2.33,0,1.63-.19,3.67,1.37,4.76.06,1.52-1.84,2.33-4.28,3.38-6.49.64-1.35-.08-1.88-1.37-2C223.83,50.36,220.88,50.06,217.93,49.77ZM217,76.44,221.47,67c1.58-3.35,1-4.26-2.76-4.27a12.49,12.49,0,0,0-12.44,13c.17,7,5.9,11.89,13.57,11.6a12.07,12.07,0,0,0,11.51-12.91c-.12-2.4-.75-2.8-3-2C224.79,73.79,221.48,75.86,217,76.44Z"/><path class="cls-15" d="M205.32,58c-3.29,5-6.54,8.71-7.21,13.86-.86,6.58.67,12.24,5.14,17.14.78.86,2.5,1.73,1.73,3-1.18,1.88-2.5-.18-3.6-.59a36.36,36.36,0,0,1-17.32-13.59c-1.3-1.86-1.45-3.16,0-5.13A36.39,36.39,0,0,1,205.32,58Z"/><path class="cls-8" d="M235.94,87.42c-.1,1.57-.12,3.07,2.14,2.86-2.1,1.64-4.58,2.08-8.14,2.86C232.47,90.73,234.21,89.08,235.94,87.42Z"/><path class="cls-16" d="M228,155.71c0-2-1.18-4.87.49-5.66s3.71,1.41,5.33,2.74c.65.54,1,1.56,2.1,1.36l0,0c1.21,1.87,1,4.62,3.59,5.64,3.72,8.17,2.32,14.62-4.45,20.51-3.64.75-6.37,3.43-10.26,4.1a18,18,0,0,1-18.7-8.32c-5.65-9.88-2.47-20.57,7.44-25.8,1.21-.64,2.51-1.51,3.35-.11a3.91,3.91,0,0,1-.21,4.05c-.72,1.18-2.71,1.22-2.61,3h0c-6,2.82-6.93,13.05-1.55,17.18h0c-.19,1.38.57,1.69,1.73,1.54l1.62.91a2.61,2.61,0,0,0,2.79,2.16c3.33.19,6.57.29,9.65-1.61,7.23-4.44,8.41-15.82,1.35-20.13h0a1.56,1.56,0,0,0-1.57-1.47Z"/><path class="cls-8" d="M190.72,244.27l18.14,24.09c.91,1.89,3.22,3.15,2.5,6.59l-9.48-12.67c-3.87-5.18-7.77-10.36-11.59-15.58C189.73,245.93,187.83,244.58,190.72,244.27Z"/><path class="cls-8" d="M138.54,223.83c2.71-.08,2.24,1.88,2.24,3.5,0,11.92,0,23.83,0,35.75,0,1.63-.45,3.39.77,4.85.06,1.27-.47,1.68-1.41.72a12.94,12.94,0,0,1-1.56-2.41l-.32-42.06A.42.42,0,0,0,138.54,223.83Z"/><path class="cls-11" d="M138.29,224.18q.17,21,.32,42.06c-.84-.65-.75-1.58-.75-2.49q-.06-18.67-.08-37.36A9.69,9.69,0,0,1,138.29,224.18Z"/><path class="cls-8" d="M297.31,225.6a1.05,1.05,0,0,0,.33.61c4.19,12.39,8.15,24.85,12.92,37,.08,2.53,2.57,4.74.89,8.33-1.67-4.77-3.1-8.84-4.51-12.92-3.48-10-7-20-10.37-30.12C296.27,227.64,294.18,225.82,297.31,225.6Z"/><path class="cls-8" d="M242.14,244.82q0,22,0,44.05a2.92,2.92,0,0,1-1.85-2.5c.16-12.4.45-24.8-.13-37.2C240.37,247.51,240.67,245.9,242.14,244.82Z"/><path class="cls-1" d="M240.15,249.17c.58,12.4.29,24.8.13,37.2-1-3.95-.43-8-.41-11.95C239.92,266,239.43,257.57,240.15,249.17Z"/><path class="cls-8" d="M242.09,288.83l.93,0C242.72,289.46,242.41,289.52,242.09,288.83Z"/><path class="cls-1" d="M217.14,159.42c-4.55,4-5.21,8.31-1.88,12.32,2.55,3.07,7.86,3.91,11.06,1.76a8.62,8.62,0,0,0,2.56-11.26c-.91-1.59-2.71-3-.79-5.07l1.57.11h0c-.26,1.22.73,1.84,1.26,2.68,3.31,5.34,2.44,11.1-2.27,15.27-3.9,3.45-8.33,2.57-12.78,1.63l-1.62-.91c-.22-.91-.58-1.67-1.73-1.54h0c-2.88-6-2.89-11.81,1.55-17.18h0C215.84,156.88,217.74,156.4,217.14,159.42Z"/><path class="cls-16" d="M225,163.44c-1.83,1.08-3.65.71-5.48,0-1.92-6.2-.55-12.55-.8-18.83,0-.68.43-1.4,1.19-.85,1.42,1,3,.5,4.5.74.86.13,1.65.62,1.5,1.46C224.9,151.75,227.55,157.73,225,163.44Z"/><path class="cls-6" d="M246.69,202.57c-.67.1-1.26.05-1.12-.83.05-.28.43-.73.63-.72.87,0,.65.77.68,1.32Z"/><path class="cls-8" d="M226.63,124.59c0,1.75-1.5,3.34-3.94,3.49a4.54,4.54,0,0,1-5.19-4.4c-.22-2,2.75-4.4,5.08-4.35C224.71,119.39,226.56,121.39,226.63,124.59Zm-3.91,2a2.45,2.45,0,0,0,2.44-2.89c-.09-1.8-.86-2.45-2.57-2.52-1.9-.07-3,1-3,2.62S220.6,126.63,222.72,126.57Z"/><path class="cls-10" d="M243.5,442.05a1.34,1.34,0,0,1,1.65,0Z"/><path class="cls-10" d="M417.94,449.15c-.05-.59.37-.79.82-1A1,1,0,0,1,417.94,449.15Z"/><path class="cls-15" d="M222.52,133.07c2.68-.11,4.3,1.24,4.38,3.81a4.24,4.24,0,1,1-8.47.33C218.4,134.7,219.87,133.17,222.52,133.07Z"/><path class="cls-10" d="M176.14,392.24a2.79,2.79,0,0,1,.24.6c0,.07-.15.17-.24.26Z"/><path class="cls-10" d="M383.87,204.73l-.83-.56C383.56,204,383.73,204.34,383.87,204.73Z"/><path class="cls-2" d="M155.23,334.72a5.6,5.6,0,0,1-5.6,5.66,5.4,5.4,0,0,1-5.41-5.76,6,6,0,0,1,5.89-5.48A5.21,5.21,0,0,1,155.23,334.72Z"/><path class="cls-2" d="M226.89,350.69c1,1.82,3,3.27,2,5.36-.21.47-2.8.64-3.12.16C224.46,354.25,226.44,352.57,226.89,350.69Z"/><path class="cls-2" d="M278.55,335.21c2.08,2.06,4.28,2.68,4.51,4.66.09.72-1.83,1.53-3.35,1.73Z"/><path class="cls-2" d="M172.75,345.73c2-.43,2.37-2.85,4.57-3.82.12,2.19,1,4.62-.4,5.84-1,.87-3.41.05-4.1-2.09Z"/><path class="cls-5" d="M217,76.44c4.49-.58,7.8-2.65,11.34-4,2.27-.84,2.9-.44,3,2a12.07,12.07,0,0,1-11.51,12.91c-7.67.29-13.4-4.61-13.57-11.6a12.49,12.49,0,0,1,12.44-13c3.75,0,4.34.92,2.76,4.27Z"/><path class="cls-16" d="M222.72,126.57c-2.12.06-3.14-1.2-3.15-2.79s1.12-2.69,3-2.62c1.71.07,2.48.72,2.57,2.52A2.45,2.45,0,0,1,222.72,126.57Z"/></g></g></svg>