<svg xmlns="http://www.w3.org/2000/svg" viewBox="0 0 425.2 485.97"><defs><style>.cls-1,.cls-2{fill:#2b2523;}.cls-1,.cls-10,.cls-3,.cls-4,.cls-5,.cls-6,.cls-7,.cls-8{fill-rule:evenodd;}.cls-3{fill:#fff;}.cls-4{fill:#ffce01;}.cls-11,.cls-5{fill:#a6daf1;}.cls-6{fill:#91bdc4;}.cls-7{fill:#c5dce1;}.cls-8{fill:#007d68;}.cls-12,.cls-9{fill:none;}.cls-9{stroke:#fff;stroke-linecap:square;stroke-miterlimit:10;stroke-width:0;}.cls-10{fill:#5aa4a5;}</style></defs><title>Recurso 1</title><g id="Capa_2" data-name="Capa 2"><g id="Layer_1" data-name="Layer 1"><path class="cls-1" d="M206.61,65.34c-4.42-.6-8.21.06-12,.09L196,83.76l-17,3.29-5.2-17.67c-8.83,2.6-13.89,4.53-17.66,6.46l6.45,16.4-14.5,8.33L137.2,85.48a123.91,123.91,0,0,0-14.45,10.86l11.48,14.45-11.9,12.12-14.65-11.27a157,157,0,0,0-11.25,15.27l15.87,9.36-7.47,15.24L86.44,146c-2.48,6.34-4.31,13.32-6.17,19.65,37.92-4.09,92.38,6.24,126.34,61Z"/><path class="cls-2" d="M205.34,65.24s7,0,10.16.11,9.76,1.22,9.76,1.22l-1.47,17.18,10.53,2.44,5-18.37a87,87,0,0,1,12.22,3.05,123.85,123.85,0,0,1,12.77,5.48l-6.33,17.09,9.11,4.74,10.4-15.29a80.84,80.84,0,0,1,12.05,7.24,89.58,89.58,0,0,1,9.12,8.1l-12.28,14.5,7.76,7.69,14.71-12.48s5.16,5.8,8.24,10.11,7.73,11.59,7.73,11.59l-15.33,9.71L314,148.9l17.64-6a69.59,69.59,0,0,1,4.74,11.12c2.23,6.68,5.19,17.21,5.19,17.21s-19.83-2.2-35.11-.26a125.76,125.76,0,0,0-33.07,9c-42.91,18.15-58.61,51.51-58.61,51.51l-7.62-.57,5.26-11.76,2.15-1.52s30.67-48.56,95.83-54.53c18.8-1.71,21.24-.06,21.24-.06l-3.94-11.48-17,6.17L299.54,136.8l15.07-9.65-6.74-9-14.06,11.78-17.22-16.95,11.54-14-8.39-6.39-11.19,15.14L248.83,96.88,254.92,80,244.3,76.51l-5,17.71L215.7,90l1.42-16.89-11.33-.86Z"/><polygon class="cls-3" points="195.82 141.77 191.4 143.7 188.9 145.62 187.62 146.26 187.01 147.54 185.12 150.7 183.89 151.97 182 153.89 181.37 155.16 181.39 156.43 180.14 158.33 179.5 159.6 178.89 161.51 178.27 163.41 178.29 166.57 177.04 168.48 176.42 169.75 175.21 176.09 175.23 177.35 175.25 180.5 174.66 185.57 174.67 187.47 174.69 190 175.33 191.9 176.63 195.68 176.65 198.84 177.31 201.37 177.94 203.89 179.89 208.31 180.54 212.1 181.2 213.98 182.47 215.24 183.12 216.51 185.66 218.38 186.95 222.16 188.22 222.78 189.49 223.4 190.76 224.03 192.66 225.27 193.93 225.91 195.22 226.52 199.63 227.12 201.53 227.75 203.44 228.36 205.34 228.34 209.13 227.68 211.68 228.29 212.93 228.28 214.82 227.63 216.71 226.99 220.5 225.06 223.66 223.77 224.91 222.5 226.16 221.22 227.41 219.96 228.03 218.68 229.28 215.51 229.91 214.87 233.03 210.42 233.66 209.16 233.66 208.51 234.26 205.99 234.24 203.46 234.86 200.91 235.47 198.39 235.45 196.48 235.45 194.59 234.78 190.8 235.38 187 234.74 185.1 234.09 183.22 234.68 179.43 234.68 177.53 234.66 175.62 234.01 173.72 233.36 171.83 232.07 168.69 232.07 165.53 231.41 164.26 231.39 162.37 230.74 160.47 229.49 159.21 228.84 158.59 228.18 156.06 228.16 154.81 226.89 152.92 223.7 149.15 223.7 148.51 223.04 147.25 221.79 145.99 220.5 144.11 195.82 141.77"/><polygon class="cls-4" points="181.04 192.48 179.16 195.02 178.54 196.3 178.54 197.56 179.22 203.25 179.85 205.15 180.51 206.41 181.14 206.4 181.76 206.4 183.02 205.12 183.64 202.59 184.89 201.31 185.51 199.4 185.51 197.51 185.49 196.24 184.2 194.35 182.29 191.84 181.66 191.85 181.04 192.48"/><polygon class="cls-4" points="176.52 181.77 176.52 183.02 175.93 185.57 175.93 188.1 176.6 190.62 177.25 193.15 177.25 194.41 177.88 194.4 178.5 193.77 179.75 191.86 180.39 190.59 181 188.68 180.96 185.53 180.33 183.63 179.68 181.74 179.04 181.12 177.77 181.12 177.16 181.12 176.52 181.77"/><polygon class="cls-4" points="191.13 189.87 189.87 190.51 187.37 194.97 186.76 196.86 186.78 198.13 186.79 201.29 189.36 206.33 190.01 208.86 190.01 209.49 190.66 209.48 191.28 208.85 192.53 207.58 195.66 202.5 195.65 201.22 195.65 200.59 195.63 198.69 191.76 189.86 191.76 189.23 191.13 189.87"/><polygon class="cls-4" points="184.08 177.91 183.47 179.81 182.83 181.09 182.22 182.36 182.24 184.88 182.25 187.42 182.27 188.68 182.91 189.94 184.18 191.82 185.47 193.08 185.49 194.35 186.1 194.34 186.74 193.7 187.35 192.44 188.6 190.53 189.87 188.62 189.85 187.35 189.84 186.08 189.18 184.19 188.55 182.31 187.26 180.42 186.63 179.79 185.99 178.53 185.35 177.9 184.7 177.91 184.08 177.91"/><polygon class="cls-4" points="188.45 170.92 186.6 174.73 186.6 175.99 186.6 177.26 189.79 181.67 190.45 183.55 190.45 184.81 191.1 185.45 191.72 185.44 192.36 184.81 192.97 182.91 194.22 179.09 194.2 177.83 194.18 175.94 192.91 175.32 190.99 172.8 189.72 170.91 189.09 170.28 188.45 170.92"/><polygon class="cls-4" points="195.49 180.35 194.86 180.99 192.99 186.06 193.01 187.33 193.01 187.97 193.01 189.23 194.96 192.37 196.24 196.16 196.88 196.16 197.51 196.15 200.63 191.7 201.26 190.43 201.25 189.8 201.25 187.9 200.59 186 198.67 182.86 196.74 180.34 195.47 179.72 195.49 180.35"/><polygon class="cls-4" points="201.26 192.33 200.01 194.23 196.9 199.31 196.9 200.59 196.92 201.22 196.92 202.47 200.13 207.51 200.76 207.51 201.4 207.51 202.01 207.5 205.13 201.78 205.77 200.51 205.73 199.25 205.11 197.99 203.81 194.2 203.15 191.68 202.53 191.05 201.9 191.69 201.26 192.33"/><polygon class="cls-4" points="182.64 156.42 183.29 157.68 184.57 158.94 186.49 163.35 187.12 163.98 187.78 164.6 189.03 163.96 189.66 163.31 191.53 159.52 192.15 157.61 192.13 155.08 192.09 151.28 191.45 150.03 190.82 149.41 189.54 149.41 188.29 149.42 187.03 150.7 184.51 152.61 183.25 153.89 182.64 155.78 182.64 156.42"/><polygon class="cls-4" points="189.68 165.21 189.05 166.49 189.07 167.75 189.07 169.01 189.7 169.64 192.87 172.15 193.53 174.04 194.18 174.67 194.82 174.67 195.43 174.66 196.07 174.03 197.28 168.96 197.28 167.06 197.26 165.79 196.63 164.53 194.71 161.38 194.07 160.12 192.8 159.5 189.68 165.21"/><polygon class="cls-4" points="197.94 170.84 197.34 174.02 196.72 176.55 196.09 177.19 196.11 178.44 196.74 179.08 201.21 184.74 202.48 184.72 206.21 178.37 206.21 177.1 206.21 176.47 205.57 175.85 204.92 175.23 202.38 172.08 199.82 169.56 199.19 169.58 198.57 170.21 197.94 170.84"/><polygon class="cls-4" points="207.5 179.63 206.86 180.26 206.23 180.27 205.61 182.17 204.36 183.44 202.49 186.63 202.51 187.89 202.51 189.16 203.15 190.41 205.07 194.2 205.73 195.45 205.73 196.08 206.37 196.08 206.98 195.44 208.25 194.17 210.73 189.08 210.73 187.82 210.71 186.56 208.13 180.89 207.5 180.26 207.5 179.63"/><polygon class="cls-4" points="211.37 190.35 210.75 190.99 210.75 192.25 210.13 194.15 208.88 196.06 207.63 197.34 207.63 197.96 207.63 199.23 208.29 199.86 209.56 201.75 210.85 204.26 210.85 205.54 211.5 206.16 212.13 206.16 212.75 205.52 213.38 204.88 215.27 202.34 216.5 198.53 216.48 196.63 215.85 195.38 215.19 193.48 213.93 192.23 213.27 190.97 212.63 190.34 212 190.34 211.37 190.35"/><polygon class="cls-4" points="187.03 149.44 187.64 148.16 188.89 146.25 190.78 144.96 197.72 142.39 195.22 146.2 193.34 147.49 191.44 148.13 189.55 148.14 188.28 148.78 187.03 149.44"/><polygon class="cls-4" points="195.86 146.2 194.61 147.47 193.34 148.12 192.7 148.75 192.72 150.02 192.72 151.28 193.38 153.8 195.86 146.2"/><polygon class="cls-4" points="195.32 158.22 195.95 160.11 197.25 163.27 197.9 165.16 198.53 165.78 199.8 165.78 200.42 164.5 201.05 163.23 201.67 161.96 202.92 160.7 204.83 159.41 205.42 158.13 205.42 157.5 205.42 156.24 204.78 155.61 204.13 154.35 202.86 153.09 202.22 151.84 201.57 151.85 200.94 151.22 199.69 151.85 199.05 152.5 198.44 153.14 195.94 156.31 195.3 157.59 195.32 158.22"/><polygon class="cls-4" points="203.42 142.34 200.94 149.95 201.57 149.95 202.84 149.95 204.73 148.65 205.34 148.02 207.23 146.74 207.86 146.11 203.42 142.34"/><polygon class="cls-4" points="206.07 160.03 204.19 161.94 202.94 163.21 201.7 165.76 201.05 166.4 201.07 167.66 201.73 168.92 203.63 170.8 205.56 174.58 206.19 174.57 206.82 174.57 207.46 174.56 209.96 170.13 211.21 168.21 211.83 166.94 211.83 166.31 209.26 163.18 208.62 160.01 207.98 160.02 207.32 159.4 206.71 159.4 206.07 160.03"/><polygon class="cls-4" points="207.88 147.37 206.61 148.01 205.36 148.65 204.09 149.93 203.47 150.56 203.47 151.19 204.11 151.83 204.77 153.09 205.4 154.34 206.06 155.6 206.69 156.87 207.33 156.87 207.94 156.23 208.58 154.95 209.83 153.68 211.09 152.4 211.71 151.77 211.69 150.51 211.69 149.86 210.42 148.62 209.79 147.97 208.5 147.36 207.88 147.37"/><polygon class="cls-4" points="212.35 153.02 209.84 156.21 208.59 157.48 208.59 158.75 208.61 159.38 209.25 160 211.18 163.79 211.81 165.05 212.46 165.67 213.07 165.66 213.71 165.03 216.19 159.32 216.83 158.05 216.17 157.42 213.62 153.65 212.98 153.02 212.35 153.02"/><polygon class="cls-4" points="211.85 169.47 211.85 169.47 210.59 170.75 208.09 175.83 208.09 177.09 208.11 177.72 208.77 179 210.06 182.13 210.69 184.66 211.34 185.92 211.98 185.91 212.59 185.91 213.23 185.28 216.35 178.29 216.96 177.03 216.94 175.76 216.31 173.87 213.75 170.09 213.1 169.46 212.48 169.46 211.85 169.47"/><polygon class="cls-4" points="218.08 159.94 217.46 159.94 216.83 159.95 215.6 164.38 214.35 165.66 213.73 166.93 213.73 168.19 215.66 171.34 216.95 173.22 216.95 173.87 218.21 174.49 218.83 173.85 221.97 168.13 222.58 166.85 222.56 165.59 222.54 164.33 219.35 159.93 218.73 159.94 218.08 159.94"/><polygon class="cls-4" points="223.85 168.12 223.24 169.39 221.99 171.92 220.1 174.47 219.48 175.1 219.48 176.38 219.5 177.01 220.12 177.63 222.7 181.41 223.33 182.04 223.95 182.03 224.58 181.39 226.47 178.84 227.7 176.94 227.7 175.67 227.68 173.78 225.76 169.37 225.12 168.11 224.49 168.11 223.85 168.12"/><polygon class="cls-4" points="218.87 177.64 218.21 177.65 217.62 178.28 216.35 180.82 213.86 185.28 213.23 185.91 213.25 187.18 213.25 188.42 213.9 190.97 215.17 192.22 216.47 194.11 217.1 194.73 217.73 194.73 218.37 194.72 218.98 194.08 220.85 190.28 222.74 187.73 222.74 187.09 223.35 185.83 222.72 184.56 222.06 182.68 220.14 179.54 218.87 178.27 218.87 177.64"/><polygon class="cls-4" points="224.01 188.35 222.74 189 221.5 190.91 219.64 195.35 218.37 196.63 217.77 198.52 217.77 199.79 218.43 202.32 219.06 204.84 220.35 206.09 220.98 206.72 221.62 206.72 222.89 206.08 226.01 200.99 227.24 197.18 227.87 195.91 227.85 195.28 224.64 188.35 224.01 188.35"/><polygon class="cls-4" points="228.35 178.19 227.1 180.11 225.24 183.29 224.6 183.92 223.97 184.56 224.62 185.82 227.2 190.86 227.84 192.76 227.84 193.38 228.47 193.38 229.1 192.74 230.97 189.56 231.6 188.29 232.22 186.4 232.2 184.5 231.55 182.6 230.92 180.71 229.62 177.56 228.99 177.56 228.35 177.56 228.35 178.19"/><polygon class="cls-4" points="232.22 188.29 232.24 188.93 231.6 189.56 230.99 192.09 229.12 194.64 228.49 195.91 228.51 196.54 228.51 197.81 230.43 201.59 230.45 204.75 231.1 204.74 231.72 204.74 232.35 203.47 233.59 201.56 234.84 198.4 234.82 195.86 234.8 192.7 234.15 190.17 233.49 188.92 232.85 188.29 232.22 188.29"/><polygon class="cls-4" points="211.02 144.18 209.75 145.46 210.4 147.98 212.31 148.6 212.94 149.22 213.58 149.22 214.82 148.59 215.46 147.31 211.02 144.18"/><polygon class="cls-4" points="222.47 151.68 219.97 156.13 219.33 157.41 219.33 158.03 219.98 158.66 220.62 159.92 223.18 163.07 223.18 163.69 223.81 163.69 225.7 161.15 227.56 157.97 227.56 156.71 226.93 155.44 225.62 152.29 222.47 151.68"/><polygon class="cls-4" points="176.5 179.23 177.12 179.23 178.41 179.86 179.04 180.48 180.31 180.47 180.94 180.47 181.56 180.47 182.2 179.82 182.81 178.56 182.79 176.66 182.79 175.39 182.16 173.5 180.24 170.99 179.58 169.73 178.95 169.09 178.33 169.09 177.67 169.11 177.06 170.37 177.08 172.27 176.46 174.81 176.46 175.44 175.85 177.35 176.48 177.97 176.5 179.23"/><polygon class="cls-4" points="182.04 158.96 180.77 159.59 180.16 160.24 179.54 163.39 178.93 164.67 178.93 165.93 179.56 167.2 180.22 168.46 181.49 169.71 182.77 172.86 184.06 174.75 184.7 175.37 185.31 174.74 185.95 173.48 187.18 169.03 187.16 167.13 186.51 165.24 184.59 161.47 183.95 160.2 182.66 158.94 182.04 158.96"/><polygon class="cls-4" points="233.45 183.23 232.84 184.49 232.84 185.76 232.85 186.4 234.13 188.28 234.13 187.65 234.11 184.48 234.09 183.85 233.45 183.23"/><polygon class="cls-4" points="231.47 170.59 231.47 171.22 230.84 172.49 229.59 174.39 229.6 175.02 229.6 175.66 229.6 176.3 231.51 178.81 232.16 181.34 232.8 181.96 233.45 181.95 233.43 180.06 234.05 177.53 233.4 175.63 233.38 173.74 232.74 171.21 232.09 170.58 231.47 170.59"/><polygon class="cls-4" points="227.58 160.49 226.95 161.14 225.08 163.06 224.45 164.31 224.45 164.95 224.47 165.58 225.1 166.21 226.39 168.73 227.68 171.89 228.31 172.5 228.93 172.5 229.59 172.5 230.2 171.86 230.84 170.59 230.8 168.06 231.43 166.79 230.78 164.26 230.12 162.37 228.85 160.49 228.22 160.49 227.58 159.86 227.58 160.49"/><polygon class="cls-4" points="216.12 148.56 214.23 150.48 213.6 151.12 214.23 152.38 214.89 153 216.79 155.52 217.43 156.15 218.06 156.14 219.33 155.5 219.93 153.6 221.83 151.69 216.12 148.56"/><path class="cls-5" d="M255.08,198.86c-12,1.36-29.75-3.56-39.29-9.81-3.17-2.51-6.93,1.95.06,7l5.08,3.12c-9.49.71-22.19-4.89-29.82-11.15-13.3-2.44,7.09,17,9.62,15.1-10.12,1.35-15.86-3.68-28.56-11.79-5.73-4.39-10.77-1.83-8.21,1.33,5.73,4.37,11.46,10.66,17.79,11.88-9.48.7-20.25-4.28-31.05-8L168.52,209l27.34,21.29,29.72-1.49,21.34-21.66Z"/><path class="cls-6" d="M92.29,412.63c5.58-16.48-5.64-75.85-39.11-69.26-25.25,7.78,8,49.9,23.2,55.49-3.85-7.58-5.83-17.68,3-17.75,10.75-.08,9.6,13.22,12.89,31.52"/><path class="cls-6" d="M334.52,410.76c-4.48-6.29,3.89-71.51,36.19-64.16,27.26,7.37-7.22,50-21.09,55.19,3.1-7.62,4.31-16.47-3.29-16.43-12,.11-11.93,10.22-11.81,25.4"/><path class="cls-7" d="M358.68,346.69C310.1,361,298.46,409.78,299.89,431.9c9.46-2.61,28.36-15.4,34.63-21.14,1.1-22.78,4.71-44.31,24.16-64.07"/><path class="cls-7" d="M68.37,345.78C112.13,360.62,122,410.51,121.53,432c-10.14-3.07-24.11-9.29-31.72-14.93.46-21.5-1.67-51.84-21.44-71.3"/><path class="cls-6" d="M369.46,430.1c-5.64,7.63,5.06,1.85.09,12.65,12.66,1.16,27.19-.85,24.73,6.76-3,25.95-69.4,22-70.11,13.19,20.12-12.8,50.29-39,45.29-32.6"/><path class="cls-6" d="M54.43,421.79c23,25.75,42.56,24.33,48.92,30-15.12,7.69-20.14,10.91-51.79,8.62-33.45-1.67-19.46-41.71,2.87-38.61"/><path class="cls-7" d="M381,362.33c.67,5.68,4.79,46.77-9.62,66.48-40.72,49-221.82,101.65-320.06-5.1-18.49-19.47-10.52-53-6.89-72.68,8.14,71.41,217,163.4,336.57,11.3"/><path class="cls-7" d="M381.79,388.89c2.5-2.55,30.29-9.09,33,14.92,1.94,6.32-17.57,17.21-20.51,45.7-7.62-3.11-15.26-8.74-30.38-2.93,7.43-19.66.9-46.18,17.89-57.69"/><path class="cls-1" d="M386.08,127h-.63c-.64-.62-.64-.62-1.27-1.26l0-.63-.62-.62,6.18-17.13-12,8.32-.63-.62,15.71-10.24c0-.64,0-.64.64,0l.63.62c0,.63.66.62.66,1.26v.63L388,124.46l13.22-9v.64h0Zm-9-24.58,5.62-8.27L373.19,98Zm-1.19,10.12-2.56-3.77,3.11-5.71-3.82-5-5.68,2.58c-.64,0-.64,0-.64-.63l18.28-7.1h.64l.63.63a2.39,2.39,0,0,1,.66,1.89Zm-.23-29.09c0-.63,0-.63-.63-1.26a2.45,2.45,0,0,0-.66-1.89c-.64,0-.64-.63-1.27-1.26l-1.27-1.25-7.56,6.38,3.19,3.77a.63.63,0,0,0,.65.63c.64.63.64.63,1.25.62a14.05,14.05,0,0,1,2.51-3.81,2.18,2.18,0,0,1,1.26-.65c.64-.63,1.9-.64,2.53-1.28m.67,6.32a29,29,0,0,1-4.41,1.92,5.44,5.44,0,0,1-3.81-1.85l-4.44-5L358,89.92l-3.18-3.15L369.23,74l7.64,8.16c.65,1.27,1.29,2.53.67,3.79,0,1.9-.62,2.54-1.25,3.81m-23.51-15,5-8.89L349,70.37Zm.07,9.49-3.17-3.14,3.12-5.72L348.33,71,342,74.23V73.6L359,64h.64l.61.63c.64.62,1.29,1.25,1.29,1.88ZM337.54,66l8.12-10.82c.65-.63.63-1.27.63-2.53-.65-.62-1.28-1.26-1.92-1.88a4.71,4.71,0,0,0-2.54-1.24c-1.25,0-1.89,0-1.89.64l-8.77,11.45c0,.64,0,1.27,0,1.9l1.91,1.88a3.34,3.34,0,0,0,2.55,1.24,2.35,2.35,0,0,0,1.89-.64m8.83-3.23a11.69,11.69,0,0,1-5.65,4.46c-3.16,1.3-5.7.69-8.24-1.19a10.52,10.52,0,0,1-3.23-7.57c0-1.89,1.23-4.43,2.48-6.35a9.26,9.26,0,0,1,5.68-3.83c2.52-.65,5,0,7.6,1.84,1.9,1.89,3.19,3.76,3.21,6.3a10.81,10.81,0,0,1-1.85,6.34m-22.82-4.88h0l-8.89-5.64,10.62-16.51,3.81,2.5L318.47,53.53l5.08,3.76Zm-14-17.61L312,30.81l-7.54,7Zm2.59,9.47-4.42-1.86,1.83-7-5.72-3.12-5,4.48,13.82-13.4a.6.6,0,0,1,.61-.63c.64,0,.66.63,1.27.62l1.29,1.25ZM300.52,24a2.16,2.16,0,0,0-.63-1.25c-.63-.64-1.27-1.26-1.91-1.26a7.19,7.19,0,0,0-1.92-1.25,2.14,2.14,0,0,1-1.25-.62l-4.37,9.51L294.88,31c.66.62.66.62,1.28.62a.59.59,0,0,0,.61-.63c0-1.27.62-2.53.62-3.8.64-.64,1.25-1.28,1.25-1.91.63-.63,1.25-1.28,1.88-1.28m2.56,5a6.15,6.15,0,0,1-2.5,3.19c-1.89.63-3.16.65-4.42,0l-6.35-3.11-3.1,7.61-3.81-1.86L291,17.08l10.16,5a4.48,4.48,0,0,1,2.56,3.14c.63,1.26,0,2.53-.62,3.8m-27.22-4.85L275.78,14l-5.62,8.26Zm4.5,8.82-4.45-1.23-.05-6.95-6.33-1.85-3.75,5.72a.62.62,0,0,0-.64-.63l11.26-15.9a.63.63,0,0,1,.63-.64,2,2,0,0,1,1.27.62,2.28,2.28,0,0,1,1.27.63ZM263.08,9.07l-.63-.64a2.34,2.34,0,0,0-1.91-.61,2.27,2.27,0,0,0-1.88-.62,5.05,5.05,0,0,0-1.91-.63l-2.44,10.15L259.37,18l1.25,0,.63-.63c0-1.27,0-2.53,0-3.8,0-.64.62-1.9.62-2.53.62-.63,1.23-1.28,1.23-1.9m4.48,5a13.55,13.55,0,0,1-2.5,3.81,5.2,5.2,0,0,1-4.42.67l-6.33-1.22L252.47,25,248,23.73l4.9-19,10.78,2.44c1.25.63,1.9,1.26,3.17,3.14a7.87,7.87,0,0,1,.67,3.8M232.2,20.68v.64l-10.77-1.19L223.18.52l4.44.59-1.75,19ZM218.75,1.18l-6.31.06h-.63v.63l0,4.43,5.07.59v.63l-5.07,0-.55,10.77,0,.63,1.27,0,5.06.6v.63l-9.49-.55a.62.62,0,0,1-.63-.63.62.62,0,0,1-.64-.63l.5-17.08A.6.6,0,0,1,208,.64,2.19,2.19,0,0,1,209.27,0l9.48.56ZM198,17.79,196,3.25c0-.63,0-1.26-.65-1.25a2.31,2.31,0,0,0-1.91-.62L189.66,2l2.68,18.32,3.17,0c.62,0,1.25-.65,1.89-.66a2.29,2.29,0,0,0,.61-1.89m4.37-7.62c.65,1.88,0,4.42-.58,6.32-1.25,2.54-3.13,3.83-5,3.84l-9.46,1.34L185.24,2.08l8.85-.71a6,6,0,0,1,6.35,2.48c1.27,1.26,1.92,3.15,1.94,6.32M165.81,23.1,161.9,8.58a.63.63,0,0,0-.64-.62,1.19,1.19,0,0,0-1.9,0l-3.79.65,4.58,18.32,3.77-1.3a2.29,2.29,0,0,0,1.27-.65,2.34,2.34,0,0,0,.62-1.89m3.73-8.25a21.64,21.64,0,0,1-.6,6.33,5.49,5.49,0,0,1-3.75,4.45l-8.83,2.61L151.16,9.3l8.2-2c3.15-.65,5-.66,7,1.21a15,15,0,0,1,3.22,6.31m-25.22,9.69-5.76-8.18.69,10.11Zm8.88,5-4.42,1.3L145,25.16l-5.68,1.93,0,7h-.61l-.79-19.59a.61.61,0,0,1,.62-.65l.63-.64H141ZM129.86,36l-6.44-13.24c0-.63-.64-.63-1.27-.62h-1.88l-3.16,1.93,8.35,16.39,3.15-1.29c.62-.65,1.25-.65,1.25-1.29a1.18,1.18,0,0,0,0-1.89m1.81-8.87C133,29,133,30.94,133,33.47c-.61,2.54-1.23,4.43-3.14,5.09L121.69,43l-9-17.63,7.56-3.85c2.53-1.28,5.06-1.31,7,.57,1.91.62,3.17,2.51,4.46,5M118.53,44.34l-3.77,2.56-9.62-16.37L108.91,28Zm-11.38-1.82c1.25,1.89,1.92,4.43.66,6.33a8.45,8.45,0,0,1-4.38,5.1,7.24,7.24,0,0,1-5.06,1.92c-1.88,0-3.15-.6-3.79-1.86-.66-.62-.66-1.9,0-3.16,0-1.26.6-1.9,1.87-2.55a2.76,2.76,0,0,1,3.15-.66,2.53,2.53,0,0,1,2.54,1.25c0,.63,0,1.26,0,1.9a3.2,3.2,0,0,1-1.25,2.53,4.66,4.66,0,0,1-2.52.66c-1.27,0-1.9,0-2.54-.61,0-.64,0-1.27,0-1.91,0-1.25.64-1.26,1.25-1.89A2.29,2.29,0,0,1,99,48.92c.63,0,.63,0,1.26.62,0,.63,0,1.26,0,1.9s0,.63-.6,1.26H99a.6.6,0,0,1-.61.64H99c.64,0,.64,0,1.26-.64.63,0,.61-.63,1.25-1.91a2.3,2.3,0,0,0-.66-1.89c0-.63-.64-.62-1.9-.62-.64-.63-1.89,0-2.52.66a9,9,0,0,0-1.87,2.54A3.81,3.81,0,0,0,95.19,54a4.93,4.93,0,0,0,3.18,1.24c1.9,0,3.17,0,4.42-1.3.64,0,.64,0,.64-.64a5.19,5.19,0,0,0,3.13-3.19,4.06,4.06,0,0,0,0-3.79c-.64-1.26-2.54-1.24-5.06-1.23a18.68,18.68,0,0,1-5.7,1.31c-2.52.66-3.79,0-5.06-1.23-.65-1.26-.65-2.52-.67-4.41a8.38,8.38,0,0,1,3.75-4.46,5.49,5.49,0,0,1,3.79-1.93c1.91,0,3.16,0,3.81,1.24,0,.63,0,1.27,0,2.53-.63.63-.61,1.26-1.88,1.9-.64.64-1.28.65-2.53.66-.65,0-1.27-.62-1.9-1.25,0,0,0-.63,0-1.27,0-1.26.61-1.27,1.25-1.91a2.38,2.38,0,0,1,1.9-.64c.62,0,1.26,0,1.27.63.62.62.62.62,0,1.26a2.33,2.33,0,0,1-.61,1.91c-.66,0-.66,0-1.27.63a2,2,0,0,0,1.27-.63h.64c.63-.64,1.25-1.28,1.25-1.91s0-1.27,0-1.9A3.78,3.78,0,0,0,98.22,35a9,9,0,0,0-3.77,1.28c-1.27.65-2.52,1.93-2.52,3.2a3.87,3.87,0,0,0-.6,2.54c1.25,1.24,2.52,1.23,5.06,1.22l5.67-2c2.52-.65,4.43,0,5.09,1.22M84.48,56H83.21c-.64,0-.64.63-1.27.64a.62.62,0,0,1-.62.64v.64H82a2,2,0,0,0,1.25-.65Zm1.21-7.59A4.85,4.85,0,0,1,87,51.54a10.72,10.72,0,0,1-1.25,3.17,5,5,0,0,1,2.54-.65c1.27.62,1.9.61,2.54,1.24L94.62,61l-3.14,2.57L85.73,56c0-.63,0-.63-.64,0l-.61.64-1.27,1.27c-.62.64-.62.64-1.25.65H80.69a2,2,0,0,1,.63-1.28c0-.63.62-.64.62-1.27a2,2,0,0,0,1.25-.64c.63,0,.63,0,1.27-.63l0-.64-3.83-5H79.36L75,52.26,86.46,67.35l-3.77,2.57L71.18,54.82l8.8-7a2.76,2.76,0,0,1,3.15-.66,3.39,3.39,0,0,1,2.56,1.25M68.05,58.65l-4.41,3.83,0,.62v.64l3.18,3.13,3.77-3.18h.63l-3.77,3.82,7,8.17s.62.62.62,0h.63l3.79-3.2h.62l-6.91,6.38-1.27,0h-.63L60.51,65.65c-.64,0-.64,0-.64-.62s.64-.64.62-1.27L67.41,58h.64ZM57.39,70.75l.63.63a.62.62,0,0,0,.64.62l7.06,13.86v.64a2.21,2.21,0,0,1-.62,1.26l-.63.63-.61.64-19-7.43,2.51-3.18,16.49,6.19V84L57.39,72l-.64-.63a2,2,0,0,0-1.27-.62A3.27,3.27,0,0,0,53,72a4.61,4.61,0,0,0-1.24,2.54c0,1.27,0,1.9.64,2.53H53a2.34,2.34,0,0,1-.63-1.91c0-.62.61-1.26,1.24-1.9,0-.63.62-.63,1.26-.64.63-.64,1.27,0,1.9,0a2.27,2.27,0,0,1,.64,1.89c0,.63-.62,1.26-1.25,1.9a3.26,3.26,0,0,1-2.5,1.3c-.64.62-1.29,0-1.91,0-.63-.62-1.29-1.88-.65-2.51A4.86,4.86,0,0,1,52.33,72c.64-.63,1.89-1.27,2.54-1.91,1.25,0,1.88,0,2.52.62M57,96.68l-3.13,3.82L39.17,87.33l3.14-3.19Zm-5.65,6.37s0,.63,0,1.26l-.63.63-.64.64a.62.62,0,0,1-.62.65l-18.35-.5,12.1,8.76-.66.64-14.6-11.27v-.63c0-.64,0-.64.61-1.28a.61.61,0,0,1,.64-.62l.61-.65,18.37,1.76v-.63l-12.1-9.39,0-.64ZM37.49,115.8a4.82,4.82,0,0,1,1.3,3.16,6.83,6.83,0,0,1-1.87,4.44,6.41,6.41,0,0,1-3.14,3.81c-1.88,1.28-3.16,1.29-3.79.67l-13.33-8.75,2.48-3.81,14.64,10H35c.64-.64,1.27-.64,1.27-1.28a6.76,6.76,0,0,0,1.85-4.43c0-1.27,0-2.54-.66-3.17l-11.44-7.5a1.18,1.18,0,0,0-1.89,0,1.37,1.37,0,0,0-1.27,1.27,4.84,4.84,0,0,0-1.23,2.53,2.85,2.85,0,0,0,.64,1.91,2,2,0,0,0,1.29.62v-.63c-.64,0-.66-.62-.66-1.27-.63-.63,0-1.89.62-2.52,0-.64.61-.64,1.25-1.28a2.33,2.33,0,0,1,1.9.61c.63,0,.63.63.63,1.27,0,1.26,0,1.89-.59,2.53a3.33,3.33,0,0,1-2.54,1.29,1.19,1.19,0,0,1-1.89,0A3.25,3.25,0,0,1,21,112.78a4.76,4.76,0,0,1,1.25-2.55c.61-1.27,1.25-1.91,1.88-1.92a2.29,2.29,0,0,1,1.89-.63Z"/><path class="cls-1" d="M310.78,448.26l-7-8.17,1.34,10.75ZM320.3,452l-4.41,2.56-4.48-5.66-6.31,3.21.69,7h-.61l-2.7-20.85.6-.63.66-.64c.61,0,1.25-.64,1.89,0Zm-39.17,7.26a10.83,10.83,0,0,1,.06,6.33,7.23,7.23,0,0,1-5,4.46c-3.16,1.29-5.7.68-8.24-.56-1.9-1.26-3.19-3.78-4.48-6.93a10,10,0,0,1,1.21-8.23c1.23-2.53,3.14-3.82,5.66-5.11,1.88,0,3.77-.66,5.06,0,1.9.62,3.17,1.26,3.17,2.51a.61.61,0,0,1,.64.62,2.78,2.78,0,0,1-.62,3.18,4.39,4.39,0,0,1-3.14,2.55,2.91,2.91,0,0,1-3.17,0c-.62,0-1.25-.63-1.89-1.25a2.3,2.3,0,0,1,.6-1.91c0-.63.63-1.27,1.89-1.91l2.54,0,1.27,1.27a2.24,2.24,0,0,1-.62,1.9L274.16,458c.64,0,.64-.64,1.27-.64,1.27,0,1.89-.65,2.5-1.92a3.81,3.81,0,0,0,.64-2.55,6.5,6.5,0,0,0-2.56-3.13c-1.27-.63-2.54-.61-4.44,0a14,14,0,0,0-3.14,1.92,2.54,2.54,0,0,0-1.25,2.55l4.56,15.14a2.35,2.35,0,0,0,1.9.61,2.32,2.32,0,0,0,1.89-.65c2.52-.65,4.41-1.92,5-4.46a7,7,0,0,0,0-5.07l0-.62Zm-45.45,10.48-3.88-10.1-2.45,10.78Zm7.64,6.89-4.42,0-3.22-6.3-6.31.69-1.84,7h-.64l4.27-20.26c0-.65,0-.65.64-.65,0-.63.61-.63,1.25-.64a2.33,2.33,0,0,1,1.9.63Zm-38-15.52c0,.64-.64,1.28-.64,1.91-.61,0-1.25.65-1.88.65-2.52.65-4.41,1.3-5.68,3.2l6.43,12-5.7-.59L193.94,470l-8.17,7h-1.26l8.79-7.66-7.7-12.59,5.7-.05,5.14,9.44c.63-.63,1.9-1.26,2.52-1.9a8.82,8.82,0,0,1,3.77-1.3c1.27-.64,1.88-1.27,1.25-1.91.63-.63,0-1.89-.64-2.53a5,5,0,0,0-3.17-1.23,3.75,3.75,0,0,0-2.54.66c-1.25.63-1.25,1.26-1.25,1.9-.62,0,0,.63,0,.63a1.33,1.33,0,0,1,1.25-1.27,2.26,2.26,0,0,1,1.88-.65c.64,0,1.29.62,1.91,1.26.65,0,1.29.62.65,1.24a2.36,2.36,0,0,1-.61,1.9c-.64,0-1.25.65-2.55,0-1.25,0-1.88,0-2.51-.62a4.74,4.74,0,0,1-1.29-2.51,3.34,3.34,0,0,1,1.86-2.54c1.27,0,2.54-.66,3.81-.67,1.25.63,1.89.63,3.16,1.24.65,1.26,1.29,1.89,1.31,3.15M155.93,464l-.71-10.74-5,9.52Zm5.14,8.81-4.43-1.23-.71-6.95-6.3-1.21-3.76,5.71h-.63l10.6-18.42h1.9c.62,0,1.27.62,1.91,1.26Zm-41.84-15.48,5.56-14c.63-.63.63-1.28,0-2.54a3.32,3.32,0,0,0-2.52-1.24,4,4,0,0,0-2.57-.61c-1.24,0-1.88,0-1.86,1.28l-6.23,13.32a3.81,3.81,0,0,0,.65,2.53,3.32,3.32,0,0,0,2.54,1.26,3.89,3.89,0,0,0,2.54.61,2.4,2.4,0,0,0,1.91-.65m8.15-5.76c-1.25,2.54-2.5,4.45-4.39,5.73-2.49,1.91-5.67,1.94-8.85.7a8.75,8.75,0,0,1-5.09-6.29c-.65-2.53,0-5.05.58-7.59,1.23-2.55,2.49-4.44,5-5.11,2.52-1.27,5.05-1.29,8.23-.06,2.52.62,4.44,3.13,5.1,5.66a9,9,0,0,1-.58,7"/><path class="cls-1" d="M248.81,368.41a.64.64,0,0,1-.64.64H246.9l.62-4.43c0-.62,0-1.26-.66-1.26,0,0,0-.64-.61-.62a.63.63,0,0,1-.66.63,118.5,118.5,0,0,0-1.23,1.28l-1.23,4.43-1.27,0,.6-5.08h0v-.63h-.64l.62-.64.61-.62h.64l0,.63v1.9c0-.63.63-1.27,1.27-1.91l.61-.63h1.27a1.92,1.92,0,0,1,1.27.62c0,.63.64.63.64,1.26l0,.63-.62,3.17v.62Zm-9.51-3.71.62-.65c0-.63-.64-.62-.66-1.26h-.61l-.64,0a1.36,1.36,0,0,0-1.27,1.26c-.61.64-1.25,1.28-1.23,1.91a9.06,9.06,0,0,0,3.79-1.29m1.25-.65c0,1.27-.61,1.27-1.88,1.92-.64,0-1.25.64-2.52.65h-.62c0,.63,0,1.26.62,1.26,0,.64.63.63,1.28.62h1.26c.63-.65,1.27-.66,1.88-1.29v.63c-.61.65-1.23,1.28-1.86,1.28s-1.28.65-1.91.65l-.63-.63h-1.26c0-.63-.65-.63-.65-1.25s0-.64,0-1.27a2.39,2.39,0,0,1,.62-1.91c.63-1.26,1.27-1.26,1.27-1.9.61,0,1.25,0,1.25-.64h1.27c.61,0,1.27,0,1.27.62.61,0,.63.63.63,1.26M233,368.53a.6.6,0,0,0-.61.64H231.1v-.63l.6-4.43v-.63c-.63,0-.65-.64-1.29-.63l0,.64a2.15,2.15,0,0,0-1.25.64,2,2,0,0,0-.63,1.27l-.62,3.8h-1.25l.6-4.42v-1.28a.63.63,0,0,1-.66-.62H226l-.62.64a2.1,2.1,0,0,0-.61,1.27c-.64.64-.64.64-.64,1.28a2.23,2.23,0,0,0-.61,1.89v1.27h-1.26l.59-5.06v-.63h-.65c0-.63,0-.63.63-.63a.63.63,0,0,1,.64-.64l.63.63v1.89a2.37,2.37,0,0,1,.62-1.9,2.31,2.31,0,0,1,1.9-.64l.64,0,.63.64a1.91,1.91,0,0,1,.64,1.25c0-.63.63-.64.63-1.27a2.31,2.31,0,0,1,1.89-.65c.63,0,.63,0,1.27.63l.63.64v.62l0,.62-.61,3.18v.62ZM214.65,370c0,.63,0,.63-.59,1.27l-.66.63h-.63c.63-.64.63-.64,1.29-.64,0-.64.61-.64.59-1.27H214l-.64-.64v-.63l.63-.62c.63,0,.63,0,.63.61.64,0,.64,0,.64.64a.63.63,0,0,1-.64.64m-3.82-5.66a.63.63,0,0,1-.64-.64c-.63,0-.63,0-1.27,0s-1.25,0-1.25.64a3.8,3.8,0,0,0-.62,2.52v1.91H209l.63-.65c.64-.64.64-.64.62-1.28a2.27,2.27,0,0,0,.62-1.89Zm1.31,4.41c-.64.64-.64.64-1.28.64h-.63v-1.26a2.19,2.19,0,0,0-.64,1.26c-.61,0-1.25.64-1.88.66l-.64-.63c-.63,0-.63-.64-1.26-.63,0-.64,0-1.26,0-1.89,0,0,0-.64,0-1.27a.63.63,0,0,1,.65-.64c0-.64.62-1.27,1.23-1.91.63,0,.63-.64,1.27-.64h1.27a.59.59,0,0,0,.62.62h.65c0-.63,0-.63.62-.64V363c0,.64-.62,1.91-.62,2.54,0,0,0,.63,0,1.27l0,1.27a.62.62,0,0,1,.64.62m-7.6.05c-.62,0-.62.64-1.26.66h-.65v-.64l.6-4.43a110.93,110.93,0,0,0-1.25-1.26l-.64.65-.64.63a2,2,0,0,0-.61,1.26l-.62,3.81h-1.25l.6-4.43c0-.64,0-.64,0-1.26-.63,0-.63,0-.63-.63h-.62l-.65.64c-.64,0-.62.63-1.25,1.28,0,.63,0,.63-.62,1.27v1.9l0,1.25h-1.27l.62-5.07,0-.63h-.64c0-.63,0-.63.64-.63,0-.63,0-.63.63-.64v.63a.64.64,0,0,1,.64.63v.63a.61.61,0,0,0-.62.64c.62-.64.62-1.27,1.23-1.91a2.38,2.38,0,0,1,1.91-.65h.63l.64.64a2.16,2.16,0,0,0,.63,1.25c0-.62.63-.63.63-1.26a2.31,2.31,0,0,1,1.89-.65.62.62,0,0,1,.64.63c.63,0,.63,0,.63.63a.63.63,0,0,1,.66.62V365l-.62,3.17,0,.63Zm-12.67.11,0,.63h-.63a.64.64,0,0,1-1.27,0l.6-5.05v-.64H190v-.62l1.25-.65h.64v.63l-.58,5.06v.63Zm.58-8.23c0,.63,0,.63-.63.64a.6.6,0,0,1-.62.63l0-.63V360h.64a.62.62,0,0,1,.63.63m-2.5,3.18h-.63l-.64,0-.61.63-.64.64-1.23,4.44H185l1.21-5.07a.62.62,0,0,0-.64-.63v-.63a2.21,2.21,0,0,1,1.26-.64c0,.64,0,.64.63.64v.62c0,.63,0,.63-.61,1.27.63-.64.61-1.27,1.27-1.9a.6.6,0,0,0,.61-.63h.62l.65,0v1.26Zm-5.06,0h-1.25l-.63.63-.64.65-.61,4.43H180.5l.6-5.05v-.64h-.63v-.64c.63,0,.61-.63,1.25-.64a.62.62,0,0,0,.63.64l0,.62v1.27a2.35,2.35,0,0,1,.62-1.9.62.62,0,0,0,.63-.64h1.25v.64Zm-7.58,1.32a.62.62,0,0,0,.63-.63c0-.64,0-.64-.65-1.26h-.63c-.62,0-1.25.65-1.87,1.28s-.64,1.28-1.25,1.91a5.31,5.31,0,0,0,3.77-1.3m1.89-.64c-.62,1.27-1.26,1.27-1.87,1.92a29.82,29.82,0,0,1-3.15.65h-.64c0,.63,0,1.26.64,1.25.63.63.63.63,1.26.62h1.89c0-.63.63-.63,1.27-1.28v.64c-.62.63-.62,1.26-1.25,1.27s-1.25.64-1.89.65-.65-.62-1.26-.62h-.64c-.64-.63-.64-.63-.64-1.27-.65-.62-.65-.62-.65-1.25s.62-1.28.62-1.91c.63-1.27,1.25-1.28,1.88-1.91a.63.63,0,0,0,.64-.64h1.25a2.29,2.29,0,0,1,1.9.61,2.15,2.15,0,0,1,.64,1.26m-9.47,2.59c0-.62.63-.62.63-1.26a2.14,2.14,0,0,0-.65-1.26.62.62,0,0,0-.64-.63h-1.26a1.34,1.34,0,0,0-1.23,1.27,3.81,3.81,0,0,0-.64,2.54l0,.63.64.63h1.9c.61-.64,1.25-1.28,1.23-1.92M171,364c0,.63.64,1.26.64,1.89s-.62,1.27-1.26,1.91a1.66,1.66,0,0,1-1.86,1.91h-.64c0,.63,0,.63-.63.63l-.63-.62c-.62,0-.62,0-1.28-.63l-.63,1.27v-.64l1.21-8.86v-.62h-.63l0-.65c.63,0,.63,0,.63-.63.64,0,.64,0,1.25,0l0,.65-.59,4.42.63-.63a2.3,2.3,0,0,1,1.88-.65,2,2,0,0,1,1.27.63.61.61,0,0,1,.64.62m-8.24-.57-.57,5.07.61.62a.6.6,0,0,1-.61.64h-1.25l0-.63v-.63l0-.63c0,.63-.62,1.27-1.23,1.9a2.26,2.26,0,0,1-1.27.64c-.63,0-.63-.63-1.27-.61-.64-.65-.64-.65-.66-1.27v-.63l.62-3.17c0-.64,0-.64-.63-.62v-.64l1.25-.64a.61.61,0,0,1,.63.62l-.6,4.43c0,.64,0,.64,0,1.27H159a.6.6,0,0,0,.61-.63c.63,0,.63-.64,1.25-1.28l.61-3.8.62-.64h.63Zm-13.9,1.37-.64-.62h-.64a2.32,2.32,0,0,0-1.86.66,3.73,3.73,0,0,0-.64,2.52l0,.64v.63l.64.62H147a.62.62,0,0,0,.63-.63l1.25-1.28c0-.63,0-1.26,0-1.89Zm1.3,4.42c0,.64-.61.64-1.25.64a.61.61,0,0,1-.63-.62l.61-.64c-.63,0-.61.64-1.25,1.28a2.23,2.23,0,0,0-1.27.64c-.63,0-.63-.64-1.25-.63a.63.63,0,0,1-.65-.62,2.32,2.32,0,0,1-.63-1.9s0-.62,0-1.27l.63-.64c0-.62.62-1.26,1.25-1.9.63,0,1.25-.63,1.88-.65h.64c.64.63.64.63,1.27.63l.64-.65v.64c0,.63,0,1.9,0,2.52-.63,0-.63.64-.61,1.28v1.26c.61,0,.61,0,.63.63m-6.34-5h-.64c-.65,0-.65,0-1.27.64v.64l-1.21,4.44H140l-.61,0,.57-5.08v-.63h-.63v-.62c.63,0,.63-.64,1.27-.65l.64.63v1.89a2.31,2.31,0,0,1,.63-1.89c.62,0,.62,0,.62-.64h1.27v.63Zm-5.09,0h-.61c-.63,0-.63,0-.63.64-.64,0-.64,0-.64.64l-1.23,4.44h-1.27l.59-5.07v-.63h-.63v-.63c.63,0,.63-.63,1.27-.65h.62l0,.64v1.89c0-.63.63-1.27.63-1.9.62,0,.62,0,.62-.64h1.26v1.26Zm-7.56,1.32a.6.6,0,0,0,.62-.63c0-.63,0-.63-.64-1.26h-.63c-.63,0-1.25.65-1.88,1.28a2.24,2.24,0,0,0-.62,1.9,4.85,4.85,0,0,0,3.15-1.29m1.89-.64c-.64,1.27-1.25,1.27-1.89,1.92a26.47,26.47,0,0,1-3.15.64h-.64a2.19,2.19,0,0,0,.64,1.27,1.94,1.94,0,0,0,1.27.62h1.9l1.25-1.27h.64l0,.63h-.64a1.38,1.38,0,0,1-1.27,1.28c-.61,0-1.25.65-1.88.65s-.65-.63-1.27-.62h-.63c-.64-.63-.64-.63-.64-1.25s-.66-.65-.66-1.27.64-1.27,1.25-1.9c0-1.27.62-1.27,1.26-1.92.63,0,.63,0,1.27-.64h1.24a1.93,1.93,0,0,1,1.27.63c.64,0,.64.63.66,1.26m-7-1.21h0v.63l-1.9,0-.6,4.42v.64h.64l1.27-.65v.65c-.64,0-1.25.62-2.52.64h-.64l.6-5.71h-.64v-.63l1.25-.64v-.64l.64-1.27h.61l-.61,2.54Z"/><path class="cls-1" d="M297.46,363.61a.62.62,0,0,0-.63-.63h-.64a2.38,2.38,0,0,0-1.88.66c0,.63-.62,1.9-.62,2.53l0,.64v.63a.62.62,0,0,1,.64.62h1.9a.6.6,0,0,1,.62-.64c0-.63.63-.64.63-1.28s0-1.26,0-1.89Zm2,4.41a2,2,0,0,1-1.27.64h-.64V367.4s-.63.63-1.25,1.27a2.19,2.19,0,0,1-1.27.64c-.63,0-.63-.61-1.27-.61l-.63-.63c0-.62-.66-1.26-.66-1.89a2.13,2.13,0,0,0,.62-1.27v-.63c.63-.64.63-1.28,1.27-1.91.61,0,1.25-.65,1.88-.65h1.27a.6.6,0,0,0,.64.62h.63l0-.64c.64,0,.64,0,.66.64a3.77,3.77,0,0,0-.64,2.53s0,.63,0,1.27l0,1.26Zm-7-5.64h0a.61.61,0,0,1-.61.64l-1.29,0-.6,4.42v.63h.66l1.25-.64v.64c-.64,0-1.25.65-2.5.65h-.66l.6-5.71h-.64v-.63l1.25-.65v-.62l.62-1.27.63,0-.61,2.54Zm-3.79.67h-1.27l-.63.64-.62.63-1.23,4.44h-1.27l1.23-5.07v-.63h-.65v-.63a2.24,2.24,0,0,1,1.27-.65c0,.65,0,.65.63.63l0,.64v1.26a2.37,2.37,0,0,1,.62-1.9.61.61,0,0,0,.61-.64h1.29v1.27ZM281,364.37a.62.62,0,0,0,.62-.63c0-.64-.62-.63-.64-1.27h-.63c-.64,0-1.25.65-1.89,1.29s-.61,1.26-1.25,1.91a9.13,9.13,0,0,0,3.79-1.3m1.89-.64c-.62,1.26-1.25,1.27-1.89,1.9-1.25,0-1.88.65-3.13.66h-.66c0,.62,0,1.27.66,1.26.63.62.63.62,1.27.62l1.88,0c0-.63.64-.63,1.27-1.27v.63l-1.27,1.28c-.61,0-1.25.64-1.88.64s-.62-.63-1.27-.63h-.62c-.65-.61-.65-.61-1.29-1.25v-1.26c0-.63.62-1.27.62-1.91.61-1.26,1.25-1.27,1.88-1.9a.62.62,0,0,0,.62-.64h1.27a2.26,2.26,0,0,1,1.88.63,2.3,2.3,0,0,1,.66,1.26m-7.58.68a4.65,4.65,0,0,1-1.25,3.17c-.62,1.28-1.87,1.29-3.16,1.3h-1.25v-.64h2.52s.64-.64,1.25-1.27c0-.63.64-1.27.64-1.91s-.64-1.25-.66-1.89h-1.27l-.61,0a.61.61,0,0,0-.64.62.64.64,0,0,0-.63.65l-1.21,6.33v.63h.63V372l-2.52,0s-.63-.64,0-.64a.62.62,0,0,1,.64-.63l1.21-7a.61.61,0,0,0-.64-.62h-.63a.62.62,0,0,1,.61-.64.62.62,0,0,0,.64-.64h.63c.64,0,.64,0,.64.64v.62l-.62.64c.62-.64.62-.64,1.25-1.26a2.31,2.31,0,0,1,1.89-.67c.65,0,1.29.63,1.92,1.25a2.19,2.19,0,0,1,.64,1.26m-10.12-.55a.61.61,0,0,0-.64-.62H264a2.38,2.38,0,0,0-1.91.65,3.88,3.88,0,0,0-.59,2.52v1.28a.61.61,0,0,1,.63.62h1.27c.64,0,.64-.63,1.27-.64,0-.63,0-.63.62-1.26,0-.64,0-1.27,0-1.91Zm1.94,4.42a2,2,0,0,1-1.27.64h-.63v-.64l0-.63c-.62,0-.62.63-1.25,1.27-.64,0-.64.65-1.25.65s-.64-.62-1.27-.62l-.64-.63a2.33,2.33,0,0,1-.65-1.89s0-.63,0-1.27a.62.62,0,0,0,.63-.63c.64-.64.62-1.28,1.25-1.91.64,0,1.25-.64,1.91-.65h.61c.66.63.66.63,1.27.62l.64-.65v.65c0,.62,0,1.88,0,2.52a2.25,2.25,0,0,0-.62,1.27v1.26c.64,0,.64,0,.66.64Zm-12.06-5v.63h-.64l-.63,0v-.64c0-.64-.64-.63-1.27-.62a.62.62,0,0,0-.64.63.61.61,0,0,0-.61.64.62.62,0,0,0,.63.63,223.3,223.3,0,0,1,2.54,1.25v.63c.64,0,.64,0,.64.62a2.21,2.21,0,0,1-.62,1.27,1.92,1.92,0,0,1-1.25.64H252l-1.27,0c-.63,0-.63-.64-1.27-1.26a.62.62,0,0,1,.62-.64h.63l.66.62a.62.62,0,0,0,.63.63h1.25c0-.63.64-.64.62-1.27-.62,0-.62,0-.64-.62l-1.9-.62-.62-.63c0-.64,0-.64,0-1.27l0-.63a.62.62,0,0,1,.64-.63,2.38,2.38,0,0,1,1.9-.66,2,2,0,0,1,1.27.63.64.64,0,0,1,.64.63"/><path class="cls-1" d="M274.16,377.07l-2.5,1.92H271l1.25-1.91Zm.72,8.22v.64h-1.27v-1.25l0-.65c-.64.65-1.25,1.29-1.25,1.29a2.3,2.3,0,0,1-1.89.64h-1.27c0-.64-.63-.63-.63-1.26l0-3.8v-.63h-.64v-.63h1.89l0,.63v.63l0,3.16c0,.64,0,.64.63,1.27h.66s.61-.64,1.25-1.28,1.25-1.28,1.25-1.28l0-2.53H272.3v-.63h1.9v.64l0,4.42v.63Zm-8.28-5.63,0,.63v.63l0,5.07c0,1.26,0,1.9-.61,2.52a2.29,2.29,0,0,1-1.28.65c0-.63.64-.64.64-1.27,0,0,0-.63,0-1.26l0-6.32h-.63v-.63l1.25,0Zm0-1.9v.63L266,379a.62.62,0,0,1-.64-.63v-.64h1.25Zm-5.06-.58L259,379.09h-.63l1.27-1.9Zm-1.21,8.23,0,.61-2.54,0v-.63h.64v-.65l0-3.78c0-.65,0-.65-.64-.63v-.64h1.91V381l0,3.79v.63Zm-3.83-5.68V381l.06,5.06c0,1.28-.62,1.91-.62,2.54-.63,0-.63.64-1.27.64l-.61,0c.61-.65.61-.65.61-1.28.64,0,.62-.64.62-1.27l-.06-6.32H254l.62-.64h.63Zm0-1.88v.63a.62.62,0,0,0-.63.64h-.64a.62.62,0,0,1-.63-.63v-.64h1.9Zm-5.71-.6-1.87,1.92h-.63l1.23-1.92Zm-.56,8.23-.63.64-2.53,0,.62-.64a.63.63,0,0,0,.64-.64l0-3.8c0-.63,0-.63-.64-.62H247l.63-.63h1.89l0,.62v.63l0,3.81v.63Zm-3.81,0h0l0,.63-2.54,0v-.62l.63,0,0-4.43c0-.62,0-.62-.64-.62a2,2,0,0,0-1.27.64c-.61.63-.61,1.27-1.25,1.91l0,1.9v.64l.66,0v.64l-2.54,0v-.63h.63v-.64l-.06-7v-.63h-.63l0-.63h1.9v.63l0,4.43c.64-.63,1.25-1.29,1.89-1.92h1.25c.63,0,1.27,0,1.29,1.26l0,4.42Zm-7.58-.57c-.63.64-1.27.64-1.27,1.27l-1.88,0a2.32,2.32,0,0,1-1.91-.64c-.63-.62-.65-1.26-.65-2.52s0-1.9.61-2.54,1.27-.63,2.52-.64h1.91v1.26h-.62l0-.62h-1.27a2.3,2.3,0,0,0-1.88.65s0,.63,0,1.26c0,1.27,0,1.89,0,2.54.62,0,.62.62,1.91.61a.62.62,0,0,0,.62-.64c.63,0,.63,0,1.25-.64Zm-10.75.71c0,.63,0,1.27,0,1.9-.63,0-.63.64-1.25,1.27l-.63-.62c.63-.64,1.25-1.27,1.25-1.92h-.64c-.63,0-.63,0-.63-.62l.62-.64h.63c.64,0,.64,0,.64.62m-4.45-2.49-1.9,0c-.62,0-.62,0-1.26.64v.63l0,.63a.62.62,0,0,0,.64.63c.62,0,1.25-.64,1.89-.64a2.36,2.36,0,0,0,.61-1.91m1.93,2.51v.63h-1.28a.62.62,0,0,1-.63-.62v-.62c0,.62-.63.63-1.25,1.25l-1.27,0c-.64,0-1.27,0-1.27-.62-.64,0-.64-.63-.65-1.27a2.36,2.36,0,0,1,.63-1.91,6.46,6.46,0,0,1,1.89-.64h1.88v-1.28c-.63,0-.63,0-1.27,0h-1.88l-.64.64V380l2.52,0,1.91,0c0,.64.63.63.65,1.27l0,3.17v1.26Zm-7.6.06v.64h-2.53v-.63H216v-.65l0-3.78c0-.63,0-.63-.63-.63h-.64L213.5,382l-.63.63,0,2.53a.62.62,0,0,0,.63.64h.64v.63l-3.16,0v-.64h1.25l0-4.43-.63-.61c-.64,0-1.27,0-1.27.63-.62.64-1.26.65-1.26,1.27l0,2.54v.63h.64v.62l-2.52,0v-.63h.63l0-.63,0-3.79v-.64h-.64v-.64h1.9v.64l0,1.26c.62-1.27,1.26-1.27,1.23-1.9.64,0,.64,0,1.28,0h1.25s0,.62,0,1.25l0,.63c.63-.63,1.25-1.27,1.25-1.9H216l1.27,0c0,.64,0,.64,0,1.27l0,3.79c0,.65,0,.65.64.63m-13.3-2.42-1.9,0c-.62,0-1.26,0-1.26.63-.63,0-.63,0-.63.63s0,.64.63.64c0,.63,0,.63.64.62s1.27-.64,1.9-.64c0-.63.62-1.27.62-1.9m1.29,2.52v.63l-1.27,0v-1.27c-.64.64-.64.64-1.25,1.27h-1.27a2.31,2.31,0,0,1-1.91-.62s0-.64,0-1.27v-1.89c.62,0,1.25-.64,2.53-.65l1.9,0c0-.62,0-.62-.65-1.25h-3.16l-.64.64v-1.27h5.07v1.25l0,3.16c0,.65,0,.65.63,1.27m-6.33,0c-.64,0-.64.65-1.27.65h-.61l-1.28,0a2.44,2.44,0,0,1-.65-1.9l0-3.8h-.63v-.64h.61l.64-1.27.61-.64,0,1.91,1.89,0,0,.62-1.89,0,0,3.79v1.27h1.27a.63.63,0,0,0,.63-.64Zm-5.08-2.48H192l-1.25,0,0-1.27,3.79,0Zm-6.33,0c0-1.9-.65-2.52-1.93-2.51-.61,0-1.25,0-1.25.63-.63,0-.61.65-.61,1.91a2.37,2.37,0,0,0,.65,1.9c0,.63.64.63,1.27.62s1.25,0,1.25-.65a2.22,2.22,0,0,0,.62-1.9m1.27,0c0,1.26,0,1.9-.62,2.53s-1.25.64-2.52.65-1.9,0-2.54-.61-.63-1.27-.63-2.53,0-1.9.6-2.53,1.26-.65,2.51-.65,1.91,0,2.55.61.65,1.26.65,2.53m-6.94,1.31v1.9l-6.32,0v-.62h.64v-.62l-.06-6.34h-.63v-.64h2.51l0,.63H178l.08,6.33.61.62H180c.64,0,1.27,0,1.27-.64.64,0,.64,0,.62-.64Zm-10.74,1.36v.63h-1.27a.62.62,0,0,1-.64-.63v-.64l0-.63a1.33,1.33,0,0,1-1.25,1.27c0,.64-.61.65-1.24.65H166.1c-.64-.63-.64-.63-.64-1.27l0-3.79v-.63h-.63v-.62l1.27,0h.61l0,.62v.64l0,3.16v1.28l1.27,0s.61-.64,1.25-1.27a2,2,0,0,0,.61-1.27l0-2.54h-.63v-.63h1.91v5.07l0,.63Zm-8.89-2.47a2.29,2.29,0,0,0-2.54-2.5c-.63,0-.63,0-1.27.64a2.78,2.78,0,0,0-.62,1.89c0,.64.66,1.27.66,1.9.64.63.64.63,1.27.62,1.27,0,1.27,0,1.9-.65,0-.63.62-1.27.6-1.9m.65,0c0,1.27,0,1.9-.61,2.54s-1.27.64-2.54.64c-.62,0-1.88,0-1.91-.6a3.28,3.28,0,0,1-1.27-2.53,3.24,3.24,0,0,1,1.24-2.54c0-.63,1.27-.64,1.9-.66,1.27,0,1.9,0,2.52.63s.65,1.26.67,2.52m-8.23.69a.6.6,0,0,0-.64-.61c-.63-.62-1.27-.62-2.53-.62h-.64l0,2.54v.63h1.25a2.29,2.29,0,0,0,1.9-.65c.64,0,.64-.64.62-1.28m-.66-3.78-.63-.62c-.63,0-.65-.63-1.27-.63a2.23,2.23,0,0,0-1.27.64l0,.63v1.91c1.27,0,1.9-.65,2.54-.65.61-.64.61-.64.61-1.28m1.93,3.78c0,1.27-.62,1.27-.62,1.9-.63.64-1.88.66-3.79.67h-2.54v-.63h.64l-.06-6.32v-.62h-.63v-.64h3.15c1.27,0,1.9.63,2.54.61,0,.63,0,.63,0,1.27v1.26c-.64.63-.64.63-1.25.63h.61c.66,0,.66,0,1.27.63a2.17,2.17,0,0,1,.66,1.26"/><polygon class="cls-2" points="157.24 387.47 162.86 378.57 163.5 379.19 158.51 388.1 157.24 387.47"/><polygon class="cls-3" points="207.88 67.67 206.03 72.12 204.78 74.65 204.17 77.83 203.57 81.63 202.96 85.43 202.38 90.5 200.46 88.6 199.88 95.57 199.92 100.62 200.65 111.38 213.93 111.28 211.85 89.14 210.59 91.06 210.56 86.63 209.94 87.27 208.75 74.86 208.07 71.69 207.88 67.67"/><polygon class="cls-8" points="207.88 67.67 207.61 111.95 213.93 111.91 211.87 89.78 210.59 91.06 210.56 87.27 209.94 87.89 209.21 75.26 208.58 72.09 207.88 67.67"/><polygon class="cls-9" points="176.52 181.77 176.52 183.02 175.93 185.57 175.93 188.1 176.6 190.62 177.25 193.15 177.25 194.41 177.88 194.4 178.5 193.77 179.75 191.86 180.39 190.59 181 188.68 180.96 185.53 180.33 183.63 179.68 181.74 179.04 181.12 177.77 181.12 177.16 181.12 176.52 181.77"/><polygon class="cls-9" points="184.08 177.91 183.47 179.81 182.83 181.09 182.22 182.36 182.24 184.88 182.25 187.42 182.27 188.68 182.91 189.94 184.18 191.82 185.47 193.08 185.49 194.35 186.1 194.34 186.74 193.7 187.35 192.44 188.6 190.53 189.87 188.62 189.85 187.35 189.84 186.08 189.18 184.19 188.55 182.31 187.26 180.42 186.63 179.79 185.99 178.53 185.35 177.9 184.7 177.91 184.08 177.91"/><polygon class="cls-9" points="188.45 170.92 186.6 174.73 186.6 175.99 186.6 177.26 189.79 181.67 190.45 183.55 190.45 184.81 191.1 185.45 191.72 185.44 192.36 184.81 192.97 182.91 194.22 179.09 194.2 177.83 194.18 175.94 192.91 175.32 190.99 172.8 189.72 170.91 189.09 170.28 188.45 170.92"/><polygon class="cls-9" points="182.64 156.42 183.29 157.68 184.57 158.94 186.49 163.35 187.12 163.98 187.78 164.6 189.03 163.96 189.66 163.31 191.53 159.52 192.15 157.61 192.13 155.08 192.09 151.28 191.45 150.03 190.82 149.41 189.54 149.41 188.29 149.42 187.03 150.7 184.51 152.61 183.25 153.89 182.64 155.78 182.64 156.42"/><polygon class="cls-9" points="189.68 165.21 189.05 166.49 189.07 167.75 189.07 169.01 189.7 169.64 192.87 172.15 193.53 174.04 194.18 174.67 194.82 174.67 195.43 174.66 196.07 174.03 197.28 168.96 197.28 167.06 197.26 165.79 196.63 164.53 194.71 161.38 194.07 160.12 192.8 159.5 189.68 165.21"/><polygon class="cls-9" points="197.94 170.84 197.34 174.02 196.72 176.55 196.09 177.19 196.11 178.44 196.74 179.08 201.21 184.74 202.48 184.72 206.21 178.37 206.21 177.1 206.21 176.47 205.57 175.85 204.92 175.23 202.38 172.08 199.82 169.56 199.19 169.58 198.57 170.21 197.94 170.84"/><polygon class="cls-9" points="207.5 179.63 206.86 180.26 206.23 180.27 205.61 182.17 204.36 183.44 202.49 186.63 202.51 187.89 202.51 189.16 203.15 190.41 205.07 194.2 205.73 195.45 205.73 196.08 206.37 196.08 206.98 195.44 208.25 194.17 210.73 189.08 210.73 187.82 210.71 186.56 208.13 180.89 207.5 180.26 207.5 179.63"/><polygon class="cls-9" points="187.03 149.44 187.64 148.16 188.89 146.25 190.78 144.96 197.72 142.39 195.22 146.2 193.34 147.49 191.44 148.13 189.55 148.14 188.28 148.78 187.03 149.44"/><polygon class="cls-9" points="195.32 158.22 195.95 160.11 197.25 163.27 197.9 165.16 198.53 165.78 199.8 165.78 200.42 164.5 201.05 163.23 201.67 161.96 202.92 160.7 204.83 159.41 205.42 158.13 205.42 157.5 205.42 156.24 204.78 155.61 204.13 154.35 202.86 153.09 202.22 151.84 201.57 151.85 200.94 151.22 199.69 151.85 199.05 152.5 198.44 153.14 195.94 156.31 195.3 157.59 195.32 158.22"/><polygon class="cls-9" points="206.07 160.03 204.19 161.94 202.94 163.21 201.7 165.76 201.05 166.4 201.07 167.66 201.73 168.92 203.63 170.8 205.56 174.58 206.19 174.57 206.82 174.57 207.46 174.56 209.96 170.13 211.21 168.21 211.83 166.94 211.83 166.31 209.26 163.18 208.62 160.01 207.98 160.02 207.32 159.4 206.71 159.4 206.07 160.03"/><polygon class="cls-9" points="207.88 147.37 206.61 148.01 205.36 148.65 204.09 149.93 203.47 150.56 203.47 151.19 204.11 151.83 204.77 153.09 205.4 154.34 206.06 155.6 206.69 156.87 207.33 156.87 207.94 156.23 208.58 154.95 209.83 153.68 211.09 152.4 211.71 151.77 211.69 150.51 211.69 149.86 210.42 148.62 209.79 147.97 208.5 147.36 207.88 147.37"/><polygon class="cls-9" points="212.35 153.02 209.84 156.21 208.59 157.48 208.59 158.75 208.61 159.38 209.25 160 211.18 163.79 211.81 165.05 212.46 165.67 213.07 165.66 213.71 165.03 216.19 159.32 216.83 158.05 216.17 157.42 213.62 153.65 212.98 153.02 212.35 153.02"/><polygon class="cls-9" points="211.85 169.47 211.85 169.47 210.59 170.75 208.09 175.83 208.09 177.09 208.11 177.72 208.77 179 210.06 182.13 210.69 184.66 211.34 185.92 211.98 185.91 212.59 185.91 213.23 185.28 216.35 178.29 216.96 177.03 216.94 175.76 216.31 173.87 213.75 170.09 213.1 169.46 212.48 169.46 211.85 169.47"/><polygon class="cls-9" points="218.08 159.94 217.46 159.94 216.83 159.95 215.6 164.38 214.35 165.66 213.73 166.93 213.73 168.19 215.66 171.34 216.95 173.22 216.95 173.87 218.21 174.49 218.83 173.85 221.97 168.13 222.58 166.85 222.56 165.59 222.54 164.33 219.35 159.93 218.73 159.94 218.08 159.94"/><polygon class="cls-9" points="223.85 168.12 223.24 169.39 221.99 171.92 220.1 174.47 219.48 175.1 219.48 176.38 219.5 177.01 220.12 177.63 222.7 181.41 223.33 182.04 223.95 182.03 224.58 181.39 226.47 178.84 227.7 176.94 227.7 175.67 227.68 173.78 225.76 169.37 225.12 168.11 224.49 168.11 223.85 168.12"/><polygon class="cls-9" points="228.35 178.19 227.1 180.11 225.24 183.29 224.6 183.92 223.97 184.56 224.62 185.82 227.2 190.86 227.84 192.76 227.84 193.38 228.47 193.38 229.1 192.74 230.97 189.56 231.6 188.29 232.22 186.4 232.2 184.5 231.55 182.6 230.92 180.71 229.62 177.56 228.99 177.56 228.35 177.56 228.35 178.19"/><polygon class="cls-9" points="222.47 151.68 219.97 156.13 219.33 157.41 219.33 158.03 219.98 158.66 220.62 159.92 223.18 163.07 223.18 163.69 223.81 163.69 225.7 161.15 227.56 157.97 227.56 156.71 226.93 155.44 225.62 152.29 222.47 151.68"/><polygon class="cls-9" points="176.5 179.23 177.12 179.23 178.41 179.86 179.04 180.48 180.31 180.47 180.94 180.47 181.56 180.47 182.2 179.82 182.81 178.56 182.79 176.66 182.79 175.39 182.16 173.5 180.24 170.99 179.58 169.73 178.95 169.09 178.33 169.09 177.67 169.11 177.06 170.37 177.08 172.27 176.46 174.81 176.46 175.44 175.85 177.35 176.48 177.97 176.5 179.23"/><polygon class="cls-9" points="182.04 158.96 180.77 159.59 180.16 160.24 179.54 163.39 178.93 164.67 178.93 165.93 179.56 167.2 180.22 168.46 181.49 169.71 182.77 172.86 184.06 174.75 184.7 175.37 185.31 174.74 185.95 173.48 187.18 169.03 187.16 167.13 186.51 165.24 184.59 161.47 183.95 160.2 182.66 158.94 182.04 158.96"/><polygon class="cls-9" points="233.45 183.23 232.84 184.49 232.84 185.76 232.85 186.4 234.13 188.28 234.13 187.65 234.11 184.48 234.09 183.85 233.45 183.23"/><polygon class="cls-9" points="231.47 170.59 231.47 171.22 230.84 172.49 229.59 174.39 229.6 175.02 229.6 175.66 229.6 176.3 231.51 178.81 232.16 181.34 232.8 181.96 233.45 181.95 233.43 180.06 234.05 177.53 233.4 175.63 233.38 173.74 232.74 171.21 232.09 170.58 231.47 170.59"/><polygon class="cls-9" points="227.58 160.49 226.95 161.14 225.08 163.06 224.45 164.31 224.45 164.95 224.47 165.58 225.1 166.21 226.39 168.73 227.68 171.89 228.31 172.5 228.93 172.5 229.59 172.5 230.2 171.86 230.84 170.59 230.8 168.06 231.43 166.79 230.78 164.26 230.12 162.37 228.85 160.49 228.22 160.49 227.58 159.86 227.58 160.49"/><polygon class="cls-4" points="190.09 218.97 188.82 218.35 191.38 221.49 191.35 218.33 190.09 218.97"/><polygon class="cls-9" points="216.12 148.56 214.23 150.48 213.6 151.12 214.23 152.38 214.89 153 216.79 155.52 217.43 156.15 218.06 156.14 219.33 155.5 219.93 153.6 221.83 151.69 216.12 148.56"/><polygon class="cls-3" points="195.16 138.62 193.24 135.46 192.59 134.21 190.68 132.32 188.78 131.07 186.87 129.82 183.7 128.58 181.16 127.96 177.99 127.36 175.46 126.75 173.56 126.76 171.67 127.42 173.56 126.13 174.81 125.49 177.33 124.83 178.6 124.19 181.14 124.17 183.66 123.52 186.2 124.13 189.35 124.12 191.89 125.35 193.8 125.98 196.34 127.23 203.38 139.18 195.16 138.62"/><polygon class="cls-3" points="201.51 142.35 199.57 137.32 198.28 133.53 197.63 130.99 196.34 127.85 195.7 126.59 193.78 124.71 191.88 122.19 189.31 120.31 186.14 117.81 182.96 115.31 180.43 114.06 178.52 113.45 183.56 113.4 186.74 113.38 189.28 114.62 191.18 115.24 192.45 115.86 191.79 113.97 196.26 116.47 197.53 117.72 198.8 118.97 200.09 120.87 202 122.75 207.21 142.95 201.51 142.35"/><polygon class="cls-3" points="175.18 90.07 179 93.21 180.91 94.45 182.81 95.71 185.35 98.21 187.91 100.72 190.47 104.5 192.38 107.01 194.3 108.89 195.59 111.42 201.99 124 203.17 111.35 200.61 106.32 199.96 103.79 198.67 101.9 196.13 100.03 194.2 97.51 194.22 99.41 192.93 97.52 191.67 96.26 189.76 95.02 187.22 93.77 187.87 95.67 184.07 92.52 182.16 91.91 180.23 91.29 177.72 90.68 175.18 90.07"/><polygon class="cls-8" points="207.81 138.51 212.86 137.21 216 134.65 216.64 134.02 218.52 133.37 221.68 132.71 223.56 132.07 226.08 132.05 228.62 132.03 231.8 133.27 234.34 133.88 236.88 135.13 238.17 137.01 239.44 138.26 240.07 139.52 238.78 135.74 238.13 133.86 237.49 132.58 235.59 131.35 234.32 130.08 233.03 129.46 229.87 128.23 227.31 126.98 225.43 127 222.9 126.39 223.51 124.48 218.46 126.42 207.81 138.51"/><polygon class="cls-8" points="210.34 139.76 214.1 132.77 219.1 126.41 222.22 121.33 227.83 112.43 230.35 109.88 231.6 107.97 232.85 106.69 235.38 104.78 239.15 102.23 242.28 99.66 244.8 97.75 247.32 96.46 251.73 93.89 244.78 95.21 242.26 95.87 239.11 97.16 236.59 97.81 234.7 99.09 231.55 101.01 227.16 104.21 227.78 102.31 225.24 103.59 221.49 106.78 219.6 108.69 217.71 111.25 215.83 113.78 213.96 116.33 207.75 130.92 210.34 139.76"/><polygon class="cls-3" points="204.03 142.34 201.49 139.2 200.23 137.93 198.94 137.32 197.05 136.7 195.15 136.71 191.99 136.74 189.47 136.76 186.28 136.78 183.78 138.06 182.5 138.71 181.25 139.98 184.41 139.33 182.52 140.61 181.27 141.88 180 143.15 178.75 145.07 178.16 146.96 177.52 148.24 177.54 151.4 178.81 149.49 179.43 149.48 180.68 148.21 186.99 145.64 188.24 144.99 190.76 143.69 192.03 143.06 193.91 142.42 195.82 142.41 197.73 143.03 200.24 143.01 204.03 142.34"/><polygon class="cls-8" points="207.57 107.53 214.43 94.82 216.31 92.28 218.19 90.37 218.21 92.26 220.72 89.08 221.97 87.81 223.22 87.16 224.49 86.52 226.37 85.87 231.45 87.73 228.3 89.01 227.04 90.3 225.78 91.58 223.27 94.76 222.04 97.92 219.52 101.1 216.41 107.45 207.57 107.53"/><polygon class="cls-10" points="224.49 86.52 226.37 85.87 227.03 86.5 228.93 88.38 230.2 89.01 231.47 90.26 233.4 93.41 233.97 88.35 234.61 87.7 233.97 87.08 233.34 86.45 232.68 85.83 231.43 86.47 230.16 86.48 228.91 86.5 227.64 85.87 227.03 85.87 226.37 85.87 224.49 86.52"/><polygon class="cls-8" points="204.67 141.7 200.88 142.35 199.61 142.37 198.36 143.02 197.09 143.65 195.84 144.94 194.59 146.21 193.34 148.12 194.61 147.47 193.97 149.38 193.36 150.64 193.36 151.28 192.74 153.18 192.74 154.44 192.76 156.98 192.14 158.24 190.91 162.68 193.44 160.76 194.69 158.86 196.57 156.94 197.18 155.04 198.43 153.14 198.41 151.86 199.69 149.96 199.69 150.59 200.32 152.48 201.57 149.95 204.09 146.76 205.96 144.86 207.86 146.11 209.15 147.99 210.42 148.62 211.69 149.23 210.4 146.73 209.11 144.19 218.58 142.23 219.22 142.22 221.12 142.83 223.02 143.46 224.29 144.08 223.02 142.19 224.91 142.81 226.2 144.06 227.47 144.69 228.1 145.94 230.03 148.46 228.74 145.31 228.08 144.05 226.81 141.53 224.89 139.64 224.26 139.02 222.99 138.39 221.72 137.78 220.45 137.15 219.18 137.16 220.45 136.52 214.75 136.56 213.5 136.57 212.23 137.21 210.96 137.22 209.71 137.87 204.67 141.7"/><polygon class="cls-8" points="204.67 142.33 204.03 141.08 203.32 130.96 202.67 128.44 202.67 127.17 202 124.64 198.78 114.55 200.68 116.43 200.02 113.28 199.38 110.75 200.65 111.38 201.92 112 203.78 107.55 204.4 106.29 205.01 105.65 205.65 105.64 206.29 105.64 206.92 106.26 210.71 105.6 216.45 110.62 215.2 113.79 214.58 115.69 214.6 116.97 214 120.75 214.02 123.28 213.4 125.83 212.77 127.71 209.09 141.66 204.67 142.33"/><polygon class="cls-10" points="208.19 106.25 209.44 105.61 210.08 105.61 210.73 106.24 211.35 106.23 211.98 106.85 212.61 107.48 213.27 108.75 213.9 109.37 215.17 109.99 216.44 110.62 217.08 111.88 218.37 112.5 219 114.39 219.66 115.66 220.27 114.38 220.25 112.49 220.23 110.59 220.23 108.69 220.22 107.42 220.2 105.53 220.2 104.9 219.56 103.64 218.91 103.02 218.29 103.02 217.66 103.02 217.02 103.03 216.39 103.67 214.5 104.94 213.88 104.94 212.61 104.95 211.98 104.96 210.71 104.97 208.82 105.62 208.19 106.25"/><polygon class="cls-8" points="204.03 142.34 205.3 141.69 207.19 141.04 207.21 142.31 209.09 141.03 211 141.01 212.88 140.38 215.41 140.36 216.67 140.34 218.58 140.33 216.67 141.62 217.94 142.23 219.22 142.85 220.48 143.47 221.14 144.72 221.79 146.63 222.43 147.89 223.06 148.51 224.35 149.78 225.62 150.4 226.89 151.65 229.43 152.9 222.47 152.31 220.56 151.7 218.66 151.08 216.75 150.46 216.12 149.2 213.56 146.7 211.63 144.81 210.38 144.18 207.21 143.58 206.6 143.59 204.69 142.97 204.03 142.34"/><polygon class="cls-8" points="425.18 193.12 350.55 193.69 353.11 196.84 425.2 195.65 425.18 193.12"/><rect class="cls-11" x="338.48" y="184.6" width="86.64" height="4.41" transform="translate(-1.44 2.97) rotate(-0.45)"/><path class="cls-5" d="M209.4,180.25a4.42,4.42,0,1,0,.06,8.84c2.54,0,3.79-1.92,3.77-4.44s-1.3-4.42-3.83-4.4"/><path class="cls-5" d="M157.53,180.65a4.43,4.43,0,1,0,.08,8.85c1.88,0,3.77-1.93,3.75-4.45s-1.92-4.42-3.83-4.4"/><path class="cls-5" d="M185.39,184.86c-1.25,1.28-3.79,0-5.06-1.86-1.29-3.78-5.79-12-2.6-8.2,2.56,4.41,5.09,3.76,7,6.26a3,3,0,0,1,.65,3.8"/><path class="cls-8" d="M214.19,227c35.71-43.28,104-49.51,124.91-42.08l12.12,13.19c-5.08-1.85-74.09-11.45-121.79,38.25-13.2,9-29,9.09-44.25.36C150.72,199,100.72,193.1,64.08,201L76,186.34c25.88-7.16,86-5.09,124.3,40.78,5.07,2.5,9.49,4.35,13.9-.11"/><path class="cls-7" d="M42.79,383.2c-2-2.62-27.78-2.45-42.5,18.13-3.81,5.32,31.45,30.61,31.45,45.17,0-20.58,17.29-26.18,18.07-24.26-6.53-16.06,7.79-27.53-7-39"/><rect class="cls-12" x="11.09" y="252.01" width="403.33" height="93.97" transform="translate(-2.33 1.67) rotate(-0.45)"/><path class="cls-8" d="M200.57,264.43c-2.54.66-3.79,1.93-3.75,5.09l.46,61.34c0,.64-.61,1.28-1.88,1.3h-3.79l-.64,0h-1.88l-1.27.65c-1.28,0-2.54,0-3.18-.61S184,331.6,184,331l0-1.89,0-4.43c0-2.53-.66-3.8-1.29-4.42,0-.63-.66-1.26-1.29-2.53L177.54,314l-43.29-38.26.31,42.39c0,1.89,0,3.15.67,3.78a10.68,10.68,0,0,0,3.81,1.87l1.91.62,1.26,1.26c.64,0,1.28,1.25,1.3,2.52l-1.25,2.53c0,1.27-2.51,1.92-6.32,1.95l-17.7.13a13.85,13.85,0,0,1-5.08-.58c-1.9-1.25-2.54-2.52-2.54-3.78a3.45,3.45,0,0,1,1.87-3.18l3.16-1.3c2.53-.64,3.77-2.55,3.75-5.71L119,267.6c0-1.27,0-1.91-1.26-1.89l-3.18-1.24L112,263.22a3.79,3.79,0,0,1-.65-2.52c0-2.53.59-3.8,3.12-4.45l4.44,0,19.6-.15c2.52,0,4.43.59,5.7,1.85L184.35,293l-.19-23.4a6.44,6.44,0,0,0-.65-2.53l-1.28-1.88-2.53-.61-3.18-1.88c-1.27-.62-1.91-1.24-1.92-2.51,0-1.9.62-2.55,2.5-3.82a17.37,17.37,0,0,1,5.7-.68l15.79-.12c5.06,0,7.6,1.21,7.62,4.38,0,1.89-1.85,3.17-5.64,4.46"/><path class="cls-8" d="M279.69,271.41c-2.56-2.51-5.1-5-8.3-6.26-3.79-1.24-7-2.48-10.14-2.46-6.31.05-8.83,2-8.81,5.77l.19,24c0,3.79,2,5.67,7,5.63h1.26l1.25,0q12.34-.09,18.93-7.73c1.89-2.55,2.48-5.08,2.46-8.88a15.6,15.6,0,0,0-3.86-10.08m13.52,33.41c-3.15.66-6.94,1.32-10.73,2l-8.22.7-4.42,0h-1.91l-8.22.07-5.67,0c-1.27.64-1.25,2.54-1.23,4.43v1.27l0,1.26,0,1.27c0,1.9.63,2.52.63,3.15a13.5,13.5,0,0,0,3.18,1.88l2.54.62,1.28,1.24a2.55,2.55,0,0,1,1.27,2.53c0,1.89-.61,3.16-2.5,3.81-1.27.65-3.15.66-5.06.68l-25.28.2a18.64,18.64,0,0,1-5.71-1.23c-1.27-.62-2.54-1.88-2.56-3.15a3.48,3.48,0,0,1,1.88-3.17l3.79-1.29a4.84,4.84,0,0,0,3.76-5.09l-.39-48.71c0-.62,0-.62-.63-1.25,0-1.27,0-1.27,0-1.89L227.76,263l-2.54-.62-3.81-1.87a3.23,3.23,0,0,1-1.29-2.52,4.28,4.28,0,0,1,2.5-3.81,17.33,17.33,0,0,1,5.7-.67l22.14-.16,11.37-.11,5.06,0,5.69,1.21,6.34,1.23,7,1.84,5.69,2.48A37.57,37.57,0,0,1,305,271.21a26.47,26.47,0,0,1,3.9,13.26c.08,9.49-4.94,16.47-15.66,20.35"/><path class="cls-8" d="M355.74,293v-1.26l-8.37-18.28c-.63-.62-1.27-1.25-1.9-1.25s-1.27.65-1.89,1.29l-9.33,20.94c0,1.88.65,2.52,1.92,2.51l3.16.62,3.15,0,2.54,0c7.58,0,11.37-1.35,11.36-3.25Zm43.91,32.55a5.68,5.68,0,0,1-5.06,2.57l-32.88-.37c-.64,0-1.27-.63-2.54-1.25l-.66-1.89c0-1.9,1.25-3.18,3.14-3.82l2.52-1.29c1.27-.64,1.27-1.27,1.27-1.9,0-1.28,0-3.17-1.31-4.43l-1.29-2.52-1.92-1.87c-1.89-1.25-4.45-1.86-8.22-1.84l-15.2.12c-6.94.05-10.73,1.34-12,4.51l-1.25,1.92L323,316l0,1.9a2.36,2.36,0,0,0,.64,1.89l2.54,1.24,1.27.63,1.9,1.25a2.65,2.65,0,0,1,.66,1.88,3.39,3.39,0,0,1-1.87,2.54,5.3,5.3,0,0,1-3.79,1.3l-22.78.18c-1.25,0-3.16-.6-3.81-1.86a3.41,3.41,0,0,1-1.92-2.53c0-2.51,1.88-3.8,5.67-5.1,1.89,0,3.16-.64,3.77-1.92l2.5-2.54,2.51-4.46L342.14,252a6.43,6.43,0,0,1,2.52-.65l2.54,0,1.9,0,3.79,0h1.91l2.52,0a4.88,4.88,0,0,1,3.17,1.24c.64,0,1.27,1.25,1.91,2.51l25.76,58,2.54,3.78a11.79,11.79,0,0,0,3.19,2.51h.64l1.25,0,.65.63a3.39,3.39,0,0,1,2.54,1.24,10.49,10.49,0,0,1,1.27,3.16Z"/><path class="cls-8" d="M101.26,262.67l-3.78,1.93c-1.9.65-2.51,1.29-3.17,1.29-.62.64-.59,1.91-.59,3.16V271l3.48,38.55a18.39,18.39,0,0,1-1.81,11.4c-1.25,3.8-5,7-10.68,9.56-6.29,3.22-13.89,4.53-22.76,4l-10.1.08a26.67,26.67,0,0,1-3.18-.61l-1.89,0-5.71-1.23a36,36,0,0,1-7.6-2.46,27.1,27.1,0,0,1-7.64-5c-.63-.64-1.26-1.9-2.53-3.16a64.09,64.09,0,0,1-2.62-8.83c0-1.26-.66-2.53,0-3.79l.58-8.22,0-3.17.61-3.8,3-24.69c0-.63,0-1.26,0-1.9-.64-1.26-1.91-1.87-3.81-2.5-3.18-1.24-5.08-2.49-5.1-4.39,0-1.27,0-1.89,1.25-2.53a4.64,4.64,0,0,1,3.79-1.3l29.73-.23A4.62,4.62,0,0,1,54.41,258c1.27.61,2.55,1.24,2.55,2.52,0,1.88-1.25,3.16-3.77,3.81l-2.52.66-1.88.64c-.63.64-1.27.64-1.25,1.9l-.62,3.17-.59,3.8-.6,6.33L44.65,303l0,3.79a30.94,30.94,0,0,0,.69,7.58c2,6.94,7.68,10.06,18.44,10a17.84,17.84,0,0,0,5.67-.68l3.79-1.3,3.16-1.28c2.52-.66,4.39-2.57,6.27-5.75a31.66,31.66,0,0,0,1.19-7v-4.43l0-2.52-2.77-31-1.3-3.78c-.64-1.27-2.55-2.51-5.07-3.13-2.55-1.25-3.19-2.51-3.19-3.76,0-.64.62-1.28,1.23-2.54a6.91,6.91,0,0,1,3.16-.66l20.87-.16c3.81,0,5.7,1.22,5.74,3.74a5,5,0,0,1-1.25,2.54"/><path class="cls-5" d="M52.52,176.4c-8.85,1.34-10.08,5.78-8.77,10.82,3.19,5.05,7.62,5.63,13.27.53,2.5-3.17,6.93-3.84,11.38-2.62-2.58-6.31-7.66-9.42-15.88-8.73"/><path class="cls-5" d="M39.46,205c-6.85,14-2.37,20.9,7.15,25.25,10.1-.08,15.76-5.82,15-19.72-2.58-6.94,1.79-13.31,8.06-19.67-11.41-2.44-21.49,2.07-30.24,14.14"/></g></g></svg>