<svg xmlns="http://www.w3.org/2000/svg" viewBox="0 0 425.2 424.61"><defs><style>.cls-1{fill:#2b2824;}.cls-2{fill:#484745;}.cls-3{fill:#f9f8f8;}.cls-4{fill:#403e3c;}.cls-5{fill:#52514f;}.cls-6{fill:#5e5d5b;}.cls-7{fill:#af3718;}.cls-8{fill:#624034;}.cls-9{fill:#0d5d8a;}.cls-10{fill:#7d7e29;}.cls-11{fill:#c9c768;}.cls-12{fill:#6f6e6d;}.cls-13{fill:#999795;}.cls-14{fill:#f0efee;}.cls-15{fill:#fefefe;}</style></defs><title>Recurso 4</title><g id="Capa_2" data-name="Capa 2"><g id="Layer_1" data-name="Layer 1"><path class="cls-1" d="M107.93,116c.15-.78.3-1.57.46-2.35l.29-1.3c3-14.15,15.53-25.3,30.69-27.47a52,52,0,0,1,14,.13c-1-4.44-1.38-8.52-3.54-12.54-3.4-6.34,2.82-14.51,10.49-14.21,4.36.17,7.07-4,11.33-3.5.13,0,.44-.57.48-.9.48-4.43,3.51-7.16,6.55-9.88,2-1.76,2.13-4,2-6.42-.17-3.51,1.8-6.19,4.59-6.33,4.93-.24,8.42,2.25,8.21,6.2-.25,4.5.21,8.36,4.52,11.1,2.33,1.48,3.26,4.27,3.42,7.08.07,1.22,0,2.15,1.69,2s3.22,0,3.82,2c.2.65.8.81,1.49.45s1.79-.45,2,.23c1,3.43,5.73,4.12,5.54,8.67-.12,2.69,1.55,5.38.39,8.38a16.21,16.21,0,0,1-3.76,5.51c-.57.58-1.63.74-1.25,1.88.52,1.59,1.59.57,2.4.42,14.22-2.69,26.92.19,37.3,10.65,7.81,7.89,10.41,17.83,10.4,28.67,0,1.84-.74,2.3-2.41,2.28-4.54,0-9.1,0-13.64.12-1.9.07-2.46-.59-2.74-2.42-.61-3.88-1-7.91-4.67-11.5.26,2.44.44,4.13.63,5.82l.47.82.09,1.47c-.09.07-.25.17-.24.21a3.26,3.26,0,0,0,.26.53c.18.82,0,1.78.85,2.36l.62.6a.41.41,0,0,1,.2.57v1.77c0,.61-.14,1.14-.83,1.33l-.72.47-2.17,0-.39-.91-.43.88-4.43.27c-.7-.26-2.34.4-1.45-1.46h0c1,.08,2.11.28,2.94-.64l.34-.46a3.2,3.2,0,0,0-1-.38q-19-.06-37.95-.08c-.11,0-.21.27-.35.45,1.11.86,2.39.39,3.57.55,6.11.84,12,2.11,14.67,8.68l.39.75c.3.77.93,1.71-.33,2.07s-1.25-.84-1.65-1.54c-1.87-3.32-2.32-3.34-4.31-.09a18.19,18.19,0,0,0-2.42,7.62c-.62.49-.7,1-.1,1.58l.27.75c.89,1.21,2,.88,3,.33l2.12,0c1.08.54,2.14.95,3-.34l0-4.45a2.51,2.51,0,0,0-.52-2.43c1.56-1.09,2.26.41,2.11,1.2-.46,2.41.71,4.51.83,6.81.93,18.81.15,37.61-.2,56.42-.18,10.17-5.16,16.91-13.78,21.33a39.75,39.75,0,0,1-22.19,4c-15.87-1.45-26.73-13.55-26.36-29.48.12-5.16.42-10.32.42-15.48,0-12.78-.79-25.59.63-38.32,1.32-11.78,3.87-18,17.67-18.79,1.08.11,2.2.46,3-.63l.06,0c.59-.22.67-.49.07-.81l-1-.39a85.83,85.83,0,0,0-18.34,0l-7.45,0c-.23-.35-.46-.35-.7,0l-1.53,0a19.11,19.11,0,0,0-8.77,0l-1.57,0a5.15,5.15,0,0,0-4.34,0h-1.47l-.18-2.06c-.17-3.55,1.42-7,.73-10.76-2,1.92-2.23,4.44-3.22,6.6l-.29.81c0,1.17-.52,2.34,0,3.5,0,.63-.07,1.26-.1,1.9l-3,0a3.45,3.45,0,0,0-3.61.14l-.66.87a1.57,1.57,0,0,1-1.61.91c-.76-1-1.93-.69-2.92-1-.49-.65-1-.63-1.48,0l-5.15,0-.52-.48a24.31,24.31,0,0,1,.44-9.46C107.86,116.51,107.9,116.25,107.93,116Zm70.84,90.07.67.71c-.4,2.4,1.78,4.21,1.51,6.58a5.67,5.67,0,0,0-.71.06c-1.84.49-3.75,1.44-5.19-.77-.65-.9-.34-2.23-1.35-3l-1.53-3.08a1.22,1.22,0,0,0-.82-1.33l0,0c0-.43-.18-.66-.62-.33l-.75.08c.32-1.29-1.09-2.36-.45-3.69,1.65-.08,2.26,1.21,3,2.29a36,36,0,0,1,3.86,7.51c.32.79.71,1.8,1.8,1.31s.52-1.45.19-2.21c-1.79-4-3.76-7.92-5.37-12-3.8-9.65-3.73-9.69-13.73-9.45-1.43,0-3.28-.71-3.41,2-.11,2.28.2,3.6,2.84,3.94a14.87,14.87,0,0,1,10.69,6.49c-1.13.47-1.79-.3-2.59-.89-3.09-2.28-4.44-1.93-6.72,1.6-1.91,2.95-1.43,4.95,1.63,6.59a6.5,6.5,0,0,0,3.82,1.14c-1.41,6.8.86,11,7.53,13.45a29.69,29.69,0,0,0,18.47.83c6.75-1.85,9.65-5.22,10.37-12.11.63-.72,1.17-1.77,2.35-1.35,1.95.71,3.57.72,4.69-1.36a6.51,6.51,0,0,0-.17-6.64c-2-3.7-6-4.34-9.2-6.15a4.87,4.87,0,0,0-4.89.17c-4.89,2.42-10.06,1.44-15.14.9-1.49-.16-3.1-2-4.39-.46-1.05,1.22,1,2.45,1.13,3.88,0,.52.65,1,1,1.47,0,.81-.11,1.66.71,2.21v0a1.44,1.44,0,0,0,.69,1.43Zm8.17-103.37a7.65,7.65,0,0,0,3.34-10.14c-1.47,3.41-2.93,6.56-3.44,10.06-.17.27-.35.54-.5.82a2,2,0,0,0,.25.2ZM161.85,147.3c2.73-1.66.88-4,.56-5.82-.39-2.35-1.06-5.63-3.51-5.83-1.65-.13-2.09,3.23-2.49,5.29-.07.34-.39.63-.46,1-.83,4.37-.13,5.25,4.31,5.42A1,1,0,0,0,161.85,147.3Zm51.66-55.69c-2.27-.3-4.07.54-5.89,2.28,2.55,1.21,3.94-1.65,6-1,4.39,0,8.78-.2,13,1.54,10.83,4.45,17.87,12.27,20.81,23.55.86,3.31,3,2.93,5.34,2.94,3,0,2-2.17,2-3.7a8.84,8.84,0,0,0-.27-2.91c-4.75-15.52-16.15-23.94-32.36-24.22C219.09,90.07,216.48,91.68,213.51,91.61ZM184.7,153.54h0c-7.11,0-14.23,0-21.34,0-1,0-2.58-.53-2.93.78a11.07,11.07,0,0,0,.36,7.58,5.51,5.51,0,0,0,5.7,3.28,63.42,63.42,0,0,0,9.32-1.69,31.54,31.54,0,0,1,21.05.87c7.23,2.91,11.58.47,12.16-7.22.2-2.6-.4-3.78-3.34-3.7C198.69,153.67,191.69,153.54,184.7,153.54ZM154.89,93.1a6.22,6.22,0,0,0-3.72-2.17c-10.33-2-19.31,1.08-27.36,7.36-6,4.7-8.63,11.31-9.75,18.64-.21,1.36-2.13,3.44.43,3.84,2,.32,5.14,1.92,6.24-2.09,1.67-6.07,4.41-11.82,8.9-16.15C136.4,96,144.55,92.1,154.89,93.1ZM215.11,124c-.74-.92-.88-1.23-1-1.23-8-.09-15.95-.14-23.92-.21-1.54,0-1.78,1-1.78,2.18,0,6.14,0,12.28,0,18.42,0,1.91.88,2.7,2.6,2.79s3.19.07,4.78,0,2.68-.77,2.75-2.37a22.34,22.34,0,0,1,4.08-11.26c.9-1.37.73-2.07-1-2.55-2.42-.64-4.9-.31-7.28-.84-1.3-.3-3.11-.52-2.76-2.71.29-1.82,1.48-2.31,3.17-2.28,4.55,0,9.09,0,13.63,0Zm-51.34,48.87c2,6.16,8.6,6.5,13.72,5.11,5.56-1.51,11-3.61,16.79,0,3.38,2.13,7.75.55,10-2.67.93-1.34,1.27-2.46-1.12-2.49s-4.89.33-7.26-.62c-3.72-1.49-7.48-2.66-11.62-2.43C177.34,170.19,170.87,173.14,163.77,172.89Zm-11.45-49c1.55.07,2.74.17,3.93.17q8.69,0,17.35,0c1.52,0,3-.15,3,2.13,0,2-.76,3-2.77,3.11s-4.15.42-6.21.74c-2.32.36-3.78,1-1.86,3.77A16.7,16.7,0,0,1,169,142.3c.11,2.58,1,3.56,3.49,3.27a20.67,20.67,0,0,1,3.69,0c1.87.12,2.66-.6,2.64-2.55-.09-6-.12-12,0-18.08,0-2.09-1-2.39-2.73-2.38-7.14.07-14.27,0-21.41.06A2,2,0,0,0,152.32,123.84ZM165,72.91c8.53.37,8.89.06,8.75-7.37-.08-4.25-1.66-5.16-5.57-3.35-2.65,1.23-5,3-8.45,2.33-2.22-.41-4.43,1.67-4.53,4.38s1.78,3.87,4.29,4C161.34,73,163.18,72.91,165,72.91Zm37,29.68a3.21,3.21,0,0,0,2.82.67c4.47-.19,8.77.23,12.73,2.66,5,3,7.76,7.64,9.12,13.09.69,2.75,2.52,1.65,4,1.81,2.14.23,2-1.33,1.94-2.68-.27-3.54-2.07-6.46-4.33-9C221.23,101.19,212.38,99.75,202,102.59Zm-36.5.47c-2.63-1.31-9.82-1.67-13.76-1-6.63,1.07-14.62,8.92-15.55,15.36-.2,1.39-.65,3.19,1.5,3.5,1.65.24,3.56.54,4.16-1.85a13.62,13.62,0,0,1,.75-2.45c2.16-4.68,4.41-9.5,9.61-11.42A31.36,31.36,0,0,1,165.5,103.06Zm54,13.65c-2.71-4.95-6.64-7.88-12.38-7.53-5.33.33-10.19,1.89-13.82,7.53Zm-45-.16c-3-6.38-13.35-9.22-19.74-5.73a12.16,12.16,0,0,0-4.33,3.92c-.69,1-.85,1.82.82,1.82Zm38.39,80.61c.65-8.42.6-16.4.54-25.48-3.71,7.13-5.74,14-11.61,19.06A40,40,0,0,1,212.88,197.16ZM191.74,60.36c3.9-3,4.6-5.06,2.09-7.27-3.17-2.78-6.57-5.2-6.88-10.19-1.53,3.6-4.22,5.61-6.56,7.92-2.95,2.91-3,5.78,0,8.38.67-3.47,2.4-5.63,6.22-5.36S190.92,57.22,191.74,60.36ZM155.1,169.83c0,2.88,0,5.75,0,8.63.11,8.47.12,8.48,8.66,8.09.19,0,.37-.22.83-.51C162.21,180.28,156.37,176.38,155.1,169.83Zm20.31,17c4.6,2.26,9,5.34,14.47,2.45,1.09-.57,3-.11,2.92-2.08s-1.83-2.18-3.33-2.71C184.36,182.63,180.19,186.27,175.41,186.8Zm9.31-98.55c4.34-4.15,1.8-8.59,1.18-12.87a.8.8,0,0,0-1.37-.52c-1.55,1.69-4.15,2.94-2.93,6C182.6,83.3,183.66,85.73,184.72,88.25ZM179.64,94a1.65,1.65,0,0,0-1.58,2,10.91,10.91,0,0,0,4.18,8.19c.42.33,1,.58,1.28.19a2.22,2.22,0,0,0,.27-1.7c-.82-2.4-1.76-4.77-2.68-7.14A2.26,2.26,0,0,0,179.64,94Zm19.88-6.22c-.67.93-3.12-.29-2.52,2.11.24.95.17,2.65,1.61,2.12,1.17-.42,3-1,3-2.75C201.58,88.23,200.65,87.68,199.52,87.79Zm1.39-9a4.06,4.06,0,0,0,2.53-2.27c.28-.66-.78-1.63-1.17-1.38a7.8,7.8,0,0,0-2.33,2.48C199.51,78.31,200.27,78.6,200.91,78.81ZM197.34,76a3.86,3.86,0,0,0,3.18-2.2c0-.08-.48-.6-.69-.57C198.39,73.36,197.6,74.19,197.34,76Zm38,50c1.73,1.06,1.73,1.06,3.75-.68C237.49,125.73,236.33,125,235.3,125.93Z"/><path class="cls-2" d="M257.76,207.45q7.37,18.45,14.73,36.91c2.5,6.27,4.94,12.57,7.44,18.84.34.86.34,2.26,1.42,2.33,1.39.11,1.43-1.46,1.84-2.38,8.95-19.81,17.91-39.62,26.68-59.51,1.19-2.7,2.54-3.57,5.44-3.52,10.82.19,21.64.1,32.47,0,2,0,3.77.05,3.77,2.7s-1.71,3.27-3.91,3.34a40,40,0,0,0-4.78.21C335,207.64,331,212,331,219.87c-.18,23-.22,46-.26,69a26.67,26.67,0,0,0,.63,5.85c1.47,6.57,6,10.36,12.68,10.82,1.47.1,3,0,4.43.12,2.69.25,3.77,2,3.87,4.52.12,3.08-2.19,2.37-3.89,2.39q-25.46.21-50.91.36a55.25,55.25,0,0,1-5.9,0c-2.12-.22-4.38-.85-4.52-3.47s2.12-3.28,4.27-3.58c2.92-.4,5.87-.65,8.78-1.11,5.6-.89,9-4.18,10.07-9.77a24.61,24.61,0,0,0,.54-4.75q-.15-30.43-.4-60.88a2.71,2.71,0,0,0-.74-1.91c-1.16,2.47-2.35,4.93-3.47,7.41q-8.56,19-17.08,38c-.43,1-1.52,2.07-.68,3a3.25,3.25,0,0,0,3.78.57c1.14-.47,2.23-1,3.35-1.51,1.4-.6,2.92-1.18,4,.42s.46,3-.9,4.23-2.91,2.65-4.36,4l-14.33,13.28c-5.2,4.81-6.87,4.39-9.51-2.32q-12.21-31-24.43-62a12.76,12.76,0,0,0-2.2-3.9c-.06,1.25-.17,2.5-.16,3.75,0,18.57.47,37.15,0,55.71-.33,12.66,6.58,16,16,17.51a36.46,36.46,0,0,0,4.78.45c2.17.08,3.64,1.08,3.68,3.27,0,2.43-1.61,3.44-3.88,3.45-6.4,0-12.79,0-19.19,0-9,0-18,.28-26.93,0-48.37-1.55-96.74-.31-145.11-.63-4.34,0-5.55-1.91-3.76-5.84.36-.79.9-1.5,1.17-2.3,1.53-4.73,4.57-6.87,9.61-5.87,2.35.46,3.4-.49,3.12-3a45,45,0,0,1,0-4.79c0-1.73-.32-3.59,2.47-3.22,1.24.17,1.4-.84,1.26-1.72-.48-3.14,1.36-3.26,3.74-3.22,6.4.11,12.79,0,19.19.08,2,0,2.75-.46,2.75-2.63,0-24.23.15-48.46,0-72.69,0-7.92-2.93-10-9.2-10.06a70,70,0,0,0-12.87.49c-7.7,1.28-12.78,5.85-15.73,12.95-.19-.48-.09-1.28-1-1-.2.06-.42.61-.36.87.24,1,.84.28,1.3.2-.44,1.7-.25,3.68-2.06,4.78.35-1.35-1-1.19-1.56-1.77,3.4-13.26,13.41-18.62,24.08-18.77,2.58,0,5.16-.05,7.74.08,8.71.43,11.92,3.66,11.93,12.31q0,36.88-.15,73.78c0,5.86-2.84,10-8,12.69a21.91,21.91,0,0,1-10.71,2.22c-1.16,0-2.46-.66-3.35,1.23h62.56a2.53,2.53,0,0,0-2.15-1.39,25.36,25.36,0,0,1-9.72-1.87c-6.06-2.53-10-6.38-10.57-13.61-1.93-25.55-1.24-51.13-1.35-76.7a5.72,5.72,0,0,1,3.16-5.4,1.2,1.2,0,0,0,1.3,1.33c-1.16,1.43-2.29,2.77-2.29,4.85.09,25.2-.4,50.41,1.44,75.59.45,6.27,3.75,9.53,8.95,11.76,3.22,1.39,6.66,1.58,10.08,2,2.5.29,3.58,2,3.43,4.42-.17,2.75-2.36,1.6-3.65,1.6-19.68.07-39.35,0-59,.09-3.48,0-5.34-.74-3.94-4.6.15-.43.43-1-.31-1.06-.42-.05-1.16.11-1.27.37a13.3,13.3,0,0,0-.51,2.48h-1.4c.15-1.95-1.27-4.74,2.62-4.67,1.17,0,1.22-1.14,1.11-2-.38-2.85,1.22-3.16,3.51-3.12,4.79.08,9.59,0,14.38-.08,1.2,0,2.43-.41,2.48-1.69.07-1.83-1.57-1.14-2.48-1.15-5.41-.07-10.82,0-16.23-.05-2.27,0-4.64-.4-4.15,3.19.14,1.06-.63,1.56-1.63,1.51-2-.11-2.07,1.23-2,2.67,0,1,0,2,0,2.95,0,6,.7,5.6-5.22,5.31-3.81-.19-6,.89-7.62,4.54-2.71,6.1-3,6,3.85,5.95h1.48q64.89,0,129.8,0c1.08,0,3,.7,3-.89s-1.94-.71-3-.92a10.25,10.25,0,0,0-1.84,0l-98.83,0c-9.1,0-18.19,0-27.29,0-1.82,0-4.29,0-4.28-2.34s1.54-4.05,4.36-4c2.58.07,5.16-.09,7.74-.15l1.6.05c.3,1.28-.22,1.82-1.52,1.81-2,0-3.94,0-5.9.1-1.56.12-4.21-.76-4.06,1.7.12,1.92,2.63.88,4,.88,41.94,0,83.88,0,125.82.05,6.12,0,12.13-.25,17.91-2.3,6.16-2.18,9-6,9-12,.07-24.11,0-48.21.07-72.32,0-4.9-2.31-8.44-6.46-10.82-1.58-.91-3.32-1.55-5-2.31.86-.15,2,.13,2-1.32,8.09,2.57,11.78,7.43,11.78,15.68q0,34.5,0,69c0,9.73-3.87,14.71-13.34,17.11-2.49.63-5.08.88-7.62,1.33-.69.13-1.66.16-1.55,1.16s1.06.81,1.75.88a14.59,14.59,0,0,0,1.48,0l45-.05a20.32,20.32,0,0,0,2.21-.06c.58-.07,1.3-.17,1.4-.92.13-1-.72-1.18-1.43-1.28-2.91-.41-5.89-.55-8.75-1.19-9.63-2.17-13.91-7.62-13.95-17.46q-.1-32.11-.17-64.22c0-1.7-1-4.53.77-4.92,2.37-.52,2.54,2.51,3.22,4.21q13.82,34.95,27.55,69.93c1.51,3.84,1.92,3.93,5,1.12,5.06-4.67,10.13-9.33,15.12-14.07.91-.87,2.4-1.39,2.38-3-1.3-.79-2.39.1-3.56.28a6.19,6.19,0,0,1-5.69-1.95c-1.53-1.64.1-3,.68-4.32q11.86-26.6,23.89-53.11c.42-.93.47-2.16,2.09-2.83,0,6.12,0,12,0,17.9q.13,27.87.29,55.73c0,8.24-3.62,16.42-14.92,17a42.69,42.69,0,0,0-5.48.75c-1.09.2-3-.28-2.91,1.33s1.84,1.21,3,1.27c1,.05,2,0,2.95,0,16.49-.1,33-.16,49.45-.33,1.56,0,4.42.92,4.5-.76.13-2.69-2.8-1.5-4.38-1.6-10.33-.63-16.16-6.43-16.69-16.88-.12-2.33-.16-4.67-.15-7q.11-31,.23-62c.05-12.25,5.49-17.81,17.7-18.13.95,0,2.17.44,2.71-1-1.25-.8-2.51-.46-3.69-.47-9.72,0-19.44.07-29.16-.08-2.47,0-3.62.69-4.63,3q-13.94,31.51-28.18,62.89c-.56,1.25-.67,2.91-2.48,3.71-3-7.59-6-15.1-8.88-22.63q-8-20.58-15.9-41.2l1.42.64-.11-.16,0,.19ZM108.3,288.67c-4.5,0-9,0-13.51,0-1.46,0-2,.64-1.89,2,.1,1.09-.56,2.54,1.48,2.7C99.63,293.74,104.49,293,108.3,288.67Z"/><path class="cls-3" d="M213.11,136.59l-.39-.75c-2.71-6.57-8.56-7.84-14.67-8.68-1.18-.16-2.46.31-3.57-.55.14-.18.24-.45.35-.45q19,0,37.95.08a3.2,3.2,0,0,1,1,.38l-.34.46a3.23,3.23,0,0,0-2.94.64h0a2.46,2.46,0,0,0-2.36.74l-.88.33c-.46-.17-.73.08-1,.45a8.23,8.23,0,0,0-3.89,3,.82.82,0,0,0-.72,1c.1,1,.56,1.29,1.46.78l0,1.11-.82,0,.09.82v0l0-.3c-1.08-1.45-1.76-.74-2.2.47a14.79,14.79,0,0,0-.74,5.68,9.11,9.11,0,0,0-.45,4.45,44.67,44.67,0,0,0-.23,8.88,5,5,0,0,0,0,3,158.52,158.52,0,0,0,.4,19.25,6.49,6.49,0,0,0,.21,3.85q0,12.63-.1,25.25l-.21,1.09-.24,2.23c-2.9,15-13,21.66-27.16,23.75A66.32,66.32,0,0,1,166,231.86c-10.37-2.51-18.86-7.47-23.47-17.62l-.8-2.36a2.76,2.76,0,0,0-.65-2.17c-.42-2.75-.82-5.5-1.25-8.24-.15-1-.3-2.11-1.7-1l0-.06c2.48.14,1.46-1.73,1.47-2.79,0-6.25-.06-12.51-.05-18.76,0-11.39.7-22.79-.2-34.18l-.07-.72-.29-1.65a.34.34,0,0,0-.07-.59l-.29-3a1.54,1.54,0,0,0-.43-1.55c-.38-.85-.88-1-1.5-.24l0-.81a.73.73,0,0,0,1.26-.09c.14-.48-.11-.76-.51-1a2.32,2.32,0,0,0-1.1-1.71A8,8,0,0,0,131,130l-.19-.06a1,1,0,0,0-1.21-.44,12.11,12.11,0,0,0-4.68-1,5.13,5.13,0,0,0-3-.46l-2.11-.52-.7-.72.66-.87a6.91,6.91,0,0,0,3.61-.14l3,0a4.1,4.1,0,0,0,3.06,0h1.47a8.2,8.2,0,0,0,4.34,0l1.57,0a32.6,32.6,0,0,0,8.77,0l1.53,0h.7l7.45,0a126.14,126.14,0,0,0,18.34,0l1,.39c0,.27-.05.54-.07.81l-.06,0-3,.63c-13.8.76-16.35,7-17.67,18.79-1.42,12.73-.62,25.54-.63,38.32,0,5.16-.3,10.32-.42,15.48-.37,15.93,10.49,28,26.36,29.48a39.75,39.75,0,0,0,22.19-4c8.62-4.42,13.6-11.16,13.78-21.33.35-18.81,1.13-37.61.2-56.42-.12-2.3-1.29-4.4-.83-6.81"/><path class="cls-1" d="M138.62,138.79l.29,3a.44.44,0,0,0,.07.59c.1.55.19,1.1.29,1.65-.08.08-.24.18-.23.22a4.14,4.14,0,0,0,.3.5c.9,11.39.23,22.79.2,34.18,0,6.25.1,12.51.05,18.76,0,1.06,1,2.93-1.47,2.79l-.42-.82c.41-.78.87-1.74-.19-2.16-.7-.28-.8.66-.9,1.25l-.82.58a1.2,1.2,0,0,1-1.3-1.33c1.39-1.6.45-3.53.77-5.27.59-3.14-.73-4.44-3.82-4.17a4,4,0,0,0-3.53,0h-3.85a39,39,0,0,0-11.66,0q-14.09.47-28.19,0a1.64,1.64,0,0,0-2.08,0c-1.51.7-3.71-.76-4.73,1.5l-.51,1.2a.34.34,0,0,1-.1.45,2.21,2.21,0,0,1-1.32-1.85l0-.06a1.35,1.35,0,0,0,.64-1.57c.07-.22.15-.44.22-.66l.56-.64a.4.4,0,0,1,.61-.16l58.12.18c.75,0,1.48-.09,1.74-1,.07-11,.22-22,.16-33,0-4.52-.5-9-.77-13.55a2.6,2.6,0,0,0-.44-2.16l.11-.22.24.05c.63-.72,1.13-.61,1.51.24A1.32,1.32,0,0,0,138.62,138.79Z"/><path class="cls-1" d="M219.16,206.34q0-12.61.1-25.25a5.55,5.55,0,0,0-.21-3.85,158.52,158.52,0,0,1-.4-19.25,1.85,1.85,0,0,0,0-3,44.67,44.67,0,0,1,.23-8.88c.95-1.4.53-2.94.45-4.45a14.79,14.79,0,0,1,.74-5.68c.44-1.21,1.12-1.92,2.19-.47a2,2,0,0,0-.62,1.92l-.42,4.3a1.39,1.39,0,0,0-.31,1.63l-.09,1.29c-.69.46-.77.94-.07,1.46q0,13.68,0,27.35a1.26,1.26,0,0,0,0,2.19l.09,2.87.05,1c0,.33,0,.66,0,1a2.68,2.68,0,0,0,.13,2.45,82.19,82.19,0,0,1,.34,13.94c-.08,2.56.58,3.31,3.2,3.28,9.92-.12,19.84,0,29.76.07l.79.54.29.8.44,1.09.36,1c.13.26.26.53.4.79l.41,1.32a1.33,1.33,0,0,0,.66,1.64h0l-.3,1.37.08,0-1.42-.64a46.38,46.38,0,0,1-1.88-4.35,1.89,1.89,0,0,0-2.1-1.52c-9.68,0-19.35,0-29,.07-2.39,0-1.85,1.27-.53,2.41l1.26.45h.36l.31.15c0,1.45-1.14,1.17-2,1.32l-1.39,0-.29.68a6.8,6.8,0,0,1-.52,3.65c-.93,0-.93-1.09-1.6-1.4l.24-2.23Z"/><path class="cls-4" d="M408.45,149c2.19.27,4,.45,5.84.72,2.53.37,2.14,2.67,2.63,4.29.19.64-.56.8-1.28.73a15.74,15.74,0,0,0-10,2.86c-2.35,1.56-2.49.64-3-1.06-.27-.91-.48-1.85-.81-3.11,3,.51,5.37-.52,7.65-2.06-1.57,0-3.14-.05-4.7,0a2,2,0,0,1-2.09-1.16c-.5-1,.43-1.51,1-2.14.93-1.09,2.52-1.54,3.05-3.17a5.53,5.53,0,0,0-6.25,2.81c-1.51-1.17-1.32-2.84-2-4.31,5.06-.11,9.38-1.22,13.12-4.19C414.44,142.76,414.41,142.88,408.45,149Z"/><path class="cls-4" d="M20.27,163.54c-.51,2.63.46,5.74-4,4.68-1.13-.27-3.68-.26-3.55,2.09.11,1.95,2.16,1.49,3.49,1.74a5.23,5.23,0,0,0,1.68-.2c.88.74.24,1.44.17,2.11-.23,2.28-.52,3.34-3.44,1.9a18.87,18.87,0,0,0-9.59-2c-1.7.14-1.67-.39-1.41-1.48.66-2.74,1.24-5.52,2.13-8.18.76-2.31,2.57-2.94,4.7-1.76C14.88,164.84,14.86,164.88,20.27,163.54Zm-9.36,5.16c-.17-1.38-.33-3-2.24-3.15s-2.37,1.51-2.54,2.95c-.24,2.07,1.62,1.71,2.78,2.06C10.47,171,10.83,170.06,10.91,168.7Z"/><path class="cls-4" d="M348.43,52.68a7.25,7.25,0,0,1-9.9,6.55,4.81,4.81,0,0,1-1-.49c-1.94-1.5-4.65-2.65-5.58-4.63-1.09-2.32,2.65-2.9,3.57-4.91s3.12-3.13,3.55-5.44c.14-.78.49-1,1.23-.89C342.92,43.21,348.4,49.81,348.43,52.68Zm-3.31-2c-.11-1.43-.49-2.77-1.79-3.43-1.61-.81-2,.91-2.77,1.69a19.44,19.44,0,0,0-2.74,3.4c-.68,1.09-2.76,2-1.29,3.58,1.26,1.4,3.12,1.29,4.75.5A6.49,6.49,0,0,0,345.12,50.73Z"/><path class="cls-4" d="M11.41,249.76A7.89,7.89,0,0,0,3.8,252c-.22-2.3-3-4.94,2.15-4.23,2.64.37,5.51-.94,8.28-1.43,1.13-.21,2.49-1.09,3.25.5.68,1.42-.56,2.24-1.35,3.12-2,2.24-4.08,4.46-6.74,7.38,3.86-.34,6.8-.15,9-2.57,1.31,1.29.78,2.73,1.25,4-4.64-.15-9,.2-12.86,2.54-1,.63-1.27,0-1.48-.71-.53-1.85-.56-3.58.94-5.12C8,253.75,9.51,251.89,11.41,249.76Z"/><path class="cls-4" d="M159.61,14.66c-.25-3.74-.52-4.48-2.64-7C159.31,6.17,161,5,161,9.49c0,2.59,1.4,5.16,2,7.77.28,1.12,1.23,2.52-.07,3.39s-2.49-.34-3.54-1.16c-1.83-1.44-3.65-2.88-5.51-4.29-.54-.41-1.19-1.25-1.84-.61a2.18,2.18,0,0,0-.34,2c.78,1.44.48,3.25,1.67,4.52.44.47,1.57.89.83,1.67a2.56,2.56,0,0,1-2.63.83c-.68-.26-.5-1-.61-1.74-.63-4-1.07-8.06-4-11.47C153.08,6.59,155.39,13.54,159.61,14.66Z"/><path class="cls-4" d="M62.48,65.42a7.09,7.09,0,0,1,6.44,10.07c-1.28,2.56-3.49,4.38-5.39,6.44-.7.75-1.06.79-1.81-.32a22.3,22.3,0,0,0-8.19-7.54c-.88-.45-1.07-.71-.76-1.55C53.73,69.93,59.81,65.46,62.48,65.42Zm4.13,9c0-3.6-4-6.82-7.33-5.76-2.09.67-3.36,1.77-1,3.8,1.48,1.27,2.79,2.74,4.3,4,.75.62,1.34,2.09,2.67,1.23A3.49,3.49,0,0,0,66.61,74.47Z"/><path class="cls-4" d="M36.69,120.65c-3.23-2.82-6.58-5.26-10.67-6.22-1.78-.42-1.13-1.34-.78-2.1a23,23,0,0,1,4.15-6.46,6.61,6.61,0,0,1,8.71-1A6.66,6.66,0,0,1,41,113.1,25,25,0,0,1,36.69,120.65ZM32.2,107.17a3.8,3.8,0,0,0-3.47,2.47c-.6,1.86,1.46,1.93,2.45,2.61,1.61,1.11,3.41,1.93,5.06,3s2.18.22,2.58-1.19C39.75,110.77,36.32,107,32.2,107.17Z"/><path class="cls-4" d="M19.67,272c-2.76.8-5.8,1.35-8.1,3.59-.45.43-1,1.13-1.44.48a7.58,7.58,0,0,1-1.06-2.66c-.13-.52.27-.93.86-.88,2.73.22,4.8-1.6,7.23-2.3,3.95-1.15,6.64.29,7.94,4.28s.08,6.73-3.82,8.15c-2.36.85-5.13.69-7,2.78-.42.47-1,.1-1.19-.33-.56-1.33-1.39-2.63-1.22-4.15.1-.91.86-.56,1.45-.5,3.07.3,5.74-1,8.37-2.27a2.85,2.85,0,0,0,1.46-3.74A3.32,3.32,0,0,0,19.67,272Z"/><path class="cls-4" d="M225.54,0a7.49,7.49,0,0,1,7.88,7.46,7.75,7.75,0,0,1-7.59,7.86,7.85,7.85,0,0,1-7.93-7.57A7.59,7.59,0,0,1,225.54,0Zm4.06,6.39c-.1-2-.44-4.49-3.69-4.77-2.5-.21-4.3,2.64-4.19,6.63.06,2.5.37,5.08,3.71,5.27C228,13.67,229.6,11.12,229.6,6.39Z"/><path class="cls-2" d="M15.69,191.84c-.24,1.93,0,4.16-1,5.67-.4.65-3.19-.28-4.89-.3-2.56,0-5.11-.82-7.67-.25-1.32.29-1.5-.47-1.44-1.41.15-2.56.36-5.13.58-7.69.1-1.25.67-2.27,2.09-1.81,1.81.59.2,1.44,0,2.17-.1.35-.29.68-.36,1-.18,1.06-.76,2.24.09,3.15a2.59,2.59,0,0,0,2.77.43c1.4-.51.62-1.9.87-2.88s-.86-2.5,1.1-2.45c2.3.06,1.12,1.68.93,2.68-.35,1.95-.3,3.18,2.32,3.32s2.83-1.24,2.76-3.11a10.52,10.52,0,0,0-.4-2.13c-.17-.65-1.09-1.16-.48-1.95.43-.57,1.09-.37,1.67-.2,1.05.3,1.16,1.15,1.12,2,0,1.22-.12,2.44-.19,3.66Z"/><path class="cls-4" d="M422.43,181.23c.27,2.34,2.83,5.06-1.5,6-.69.15-1.67,1-1.43,1.91a1.92,1.92,0,0,0,2.36,1.24c3.09-1.29,2.08,1.35,2.39,2.48.19.68-.49,1.67-1.29.86-5.19-5.2-8.22-.86-11.52,2.47-.14.14-.43.13-.86.26-.68-2.37-2.53-4.83,1.65-6,.85-.24,2.28-1.34,1.86-2.4a2.72,2.72,0,0,0-3.16-1.27c-.84.21-1.73.8-1.93-.58-.13-.94-.81-2-.09-2.82s1.6.13,2.15.6C416,188.18,419,184.43,422.43,181.23Z"/><path class="cls-4" d="M178.11,2.27c5.53-.25,8.67,1.67,9.49,5.79a7.57,7.57,0,0,1-4.52,8.7,7.7,7.7,0,0,1-9.65-3c-2.17-3.64-1.38-7.12,2.36-10.31.37.36,1.82-.21,1.07,1.1-1.77,3.13-.84,6.12.45,9a3.33,3.33,0,0,0,3.94,2c1.84-.36,2.59-1.61,2.77-3.4.44-4.39-1-6.8-5-8.49A1.45,1.45,0,0,1,178.11,2.27Z"/><path class="cls-4" d="M96.81,372.84c1.38,3.14,1.45,6.13-.93,8.89A6.88,6.88,0,0,1,89,384.15a7.39,7.39,0,0,1-6.14-5.6,7,7,0,0,1,2.75-7.8,6.69,6.69,0,0,1,8.48-.18c-.23.68-.78.84-1.41.91a8.45,8.45,0,0,0-7.31,6.43,3.27,3.27,0,0,0,1.3,3.53,2.87,2.87,0,0,0,3.42.33c2.7-1.75,5.24-3.81,4.68-7.46C94.39,371.89,95.63,372.62,96.81,372.84Z"/><path class="cls-4" d="M177.56,408.16c2.67.34,5.8-1.46,5.82,3,0,.69.6,1.85,1.65,1.57.76-.21,1.67-1.06,1.49-1.9-.62-2.75,1.21-2.06,2.53-1.87s1.54,1,.46,1.92c-.54.49-1,1.13-1.54,1.58-2.16,1.71-2.28,3.53-.48,5.59a6.15,6.15,0,0,1,1,1.94c.36,1,2,1.68,1.11,2.79-.7.89-2.09.14-3.16.18-1.39.05-1.84-.51-1.8-2,0-1.31-.66-3-2.07-3a2.32,2.32,0,0,0-1.85,3c.24,1-.31,1.34-1.17,1.28a7.82,7.82,0,0,1-2.48-.41c-.42-.17-.23-.77.12-1.23,1.4-1.89,4.28-3.22,3.85-5.76C180.7,412.67,178.93,410.67,177.56,408.16Z"/><path class="cls-4" d="M253.32,5.2c-2.58-.39-4.56.42-5.65,2.9s-1.45,4.79.17,7c1.09,1.5,2.77,2.44,4.4,1,1.23-1.09,2-2.73-.42-3.72-.44-.19-.84-.56-.61-1.15a.88.88,0,0,1,1.19-.55c1.58.81,4.38-.6,4.75,2.27.47,3.53-1.23,5.42-4.61,5.58-7.16.35-11.56-5.11-8.76-11,1.95-4.11,5.68-4.24,9.54-3.81Z"/><path class="cls-4" d="M366.09,66.28c-1.73.86-2.32-.29-2.95-1.12-1-1.32-1.85-1.1-3-.12-1.43,1.23-.65,2.07.27,3a7.65,7.65,0,0,0,1.08,1c1,.61,1.6,1.25.44,2.23s-1.54-.22-2.17-.9c-1-1.08-1.5-3.46-3.81-1.33s-1.91,4,1.81,5.71c.62.28,1.66.06,1.7,1,0,.43-.65,1-1.09,1.32-.75.63-1.41.14-1.92-.39-2-2.12-4-4.27-6-6.43-.65-.7-.89-1.23.28-1.93a34.51,34.51,0,0,0,8.3-7.65c.9-1,1.53-1.25,2.21-.16C362.55,62.62,365,63.88,366.09,66.28Z"/><path class="cls-4" d="M382.77,110.7c4.47-.68,8.57-1.32,12.67-1.91,1.22-.18,2.56-.29,3.34.92s-.17,2.38-.88,3.3c-2.23,2.92-4.58,5.76-6.89,8.62-.34.42-.36,1.4-1.2,1.05-1.38-.57-1.6-2.08-2.24-3.22-.37-.66,0-1.11.75-1.32,2.8-.83,2.42-2.41,1.2-4.43s-2.35-2-4.06-.56C384.4,114,384.23,113.84,382.77,110.7Zm12.64-.29c-2.06.7-3.79,0-4.53,1.76-.16.38.63,1.64,1.06,1.68C393.89,114,394.08,112.23,395.41,110.41Z"/><path class="cls-4" d="M48.17,101.31c-2.4-3.72-4.81-7.38-7.15-11.08-.59-.93-1.13-2-.3-3.08s2-.81,3.07-.57c4.15,1,8.29,2,12.75,3.09-1.44,1.91-1.41,5.49-5.2,2.67-1.76-1.31-2.4.88-3.29,1.9a2,2,0,0,0,.22,3.2C50.22,99.27,50.21,99.28,48.17,101.31ZM42.86,89.82c1.44,1.94,1.41,3.73,3.27,3.61.44,0,1.26-1.19,1.14-1.64C46.82,90,45.18,90.52,42.86,89.82Z"/><path class="cls-4" d="M328.6,391.9c-1.57-5-2.78-8.83-4-12.67-.38-1.26-1-2.63.29-3.72s2.61,0,3.69.6c3,1.59,5.95,3.37,8.91,5.1.54.32,1.82.35,1.22,1.31a10.47,10.47,0,0,1-2.68,2.44c-.61.46-1.08.15-1.41-.53-1.09-2.27-2.41-2.14-4.27-.67-2,1.59-1.59,2.54-.1,4.35C332,390.21,329,389.77,328.6,391.9Zm-2.16-12.76c.74,1.61.15,3.32,2,3.72.43.09,1.57-.89,1.54-1.31C329.84,379.79,328.33,379.66,326.44,379.14Z"/><path class="cls-4" d="M12,145.58l0,1.15.59.94c2.43,1.41,2.9-.79,3.74-2.11,1.14-1.77,2.13-3.82,4.63-3.58,3,.3,4.51,2.16,4.48,5.22,0,3.49-2.3,6.94-4.7,7.1-.67,0-1.26-.09-1.44-.8-.23-.9.31-1.31,1.12-1.52a4.2,4.2,0,0,0,3.17-3.65,2,2,0,0,0-1.2-2.41c-1-.47-1.58.31-2.1,1a14.41,14.41,0,0,0-.93,1.57c-1.41,2.52-3,4.64-6.38,3-2.68-1.3-3.26-3.86-1.77-7.51C11.88,144.32,11.86,145,12,145.58Z"/><path class="cls-4" d="M10.52,213.28c-3.14-.91-5.8-3.91-9.3-1.75-.49.3-1,.27-1.11-.35a12.78,12.78,0,0,1,0-2.9c.05-.58.62-.68,1.13-.51,3.82,1.3,7.65,2.57,11.45,3.93,1,.37,2.07,1,2.18,2.26.13,1.51-1,2.19-2.15,2.67-3.6,1.53-7.26,2.93-10.88,4.44-.71.3-1.33.22-1.45-.44A14.86,14.86,0,0,1,.17,217c.08-1,.79-.84,1.62-.7C5.16,216.85,7.7,214.77,10.52,213.28Z"/><path class="cls-4" d="M135.82,409.72c-2.42-.77-5.6-.24-3.75-4.45.8-1.81-1.33-1.9-2.43-2.48a2,2,0,0,0-3.11.79c-1.28,2.18-1.28,2.18-3.87,1,3.17-3.32,6.14-6.63,9.32-9.71,1.87-1.82,3.32-1.24,3.72,1.4C136.36,400.68,135.59,405.06,135.82,409.72Zm-3.66-12.36c-1.38,1.12-2.72,1.76-2.51,3.23.06.39,1.79,1.05,2.14.78C133,400.45,132.4,399,132.16,397.36Z"/><path class="cls-4" d="M404.64,281.28a24.36,24.36,0,0,1-3.31,0c-.91-.12-2.18.8-2.67-.31s.4-2.36.84-3.48c.66-1.7,1.5-.32,2.27-.06,2.41.79,2.86-.91,3.47-2.61s.05-2.84-1.72-3.25c-.72-.17-2,.48-1.63-1.07a3.81,3.81,0,0,1,1.09-2.22c.84-.59,1.09.63,1.59,1.05,2.83,2.37,5.63,4.75,8.41,7.17.84.73,1.61,1.62,1.32,2.85-.33,1.42-1.65,1.31-2.69,1.44-2.31.28-4.64.45-7,.67Zm6.28-3.93c-1.24-1.41-1.81-2.9-3.56-2.41a2.11,2.11,0,0,0-.67,1.91C407.69,278.37,409.09,277.43,410.92,277.35Z"/><path class="cls-2" d="M413.87,261.32c3.33-1.45,5.88-2.88,4.47-6.45-.92-2.32-5.42-4-8.09-2.93-4.36,1.67-2.55,5.08-1.84,8.2-3-1.44-3.73-4.39-2.18-8a7.28,7.28,0,0,1,9.58-3.74,7.71,7.71,0,0,1,4.37,10C419.29,260.89,418.19,263.37,413.87,261.32Z"/><path class="cls-4" d="M296.69,327.94a.91.91,0,0,1-.37,0c-2-1-5.17,1.34-5.82-.81-.45-1.49.35-3.84-.19-5.89-.29-1.13,1-1.3,1.71-1.45,1.1-.23,1,.75,1,1.44,0,1.36,0,2.71,0,4.06,0,.86,0,1.91,1.13,2s1.29-1,1.27-1.84a56.91,56.91,0,0,0-.33-8.07c-.26-1.56.57-1.73,1.4-2,1.42-.41,1.23.78,1.24,1.57,0,2.71,0,5.42,0,8.12,0,1,0,2.18,1.36,2.14s1.26-1.27,1.24-2.24c0-2.45.24-5-.29-7.33-.37-1.66.35-2.1,1.37-2.29,1.65-.31,1.18,1.09,1.22,2,.12,3.18.05,6.37.35,9.54.13,1.34-.6,1.08-1.21,1.1C300.12,328,298.4,328,296.69,327.94Z"/><path class="cls-4" d="M242.27,423.09c-2.27-.48-5.15,2.7-5.43-2.28-.13-2.3-2.49-1.26-4-1.24-1.74,0-1.82,1.34-1.77,2.63,0,.71,1.24,1.55-.15,2.07-.77.29-1.76.61-2.45,0-.86-.8.19-1.57.37-2.33.76-3.22,1.57-6.44,2.5-9.62.33-1.12.63-2.52,2.12-2.76s2.11,1.13,2.67,2.13C238.2,415.28,240.09,419,242.27,423.09ZM232.79,413c0,2.19-1.58,3.31-.28,4.54a2,2,0,0,0,2-.13C235.5,415.79,234.1,414.88,232.79,413Z"/><path class="cls-2" d="M295.57,21.94c-1.14-3-2-6.16-6-4.83-2.38.78-4.39,5-3.66,7.79,1.15,4.3,4.55,3.06,7.62,2.63-1.45,2.79-4.24,3.18-7.67,1.32-3.85-2.09-5-6.56-2.59-10.45s7.21-4.93,11.23-2.25C296.54,17.53,298.17,19.11,295.57,21.94Z"/><path class="cls-4" d="M108.72,29.34c.91,3.06,2.57,3.59,4.93,1.4.82-.76,1.52-1.38,2.24,0,.54,1,.07,1.46-1,1.87-1.22.49-3.24.58-2.9,2.5.2,1.2.83,2.94,2.18,3.18s2.61-1.11,3.76-2c.73-.58.46-2.09,1.76-2,.68,0,.86.79,1,1.39.33,1.51-.92,1.85-1.83,2.38-2.44,1.41-4.86,3.64-7.38,3.77-1.14.06-2.51-4.06-3.78-6.29a11.4,11.4,0,0,0-1.66-2.85c-3-2.78-1.06-3.81,1.53-4.7C108.37,28.08,108.54,28.72,108.72,29.34Z"/><path class="cls-4" d="M409.89,230.33c0-.73,0-1.47,0-2.2.08-1.72,0-2.83,2.66-2a32.1,32.1,0,0,0,10.19.87c1.81-.07,1.84.53,1.73,1.76-.21,2.45-.41,4.89-.7,7.33-.22,1.93-1.38,2-2.94,1.33.35-1.44,1.54-2.48,1.56-4.07s-.23-2.23-1.87-2.48c-1.8-.26-2.12.68-2.18,2a17.82,17.82,0,0,0,.08,2.19c.09,1-.57,1.25-1.37,1.17s-1.52-.45-1.12-1.4c1.94-4.66-.91-4.83-4.24-4.6Z"/><path class="cls-4" d="M289.49,407.5A7.06,7.06,0,0,1,280.2,412a7.52,7.52,0,0,1-4.37-9.36c1.22-3.73,5.93-6.39,9.38-5.32,1.7.53,2.18,1.72,2.06,3.74-2.75-1.62-5.45-3.51-7.73,0-1.35,2.05-.1,6.94,2.09,8.37,2.81,1.83,4.83.43,6.54-1.86Z"/><path class="cls-4" d="M421.71,204.67c1.88-.64,3.35-.83,3.29,1.94-.05,2.2,0,4.41.18,6.61.16,2.46-.95,3.33-3.23,3-.55-1,.18-1.41.56-2,1.12-1.64.84-2.42-1.28-2.32-2.7.12-5.4.15-8.09.18-.83,0-1.89,1.6-2.4,0a6.68,6.68,0,0,1,.07-4c.43-1.17,1.41.19,2.19.16,2.21-.08,4.42-.05,6.62-.09C423.77,208.17,423.77,208.16,421.71,204.67Z"/><path class="cls-4" d="M203.86,0c-2.06,4.15-1.09,8-.59,11.63.31,2.22,2.53.9,3.91.41.78-.27,1.51-1.88,2.27-.35a1.77,1.77,0,0,1-1.4,2.53c-2.8.27-5.62.33-8.43.39-.86,0-1.16-.41-.88-1.43,1-3.62.43-7.34-.21-10.88-.35-2-.19-2.34,1.58-2.31C201.18,0,202.26,0,203.86,0Z"/><path class="cls-4" d="M86.84,44.76c-2.06-5,3.35-5.19,5.42-7.57,1.68-1.94,3.3-1.75,4.5.63-.49,1.06-1.31.58-2,.59-1.74,0-2.41.66-1.23,2.19,1.86,2.43,3.27,5.21,5.61,7.27.42.37,1.43.61.9,1.22a13.16,13.16,0,0,1-3.15,2.49c-.74.44-.92-.29-1.12-.92-.79-2.38-2.61-4.13-4-6.13C89.22,40.83,89.17,40.87,86.84,44.76Z"/><path class="cls-4" d="M270.29,171.23c-2.06.89-3.46,2.26-2,4.52.76,1.2-.24,1.93-.17,2.91.1,1.55,0,3.05,2.21,2.89a2.62,2.62,0,0,1,3.06,2.42c.27,1.65.6,3.47-1.57,4.29l0,0c-.59-1.64.28-3.68-1.29-5-.68-.57-1.51-1.53-2.33-.19-1.27,2.1.32,5.34,2.88,6L271,189c-3.93,1.52-4.88.92-5-3-.17-6.82-.45-13.63-.59-20.44-.06-2.8,2.06-1.49,3.39-1.62a3.31,3.31,0,0,1,0,.63c-2.08,3.24-1.43,5.89,1.48,6.09A3.71,3.71,0,0,1,270.29,171.23Z"/><path class="cls-4" d="M303.46,32c2.16-2.12,4.12-4.45,6.77-6,1.06-.64,2.08-1.55,3.32-.72s1,2.15.86,3.35c-.46,4.11-1,8.22-1.5,12.56-2.18-1-5.55-.64-3.31-4.78,1-1.82-1.63-3.46-4.93-3.19Zm7.41-1.78c-.12-.78.34-2.06-.89-2s-1.81,1.31-2.14,2.26c-.43,1.27,1,1.65,1.73,1.74C311,32.43,310.54,31,310.87,30.23Z"/><path class="cls-4" d="M386.62,91.07c-4,.69-6.48,3.62-9.54,5.52-1.16.71-.71,1.53-.15,2.48.84,1.41,2.54,1.41,3.74,2.56-1.39,1.67-2.63,2-4,0s-3.91-4.17-4.1-6.4,3.71-2,5.24-3.84a18.4,18.4,0,0,1,3-2.16C384.3,86.59,384.29,86.58,386.62,91.07Z"/><path class="cls-4" d="M138.15,28.76c-2.94,2.08-5.94,2.59-9,.18a7.82,7.82,0,0,1-2.22-9c1.44-3.5,4.33-4.82,7.85-5.05,2.13-.14,3,1.13,3.12,3.09-.32.14-.62.38-.72.31-1.95-1.22-4-2.23-6-.46-1.89,1.61-1.51,3.8-.88,5.81.93,3,2.89,4.78,6.28,4.38C137.17,28.15,137.82,28.12,138.15,28.76Z"/><path class="cls-4" d="M148.63,319.73c1.81-.27,3.19-.06,2.86,2.34a14.84,14.84,0,0,0,0,2.58c0,1,.4,1.72,1.47,1.75,1.25,0,1.24-.92,1.2-1.8a11.34,11.34,0,0,0-.26-3.27c-.37-1-.69-1.54.7-1.65.93-.08,1.78-.06,1.85,1.15.09,1.59,0,3.2.19,4.78a1.49,1.49,0,0,0,1.45,1.4c1.07,0,.92-1,.92-1.64a14.69,14.69,0,0,0-.3-3.64c-.41-1.49.67-1.83,1.51-2,1.45-.27,1,1,1,1.75.11,2.05-.44,4.15.78,6.3-3.61.16-7.06-.3-10.5.2-1.69.25-2.18-1.22-2.39-2.67s.4-2.95-.5-4.3C148.67,320.6,148.65,320.16,148.63,319.73Z"/><path class="cls-4" d="M32.13,130.82a11.67,11.67,0,0,1-1.65,3.07c-1.15,1.15-1.44-.71-2.24-1-3.06-1.2-6-2.6-9.1-3.82-.61-.25-1.7.17-1.55-.93a6,6,0,0,1,1.69-3.58c.7-.67.93.31,1.38.57a53.24,53.24,0,0,0,10,4.5C31.29,129.84,32.08,129.59,32.13,130.82Z"/><path class="cls-4" d="M274.54,9.27c-.68,1.55-1.25,2.61-1.6,3.73-.76,2.44-1.49,4.89-2.07,7.38-.53,2.27-2.33,3-4.21,1.65-.57-.43-.67-.75-.3-1.46a29.35,29.35,0,0,0,3.29-11.42c.09-1.13.62-1.21,1.38-1C272.25,8.47,273.44,8.91,274.54,9.27Z"/><path class="cls-4" d="M407.13,173.35c-1.17-.58-.87-2.08-1.15-3.29s.12-1.28,1.33-1.36a32.28,32.28,0,0,0,10.9-2.57c1.14-.49,1.67-.36,1.79.61.16,1.21,1.42,3.39.08,3.54A59.36,59.36,0,0,0,407.13,173.35Z"/><path class="cls-4" d="M13.31,234.71c-3.42.54-6.54,1.06-9.67,1.51-.7.1-1.47,1.55-2.07.16A7.46,7.46,0,0,1,1,232.84c.16-1.42,1.31-.38,2-.47,3.14-.41,6.26-.93,9.4-1.24.89-.08,1.68-1.63,2.53-.43a4.48,4.48,0,0,1,.59,3.87C15.07,236,13.85,234.4,13.31,234.71Z"/><path class="cls-4" d="M217.08,327.49c-3.38,1.13-6.76-.14-10.15,0-.67,0-.78-1.2-1.4-1.76s.74-.4,1.13-.73c1.86-1.56,3.18-3.14-.43-5.32,3.35-.11,4.63.79,4.55,3.3a10.08,10.08,0,0,0,.21,2.91,1.39,1.39,0,0,0,1.62,1.13c.74-.17.74-.92.71-1.51-.18-2.91.54-5.88-.49-8.73-.24-.65.16-.86.6-1.08a1.05,1.05,0,0,0,.07.43c.62,3.38,1.12,6.77.32,10.2-.34,1.47.6.85,1.22.72.24,0,.47,0,.71,0,.47.1.73.88,1.38.42Z"/><path class="cls-4" d="M144.05,327.91c-1.82.13-3.69.33-4.63-1.77a4.22,4.22,0,0,1,.92-5.24c.94.28.81,1,.76,1.75-.12,2,.49,4.21,2.58,4s1.41-3,.93-4.07c-1-2.21.61-2.23,1.69-2.84h.59l.21,2.16c0,2.78-.46,5.63,0,8.33.54,3.08-.8,3.06-3.22,2.54a5.32,5.32,0,0,0,.74-4.22C144.74,328,144.7,327.69,144.05,327.91Z"/><path class="cls-4" d="M287.25,324.82c0,1,.74,2.36-.53,2.85-1.09.41-1.39-1.07-2.08-1.66-2.2-1.89-3.18-5.06-6.31-5.95l-.53-.42a4.79,4.79,0,0,0-2.71-4c6.24-.54,7,4.68,9.93,7.11A4.18,4.18,0,0,0,287.25,324.82Z"/><path class="cls-2" d="M137.38,185.92c-.26.9-1,1-1.74,1l-58.12-.18c9.32-.08,18.63-.2,28-.24s18.65,0,28,0C134.78,186.47,136.17,186.78,137.38,185.92Z"/><path class="cls-4" d="M305.73,149.19c-1.58.34-2.22,2.71-4.34,1.94-.44-.16-.93.24-.95.84a2.7,2.7,0,0,0,.88,1.93c.86.93,2.08,0,3.14.68-1.3,1.76-2.84,2.6-4.66,1.18-2.18-1.71-2.13-4.08-.85-6.27,1-1.75,2.7-2.63,4.59-1.1.91.73,1.46.47,2.14-.13C305.7,148.57,305.71,148.88,305.73,149.19Z"/><path class="cls-4" d="M249.52,154.86c.29-3.57,1-7.17-.73-10.89a12,12,0,0,1,4.48-.12c-1.82,3.76-1.46,7.51-.73,11.28,0,.28,0,.56,0,.84l-2.91.11Z"/><path class="cls-4" d="M92.66,316.15c-3.1,4-2.84,7.77.4,11.32-3.13.17-5.06-1.59-5.37-4.77C87.34,319.18,89,316.88,92.66,316.15Z"/><path class="cls-4" d="M296,182.06c-3.3,1.12-2.51,3.42-1.95,5.7.17.67,2.71.34.79,1.7-.86.61-2.56.71-2.87-.49-.61-2.39-1.47-5.16-.81-7.34C292.32,177.94,294.21,181.62,296,182.06Z"/><path class="cls-4" d="M311.61,327.45c-1.47.8-2.58.37-3.75-.05-.95-.34-1.08-.62-.91-1.21a19,19,0,0,0,.85-4.52c0-.76-1.48-1.81.4-2,1.22-.16,1.94.73,2.21,2C310.83,323.58,310,325.76,311.61,327.45Z"/><path class="cls-4" d="M252.36,163.2a24.2,24.2,0,0,1,2.72,2.31c1.56,1.76,2.63,3.66.37,5.72l-1.36-.64c.33-2.07-.76-3.27-2.31-4.48-2.87-2.25-2.78-3.85,0-6.36.07.45.15.9.22,1.35l-.06,1.23A.66.66,0,0,0,252.36,163.2Z"/><path class="cls-4" d="M258.44,171.28c-1.43-1.91-.09-2.81,1.36-3.6s3-1.54,0-2.33a1,1,0,0,1-.52-.8c.08-.76.8-.8,1.36-.94a1.94,1.94,0,0,1,2.45,1c1,2.1,0,4.52,1.11,6.71.27.54-1.19.85-2,.38-.52-.54-.55-1.77-1.56-1.57s-.49,1.16-.64,1.79l-.73-.06Z"/><path class="cls-4" d="M284.11,170c-.91,2-2.34,2.55-4,1.8-1.92-.87-2.39-2.66-2.14-4.64a4.1,4.1,0,0,1,3-3.78c.46-.13,1.09-.15,1.26.41.11.39,0,1.19-.22,1.29a2.54,2.54,0,0,0-1.64,3.62C281,170.42,282.62,170.09,284.11,170Z"/><path class="cls-4" d="M119.52,327.48l-5.71.32,0-1.27c4-1.63,1.3-4.18,1.12-6.58,1.54-.75,2.91-.62,3.41,1.65l0,0c-.52,1.67-.79,3.31.41,4.84C118.77,327,119,327.4,119.52,327.48Z"/><path class="cls-4" d="M103.51,327.93c-1.9.18-3,0-2.56-2.6a18.8,18.8,0,0,0-.26-8.3c-.37-1.22.43-1.55,1.22-1.78,1.24-.35,1.47.4,1.28,1.43a.89.89,0,0,0,0,1.52c-.21,1.37.87,2,1.59,2.87-2.88.61-1,3-1.68,4.45-.07.09-.22.21-.2.27a4.25,4.25,0,0,0,.29.56Z"/><path class="cls-4" d="M217.08,327.49l0-.06c2.2-3.25,1.66-5.61-1.45-6.28v-.76c3.75-1.61,4.75-1,5,3.14.07,1.31-.32,2.69.91,4.08A5.88,5.88,0,0,1,217.08,327.49Z"/><path class="cls-4" d="M250.33,187.46c-.23-3.38.81-6.87-1-10.22h4.48c-2.2,3.55-.85,7.32-1.15,10.92l-.13,1.34-2.08,0C250.4,188.84,250.37,188.15,250.33,187.46Z"/><path class="cls-4" d="M299.87,165.06c-4.44-.48-3.06,2.46-2.78,4.75l.5.78c.05.81-.07,1.44-1.11,1.44a1.64,1.64,0,0,1-1.73-1.56c-.34-2,.19-4.11-.59-6.15-.15-.41.83-1.42,1.47-1.92,1-.78,1,.45,1.43.84a20.83,20.83,0,0,0,2.81,1.71Z"/><path class="cls-4" d="M282.93,149.93c1.48-3.58,3.89-.06,5.14-.79-.25-.12-1.31-.79-1.73.54a6.89,6.89,0,0,0,.51,6.3c-2.28.61-4,.85-3.23-2.54.23-1.07.79-2.67-.76-3.57Z"/><path class="cls-4" d="M301,185.47c0-1.05.52-2.32-.81-2.87-.85-.36-1.22.53-1.69,1.21.36-1.53.89-2.81,2.69-2.56s1.85,1.64,1.89,3a29.56,29.56,0,0,0,.2,3.26c.08.61,1.2,1.17.3,1.83a1.72,1.72,0,0,1-2.53-.56C301,187.7,301,186.58,301,185.47Z"/><path class="cls-4" d="M195.06,316.78c0,3.05.09,6.1.06,9.15,0,.62,1,1.41,0,1.8a4,4,0,0,1-2.52,0c-1-.35-.33-1.13-.17-1.81.71-3,.23-6.08.3-9.11.07-.39.15-.78.22-1.17h1.92Z"/><path class="cls-4" d="M254.84,327.91c-1.93.11-3.61.36-2.86-2.76a21.11,21.11,0,0,0,0-7c-.15-1.4-.68-3,1.26-3s.71,1.9,1,2.9a5.85,5.85,0,0,1,.11,1.46C254.14,322.38,253.84,325.18,254.84,327.91Z"/><path class="cls-4" d="M203.81,327.59a5.55,5.55,0,0,1-3.74.12,7.27,7.27,0,0,0,.47-5.2c-.44-1.46-.33-2.56,1.2-2.67,2-.13,1.1,1.59,1.25,2.59C203.24,324.15,202.44,326,203.81,327.59Z"/><path class="cls-4" d="M307.58,181.54c1.22.18,1.94.94,1.79,1.74-.39,2,2.82,3.14,1.13,5.3-.53.68-1.33.55-2,.38-1.79-.43-3.26-5.59-2-6.86A3.69,3.69,0,0,1,307.58,181.54Z"/><path class="cls-4" d="M287.27,163.94c1.56.27,3.41-1.55,4.7.54s-.13,4.85,1,7.16c.14.28-1.27.33-2,.33s-1.27-.14-.95-1.27a12.65,12.65,0,0,0,.19-3.65c0-1.51-.63-2.38-2.31-1.7Z"/><path class="cls-4" d="M307.61,167.12c0-2-.65-2.79-2.42-1.73a2.25,2.25,0,0,1,2.57-1.8c1.68.29,1.81,1.69,1.86,3.11a11.63,11.63,0,0,0,.32,3.6c.82,2.44-.69,1.7-1.9,1.25Z"/><path class="cls-4" d="M260.93,186.55a11.69,11.69,0,0,0-.29-2.9c-.5-1.54.29-2.17,1.48-2.27,1.39-.12.91,1.13,1,1.87.08,1.58.07,3.16.1,4.75,0,.52.9,1.19.08,1.51a3.89,3.89,0,0,1-2.5,0c-.8-.29.06-1,0-1.53A12.3,12.3,0,0,1,260.93,186.55Z"/><path class="cls-4" d="M305.73,149.19c0-.31,0-.62-.05-.93,1.79-4,3,.91,4.64.15-3.06,1.8-3.22,4.74-.24,7.18-1.4.76-2.65,1.52-3.67-.41,0-.45-.07-.9-.1-1.35a.88.88,0,0,1,0-1.27c0-.56,0-1.12,0-1.68Z"/><path class="cls-4" d="M280.09,155.88c-2.07,1.27-3.68.5-5.07-1.17-.47-.56-.46-1.85-1.75-1.11l0-3.71c2,1.23,1.9-2.33,3.68-1.65,1,1.21-.49,2.16-.32,3.29.26,1.67-.34,3.94,2.61,3.73Z"/><path class="cls-4" d="M261.62,327.71c.27-2,.87-4,0-6-.68-1.49.66-1.67,1.41-1.92,1.43-.49,1.19.74,1.22,1.52,0,1.33-.27,2.75.08,4C265.07,328.05,263.86,328.29,261.62,327.71Z"/><path class="cls-4" d="M287.25,324.82a4.18,4.18,0,0,1-2.23-2.07c3.11-2.68.8-4.87-.67-7.21,2.47-.35,4.94-1.1,3.34,3.15C287,320.53,287.37,322.76,287.25,324.82Z"/><path class="cls-4" d="M174.84,323.48a6.12,6.12,0,0,0-.06-1.77c-.22-.68-2.23-.95-.57-2,.9-.57,1.91.06,2.44,1,1.16,2.05-.07,4.55,1.17,6.73.2.36-1.76.55-2.75,0C175,326.11,174.92,324.8,174.84,323.48Z"/><path class="cls-4" d="M267.35,156.33c-1.34-.12-.78-1.11-.83-1.82,0-.87,0-1.74,0-2.61v-3.29c.15-1.07.43-2.14-.31-3.12-.36-.6-.74-1.2.24-1.59l1.65.06c0,1.19,0,2.37,0,3.55,0,.6,0,1.2,0,1.8.59,2.08-1.51,5.07,2.09,6.12l-.71.83-1.51-.07C267.75,155.86,267.53,156,267.35,156.33Z"/><path class="cls-4" d="M113.77,326.53l0,1.27c-2.11.68-2.93-.39-3.07-2.31-.09-1.34,0-2.7-.25-4-.14-.84-.79-1.62.69-1.81s1.72.52,1.73,1.69c0,1.47.07,2.94.11,4.4a.86.86,0,0,0,.35.57A.31.31,0,0,1,113.77,326.53Z"/><path class="cls-4" d="M124.87,327.82c1.79-2.82-.06-5.48-.36-8.21,2.8.44,4.42,3.5,3.55,7.44C127.69,328.76,126,327.67,124.87,327.82Z"/><path class="cls-4" d="M256.36,327.58c2-2.86.5-5.37-.79-7.91,2.56-.37,3.75.69,3.77,3.32,0,1.35-.63,2.87.62,4.05l.13.77Z"/><path class="cls-4" d="M277.19,186c.85,1.57,2,2.4,4,1.57-.62,2-2,2.48-3.52,2-1.92-.58-2.43-2.23-2.38-4.09,0-1.38.18-2.71,1.56-3.48C277.1,183.33,276.53,184.71,277.19,186Z"/><path class="cls-4" d="M246.64,327.79c1.47-2.41.78-4.87.17-7.33,1.87-1,3.15-1.21,2.93,1.7-.14,1.75-.47,3.62.53,5.3C249.06,328.26,247.84,327.84,246.64,327.79Z"/><path class="cls-4" d="M226,323.31c.32-1.37-.62-2.38-1.29-3.66,2.44,0,3.69.81,3.6,3.17a7.15,7.15,0,0,0,.22,3.25c1.7,3.47-.73,1.53-1.77,1.44A4.4,4.4,0,0,1,226,323.31Z"/><path class="cls-4" d="M104.74,321.13c-1-1.28.1-1.43.91-1.51a2.07,2.07,0,0,1,2.36,1.74c.53,1.85-.34,3.88.76,5.64l-.11.88-3,0C105.94,325.53,107.52,323,104.74,321.13Z"/><path class="cls-4" d="M277.8,319.64l.53.42c.87,2.47-1.17,5.71,2.53,7.49a9.68,9.68,0,0,1-5.06.23C277.79,325.31,277.24,322.36,277.8,319.64Z"/><path class="cls-4" d="M279.22,155.26c2-2.21,0-4.8.69-7.13,1.48-.19,1.45,2.14,3,1.8l-.07-.06c-1.24,1.86.54,5.11-2.77,6Z"/><path class="cls-4" d="M174.84,323.48c.08,1.32.15,2.63.23,3.94-1.71,1.87-3.51-.85-5.24.1v-.24C171.44,325.93,172.19,323.45,174.84,323.48Z"/><path class="cls-4" d="M315.46,321.14c-1.65,2.21-.9,4.34.47,6.53-2.6.47-3.26-1.21-3.59-2.84-.4-2-.29-3.94,2.24-4.6Z"/><path class="cls-4" d="M215.68,320.39v.76l-.24,4.4c-.51.39-.45.93-.4,1.47-.62.13-1.56.75-1.22-.72.8-3.43.3-6.82-.32-10.2l2-.09Z"/><path class="cls-4" d="M241.63,321.12c.87,2.14,4.69,2.52,3.52,5.88l-.2-.07H243.4c-.1-1.51-.36-2.76-2.26-1.45v-.07c1.13-1-.18-1.41-.52-2-.74-1.34-1.06-2.53.91-3Z"/><path class="cls-4" d="M317.49,327.05c.93-2,1.85-3.93,0-5.91.06-1.06,1-.69,1.53-.9,2.67,2.34,2.73,4.69,0,7.05Z"/><path class="cls-4" d="M260.09,149.1c2.79-1.71,4.22-1,4.24,2.34a13.16,13.16,0,0,0,.3,3.26c.58,2.28-.52,1.74-1.74,1.14-.19-1.28.54-2.75-.79-3.79C262.31,150.47,262.65,148.8,260.09,149.1Z"/><path class="cls-4" d="M169.83,327.28v.24c-1.66.79-3.41.1-5.1.31a2.09,2.09,0,0,0-.13-.66l.31-.28c3.7.48.92-2.64,2-3.62a4.44,4.44,0,0,1-.08-1.44c.26-.87-2.1-.23-.84-1.65,1.09-1.22,1.64-.09,2.39.33.46,1.65-.37,3.49.74,5.05Z"/><path class="cls-1" d="M71,213.38c.54.58,1.91.42,1.56,1.77l-.79.42-3.55-.08-.11-.06c0-1-.16-2-1.48-2.09l.55-1.56a.39.39,0,0,0,.18-.53l0-.08a1.38,1.38,0,0,0,.63-1.61l.3-.92.48-1.16v0a1.44,1.44,0,0,1,1.48.77c.13,1.81-2.32,3.24-.78,5.26l.4.87.38-.89Z"/><path class="cls-2" d="M409.89,230.33l1.84-.08c-.53,1.79-.88,3.79-.12,5.37.64,1.32.22,1.78-.66,2a1.43,1.43,0,0,1-1.87-1.6C409.21,234.13,409.61,232.23,409.89,230.33Z"/><path class="cls-4" d="M287.27,163.94c.22.47.44.94.67,1.41,0,2,.05,3.94.08,5.91a.65.65,0,0,0,0,.53h-2.12a1,1,0,0,0-.14-.66,43.29,43.29,0,0,0-.17-5.35C285.3,164.17,286,163.87,287.27,163.94Z"/><path class="cls-4" d="M277.19,186c-.66-1.29-.09-2.67-.32-4,.84-1.3,2-1.25,3.18-.63a2.26,2.26,0,0,1,1.35,2c0,1.31-1,1.07-1.85,1.12C278.49,184.59,277.21,184.29,277.19,186Z"/><path class="cls-5" d="M108.72,29.34c-.18-.62-.35-1.26-1.11-1.43,1.52-1,3-2,4.6-2.84a1.5,1.5,0,0,1,2.34.92c.56,1.81-.84,1.24-1.69,1.28A6.78,6.78,0,0,0,108.72,29.34Z"/><path class="cls-4" d="M268.83,164.56a3.31,3.31,0,0,0,0-.63,2.26,2.26,0,0,1,3.52,1.33c.65,1.88,1.29,4.08-1.29,5.32h0C270.44,168.53,271.51,165.84,268.83,164.56Z"/><path class="cls-4" d="M276.35,167.45a20,20,0,0,1,0,2.19c-.08.79,0,1.81-1.32,1.65s-.88-.89-.68-1.77a6.5,6.5,0,0,0,0-3.22c-.4-1.31-.33-2.34,1.08-2.44,1.57-.12.82,1.34,1,2.13a7.89,7.89,0,0,1,0,1.46Z"/><path class="cls-4" d="M268.19,149.31c0-.6,0-1.2,0-1.8,1.61,1,4.45-.67,5.1,2.38l0,3.71a1.54,1.54,0,0,1-1.49,1.45l0,0C271.18,152.79,273,149,268.19,149.31Z"/><path class="cls-4" d="M258.69,155c0-2.32,1.86-2.42,3.41-2.91,1.33,1,.6,2.51.79,3.79C261.42,155.89,259.67,157.28,258.69,155Z"/><path class="cls-4" d="M254.09,170.59l1.36.64c-4.11,2.27-6.18,1.22-6.27-3.28C251,168.55,251.06,172.45,254.09,170.59Z"/><path class="cls-4" d="M226,323.31a4.4,4.4,0,0,0,.76,4.2c-.46.11-.94.19-1.4.34-1.35.43-2.43.17-2.92-1.28s.71-1.86,1.66-2.37C224.7,323.87,225.35,323.6,226,323.31Z"/><path class="cls-4" d="M299.87,165.06V165c1.23-1.36,2.31-2.17,2.49.63.13,1.89-.43,3.83.46,5.66a.79.79,0,0,0-.15.63l-2,0-.58-.89A9.09,9.09,0,0,0,299.87,165.06Z"/><path class="cls-4" d="M307.61,167.12l.43,4.43c-1.32.19-3,1.42-3.73-.58C303.33,168.14,306.3,168.24,307.61,167.12Z"/><path class="cls-2" d="M253.32,5.2V3.72c2,.31,3.88.87,4.44,3.13a1.5,1.5,0,0,1-.69,1.9c-.78.33-1.15-.35-1.32-.9C255.35,6.56,254.27,6,253.32,5.2Z"/><path class="cls-4" d="M301,185.47c0,1.11,0,2.23.05,3.35-1.36,1.32-2.84,1.39-3.28-.56C297.22,185.88,299.32,185.73,301,185.47Z"/><path class="cls-4" d="M286.24,184.06c-.05,1.1-.1,2.21-.14,3.31-.15.73-.3,1.46-.44,2.18l-1.21,0-.55-.8c.62-1.58.34-3.22.25-4.84a.64.64,0,0,0-.47-.93.48.48,0,0,1,0-.58l.75-.7c.65-.27,1.3-.51,1.57.48A1.87,1.87,0,0,0,286.24,184.06Z"/><path class="cls-5" d="M138.15,28.76c-.33-.64-1-.61-1.56-.74.64-.54,1.26-1.12,1.93-1.62.83-.62.74-3,2.31-1.84,1.07.79-.29,2.15-1,3.09C139.44,28.21,139,28.88,138.15,28.76Z"/><path class="cls-1" d="M223.08,134c-.9.51-1.36.2-1.45-.78l.71-1a8.23,8.23,0,0,1,3.89-3l1-.45.88-.33c.09.59.18,1.18.28,1.77l-4.07,2.65c-.16.18-.32.36-.49.53Z"/><path class="cls-5" d="M12,145.58c-.14-.59-.12-1.26-.77-1.6A3.77,3.77,0,0,1,13.12,141a1.59,1.59,0,0,1,2.27.43c.63,1-.5,1.24-1,1.45C13.07,143.42,12.65,144.58,12,145.58Z"/><path class="cls-4" d="M257,152.8c1.55.29.5,1.52.82,2.26-1.39,2.35-3.39,1.24-5.24.91,0-.28,0-.56,0-.84C254.42,155.11,256.15,154.78,257,152.8Z"/><path class="cls-2" d="M131,130a8,8,0,0,1,5.34,3.42L135,134.69l-5.61-3.3C130.22,131.23,130.86,130.91,131,130Z"/><path class="cls-2" d="M75.47,189.82a2.21,2.21,0,0,0,1.32,1.85l-1.53,4h-2A19,19,0,0,1,75.47,189.82Z"/><path class="cls-4" d="M241.13,325.42v.07c.08,1.54,1.06,1.67,2.26,1.45H245c-1.1,1.7-2.67,1.56-4.19.87C239.44,327.2,239.59,326.49,241.13,325.42Z"/><path class="cls-4" d="M252.51,189.5l.13-1.34c1.9.7,3.45,0,4.85-1.46C258,190,258,190,252.51,189.5Z"/><path class="cls-4" d="M252,161.1c-.07-.45-.15-.9-.22-1.35,3.83-1.17,4.58-.67,4.39,3.07C254.57,162.62,254.46,158.62,252,161.1Z"/><path class="cls-4" d="M195.06,316.78l-.21-1.12c4.92-.8,4.92-.8,4.41,4C198.31,317.52,197.13,316.31,195.06,316.78Z"/><path class="cls-4" d="M192.93,315.65c-.07.39-.15.78-.22,1.17a5.06,5.06,0,0,0-4.36,1.26C187.93,313.48,191,315.62,192.93,315.65Z"/><path class="cls-1" d="M131,130c-.11.91-.75,1.23-1.54,1.39l-1.11-.28-1.34-.38-2.06-.31,0-1.9a11.94,11.94,0,0,1,4.68,1l1.21.43Z"/><path class="cls-4" d="M121.16,328c0-2,0-4.06,0-6.09h1.35c.36,2-.36,4.1.85,6Z"/><path class="cls-2" d="M124.89,128.52l0,1.9-3.71-.57c.22-.59.45-1.19.67-1.79A5.13,5.13,0,0,1,124.89,128.52Z"/><path class="cls-1" d="M71.69,199.93l.36-1.19,1,2.81-1.4,3.15c-.94.34-1.21-.28-1.41-1l.8-2.16A1.38,1.38,0,0,0,71.69,199.93Z"/><path class="cls-2" d="M73,201.55l-1-2.81c.2-.55.4-1.1.61-1.65h2A12,12,0,0,1,73,201.55Z"/><path class="cls-4" d="M166.92,323.27c-1.09,1,1.69,4.1-2,3.62-.08-.76-.15-1.52-.23-2.28Z"/><path class="cls-4" d="M241.63,321.12l-.11-.77c0-.82.39-1.37,1.29-1.42a1.4,1.4,0,0,1,1.66,1.45C243.73,321.43,242.64,321.11,241.63,321.12Z"/><path class="cls-4" d="M169.13,325.56c-1.11-1.56-.28-3.4-.74-5.05C170.05,322,169.21,323.83,169.13,325.56Z"/><path class="cls-2" d="M70.23,203.71c.2.71.47,1.33,1.41,1a.29.29,0,0,1-.27.37l-.36,1c0,.79.18,1.68-.74,2.18a1.44,1.44,0,0,0-1.48-.77A7.4,7.4,0,0,1,70.23,203.71Z"/><path class="cls-4" d="M301.26,33.78l2.2-1.77,1.21,1.17v0c-1.36.24-1,2.44-2.67,2.33l0,0Z"/><path class="cls-2" d="M228.34,130.23c-.1-.59-.19-1.18-.28-1.77a2.46,2.46,0,0,1,2.36-.74c-.89,1.86.75,1.2,1.45,1.46Z"/><path class="cls-4" d="M286.24,184.06a1.87,1.87,0,0,1-.24-1.85,9.71,9.71,0,0,1,1.86-.26C288.29,183.33,287.37,183.8,286.24,184.06Z"/><path class="cls-2" d="M119.07,126.82l.7.72c0,.7,0,1.39,0,2.09a2.41,2.41,0,0,1-2.29-1.9A1.57,1.57,0,0,0,119.07,126.82Z"/><path class="cls-1" d="M119.75,129.63c0-.7,0-1.39,0-2.09l2.11.52c-.22.6-.45,1.2-.67,1.79Z"/><path class="cls-1" d="M135,134.69l1.27-1.27a2.32,2.32,0,0,1,1.1,1.71l.51,1a.73.73,0,0,1-1.26.09C135.37,136.5,135.43,135.35,135,134.69Z"/><path class="cls-4" d="M260,172c.15-.63-.22-1.63.64-1.79s1,1,1.56,1.57Z"/><path class="cls-2" d="M302,35.49c1.66.11,1.31-2.09,2.67-2.33C303.14,33.21,305.28,37.45,302,35.49Z"/><path class="cls-4" d="M250.33,187.46c0,.69.07,1.38.1,2.07-.55.25-1.57.16-1.48-.13A6.73,6.73,0,0,1,250.33,187.46Z"/><path class="cls-4" d="M285.66,189.55c.14-.72.29-1.45.44-2.18.41.78,1.51,1.19,1.25,2.26A8.69,8.69,0,0,1,285.66,189.55Z"/><path class="cls-1" d="M74.66,197.1h-2l.41-.81a.41.41,0,0,0,.17-.56l0-.06h2l-.37.78-.23.64Z"/><path class="cls-2" d="M220.8,175.7a1.26,1.26,0,0,1,0-2.19A2.66,2.66,0,0,1,220.8,175.7Z"/><path class="cls-4" d="M164.68,324.61c.08.76.15,1.52.23,2.28l-.31.28-1-.2-.17-1.4.6-.7Z"/><path class="cls-2" d="M66.62,213.34c1.32.11,1.43,1.08,1.48,2.09C67.2,215,66.28,214.63,66.62,213.34Z"/><path class="cls-6" d="M215.47,316l-2,.09a1.05,1.05,0,0,1-.07-.43C214.21,315.17,215.07,314.19,215.47,316Z"/><path class="cls-2" d="M68.21,215.49l3.55.08A2.42,2.42,0,0,1,68.21,215.49Z"/><path class="cls-4" d="M249.52,154.86l.15,1.22c-.42.3-1,.47-1.15-.08C248.27,155.27,249,155,249.52,154.86Z"/><path class="cls-4" d="M266.22,145.49c.74,1,.46,2,.31,3.12C266.42,147.57,266.32,146.53,266.22,145.49Z"/><path class="cls-4" d="M269.57,156.26c.23-.28.47-.55.71-.83l1.54-.36,0,0C271.35,156,270.73,156.63,269.57,156.26Z"/><path class="cls-2" d="M220.77,146.16c-.7-.52-.62-1,.07-1.46A1.34,1.34,0,0,1,220.77,146.16Z"/><path class="cls-2" d="M221.11,183a2.68,2.68,0,0,1-.13-2.45A2.57,2.57,0,0,1,221.11,183Z"/><path class="cls-4" d="M300.06,171l.58.89c-.57.27-1.32.36-1.55-.19S299.64,171.15,300.06,171Z"/><path class="cls-2" d="M136.33,137.17a2.6,2.6,0,0,1,.44,2.16C136.62,138.61,136.48,137.89,136.33,137.17Z"/><path class="cls-4" d="M121.12,321.11l.08-1.45a1.7,1.7,0,0,1,1.88.73l-.21.11-.21-.11Z"/><path class="cls-4" d="M266.53,151.9c0,.87,0,1.74,0,2.61C266.53,153.64,266.53,152.77,266.53,151.9Z"/><path class="cls-2" d="M301.26,33.78l.76,1.73a1.51,1.51,0,0,1-1.39-.82C300.32,34,300.86,34,301.26,33.78Z"/><path class="cls-4" d="M103.17,318.2a.89.89,0,0,1,0-1.52Z"/><path class="cls-2" d="M240.84,127.12v-1.77A1.14,1.14,0,0,1,240.84,127.12Z"/><path class="cls-2" d="M236.3,128.91l.43-.88.39.91Z"/><path class="cls-2" d="M220.93,143.41a1.39,1.39,0,0,1,.31-1.63A1.64,1.64,0,0,1,220.93,143.41Z"/><path class="cls-2" d="M113.06,126.77c.5-.62,1-.64,1.48,0Z"/><path class="cls-4" d="M268.11,144l-1.65-.06C267,143.28,267.61,142.58,268.11,144Z"/><path class="cls-2" d="M68,209.56a1.38,1.38,0,0,1-.63,1.61A1.56,1.56,0,0,1,68,209.56Z"/><path class="cls-2" d="M257.76,207.45a1.33,1.33,0,0,1-.66-1.64A1.65,1.65,0,0,1,257.76,207.45Z"/><path class="cls-2" d="M108.68,112.33l-.29,1.3Z"/><path class="cls-2" d="M71.69,199.93a1.38,1.38,0,0,1-.66,1.62A1.58,1.58,0,0,1,71.69,199.93Z"/><path class="cls-4" d="M163.58,327l1,.2a2.09,2.09,0,0,1,.13.66C164.05,327.94,163.74,327.56,163.58,327Z"/><path class="cls-4" d="M283.9,188.78l.55.8c-.42.23-.84.29-1.09-.19C283.32,189.3,283.71,189,283.9,188.78Z"/><path class="cls-2" d="M76.13,188.19a1.35,1.35,0,0,1-.64,1.57A1.62,1.62,0,0,1,76.13,188.19Z"/><path class="cls-5" d="M289.49,407.5l-1.32,0,.93-.78Z"/><path class="cls-2" d="M221.66,137.48a2,2,0,0,1,.62-1.92l.05.3C222.1,136.4,221.88,136.94,221.66,137.48Z"/><path class="cls-2" d="M223.78,133.41c.17-.17.33-.35.49-.53C224.11,133.06,224,133.24,223.78,133.41Z"/><path class="cls-2" d="M127,130.73l1.34.38A1.17,1.17,0,0,1,127,130.73Z"/><path class="cls-2" d="M222.32,135.91l-.09-.82.82,0Z"/><path class="cls-2" d="M239.29,128.92l.72-.47C239.94,128.86,239.71,129,239.29,128.92Z"/><path class="cls-2" d="M67.35,211.25a.39.39,0,0,1-.18.53l-.07-.31Z"/><path class="cls-2" d="M68.79,207.48l-.48,1.16Z"/><path class="cls-2" d="M107.39,126.24l.52.48C107.45,126.86,107.21,126.78,107.39,126.24Z"/><path class="cls-5" d="M12.61,147.67l-.59-.94Z"/><path class="cls-4" d="M284.43,181.73l-.75.7C283.64,181.89,283.93,181.7,284.43,181.73Z"/><path class="cls-4" d="M288,171.79a.65.65,0,0,1,0-.53l.52.48Z"/><path class="cls-2" d="M240.65,124.78l-.62-.6C240.5,124.1,240.7,124.32,240.65,124.78Z"/><path class="cls-2" d="M239.18,121.82a3.26,3.26,0,0,1-.26-.53s.15-.14.24-.21Z"/><path class="cls-2" d="M239.07,119.61l-.47-.82C238.93,119,239.28,119.12,239.07,119.61Z"/><path class="cls-4" d="M285.71,171.12a1,1,0,0,1,.14.66l-.59,0Z"/><path class="cls-2" d="M256.69,204.49c-.14-.26-.27-.53-.4-.79C256.42,204,256.55,204.23,256.69,204.49Z"/><path class="cls-2" d="M255.93,202.74l-.44-1.09C255.83,201.93,256.13,202.23,255.93,202.74Z"/><path class="cls-2" d="M107.93,116c0,.27-.07.53-.1.8a3.11,3.11,0,0,1-.11-.58C107.72,116.13,107.86,116.05,107.93,116Z"/><path class="cls-4" d="M258.44,171.28l.79.63Z"/><path class="cls-4" d="M164,324.87l-.6.7C163.29,325.07,163.55,324.88,164,324.87Z"/><path class="cls-4" d="M306.34,150.88c0,.56,0,1.12,0,1.68A1.22,1.22,0,0,1,306.34,150.88Z"/><path class="cls-2" d="M255.2,200.85l-.79-.54C254.87,200.21,255.2,200.28,255.2,200.85Z"/><path class="cls-4" d="M270.29,171.23a3.71,3.71,0,0,0,0-.58.44.44,0,0,1,.78-.07h0C271,171,270.77,171.28,270.29,171.23Z"/><path class="cls-4" d="M283.68,183a.64.64,0,0,1,.47.93C284,183.63,283.84,183.32,283.68,183Z"/><path class="cls-4" d="M306.31,153.83c0,.45.07.9.1,1.35C306.14,154.75,305.93,154.31,306.31,153.83Z"/><path class="cls-2" d="M73.24,195.72a.41.41,0,0,1-.17.56A.35.35,0,0,1,73.24,195.72Z"/><path class="cls-2" d="M220.94,179.58l-.05-1A.67.67,0,0,1,220.94,179.58Z"/><path class="cls-4" d="M271.78,188.26c-.07.43-.22.79-.77.71l.07.06c0-.51-.12-1.11.74-.74Z"/><path class="cls-4" d="M267.35,156.33c.18-.35.4-.47.71-.14Z"/><path class="cls-4" d="M302.67,171.87a.79.79,0,0,1,.15-.63c.32.06.63.17.43.56C303.2,171.9,302.87,171.85,302.67,171.87Z"/><path class="cls-2" d="M76.91,186.89l-.56.64C76.26,187.07,76.39,186.81,76.91,186.89Z"/><path class="cls-4" d="M252.36,163.2a.66.66,0,0,1-.46-.87Z"/><path class="cls-4" d="M297.59,170.59l-.5-.78Z"/><path class="cls-4" d="M113.37,326.33a.86.86,0,0,1-.35-.57A.74.74,0,0,1,113.37,326.33Z"/><path class="cls-7" d="M184.7,153.54c7,0,14,.13,21-.07,2.94-.08,3.54,1.1,3.34,3.7-.58,7.69-4.93,10.13-12.16,7.22a31.54,31.54,0,0,0-21.05-.87,63.42,63.42,0,0,1-9.32,1.69,5.51,5.51,0,0,1-5.7-3.28,11.07,11.07,0,0,1-.36-7.58c.35-1.31,1.9-.77,2.93-.78,7.11,0,14.23,0,21.34,0Z"/><path class="cls-8" d="M201.9,211.83c-.42-6.15-5.07-8.27-9.85-10.09-1.89-.72-3.61.33-4.9,1.81a4.33,4.33,0,0,0-.73,4.83,4.72,4.72,0,0,0,4.37,2.86c.93,0,2.31-1.18,2.81.57a3.56,3.56,0,0,1-.91,3.41c-3.44,3.89-16.38,3.28-19.49-.94a1.28,1.28,0,0,1,0-1.68l1.81,0c1.44,2.21,3.35,1.26,5.19.77.27.4.5.38.71-.06.27-2.37-1.91-4.18-1.51-6.58l-.67-.71-.08-.09a1.32,1.32,0,0,0-.69-1.43v0c0-.81.17-1.67-.71-2.21-.35-.49-1-.95-1-1.47-.14-1.43-2.18-2.66-1.13-3.88,1.29-1.51,2.9.3,4.39.46,5.08.54,10.25,1.52,15.14-.9a4.87,4.87,0,0,1,4.89-.17c3.21,1.81,7.19,2.45,9.2,6.15a6.51,6.51,0,0,1,.17,6.64c-1.12,2.08-2.74,2.07-4.69,1.36C203.07,210.06,202.53,211.11,201.9,211.83Z"/><path class="cls-9" d="M213.51,91.61c3,.07,5.58-1.54,8.64-1.49,16.21.28,27.61,8.7,32.36,24.22a8.84,8.84,0,0,1,.27,2.91c-.07,1.53.93,3.72-2,3.7-2.31,0-4.48.37-5.34-2.94-2.94-11.28-10-19.1-20.81-23.55-4.22-1.74-8.61-1.54-13-1.54C213.57,92.48,213.54,92.05,213.51,91.61Z"/><path class="cls-9" d="M154.89,93.1c-10.34-1-18.49,2.9-25.26,9.43-4.49,4.33-7.23,10.08-8.9,16.15-1.1,4-4.21,2.41-6.24,2.09-2.56-.4-.64-2.48-.43-3.84,1.12-7.33,3.73-13.94,9.75-18.64,8.05-6.28,17-9.31,27.36-7.36A6.22,6.22,0,0,1,154.89,93.1Z"/><path class="cls-10" d="M215.11,124h-6.82c-4.54,0-9.08,0-13.63,0-1.69,0-2.88.46-3.17,2.28-.35,2.19,1.46,2.41,2.76,2.71,2.38.53,4.86.2,7.28.84,1.77.48,1.94,1.18,1,2.55a22.34,22.34,0,0,0-4.08,11.26c-.07,1.6-1.19,2.35-2.75,2.37s-3.19,0-4.78,0-2.63-.88-2.6-2.79c.08-6.14,0-12.28,0-18.42,0-1.23.24-2.19,1.78-2.18,8,.07,15.95.12,23.92.21C214.23,122.79,214.37,123.1,215.11,124Z"/><path class="cls-7" d="M163.77,172.89c7.1.25,13.57-2.7,20.5-3.08,4.14-.23,7.9.94,11.62,2.43,2.37.95,4.84.58,7.26.62s2,1.15,1.12,2.49c-2.24,3.22-6.61,4.8-10,2.67-5.79-3.63-11.23-1.53-16.79,0C172.37,179.39,165.82,179.05,163.77,172.89Z"/><path class="cls-10" d="M152.32,123.84a2,2,0,0,1,2.32-1.23c7.14,0,14.27,0,21.41-.06,1.75,0,2.76.29,2.73,2.38-.08,6-.05,12.06,0,18.08,0,2-.77,2.67-2.64,2.55a20.67,20.67,0,0,0-3.69,0c-2.53.29-3.38-.69-3.49-3.27a16.7,16.7,0,0,0-3.23-8.52c-1.92-2.77-.46-3.41,1.86-3.77,2.06-.32,4.13-.59,6.21-.74s2.76-1.16,2.77-3.11c0-2.28-1.49-2.13-3-2.13q-8.67,0-17.35,0C155.06,124,153.87,123.91,152.32,123.84Z"/><path class="cls-11" d="M165,72.91c-1.83,0-3.67.07-5.51,0-2.51-.12-4.39-1.29-4.29-4s2.31-4.79,4.53-4.38c3.47.64,5.8-1.1,8.45-2.33,3.91-1.81,5.49-.9,5.57,3.35C173.9,73,173.54,73.28,165,72.91Z"/><path class="cls-9" d="M202,102.59c10.38-2.84,19.23-1.4,26.32,6.56,2.26,2.53,4.06,5.45,4.33,9,.11,1.35.2,2.91-1.94,2.68-1.52-.16-3.35.94-4-1.81-1.36-5.45-4.14-10-9.12-13.09-4-2.43-8.26-2.85-12.73-2.66A3.21,3.21,0,0,1,202,102.59Z"/><path class="cls-9" d="M165.5,103.06a31.36,31.36,0,0,0-13.29,2.11c-5.2,1.92-7.45,6.74-9.61,11.42a13.62,13.62,0,0,0-.75,2.45c-.6,2.39-2.51,2.09-4.16,1.85-2.15-.31-1.7-2.11-1.5-3.5.93-6.44,8.92-14.29,15.55-15.36C155.68,101.39,162.87,101.75,165.5,103.06Z"/><path class="cls-8" d="M169.94,205l-4.41,4.67a6.5,6.5,0,0,1-3.82-1.14c-3.06-1.64-3.54-3.64-1.63-6.59,2.28-3.53,3.63-3.88,6.72-1.6.8.59,1.46,1.36,2.59.89l.1.08C168.85,202.63,170.26,203.7,169.94,205Z"/><path class="cls-7" d="M175.41,186.8c4.78-.53,9-4.17,14.06-2.34,1.5.53,3.28.64,3.33,2.71s-1.83,1.51-2.92,2.08C184.39,192.14,180,189.06,175.41,186.8Z"/><path class="cls-11" d="M184.72,88.25c-1.06-2.52-2.12-5-3.12-7.41-1.22-3,1.38-4.29,2.93-6a.8.8,0,0,1,1.37.52C186.52,79.66,189.06,84.1,184.72,88.25Z"/><path class="cls-8" d="M179.64,94a2.26,2.26,0,0,1,1.47,1.55c.92,2.37,1.86,4.74,2.68,7.14a2.22,2.22,0,0,1-.27,1.7c-.27.39-.86.14-1.28-.19A10.91,10.91,0,0,1,178.06,96,1.65,1.65,0,0,1,179.64,94Z"/><path class="cls-4" d="M186.84,102.6c.51-3.5,2-6.65,3.44-10.06a7.65,7.65,0,0,1-3.34,10.14Z"/><path class="cls-2" d="M173.53,125.82a126.14,126.14,0,0,1-18.34,0A85.83,85.83,0,0,1,173.53,125.82Z"/><path class="cls-2" d="M213.51,91.61c0,.44.06.87.08,1.31-2-.68-3.42,2.18-6,1C209.44,92.15,211.24,91.31,213.51,91.61Z"/><path class="cls-5" d="M200.91,78.81c-.64-.21-1.4-.5-1-1.17a7.8,7.8,0,0,1,2.33-2.48c.39-.25,1.45.72,1.17,1.38A4.06,4.06,0,0,1,200.91,78.81Z"/><path class="cls-5" d="M197.34,76c.26-1.76,1-2.59,2.49-2.77.21,0,.73.49.69.57A3.86,3.86,0,0,1,197.34,76Z"/><path class="cls-2" d="M126.4,123.93l2.78-.15.18,2.06a4.1,4.1,0,0,1-3.06,0C126.33,125.19,126.37,124.56,126.4,123.93Z"/><path class="cls-2" d="M145.51,125.86a32.6,32.6,0,0,1-8.77,0A19.11,19.11,0,0,1,145.51,125.86Z"/><path class="cls-2" d="M235.3,125.93c1-1,2.19-.2,3.75-.68C237,127,237,127,235.3,125.93Z"/><path class="cls-2" d="M135.17,125.86a8.2,8.2,0,0,1-4.34,0A5.15,5.15,0,0,1,135.17,125.86Z"/><path class="cls-4" d="M175.05,212.63l-1.81,0a4.58,4.58,0,0,0,.46-2.93C174.71,210.4,174.4,211.73,175.05,212.63Z"/><path class="cls-2" d="M123.34,125.81a6.91,6.91,0,0,1-3.61.14A3.45,3.45,0,0,1,123.34,125.81Z"/><path class="cls-12" d="M209.72,147.28l3-.34C211.86,148.23,210.8,147.82,209.72,147.28Z"/><path class="cls-2" d="M171.33,127.7l3-.63C173.53,128.16,172.41,127.81,171.33,127.7Z"/><path class="cls-12" d="M204.57,147l3,.33C206.52,147.86,205.46,148.19,204.57,147Z"/><path class="cls-2" d="M230.46,127.72a3.23,3.23,0,0,1,2.94-.64C232.57,128,231.5,127.8,230.46,127.72Z"/><path class="cls-5" d="M212.72,142.49a3.52,3.52,0,0,1-.52-2.43A2.51,2.51,0,0,1,212.72,142.49Z"/><path class="cls-4" d="M177.28,202.29c.88.54.72,1.4.71,2.21C177.17,204,177.31,203.1,177.28,202.29Z"/><path class="cls-12" d="M204.4,144.65l-.1,1.58C203.7,145.67,203.78,145.14,204.4,144.65Z"/><path class="cls-4" d="M186.94,102.68l-.35.94a2,2,0,0,1-.25-.2c.15-.28.33-.55.5-.82Z"/><path class="cls-4" d="M172.17,206.59a1.46,1.46,0,0,1-.82-1.33A1.22,1.22,0,0,1,172.17,206.59Z"/><path class="cls-4" d="M178,204.53a1.32,1.32,0,0,1,.69,1.43A1.44,1.44,0,0,1,178,204.53Z"/><path class="cls-12" d="M160.26,147.32l1.59,0A1,1,0,0,1,160.26,147.32Z"/><path class="cls-4" d="M181,213.34c-.21.44-.44.46-.71.06A5.67,5.67,0,0,1,181,213.34Z"/><path class="cls-2" d="M174.42,127c0-.27.05-.54.07-.81C175.09,126.53,175,126.8,174.42,127Z"/><path class="cls-2" d="M147.74,125.88H147C147.28,125.53,147.51,125.53,147.74,125.88Z"/><path class="cls-4" d="M178.77,206.05l.67.71Z"/><path class="cls-8" d="M171.31,205.24a.68.68,0,0,1-.62-.33C171.13,204.58,171.27,204.81,171.31,205.24Z"/><path class="cls-2" d="M126.69,119.62c-.09.27-.19.54-.29.81C126.5,120.16,126.6,119.89,126.69,119.62Z"/><path class="cls-5" d="M212.72,135.84l.39.75Z"/><path class="cls-3" d="M224.51,205.36l-.31-.15h-.36a1,1,0,0,0-1.26-.45c-1.32-1.14-1.86-2.38.53-2.41,9.68-.11,19.35,0,29-.07a1.89,1.89,0,0,1,2.1,1.52,46.38,46.38,0,0,0,1.88,4.35q8,20.61,15.9,41.2c2.92,7.53,5.9,15,8.88,22.63,1.81-.8,1.92-2.46,2.48-3.71q14.19-31.39,28.18-62.89c1-2.29,2.16-3,4.63-3,9.72.15,19.44,0,29.16.08,1.18,0,2.44-.33,3.69.47-.54,1.41-1.76,1-2.71,1-12.21.32-17.65,5.88-17.7,18.13q-.12,31-.23,62c0,2.33,0,4.67.15,7,.53,10.45,6.36,16.25,16.69,16.88,1.58.1,4.51-1.09,4.38,1.6-.08,1.68-2.94.74-4.5.76-16.48.17-33,.23-49.45.33-1,0-2,0-2.95,0-1.18-.06-3,.23-3-1.27s1.82-1.13,2.91-1.33a42.69,42.69,0,0,1,5.48-.75c11.3-.55,15-8.73,14.92-17q-.12-27.87-.29-55.73c0-5.89,0-11.78,0-17.9-1.62.67-1.67,1.9-2.09,2.83q-12,26.53-23.89,53.11c-.58,1.3-2.21,2.68-.68,4.32a6.19,6.19,0,0,0,5.69,1.95c1.17-.18,2.26-1.07,3.56-.28,0,1.64-1.47,2.16-2.38,3-5,4.74-10.06,9.4-15.12,14.07-3,2.81-3.45,2.72-5-1.12q-13.79-35-27.55-69.93c-.68-1.7-.85-4.73-3.22-4.21-1.75.39-.77,3.22-.77,4.92q0,32.12.17,64.22c0,9.84,4.32,15.29,13.95,17.46,2.86.64,5.84.78,8.75,1.19.71.1,1.56.25,1.43,1.28-.1.75-.82.85-1.4.92a20.32,20.32,0,0,1-2.21.06l-45,.05a14.59,14.59,0,0,1-1.48,0c-.69-.07-1.64.05-1.75-.88s.86-1,1.55-1.16c2.54-.45,5.13-.7,7.62-1.33,9.47-2.4,13.32-7.38,13.34-17.11q0-34.5,0-69C236.29,212.79,232.6,207.93,224.51,205.36Z"/><path class="cls-3" d="M74.89,196.44l.37-.78,1.53-4a.34.34,0,0,0,.1-.45c.38-.31.69-.66.51-1.2,1-2.26,3.22-.8,4.73-1.5a2.14,2.14,0,0,0,2.08,0q14.1.48,28.19,0a50.52,50.52,0,0,0,11.66,0h3.85a5.16,5.16,0,0,0,3.53,0c3.09-.27,4.41,1,3.82,4.17-.32,1.74.62,3.67-.77,5.27a5.72,5.72,0,0,0-3.16,5.4c.11,25.57-.58,51.15,1.35,76.7.55,7.23,4.51,11.08,10.57,13.61a25.36,25.36,0,0,0,9.72,1.87,2.53,2.53,0,0,1,2.15,1.39H92.56c.89-1.89,2.19-1.25,3.35-1.23a21.91,21.91,0,0,0,10.71-2.22c5.13-2.66,8-6.83,8-12.69q.1-36.88.15-73.78c0-8.65-3.22-11.88-11.93-12.31-2.58-.13-5.16-.11-7.74-.08-10.67.15-20.68,5.51-24.08,18.77l-.72.09-.78,0c-1.54-2,.91-3.45.78-5.26.92-.5.7-1.39.74-2.18.3-.26.92-.4.36-1a.29.29,0,0,0,.27-.37l1.4-3.15a12,12,0,0,0,1.62-4.45v0Z"/><path class="cls-13" d="M87,301.88c-2.58.06-5.16.22-7.74.15-2.82-.08-4.35,1.7-4.36,4s2.46,2.34,4.28,2.34c9.1,0,18.19,0,27.29,0l98.83,0a10.25,10.25,0,0,1,1.84,0c1.08.21,3-.71,3,.92s-2,.89-3,.89q-64.9.06-129.8,0H75.87c-6.82,0-6.56.15-3.85-5.95,1.61-3.65,3.81-4.73,7.62-4.54,5.92.29,5.17.68,5.22-5.31,0-1,0-2,0-2.95,0-1.44,0-2.78,2-2.67,1,.05,1.77-.45,1.63-1.51-.49-3.59,1.88-3.21,4.15-3.19,5.41.05,10.82,0,16.23.05.91,0,2.55-.68,2.48,1.15,0,1.28-1.28,1.68-2.48,1.69-4.79.05-9.59.16-14.38.08-2.29,0-3.89.27-3.51,3.12.11.82.06,2-1.11,2-3.89-.07-2.47,2.72-2.62,4.67C87.21,298.48,87.12,300.18,87,301.88Z"/><path class="cls-14" d="M108.3,288.67c-3.81,4.33-8.67,5.07-13.92,4.65-2-.16-1.38-1.61-1.48-2.7-.12-1.33.43-2,1.89-2C99.3,288.7,103.8,288.67,108.3,288.67Z"/><path class="cls-4" d="M87,301.88c.08-1.7.17-3.4.25-5.1h1.4l0,5.16Z"/><path class="cls-1" d="M74.61,210.37c-.46.08-1.06.79-1.3-.2-.06-.26.16-.81.36-.87.87-.27.77.53,1,1Z"/><polygon class="cls-15" points="257.54 208.79 257.46 208.82 257.43 208.63 257.54 208.79"/><path class="cls-2" d="M141.57,216.5l-.42-.95c.93.06,1.3-.49,1.41-1.31,4.61,10.15,13.1,15.11,23.47,17.62a66.32,66.32,0,0,0,25.52,1.55c14.18-2.09,24.26-8.8,27.16-23.75.67.31.67,1.38,1.6,1.4-1.23,9.92-6.76,17-15.64,20.74-18.15,7.67-36,5.74-53.12-3.59a20.49,20.49,0,0,1-9.7-11.16A.51.51,0,0,1,141.57,216.5Z"/><path class="cls-1" d="M142.56,214.24c-.11.82-.48,1.37-1.41,1.31v0l-.49-1.17-.28-.9-.48-1.33c-.12-.48-.25-1-.37-1.44s-.27-1-.4-1.52a13,13,0,0,1-.86-4.7c.74-.55.57-1-.12-1.46l-.12-1.16-.18-1.25.12-.18.2.07c1.4-1.13,1.55,0,1.7,1,.43,2.74.83,5.49,1.25,8.24a1.94,1.94,0,0,0,.65,2.17Z"/><path class="cls-2" d="M219.35,141.71c.08,1.51.5,3-.45,4.45A9.11,9.11,0,0,1,219.35,141.71Z"/><path class="cls-2" d="M219.05,177.24a5.55,5.55,0,0,1,.21,3.85A6.49,6.49,0,0,1,219.05,177.24Z"/><path class="cls-2" d="M218.67,155a1.85,1.85,0,0,1,0,3A5,5,0,0,1,218.67,155Z"/><path class="cls-2" d="M141.76,211.88a1.94,1.94,0,0,1-.65-2.17A2.76,2.76,0,0,1,141.76,211.88Z"/><path class="cls-2" d="M138.62,138.79a1.32,1.32,0,0,1-.43-1.55A1.54,1.54,0,0,1,138.62,138.79Z"/><path class="cls-2" d="M222.34,132.21l-.71,1A.81.81,0,0,1,222.34,132.21Z"/><path class="cls-2" d="M130.78,129.94l-1.21-.43A1,1,0,0,1,130.78,129.94Z"/><path class="cls-2" d="M227.18,128.79l-1,.45C226.45,128.87,226.72,128.62,227.18,128.79Z"/><path class="cls-2" d="M219.16,206.34l-.21,1.09Z"/><path class="cls-2" d="M139,142.33a.44.44,0,0,1-.07-.59A.34.34,0,0,1,139,142.33Z"/><path class="cls-2" d="M139.34,144.7a4.14,4.14,0,0,1-.3-.5s.15-.14.23-.22C139.29,144.22,139.31,144.46,139.34,144.7Z"/><path class="cls-2" d="M137.92,136.1l-.51-1C137.81,135.34,138.06,135.62,137.92,136.1Z"/><path class="cls-2" d="M124.06,188.52a50.52,50.52,0,0,1-11.66,0A39,39,0,0,1,124.06,188.52Z"/><path class="cls-2" d="M137.7,199.61l-1.09-.91c.1-.59.2-1.53.9-1.25C138.57,197.87,138.11,198.83,137.7,199.61Z"/><path class="cls-2" d="M131.44,188.51a5.16,5.16,0,0,1-3.53,0A4,4,0,0,1,131.44,188.51Z"/><path class="cls-2" d="M84.21,188.52a2.14,2.14,0,0,1-2.08,0A1.64,1.64,0,0,1,84.21,188.52Z"/><path class="cls-2" d="M77.4,190c.18.54-.13.89-.51,1.2Z"/><path class="cls-2" d="M221.12,206.73c-.1.23-.19.46-.29.68Z"/><path class="cls-2" d="M222.58,204.76a1,1,0,0,1,1.26.45Z"/><path class="cls-4" d="M215.44,325.55l.31,1.46c-.24,0-.47,0-.71,0C215,326.48,214.93,325.94,215.44,325.55Z"/><path class="cls-4" d="M103.08,325.52l.09.83a4.25,4.25,0,0,1-.29-.56C102.86,325.73,103,325.61,103.08,325.52Z"/><path class="cls-4" d="M121.12,321.11l1.54-.72c.52.53,0,1-.1,1.47h-1.35l-1.24-.22Z"/><path class="cls-2" d="M69.49,213.49l.78,0-.38.89Z"/><path class="cls-1" d="M71.37,205.07c.56.58-.06.72-.36,1Z"/><path class="cls-2" d="M74.89,196.44l-.23.64Z"/><path class="cls-2" d="M138.14,203c.69.43.86.91.12,1.46A1.23,1.23,0,0,1,138.14,203Z"/><path class="cls-2" d="M140.65,214.36l.49,1.17C140.76,215.23,140.46,214.9,140.65,214.36Z"/><path class="cls-2" d="M139.89,212.13l.48,1.33A1.18,1.18,0,0,1,139.89,212.13Z"/><path class="cls-2" d="M139.12,209.17c.13.51.27,1,.4,1.52A1.26,1.26,0,0,1,139.12,209.17Z"/><path class="cls-2" d="M137.84,200.6l.18,1.25A.83.83,0,0,1,137.84,200.6Z"/><path class="cls-1" d="M141.57,216.5a.51.51,0,0,0,.28.55A.5.5,0,0,1,141.57,216.5Z"/></g></g></svg>