<svg xmlns="http://www.w3.org/2000/svg" viewBox="0 0 425.2 654.57"><defs><style>.cls-1{fill:#df2a21;}.cls-2{fill:#2d2d2d;}.cls-3{fill:#101010;}.cls-4{fill:#fcf7f6;}.cls-5{fill:#d93b35;}.cls-6{fill:#212823;}.cls-7{fill:#f1f0f1;}.cls-8{fill:#e02e28;}.cls-9{fill:#929292;}.cls-10{fill:#fff;}.cls-11{fill:#0e993b;}.cls-12{fill:#1e9538;}.cls-13{fill:#fefdfd;}.cls-14{fill:#e4e3e4;}.cls-15{fill:#3d3d3d;}.cls-16{fill:#7cc087;}.cls-17{fill:#585858;}</style></defs><title>Recurso 1</title><g id="Capa_2" data-name="Capa 2"><g id="Layer_1" data-name="Layer 1"><path class="cls-1" d="M0,628.28c13-6,27-8.36,41.14-9.16-.13-1.16-.06-1.5-.2-1.69-6.52-9.59-5-15.12,5.69-19.53,6.23-2.58,12.6-4.82,19.47-5l26.41,0c7.12,1,14.35,1.09,21.33,3.26,2.34.73,5.09.5,7.61.28,3.57-.31,6.55,2,10,1.85a10.54,10.54,0,0,0,5-1.06c-2.88-4.57-7.43-6.55-12.19-7.84a19,19,0,0,1-9.51-5.71c-3.49-3.86-8.26-6-12.36-9a215.76,215.76,0,0,1-58.08-64.77c-5.11-8.66-7.41-18.38-9.84-28-9.24-36.46-9.37-73.62-9-110.92.51-46.2,0-92.41-.08-138.62q-.07-48.48-.11-96.95c0-1.45,0-2.9,0-4.93l18.2,11A338,338,0,0,0,91,165a359.66,359.66,0,0,0,82.66,22.18c8.66,1.29,17.35.4,25.86,2.22-.93.14-2.08-.52-2.92,1h30.11c.61,0,1.22-.15.68-1,6.56-.89,13.33,0,19.73-1.16,6.75-1.22,13.58-2,20.32-3.29,20.77-4.05,41.16-9.41,60.82-17.31,5.13-1.75,10.4-.64,15.59-.67,8.5-.06,8.5.1,4.49-7.49-.07-.12,0-.3-.05-.45a346.59,346.59,0,0,0,42.87-23.38c1.88-1.19,3.56-2.72,5.78-3.32,0,2,.11,3.93.12,5.89q0,124,.08,248c0,1.87-.76,4,.91,5.59.54,8.75,1.39,17.57.26,26.24-1.35,10.32-1.13,20.75-3,31-3.52,19.71-7.74,39.35-16.5,57.38-9.57,19.69-23,36.87-38.67,52.28a190.4,190.4,0,0,1-53.14,37.18c-1.46.69-3.3.28-4.42,1.74-.92,1.18-3,.45-3.77,2.5,9,.53,17.79-.22,26.58-1.17,8.46-.92,16.95-1.59,25.43-2.37h34.55c8.24.34,15.94,2.83,23.33,6.27,3.67,1.7,4.37,5.72,2.26,10-1.68,3.41-4.43,5.93-7.6,9.09a119.75,119.75,0,0,1,41.79,13.61v2.72c-4.09-.43-7.89,1.14-11.84,1.71-6.12.89-7.61,2.85-6.79,9,.26,1.92,1,3.8-.41,5.58h-3.63c-.49-2.6-3-2.76-4.73-3.53-11.66-5.16-24-7.8-36.6-9.31-9.73-1.17-17.5-9.78-16.46-19.51.5-4.63-1.32-4.34-4.56-4.23-14.49.49-28.67,3.77-43.14,4.47-15.55.76-30.57-.24-42.73-11.54a8,8,0,0,0-7.69-2.24,178.35,178.35,0,0,1-71-1.08c-2.52-.56-3.91,0-5.32,2.47-2.35,4.19-5.45,8.18-10.91,8.29-9.65.2-19.31.26-28.95-.41-8.92-2.33-18-1.36-27-1.49-7.74.34-15.53-.44-23.35.42,3.36,11.09-5.32,22.9-16.45,23.35-14.47.58-28.88,1.76-42.38,7.74-1.35.6-2.68,1.84-4.16.7s-.74-2.78-.47-4.23c1.48-8.09-.23-10.38-8.35-11.78-2.76-.48-5.79.23-8.26-1.66Zm228.42-26c5.25-.07,10.34-1.32,15.49-2.15,1.39-.23,2.63-.25,2.92-2.09,1.11-7,4.67-12.86,9-19.16l-19.28-2.69a14.1,14.1,0,0,0-7-1.45q-13.81,0-27.63,0c-3.32,0-6.61.09-9.68,1.55a309.35,309.35,0,0,0-30.76,4.7c2.31,3.67,5.27,6.69,6.25,10.25,2,7.22,8,7.79,13.28,8.65,6.39,1,12.77,2.79,19.36,2.38,1,1.49,2.46,1.51,4,1.51q9.72,0,19.43,0A7,7,0,0,0,228.42,602.31ZM53.08,504.07c2,4.64,5.22,8.58,8,12.73a222.52,222.52,0,0,0,42.76,46.7c2.57,2.13,6,6.64,9.93,1,.22-.33.77-.45,1.19-.61,23.23-8.87,47.18-14.77,72-16.26,24.27-1.45,48.31-.21,72.29,4.93,11.91,2.55,23.81,5.06,35.56,8.23,10.64,2.87,10.59,3.06,9.8,13.84,1.73.23,2.71-1.14,3.87-1.94a198.27,198.27,0,0,0,30-25.16c11.38-11.86,22.11-24.26,28.16-39.92,3.26-3.93,5.16-8.57,6.75-13.34q3.18-9.53,6.08-19.15c1.83-6.13,3.24-12.34,4.75-18.54,1.13-4.61,1.56-9.37,2.34-14,1.5-9,3.1-17.91,3.11-27q.11-126.22,0-252.44v-8.62c0-1.57,0-2.81-2.22-1.63A412.6,412.6,0,0,1,340,174.72c-11.15,4.28-22.45,8.05-33.77,11.75a246.9,246.9,0,0,1-28.95,7.22c-11.31,2.22-22.75,3.93-34.19,5.39-8.18,1-16.47.71-24.72,1.63-14.89,1.67-29.76-1.45-44.68-1.5a5,5,0,0,1-1.35-.11c-9-2.53-18.4-2.86-27.54-4.75-8.93-1.85-17.85-3.84-26.56-6.3a298,298,0,0,1-38.39-14A387,387,0,0,1,42.15,154.9c-1.67-1-3-3.7-5.16-2.41s-.78,3.87-.8,5.84c-.94,77.16,1.74,154.34-1.57,231.48C34.19,399.94,35.89,410,35.88,420a248,248,0,0,0,2.57,32.75A177.38,177.38,0,0,0,45,483.36C47.27,490.47,48.81,497.77,53.08,504.07Zm233.59,78.09c6.76.63,9.75-3.72,12.62-8.57s2.11-6.71-3.13-7.91S285.7,563,280.53,561.6c-7.49-2.09-15.14-3.22-22.63-5.12-5-1.27-10.16-.88-15-2.14-7.89-2.06-16-1.61-23.93-2.8-7.09-1.07-14.47-.3-21.72-.28-10.8,0-21.37,2.26-32.05,3.46-7.21.81-14.15,2.81-21.19,4.23-7.58,1.52-14.82,4.64-22.28,6.8-5.53,1.61-7.72,3.52-7.46,7.37a11.91,11.91,0,0,0,12.6,11.08c5.53-.26,10.48-2.94,15.8-3.73,7.45-1.1,14.75-3,22.1-4.45,11.84-2.33,23.75-4.2,35.68-4.59,13.29-.44,26.63-1.25,40,1.06,5.9,1,12.19,1.33,18,2.68,3.91.91,8,1.5,12,2.63C275.86,579.35,281,582.19,286.67,582.16Zm89,38.29c4.37-1.92,8.36-4.1,11.11-9.08,2.1-3.82.47-4.58-2.15-5.71-10.53-4.54-21.57-5.83-33-5.73a340.67,340.67,0,0,0-44.42,3.43c-9.79,1.37-19.88.62-29.83.74-8,.09-16-.59-23.67-3.2-2-.68-1.72.8-1.42,1.47a10.05,10.05,0,0,0,2.26,3.06c8.37,8.12,18.34,12.62,30.06,12.82a192,192,0,0,0,25.44-1.4c8.13-.92,16.21-3,24.51-2.45a4.51,4.51,0,0,0,1.77-.29c9-3,17.62.08,26.27,1.57C366.94,616.42,371,618.67,375.68,620.45Zm-296-23.7c-11.54-1.56-22.11,1.7-32.59,5.4-4.25,1.49-6.51,5.55-5.18,9.23,1.44,4,8.47,8.12,11.63,6.61a52.82,52.82,0,0,1,23.88-5.16c19.11.27,38.24-1.17,57.32,1.37,6.69.89,13.61-.07,20.36.5,5.16.43,8.38-2.23,10.89-5.73,1.17-1.65,3.52-4,2.18-6.26-1-1.68-3.62-.67-5.5-.65-18.42.19-36.72.05-55-3.21C98.53,597.22,89.07,595.06,79.71,596.75ZM412.8,635.66c-2.05-3.5-5.74-3.52-8.68-4.51-5.95-2-12.34-2.77-18.29-4.45-10.2-2.88-17.22.85-23.89,7.45-2.17,2.15-1.28,3.68,1.28,3.77,7,.24,13.58,2.33,20.35,3.71a83,83,0,0,1,14.79,4.79c3.36,1.37,4.44,1.18,4.09-2.36-.34-3.33,1.49-4.93,4-6.62C408.36,636.09,410.57,636.93,412.8,635.66ZM12.72,628.25a17.3,17.3,0,0,0,4.11,3c2.83,1.34,5.64,3.24,4.93,7.26-.77,4.41,2.24,3.9,4.59,3.06,9.1-3.24,18.5-4.58,28.06-5.13,2.86-.16,5.73-.13,8.59-.1,2.36,0,2.79-1.58,1.6-2.82-4.52-4.7-8.62-10-16.26-10.06C36.38,623.33,24.59,624.13,12.72,628.25Zm268.59-41.88c-5.9-3.27-12.42-3.62-18.28-6a2.65,2.65,0,0,0-3.54,1c-2.33,3.93-4.86,7.73-7,11.73-.87,1.61-.43,2.9,1.92,3.48,5,1.22,10.11,1.45,15,3.18,1.31.47,3.74,1.15,4.14-1.19C274.37,593.45,277.72,590,281.31,586.37ZM134.63,588c5.05,9.17,12.84,12,22.7,10.36,2.6-.45,6,.48,7.32-2.17s-1.59-4.68-3-6.75c-4.12-6.14-6.71-7.47-13.1-5.16C143.88,585.92,138.68,585.36,134.63,588Zm233.62,34.68c-5.05-1.44-9.59-2.2-14-3.32-3.58-.9-6.1-.1-5.57,3.44.58,3.79,1.14,7.85,4.73,10.46.62.45.88,2,1.8.69C358.53,629.23,363.54,626.46,368.25,622.63Zm-310.48-1.7c3,2.52,5.95,4.65,8.5,7.13,1.6,1.56,1.49,5.19,4.77,4.62,2.89-.5,3.5-3.73,4.69-5.82,1-1.75.5-4.41.47-6.67s-1.16-2.93-3.57-2.51C67.86,618.53,63,618.76,57.77,620.93Z"/><path class="cls-2" d="M201.32,10.08c-.1-2.4,1.89-1.94,3.17-2.15C207.76,7.41,209.31,5,207,3c-2.83-2.39,1.11-2,.65-3h2.72c-.14,7-.08,13.89,2.06,20.62-1,.08-2.59.92-3.93-.67s.07-3.31.07-5C208.51,9.71,206.51,8.27,201.32,10.08Z"/><path class="cls-3" d="M348.3,159c0,.15,0,.33.05.45,4,7.59,4,7.43-4.49,7.49-5.19,0-10.46-1.08-15.59.67-1-1.74-2.71-1-4-1.05-14-.57-28.06-.93-42.08-1.6-3.47-.17-6.11,2.05-9.52,2.14-7.82.19-15.6.91-23.18-1.92-1.33-.5-3-.16-4.5-.11q-29.87,1-59.74,2.11c-4.78.17-4.84.14-2.76-4.31q7.22-15.51,14.47-31a5.18,5.18,0,0,0,1.53-3.11l.35-.83,3.16-6.43.26-.84a30.54,30.54,0,0,0,3.84-8l0,0,.69-1.15,3.5-.5c.51.8,1.85.72,2,1.89l-11.91,24.9c-4.59,7.68-7.91,16-11.85,24-.65,1.34-1,2.2,1,2.32,6.17.36,12.18-1.73,18.37-1.2.21,0,.49-.94.74-1.45,1.35-.18,4,2.53,3.55-1.61l2.42,0c-.13,2.86.19,3,4.8,1.54,1.06-.18.69-2.2,2.22-1.76,7.82,2.26,15.81.35,23.71.8,3,.17,4.77,1,5.78,3.68a51.19,51.19,0,0,0,26.41.05c1-4,3.84-4.27,7.17-3.55,5.07,1.34,10.14.79,15.21,0,3.76,2.26,7.93,1.58,12,1.66a8.56,8.56,0,0,0,7.39.35l2.54.14c1.47.77,3,.46,4.57.39l4.51-.12c1.36,1.32,2.64,1.63,3.74-.31l.84-.87,1.82.1c1,1.46,3.24,1.64,2.85.12-.67-2.6-1.14-6.09-4.69-7.1-4.35-9.82-8.7-19.63-13.11-29.56-5.57,4.62-11.46,4.23-17.48.9-.91-.5-1.94-1.91-2.28.5-.12.85-1.06,1-1.8,1.1-7.89.83-15.66,2.76-23.66,2.66-2,0-1.68-1.37-1.25-2.51a7.56,7.56,0,0,1,4.57-4.76c5.16-1.6,6-5.86,6.77-10.16a68.13,68.13,0,0,0,.45-8c-3.11,1.89-4,7.17-8.57,5.15-2.08-.93-2-3.44-1-5.65-1.67-1-4.65.95-5.17-2.2-.44-2.69,1.41-4.09,3.4-5.33,4.58-2.85,9.15-5.72,13.9-9.13-6.62,2.32-10.88-3.25-10.68-6.44.27-4.27-2.75-4.52-3.81-6.77-.23-.49.26-1.44.6-2.09,2.44-4.71,5.83-9,6.67-14.56a15.37,15.37,0,0,1-3.71-1.66c-.86-.65-6,.19-1.5-3.14.55-.4,0-.69-.28-1-.94-.8-2.88-1.34-1.59-3,1.09-1.4,2.4.78,3.7.35.77-.69.4-1.33,0-2a2,2,0,0,1-.1-2.33c2.74.31,3.65,3.25,5.66,4.23,3.77-5.63,4.09,1.18,6.43,1.42.38-1.82,1-3.8,3.19-.73.92,1.29,1.92,3.83,4.05.68.58-.88,1.76.52,2.25,1.46,1,1.85,1.61,3.87,3.19,5.42.71-1.13.13-3.21,1.83-3.32s1.75,1.74,2.11,3,.14,2.65,2.17,1.59c1.23-.65,2.4-.55,2.47,1.33,0,.08.05,1.29.56.41.62-1.08,1.29-2.66,2.47-1.78,1.51,1.15-.79,2.83-.42,4.09,1.64,5.6-2.48,12.11,3.39,17.19,3.6,3.11,5.55,7.79,7.73,12.12,2.44,4.82,4.85,9.78,8.1,14,2.45,3.21.79,4.81-1.07,6.62-1.6,1.55-2.75,1-5.13-2.17-1,1.07.93,3.68-1.84,3.72-2.18,0-2.37-2-2.91-3.46-1.89-5.22-3.6-10.51-5.63-15.68a19.13,19.13,0,0,0-6.23-8.1C319.48,114.26,335.15,136,348.3,159Z"/><path class="cls-4" d="M201.22,97.91l-3.87-2.13c.12-1.32,1.2-2.7-.34-4.23-1.12,1.82-2,3.53-3.15,5.07-3.36,4.56-7,8.64-13.42,8.61-15.85-.09-30.31-16.34-23.76-34.15,4.12-11.17,13.15-16.51,24.57-17.57s20.86,3.11,27.21,13.12c2.44,3.85,3.71,8.21,5.5,12.34,6.82,15.74,16.13,29.26,32.74,36.12a49.75,49.75,0,0,0,14.42,3.15c-3.54,4.78-7.28,6.7-12.88,6.85-17.84.47-38-12.43-45-29a4.25,4.25,0,0,0-2.61-2.6,7.67,7.67,0,0,0,.82-3.89c-.67-6.17-7.83-15-13.7-16.79a9.1,9.1,0,0,0-10.62,3.83c-2.39,3.5-1.72,7-.15,10.51.72-1.71.6-3.45.74-5.17.34-4.1,3.41-7.36,6.7-7.25,4.46.14,11.46,5.28,11.74,9.75a11.4,11.4,0,0,0,4.59,9C199.73,95.05,201.55,96.38,201.22,97.91Z"/><path class="cls-4" d="M228.36,88.49c3.5,1.82,9.36-.44,10.78-4A6.21,6.21,0,0,0,238,77.69c-1.07-1.22-2.26-2.09-3.92-1.43-2.52,1-1.75,3.51-2.26,5.65-3-.91-2.05-3-1.58-4.73.68-2.54,2.88-3.56,5.13-3.64,4-.13,9,9.57,7,13-.67,1.12-3.7,2.62-6.75,3.61l.48,0a4.48,4.48,0,0,1,4.17,2.45,5.28,5.28,0,0,1,.54.92c-.1-.28-.2-.57-.29-.85-.28-.86-.8-1.84.56-2.09,1.18-.21,1.47.86,1.65,1.73,1.41,6.52,5.77,10.86,10.6,15,1.32,1.14,3,1,4.11,2.32,2.16.12,4.36,1.67,6.73-.44-6.58-3.62-10.67-9.2-13.22-16.13-2-5.32-1.37-10.9-2.25-16.32A14.39,14.39,0,0,0,226.51,67a11.3,11.3,0,0,0-5.31,11.18A12.46,12.46,0,0,0,228.36,88.49Z"/><path class="cls-5" d="M222.85,90.84c9.35,16,23,24.92,41.83,25.31-2.23,6.82-7.29,10.1-14.1,10.82-13.25,1.4-24.37-3.92-34.76-11.37-1.22-.88-2.4-1.8-3.6-2.7-.17-1.17-1.51-1.09-2-1.89l-1.91-2.25-.68-.67-.18-.2-.71-.88,0,0-3.43-4.87a.44.44,0,0,0-.26-.56c0-1.31-.9-2.17-1.59-3.14a.32.32,0,0,0-.18-.49c.33-1.53-1.49-2.86-.42-4.47l-.12,0a4.25,4.25,0,0,1,2.61,2.6c7,16.57,27.11,29.47,45,29,5.6-.15,9.34-2.07,12.88-6.85a49.75,49.75,0,0,1-14.42-3.15C230.09,108.23,220.78,94.71,214,79c-1.79-4.13-3.06-8.49-5.5-12.34-6.35-10-15.69-14.2-27.21-13.12s-20.45,6.4-24.57,17.57c-6.55,17.81,7.91,34.06,23.76,34.15,6.46,0,10.06-4,13.42-8.61,1.13-1.54,2-3.25,3.15-5.07,1.54,1.53.46,2.91.34,4.23v.11a4,4,0,0,0-1.9,2.92c-.65.47-1.36.9-1.44,1.82l-2.74,2.7-4.66,3.25c-4.15,1-8.35.66-12.54.4l-.22-.21-.3.06-1.24-.47-1-.32-.82-.52-5-2.34a3.47,3.47,0,0,0-2.32-1.73l-.2-.26-.32.1-.15-.15a1.42,1.42,0,0,0-1.16-1.42c-3.28-3.86-6.2-7.92-7.66-12.85-.2-.56-.41-1.12-.62-1.68a6.54,6.54,0,0,0-.65-4,4.48,4.48,0,0,0,.22-.68c0-.08-.15-.19-.24-.29.82-4.44,1.36-9,3.3-13.11.15-.43.29-.85.43-1.28L161,60a.33.33,0,0,0,.37-.35l4-3.3,1.55-.8,1.73-1.06a3.85,3.85,0,0,0,2.73-1.22c.73.13,1.41.14,1.76-.7l.9-.21c2.09.16,4.2.4,5.77-1.48l10,0a40.58,40.58,0,0,0,9.58,3.54l1.71,1.19,2,1.32.07.11c0,.5.22.8.77.73C210.11,63.29,213.39,70.46,216,78,217.87,82.51,219.64,87.06,222.85,90.84Z"/><path class="cls-5" d="M139.58,98.59l1.87.18a9.46,9.46,0,0,0,7.18-.85l.06,0c1.65.79,3.23-1.9,4.9-.08a1.72,1.72,0,0,0,.2,1.9l-.06.22.18.14c-1.94,1.17-1.6,3.83-3.33,5.13l-.06,0-2.15,1.61-1.64.53-5.25,1.21,1.08-1.34-1.3-.35c2.65-1.36,5.83-1.62,8-3.91.63-.66,1.43-1.35,1-2.33-.64-1.35-1.41-.18-2.16,0a21.32,21.32,0,0,1-12-.21c-6.51-1.88-11.9-5.59-16.83-10.13S109.1,83.9,102.75,87C98,89.27,94.83,92.9,94.19,98.28a11.17,11.17,0,0,0,5.48,11.55c3.93,2.41,8.16,3,12.42.69,3-1.65,3.74-4.61,3.85-7.68s-1.67-5-4.6-5.89c-1.88-.6-3.81-.78-4.84,1-1.45,2.54.49,4.37,2.68,6.18-4.2,1.25-5.16-1.4-5.58-3.77a4.85,4.85,0,0,1,4.15-6,9.24,9.24,0,0,1,9.37,3.24c4,5.15,9.36,7.66,15.37,9.28l-1.28.36,1.07,1.33.14.33-5.38-1.2-2.55-.93-6.28-4.2c-1.22,8.47-4.84,11.76-12,11.61-2.33,0-4.33-1.08-6.5-1.58l-3.44-2.13c-7.69-10-5.24-20.19,6.22-25.88.91-.45,2.11-.57,2.14-2,2.6,1.55,5.49.34,8.19.89l8.58,5.36h0a8.93,8.93,0,0,0,4.48,3.69v0a3.53,3.53,0,0,0,2.77,1.87c1.46,1.58,3.44,2.19,5.4,2.83l1,.43,2.31.37A2,2,0,0,0,139.58,98.59Z"/><path class="cls-6" d="M253.61,153.4c-19.15-1.31-38.13-.67-57.39,5.07,1.23-3.59,2.28-6.65,3.31-9.71.46-1.35,1.51-1.7,2.8-1.83,16.82-1.72,33.35-.48,49.43,5,.65.23,2,0,1.76,1.4Z"/><path class="cls-3" d="M278.36,152.49c6.84-3.35,14.15-4.76,21.52-5.4,8.09-.7,16.21-1.25,24.39-.58,3.19.26,4.89,1.25,5.82,4.27a80.74,80.74,0,0,0,3.24,7.66C314.84,154.84,296.93,150.73,278.36,152.49Z"/><path class="cls-5" d="M261.11,112.6c-2-.3-4-.43-5.56-1.95.74-.11,1.5-.18,1.89-1,2.16.12,4.36,1.67,6.73-.44-6.58-3.62-10.67-9.2-13.22-16.13-2-5.32-1.37-10.9-2.25-16.32A14.39,14.39,0,0,0,226.51,67a11.3,11.3,0,0,0-5.31,11.18,12.46,12.46,0,0,0,7.16,10.28c3.5,1.82,9.36-.44,10.78-4A6.21,6.21,0,0,0,238,77.69c-1.07-1.22-2.26-2.09-3.92-1.43-2.52,1-1.75,3.51-2.26,5.65-3-.91-2.05-3-1.58-4.73.68-2.54,2.88-3.56,5.13-3.64,4-.13,9,9.57,7,13-1.22,2.06-10.48,5.41-13,4.53a51.07,51.07,0,0,1-5.26-2.45,17.44,17.44,0,0,1-4.82-15.23c3.06-7.89,9.3-11.88,17.12-10.94,8.33,1,14,7,14.9,15.59.43,4-.48,8,.89,12,.51,1.52,1.48,2.76,1.88,4.27l.58,1.23a.54.54,0,0,0,.38.6c.19.36.38.72.56,1.08a.58.58,0,0,0,.27.69,2.48,2.48,0,0,0,1.51,2.12.57.57,0,0,0,.29.62c-.06.55.17.84.73.84l.09.06.82.87,0,0a.8.8,0,0,0,.89.86l.06,0,.88.78c.74,1.39,2.21,1.73,3.44,2.43l1.84.6,0,0c1.3.86,2.67,1.7,1.06,3.45C265.41,111.49,263.48,112.72,261.11,112.6Z"/><path class="cls-7" d="M94.3,121.25c.07-1.11.77-1.53,1.78-1.61,3.74.53,8.17-1.58,10.87,2.88-2.12.33-3.94-2.43-6.76-.24,7.57,3.75,14.87,6.2,24,2.4-5,5.95-12.24,7.39-17.88,4.34-2.43-1.32-4.8-2.59-7.68-1.81a3.84,3.84,0,0,0-3.17,3.41,3.52,3.52,0,0,0,1.91,3.75c.83.42,1.67.89,2.43,0,1.14-1.32-.41-1.43-1-1.77-1.23-.74-1.06-1.77-.7-2.76.59-1.62,1.8-.36,2.64-.32a3,3,0,0,1,2.93,2.37c.69,2.71,2.07,1.13,3.28.48l.06,5.43,0,0-1.19-.45c.5-1.9-.43-3.11-1.8-1.47-2.76,3.32-6.07,3.42-9.75,2.92-5.94-4.59-5.92-10.3.14-15,1.33-1,3.79-1.78-.07-2.53"/><path class="cls-5" d="M398.06,391.71c-1.67-1.63-.91-3.72-.91-5.59q-.09-124-.08-247.95c0-2-.08-3.93-.12-5.89,2.22,1.09,1.08,3.12,1.08,4.64q.17,55,.14,110,0,69.71.11,139.4C398.28,388.11,398.14,389.91,398.06,391.71Z"/><path class="cls-8" d="M161.56,133.25l-.33,2.32-5.32,4.93-3.62,1.09H146l-.92-.06-1.55-.39-.06,0L138,137.38a4.08,4.08,0,0,0-1.71-2.43c-.7-1.45-1.4-2.91-2.09-4.36l-.16-1.84v-1.83c.05-.63.1-1.25.14-1.88,1.16-1,.67-2.36,1-3.55,1.39-1.19,2-2.88,2.73-4.46l2.2-1.87c1.07.42,2.07-1,3.16-.12a23.85,23.85,0,0,0-5.51,7c-2.56,4.51-1.8,8.36,1.12,12.33a12.13,12.13,0,0,0,12.62,5.1c3.65-.63,7.12-2.27,7.93-6.39.64-3.3.45-6.71-3-8.8-2.6-1.6-5.55-1.78-7.3.69s.27,4.38,2.71,5.51c.24.11.28.66.5,1.21-3.76,1.13-5.29-1.22-5.94-3.84-.72-2.9.38-5.52,3.62-6.26,3.79-.86,7.63-.54,10.76,1.94,6.43,5.08,13.31,5.09,20.57,2.44l0,1.77-2.69,1.17c-4.54,1.28-9.06.54-13.58-.14a.34.34,0,0,0-.46-.29c-1.54-.94-3.49-3-3.08,1.2C161.57,130.87,161.53,132.07,161.56,133.25Z"/><path class="cls-5" d="M81.35,109.13c2.57,3,6.05,2.75,9.67,2.34,0,4.28-2.69,5.4-5.84,5.45-2.36,0-4.73-.73-7.1-1.13L77,115.12a1.82,1.82,0,0,0-1.69-1.05l-1-.74-.36-.63-.29.64-2.1,2.2-.89.47c-4.3.25-7.77-1-9.26-5.42-1.16-3.48.2-6.25,2.86-8.38,3.34-2.67,7.33-2.2,11.89,1.15a2.75,2.75,0,0,0,1.64,2h0a5.74,5.74,0,0,0,3.56,3.72Zm4.11,5.22c-5-1.7-8.15-5.46-11.24-9.41a6.2,6.2,0,0,0-10.07.49c-1.67,2.79-1.16,5.54,1.46,7.62,1.76,1.4,3.54,1.21,5.1-.47,2.51-2.71-.25-3.91-2-5.54,2.82-.56,4.81-.36,6.07,2.17C76.9,113.55,80.8,114.68,85.46,114.35Z"/><path class="cls-5" d="M143.2,115c-1.09-.89-2.09.54-3.16.12a13,13,0,0,1,6.78-4c2.82-1.54,5.85,1,8.68-.45a31.36,31.36,0,0,0,7.68,3.5c.08.24.23.3.46.19,1,.72,1.85,1.55,3.18,1.43l1.57.28a2,2,0,0,0,2,.62l1.71.62,1.95.29,2.72.07c2.89.18,5.83.58,8.35-1.45l.08,0a4.7,4.7,0,0,0,3.9-1.92l1.4-.76,3.06-1.71c1.71,3.46.82,6.47-.88,9.39l-2.64,3.06c-3,1-5.45,3.39-8.77,3.67l0-.32c0-.59,0-1.18,0-1.77,8.1-3.43,10.31-5.56,10.26-9.87-10.95,6.52-21.65,4.43-32.24-.91C154,112.48,148.61,111.58,143.2,115Z"/><path class="cls-5" d="M106.94,132.37c-1.21.65-2.59,2.23-3.28-.48a3,3,0,0,0-2.93-2.37c-.84,0-2-1.3-2.64.32-.36,1-.53,2,.7,2.76.57.34,2.12.45,1,1.77-.76.89-1.6.42-2.43,0a3.52,3.52,0,0,1-1.91-3.75,3.84,3.84,0,0,1,3.17-3.41c2.88-.78,5.25.49,7.68,1.81,5.64,3,12.93,1.61,17.88-4.34-9.1,3.8-16.4,1.35-24-2.4,2.82-2.19,4.64.57,6.76.24,7.1,3.45,13.56,2,19.64-2.55l.06,0a8.89,8.89,0,0,1-1.78,8.45l0,0a4.46,4.46,0,0,0-2.5,1.93l-.84.31C116.83,132.9,111.9,132.74,106.94,132.37Z"/><path class="cls-4" d="M284.68,160.63c-3.33-.72-6.19-.49-7.17,3.55.27-1.32-.32-2.28-1.61-2-2.46.65-3.24-1.17-4.65-2.44-2.47-2.24-.85-3.24,1.08-3.38,3.28-.24,6.37-1.92,9.74-1.27a35.84,35.84,0,0,0,16.06,0c1.27,0,2.57-.63,3.8.21,0,.45,0,.89-.05,1.33-1.88.08-3.87-.2-5.61.33s.74.86.38,1.53c-1.47,1.53-3.41.75-5.13,1.06C289.25,160.05,286.72,158.69,284.68,160.63Z"/><path class="cls-2" d="M272.42,16.94c5.5-1.08,7.82,1.31,6.42,6.52-.67,2.49-2.56,4.84-.95,7.61-4.17.15-4.37-1.76-2.84-4.87a20.09,20.09,0,0,0,1.41-4.72,2.5,2.5,0,0,0-2.21-3.28c-1.55-.3-3.08-.28-3.77,1.52a17.3,17.3,0,0,0-1.56,4.68c-.29,3.92-1.95,4.46-4.88,2.37,3-2.62,6.88-15.17,5.65-18.53,3.8-.85,4.94.35,3.19,4a22.46,22.46,0,0,0-1.09,3.88l-.38.84Z"/><path class="cls-9" d="M208.62,161.45c-.25.51-.53,1.46-.74,1.45-6.19-.53-12.2,1.56-18.37,1.2-2-.12-1.7-1-1-2.32,3.94-8,7.26-16.3,11.85-24C199,145,195.36,151.33,192.62,158a6.89,6.89,0,0,0-.87,3.39c5.22-.83,10.44-1.62,15.7-.94Z"/><path class="cls-10" d="M251.1,164.13c-1-2.69-2.78-3.51-5.78-3.68-7.9-.45-15.89,1.46-23.71-.8-1.53-.44-1.16,1.58-2.22,1.76-.27-4.67-3.66.44-4.8-1.54l-2.42,0c0-.37,0-.73,0-1.1,6.2-2.47,12.67-2,19.12-1.74-.06,1.38.92,1.84,2,2a56.72,56.72,0,0,0,14,.23c.85-.06,1.16-.86,1.31-1.63,1.3.45,2.47-.1,3.67-.47a6.41,6.41,0,0,0,2.61,4.45C253.93,163,250.64,160.8,251.1,164.13Z"/><path class="cls-2" d="M59.35,97.37c-2.43,2.88-4.27,2.29-6.64-.44-1.59-1.83-2.6-5.41-7-3.6,1.88-3.7,4.91-5.48,6.8-8.25,1.42-2.09,4-1.22,5.92.55C60.49,87.55,62,90.15,65,91c-1.44,2.89-2.95,2.79-4.82.36a23.85,23.85,0,0,0-3.79-3.86,2.85,2.85,0,0,0-4.09.24C51,89.06,50.66,90.64,52,92.11c2,2.29,3.9,4.92,7.33,5.32Z"/><path class="cls-2" d="M252,6c-4.69,2.22-6.52,5.39-5.76,9.93.87,5.2,4,7.11,12.79,7.85-5.62,2.38-12.15.38-14.88-4.54A10.07,10.07,0,0,1,247,6.33c2.89-2.15,6.14-2.13,9.48-1.63C255.24,6,253.23,4.58,252,6Z"/><path class="cls-2" d="M368.07,101.49c-2.22-4.29-1.41-5.36,2.59-7,1.84-.75,5-1,5.26-4.73.24-3.38,3.76-4,7.68-1.82-3.89-.34-5.87,1.33-5.57,5.35-2.28.18-4.15.44-1.73,3.27,1.68,2,5.39,3.3,3.12,6.89-2.14,3.37-5.45,2.28-8.52,1.65.73-2,2.33-.56,3.48-.87,1.77-.48,3.48-1.34,2.66-3.32-1-2.33-2.67-4.82-5.48-4.65S367.65,98.69,368.07,101.49Z"/><path class="cls-2" d="M47.84,105.21c1,5.06-2.09,7.81-5.83,10s-5.76-.79-8.16-2.73c-3-2.41-5.32-5.63-9.5-6.9,1.95-1.11,2.45-3.51,4.74-4l.09-.09c-.77,1.58-.32,2.79,1,3.89,1.6,1.32,3.11,2.76,4.66,4.15,5.79,5.24,8.62,4.59,11.75-2.67Z"/><path class="cls-2" d="M288.3,34.46l-1.8.26-.93,0c-2-.63-3.74-1.67-3.16-4.11s2.42-3.52,5.08-3.45c1.51,0,3.87,1.52,4.39-1.36.46-2.52-2.28-1.73-3.39-2.76,6.08-.82,7.66,1,5.79,6.55-.61,1.82-1.71,3.5-2.14,5.35-.69,3-1.74,1.48-2.86.43.89-.88,0-2.19,1.22-3.33,1.72-1.64,1.24-3.42-1.68-3.47-1.58,0-3,.19-3.62,2C284.15,33.47,288,32.59,288.3,34.46Z"/><path class="cls-2" d="M182,23.59c0-1.07-2.07-.71-1.53-2.19,1.72-4.67-.44-7.26-4.7-8.72.67-1.7,2.6-.26,3.52-1.47-.81-1.9,0-4.72-3.68-5.42l4.5-2.15c2,6.23,2.21,12.75,4.84,18.64.17.38,1.06.44,2.43.95C185,23.34,183.74,25.19,182,23.59Z"/><path class="cls-2" d="M222.06,13a9,9,0,0,0,4.55.34c1.48-1.1,1.19-2.2,0-3.31-.2-1.46-2-.33-2.48-1.56,2-.72,3.82-.57,5.08,1.22a4.12,4.12,0,0,1,.9,3.83c-.57,1.53-2,.81-3.15,1-.29.05-.64-.08-.89,0-1.58.67-4.47-1.69-4.75,1.34-.26,2.87,2.17,4,4.93,4a6.12,6.12,0,0,1,1.3.37c-4.31,1.86-7.77.82-9-2.58-1.39-3.76.12-7.38,3.56-8.54l0,0c.11,1.24-1.47,2.21-.57,3.57C221.52,13.07,221.53,13.51,222.06,13Z"/><path class="cls-2" d="M138.75,24.58c3.59-1.84,3.39-3.72-.77-6.95,2.42-2.71,3.66-2,4.82,1.23a119.18,119.18,0,0,0,5,11c.68,1.43,1,3.4,4.29,2.52-2.5,2.14-4.12,3.29-6.14,1.09a2.77,2.77,0,0,0-.62-2.65c-1.15-3-2.05-6.37-6.54-5.18Z"/><path class="cls-2" d="M302.19,41.9l-5.73-2.55A4,4,0,0,0,300.35,36c1.39-4.63,5.95-8.12,4.75-13.77-.2-1,1.71-.33,2.64-.18,1.69.28,1.76,1.17,1.06,2.57q-3,6.06-5.87,12.21C302.24,38.37,300.9,39.88,302.19,41.9Z"/><path class="cls-2" d="M346.71,56.06c-1.77,1.16-3.72-2.54-4.77.51-.78,2.29-5.29,3.49-2.1,7,.94,1-.32,1.26-.85,1.33-2,.25-4.08-2.51-2.86-4.23,2.54-3.59,3.83-8,7.26-11,1-.86,1.88-1.16,2.75-.58,1.14.77.13,1.66-.46,2.15C343.19,53.31,345.8,54.6,346.71,56.06Z"/><path class="cls-4" d="M311.88,162.3c-4.06-.08-8.23.6-12-1.66.12-.31.23-.61.35-.91l2.49-.28c.87,0,1.14-.66,1.27-1.39,1.1-.67,3.56.84,3.28-2,1.15,2.36,4.32.19,5.51,2.46,1.24,1.7,2.5,1.27,3.76,0,1.46.55,3-1.84,4.41.08C318.47,161.15,314.54,160.17,311.88,162.3Z"/><path class="cls-2" d="M145.33,30.81a2.77,2.77,0,0,1,.62,2.65c-.61,3.07-2.38,5-5.6,4.59-4-.47-5.41-3.55-5.92-7s.77-5.73,4.32-6.49c0,.35,0,.7,0,1.05-2.64,2-2.62,4.47-1.15,7.11,1.11,2,2.75,3.14,5.16,2.62S145.42,32.84,145.33,30.81Z"/><path class="cls-2" d="M329.08,49.07c1.06-.06,2.3,0,2.46-1.4.27-2.14-1.52-2.88-3.12-3.78,2.1-1.25,3.49-.19,4.71,1.18,1.38,1.57,1.07,3.23.2,5-1.27,2.59-3.72,4.7-3.45,8.15-1.78-.6-3.61-1-2.51-3.52,0-.33-.05-.66-.07-1,1.59-.91,3.29-1.77,1.81-4.05A2,2,0,0,0,329.08,49.07Z"/><path class="cls-2" d="M370.8,75.25c3.85,1.76,4.16,4.35,1.63,7.46-1.42,1.74-3,3.38-4.56,5-.47.47-.79,1.76-2,.65s-.94-1.66,0-2.56c1.31-1.23,2.51-2.58,3.8-3.83,1.94-1.9,2.18-3.82.21-5.84Z"/><path class="cls-2" d="M103.11,49.85c1.84,2,2.23,5.68,6.59,5.54l-5.5,3.77c.11-4.1-3.4-9.17-8-10.73,2.19-.15,2.13-2.81,4.33-1.88Z"/><path class="cls-2" d="M370.8,75.25l-.89.86c-3.65-1.82-5,1.4-7,3.22a5.75,5.75,0,0,0-2.25,4.54l-3.23-3.55c3-1.68,5.23-4.4,7.48-7,1.9-2.22,2.58-2.43,3.32.18C368.77,75.22,370.32,74.23,370.8,75.25Z"/><path class="cls-2" d="M129.14,43.92c-1.55-4.11-2.27-8.22-6.47-10.39.45-1.12,1.8-1.81,2.91-2.74,3.18,3,2.77,8.66,7.82,10.52C132.52,42.74,130.7,43,129.14,43.92Z"/><path class="cls-2" d="M160.47,21.76c.32-4.49-3.34-1.84-5-2.77,3.75-3.18,6.28-2.57,8.18,1.69,1.09,2.43.85,5.61,3.78,7.14-1,1.52-2.48,1.41-4,1.08C161.78,26.79,163.2,23.42,160.47,21.76Z"/><path class="cls-2" d="M62.53,75.21c4.13,2.83,5.35,8.11,10.64,8.52C72.54,85.17,71.11,86,69.81,87c-2.76-2.74-4.52-6.29-8.18-8.24C60,77.88,62.54,76.7,62.53,75.21Z"/><path class="cls-5" d="M365.42,596.53H330.87C342.38,594.82,353.9,594.18,365.42,596.53Z"/><path class="cls-2" d="M68.15,71.29c1.22-2.41,2.65-2.4,4.81-1.56,2.64,1,4.62,4.53,8.19,2.55.38,1.23,1.22,2.54,1,3.68-.26,1.54-1.51.71-2.46.31C75.89,74.69,72.63,71.82,68.15,71.29Z"/><path class="cls-2" d="M111.8,38.67c.14,5,2.53,4,5.16,3.25,4.34-1.21,5.69.16,4.94,4.95-1.61-2.66-3.7-3.07-6.3-1.92-1.57.69-3.3.93-4.51-.65S109.84,41,111.8,38.67Z"/><path class="cls-8" d="M94.3,121.25c3.86.75,1.4,1.49.07,2.53-6.06,4.74-6.08,10.45-.14,15l-1.76.81-.93.15-1.05-1.06c0-1.05-.94-1.35-1.63-1.83L88.6,136c.14-.57-.22-.74-.67-.83l-.26-1q.14-3.15.26-6.29c.81-.24,1-.87,1-1.6l4.42-4.74Z"/><path class="cls-2" d="M388.66,112.43a8.24,8.24,0,0,0,7.26-3.34c2-2.66,1.87-5.16-.69-7.41a2.81,2.81,0,0,1,0-.82c4.36,3.08,5.43,5.78,3.61,9.1C396.8,113.71,393.14,114.59,388.66,112.43Z"/><path class="cls-2" d="M173.2,14.22c-1.18,7,.53,9.49,6.3,9.35-1.57,3.91-4.26,2.79-6.57,1.13C169.37,22.15,169.63,17.25,173.2,14.22Z"/><path class="cls-2" d="M89.8,62.41c1.25,2.8,4.16,1.43,6.58,2.36-2.86,2.84-5.59,2.83-8.11.51S84,59.93,86.75,55.9l.59,3,.59.92h0c.22,1.31,1.21.6,1.88.72l.14.12c0,.34,0,.67,0,1l-.1.12-.41.12Z"/><path class="cls-2" d="M355.47,61.64c-5.76.16-8.8,4.41-7.4,10.86-3.89-2.11-3.57-5.34-1.74-8.41C348.43,60.54,351.56,59.24,355.47,61.64Z"/><path class="cls-2" d="M201.32,9.92c-2.17,6.38-.68,9.15,5.39,10-1.38,2.29-3.34,2.14-5.41,1.19-2.71-1.24-3.55-3.79-3.42-6.36C198,12.75,198.07,10,201.32,9.92Z"/><path class="cls-5" d="M92.47,139.63l1.76-.81c3.68.5,7,.4,9.75-2.92,1.37-1.64,2.3-.43,1.8,1.47v.11l-.87,1.12-.77.75-.79.44a14.14,14.14,0,0,1-8.85,1.4l-.05,0Z"/><path class="cls-2" d="M314.57,36.13c-4.25,3.65-4.62,5.68-1.84,10.94-3.26.18-4.37-2-4.5-4.33C308,39,309.32,36,313.62,35.33Z"/><path class="cls-2" d="M395.26,100.86a2.81,2.81,0,0,0,0,.82c-5.31.61-7.24,2.84-8.09,9.34-2.69-2.36-2.43-5.09-.56-7.64C388.74,100.44,391.62,99.11,395.26,100.86Z"/><path class="cls-2" d="M350.05,72.56c5.34-.46,7.72-4.32,6.21-10.08,3.5,2.79,4.19,6.12,1.27,9C355.58,73.35,353.14,76.42,350.05,72.56Z"/><path class="cls-2" d="M327.3,53.71c0,.33.05.66.07,1-2.3-.41-5.2,1-6.59-2.18a3.2,3.2,0,0,1,1-4c2.54-2.16,4.95-.93,7.29.53a2,2,0,0,1,0,.59c-2.06-.36-4.72-1.87-5.56,1.3C322.76,54,325.53,53.45,327.3,53.71Z"/><path class="cls-5" d="M92.51,592.91l-26.41,0A68.62,68.62,0,0,1,92.51,592.91Z"/><path class="cls-5" d="M227.4,189.35c.54.85-.07,1-.68,1H196.61c.84-1.51,2-.85,2.92-1Z"/><path class="cls-2" d="M380,94.32c4.35.3,4.4-2.71,4.4-5.74,2.69,1.21,2.14,4.85,4.83,6.28-2,0-3.74-.31-5.52.88C382.93,96.24,380,97.8,380,94.32Z"/><path class="cls-2" d="M158.67,23.05c0,.4.09.93-.12,1.18-.93,1.11-2.12,2-1.17,3.78,1.12,2,2.91.53,4.32,1-1,2-2.58,2.86-4.78,2.15a3,3,0,0,1-2-2.69C154.37,25.34,156.52,24.22,158.67,23.05Z"/><path class="cls-4" d="M248.52,157.63c-.15.77-.46,1.57-1.31,1.63a56.72,56.72,0,0,1-14-.23c-1.06-.19-2-.65-2-2l2.71.37c4,1.78,8,2.66,11.82-.28C246.69,157.38,247.83,156.36,248.52,157.63Z"/><path class="cls-10" d="M245.8,157.09c-3.87,2.94-7.84,2.06-11.82.28.32-.43.66-1.26,1-1.24C238.56,156.38,242.18,156.75,245.8,157.09Z"/><path class="cls-2" d="M252,6c1.21-1.4,3.22,0,4.47-1.28,1,.24,2,.45,3.05.7,3.39.84,3.85,2.62,1.59,5.51C259.75,5.89,255.89,5.93,252,6Z"/><path class="cls-2" d="M92.49,56.17c-1.1-1.79-3.2-.07-4.67-1.46,1.23-1.83,3-1.83,4.87-1.46a3.73,3.73,0,0,1,3,2.44c.36,1.53-1.19,2.16-2.47,2.67C93.08,57.6,93.63,56.59,92.49,56.17Z"/><path class="cls-4" d="M311.88,162.3c2.66-2.13,6.59-1.15,9.08-3.71l3.46.25c-2,1.93-5.05,1.57-7.6,3.21l2.45.6A8.56,8.56,0,0,1,311.88,162.3Z"/><path class="cls-4" d="M335.45,155c3.55,1,4,4.5,4.69,7.1.39,1.52-1.84,1.34-2.85-.12C337.47,159.45,335,157.61,335.45,155Z"/><path class="cls-4" d="M254.8,161.61a6.41,6.41,0,0,1-2.61-4.45c1.64-.09,3.28-.27,4.91-.23,1.21,0,1.47.78.84,1.81-1,.62-2.83.78-1.36,2.65Z"/><path class="cls-2" d="M314.57,36.13l-.95-.8a7.4,7.4,0,0,1,5.61.55c2.6,1.39,3.16,3,.15,5.14C319.32,37.72,317.7,36.1,314.57,36.13Z"/><path class="cls-8" d="M141.48,108.59l-7.31.4-1.89-.38-1.07-1.33,1.28-.36,8.77,0,1.3.35Z"/><path class="cls-2" d="M103.11,49.85l-2.55-3.3c1.92.44,1.42-1.35,2-2.16s1.2-1.53,2.15-1.07A2.92,2.92,0,0,1,106,45c.47,1.54-.87,1-1.59,1.25C102.4,46.89,102.64,48.33,103.11,49.85Z"/><path class="cls-2" d="M39.69,98.11c-2-.76-3.16-3.66-6.19-2.41L37,92c.33,2.76,2.55,3.79,3.76,5.57Z"/><path class="cls-4" d="M298.13,155.18a35.84,35.84,0,0,1-16.06,0Z"/><path class="cls-2" d="M47.84,105.21l-1.25,1.72c-.29-3.15-3-4.56-4.75-6.71l.95-.68C44.89,101.05,47,102.6,47.84,105.21Z"/><path class="cls-4" d="M326.38,163.18c-1.54.07-3.1.38-4.57-.39.95-1.87,3.56-1.27,4.56-3.07l2.57.05C328.5,161.22,326,161.1,326.38,163.18Z"/><path class="cls-4" d="M326.37,159.72c-1,1.8-3.61,1.2-4.56,3.07l-2.54-.14-2.45-.6c2.55-1.64,5.58-1.28,7.6-3.21A1.79,1.79,0,0,1,326.37,159.72Z"/><path class="cls-4" d="M256.58,161.39c-1.47-1.87.4-2,1.36-2.65h4.78l.19.57Z"/><path class="cls-4" d="M212.15,158.74c0,.37,0,.73,0,1.1.46,4.14-2.2,1.43-3.55,1.61l-1.17-1C208.11,157.38,210.52,159.13,212.15,158.74Z"/><path class="cls-4" d="M326.38,163.18c-.4-2.08,2.12-2,2.56-3.41a1.58,1.58,0,0,1,2,1l0,2.31Z"/><path class="cls-4" d="M330.89,163.06l0-2.31,2.57,0,1.14,2C333.53,164.69,332.25,164.38,330.89,163.06Z"/><path class="cls-4" d="M307.28,156c.28,2.88-2.18,1.37-3.29,2a2.45,2.45,0,0,1-1.2-2.23Z"/><path class="cls-4" d="M302.79,155.83a2.45,2.45,0,0,0,1.2,2.23c-.12.73-.39,1.34-1.26,1.39-.28-.91-.57-1.82-.85-2.73l.05-1.33Z"/><path class="cls-4" d="M316.55,158.51c-1.26,1.24-2.52,1.67-3.76,0l1.46-.18a1,1,0,0,0,1.24-1.05Z"/><path class="cls-4" d="M334.63,162.75l-1.14-2c1-.28,1.78-.1,2,1.09Z"/><path class="cls-2" d="M41.84,100.22,40.63,99,41,97.86l1.81,1.68Z"/><polygon class="cls-2" points="367.98 90.08 367.98 90.34 368.38 90.22 367.98 90.08"/><path class="cls-6" d="M253.52,153.34l.65.26c.06-.71-.32-.27-.56-.21C253.61,153.4,253.52,153.34,253.52,153.34Z"/><path class="cls-4" d="M315.49,157.25a1,1,0,0,1-1.24,1.05C314.53,157.8,314.26,156.64,315.49,157.25Z"/><path class="cls-2" d="M40.63,99l-.94-.88,1.06-.5.23.25C40.86,98.23,40.74,98.61,40.63,99Z"/><path class="cls-2" d="M356.37,62.6c-.65,0-1.56.2-1-1Z"/><path class="cls-2" d="M29.09,101.65l0-.19a.6.6,0,0,0,.06.11Z"/><path class="cls-4" d="M206.7,111.51l-.69,1.15Z"/><path class="cls-2" d="M59.31,97.43l0-.23a.87.87,0,0,0,.07.17Z"/><path class="cls-11" d="M53.08,504.07c-4.27-6.3-5.81-13.6-8.07-20.71a177.38,177.38,0,0,1-6.56-30.58A248,248,0,0,1,35.88,420c0-10.06-1.69-20.09-1.26-30.22,3.31-77.14.63-154.32,1.57-231.48,0-2-1.21-4.64.8-5.84s3.49,1.45,5.16,2.41A387,387,0,0,0,79.82,174a298,298,0,0,0,38.39,14c8.71,2.46,17.63,4.45,26.56,6.3,9.14,1.89,18.53,2.22,27.54,4.75a5,5,0,0,0,1.35.11c14.92,0,29.79,3.17,44.68,1.5,8.25-.92,16.54-.6,24.72-1.63,11.44-1.46,22.88-3.17,34.19-5.39a246.9,246.9,0,0,0,28.95-7.22c11.32-3.7,22.62-7.47,33.77-11.75a412.6,412.6,0,0,0,47.61-21.82c2.19-1.18,2.23.06,2.22,1.63v8.62q0,126.21,0,252.44c0,9.08-1.61,18-3.11,27-.78,4.67-1.21,9.43-2.34,14-1.51,6.2-2.92,12.41-4.75,18.54q-2.88,9.63-6.08,19.15c-1.59,4.77-3.49,9.41-6.75,13.34-.1-13-.27-26-.23-39,0-2.91-.79-3.82-3.82-3.76-10.73.21-21.46-.06-32.18.17-3.65.08-4.52-1.17-4.51-4.63,0-8.46-.56-16.91-.53-25.37,0-3.48-.87-4.7-4.52-4.63-12.84.21-25.69,0-38.53.15-3.07,0-4.27-.79-4.15-4.07.23-6.34-.19-12.7.08-19,.16-3.51-1-4.25-4.35-4.24-23.26.13-46.53,0-69.8,0-18.88,0-37.77.06-56.65-.06-3.31,0-4.92.54-4.72,4.42.34,6.63-.11,13.3.16,19.94.14,3.29-1,4-4.05,4-12.08.12-24.16.65-36.24.77-3.25,0-4,1.12-4,4.2.2,7.85-.2,15.72.17,23.56.2,4.19-1.3,5.05-5.12,5-12.09-.23-24.18,0-36.26-.2-3.39-.06-4.43.89-4.39,4.28C53.29,480.81,53.13,492.44,53.08,504.07ZM332.75,408.9c-2.95-.47-1.57-2.6-1.54-4.16,0-.5.64-1.15-.09-1.44a2.62,2.62,0,0,0-1.66.19c-.09,1.67-.4,3.45.07,5s2,1.53,3.18.4l1.85-3.48C332.72,406.76,332.92,407.89,332.75,408.9Zm-234.94-1c.17.39.27,1.08.51,1.13a.89.89,0,0,0,1.06-1.3,9.33,9.33,0,0,1-1.51-5.95c0-.66,0-1.72-1.15-1.33-.82.3-.53,1.29-.61,2-2.14.93-.47,2.95-1.22,4.29-.51.91-1.07,2,.16,2.69C96.63,410.29,96.78,408.2,97.81,407.87Zm273,.11c-.85-2.92-.18-6.29-3-9-.71,2.57-1.09,5.07-2.11,7.27-.61,1.32-.75,2.13.19,3.13,1.07-2.37,4.28,2.58,4.87-1.41,1.11.23,1.87,2.66,2.71,1.44s.72-3.6.9-5.46a.86.86,0,0,0-1.16-.94c-2,.64-.46,2.32-.94,3.39A6.77,6.77,0,0,1,370.8,408ZM244,357.25c-1.12-1.55-2.73-1-4.16-.84-13.07,1.42-26.22.68-39.3,1.57-2.62.18-2.9-.69-2.49-3.11.51-3-.36-6.2-3.84-6.55-3-.31-3.41-1.76-3.43-4q-.18-14.92-.32-29.87c0-1-.33-2.32,1.28-2.41,4.54-.26,4.58-3.63,4-6.56-.72-3.38.81-3.94,3.42-4q14-.24,28.05-.44a2.74,2.74,0,0,1,2.73,1.09c4.5,6.48,5.68,6.86,12.21,4.3-.19,1.46-1.12,3-.05,4.36,2.3,2.88.46,5.39-.07,8.27-.81,4.39-4,3.68-6.66,4.32-2.33.56-4.74.84-7.07,1.4-4.2,1-5.74,4.22-3.09,7.32,2.49,2.91,5.81,5.06,6.08,9.44,0,.78,1.26,1.78,2.16,2.16,1.86.78,2.27,1.94,2.11,3.86-.24,3,1.72,4.76,4.26,5.74s4.37-.53,5.87-2.32a63.75,63.75,0,0,0,6.07-7.82c2.36-4,7-.86,9.82-3.55.71-.66,2.12,1.69,3.25,2.61,3.47,2.82,6.06,2.37,8.16-1.17,1.08-1.83-.22-3.1-.43-4.64-.32-2.43-3-5.16.29-7.33,2.34-1.57,4.81-3.62,7.4-3.91,2-.23,2.28,3.49,4.05,4.89a2.45,2.45,0,0,1,.29.35,4.77,4.77,0,0,0,6.87.65c2.14-1.6,1.54-4,0-6a23.4,23.4,0,0,1-2.64-4.14c-.63-1.38-1-3.82.1-4.22,4.05-1.51,5.81-7.4,11.35-5.92.72.2,1.88-.18,1.48-1.05-1.43-3,1.35-3.65,2.73-4.83a23.5,23.5,0,0,0,5.76-8c2.46-5.08,1.49-10.33.94-15.56-.25-2.33-.2-4.07,3-4,2.85.07,4.17-2,4.57-4.68.52-3.39-3.15-8.78-6.83-9.45-4-.72-6,2-7.52,5.11a15.72,15.72,0,0,0-.72,11.05,15.73,15.73,0,0,1-1.17,11.41,2.61,2.61,0,0,1-2.44,1.73c-1-.07-.71-1.14-1-1.77-1.26-3-3.65-4.28-6.76-4.3-4.22,0-8.45.19-12.67.06a11.67,11.67,0,0,0-8.38,2.75c-2.56,2.31-4.51,3-7.69.92-2.48-1.62-6-2.5-7.89,1-1.75,3.29,0,5.64,3.28,7.1,1,.45,3.15.86,1.56,2.77-2.1,2.52-4,5.35-8.22,4a14.9,14.9,0,0,0-9.34.51c-.16-2.7,2.64-5,1.22-7.79-.84-1.65-.36-2.58.69-3.91a6.09,6.09,0,0,0-1.16-9.07c-3.37-2.38-4.33-4.23-.1-6.53,1.46-.8,2.3-2.59,1.74-3.86-1.73-3.93-2.9-7.62.08-11.51.33-.43-.15-1.78-.6-2.47a4.83,4.83,0,0,1-.38-5.45c.63-1.18.89-3,0-3.9-2.47-2.39-1.7-5.17-1.68-8,0-2,1.24-5.16-.5-5.81-2.18-.81-3.94,2.09-5.82,3.49a3.2,3.2,0,0,0-.73,1.11c-1.94,3.73-5.27,5.57-9.09,6.75-3.48.88-5.19,4.79-8.94,5.22.21-10-2.38-13.59-12.12-16.58-7.9-2.42-16-2.41-24.15-1.87-12.24.83-20.06,7.77-24.79,18.63-2.31,5.31-2.86,11-3.53,16.71-.15,1.29.37,2.8-2,3.27-6.55,1.26-8.22,4-7.23,10.9.22,1.48.29,2.38-1.29,3.3-3.9,2.28-4.2,5.77-.83,9.07,1.17,1.14,1.93,2,1.52,3.82-1.51,6.68.7,9.73,7.61,9.47,3.15-.11,3.39.86,3.29,3.34-.52,12.81-1.08,25.63-1.34,38.45-.07,3.59-1.42,4.56-4.64,3.92-3.42-.67-5,.43-4.7,4.23.71,10.23,1.21,20.48,1.66,30.72.12,2.61,1.63,2.9,3.61,2.85,5.28-.13,10.56-.35,15.83-.37,25.68-.13,51.35-.17,77-.4,1.36,0,3.8,1.56,4.36-1.46l14.95-.42c2.46.76,4.85,2.69,7.51.48,2.52.63,5.35,1.44,6.94-1.23,1.12-1.89,1.36-4.64-.83-6.18-2.35-1.67-2.66-3.7-2.46-6.23.09-1,.45-2.84-1.62-2.3-4.24,1.12-3.67-1.9-3.55-4.16.16-2.87-.69-4.26-3.74-3.67-4,.77-2.48-2.57-3.23-4.31-1.1-2.55-5,.81-5.83-2.57a1.16,1.16,0,0,1,0-.45c.76-4.47-1.81-4.53-5.06-3.93A42.87,42.87,0,0,1,244,357.25ZM84.41,404.33c.87-.45,1.62-2,2.58.14.75,1.7,1.09,3.82,3.1,4.76.76-1.9,1.57-3.78,2.28-5.7.35-1,.39-2.07.81-3s.42-1.4-.68-1.45c-.61,0-1.3,0-1.15.93.33,2-.64,3.72-1.1,5.74-1.67-1.27-1.86-3.22-2.9-4.64C85.32,398.31,84.46,399.25,84.41,404.33Zm12.78,9.86c-3.11,2.13-2.19,5.62-2.9,8.48C94,424,92,426.11,94,426.83c2.56,1,.58-2.76,2.37-3.24s.09-1.24.16-1.84c.2-1.57.32-3.3,1.92-4.17.49-.26,1.31,1.8,1.9.1.39-1.12-.74-1.43-1.64-1.65S98.39,414.17,97.19,414.19Zm189.88-4.44a2.14,2.14,0,0,0,.4-.38c0-.05-.06-.24-.13-.26-2.92-1.1-1.41-3.47-1.59-5.38-.14-1.58,2.88-3.77.27-4.43-3-.74-.94,3-2.19,4.23-.34.34-.14,1.17-.29,1.75C282.73,408.41,284,409.85,287.07,409.75Zm40.15-4.93c.09-1.26-.19-2.36-1.31-2-1.32.42-3.16,1.24-2.83,2.86s.41,4.36,2.77,3.83S325.63,406,327.22,404.82Zm28.5,19c3.56-6.28,3.44-6.66-1.87-6.8C354.43,419.15,355,421.28,355.72,423.84Zm-48.84-25.27c-2.68,2.94-2.68,5.88-3.07,8.7a1.69,1.69,0,0,0,1.18,2.07c.22.06.9-.5.89-.74C305.65,405.42,307.51,402.43,306.88,398.57Zm9.54,14.58c4.49-1,3.12-5.35,4.44-8.17.36-.76.26-2-1-2.06-1,0-1.36.89-1.31,2C318.76,407.87,318.7,410.83,316.42,413.15Zm24.22-2.61c-.35-2.79-.35-4.53.2-6.19a1.11,1.11,0,0,0-.71-1.45,3.14,3.14,0,0,0-1.22.16C340,405.13,337,407.62,340.64,410.54ZM66.49,419.69c.25-1.22,1.34-3.24-.59-3.22s-.35,2.68-1.32,4c-.57.77-.55,2.49.83,2.42C67.67,422.76,65.92,420.72,66.49,419.69Zm223-12.68.5.23q1.1-3.15,2.2-6.3c.25-.71.67-1.51-.48-1.74-1-.19-1.05.4-1.14,1.32C290.34,402.7,289.83,404.85,289.45,407Zm-205.78-.27-1.32,2.64c.56.09,1.24.42,1.64.22C85.38,408.86,84,407.87,83.67,406.74ZM302.8,405l-.65-.59a7.3,7.3,0,0,0-.7.88s.44.48.51.44A5.63,5.63,0,0,0,302.8,405Z"/><path class="cls-4" d="M53.08,504.07c.05-11.63.21-23.26.07-34.89,0-3.39,1-4.34,4.39-4.28,12.08.22,24.17,0,36.26.2,3.82.07,5.32-.79,5.12-5-.37-7.84,0-15.71-.17-23.56-.08-3.08.71-4.17,4-4.2,12.08-.12,24.16-.65,36.24-.77,3.07,0,4.19-.71,4.05-4-.27-6.64.18-13.31-.16-19.94-.2-3.88,1.41-4.44,4.72-4.42,18.88.12,37.77,0,56.65.06,23.27,0,46.54.11,69.8,0,3.33,0,4.51.73,4.35,4.24-.27,6.33.15,12.69-.08,19-.12,3.28,1.08,4.11,4.15,4.07,12.84-.13,25.69.06,38.53-.15,3.65-.07,4.54,1.15,4.52,4.63,0,8.46.56,16.91.53,25.37,0,3.46.86,4.71,4.51,4.63,10.72-.23,21.45,0,32.18-.17,3-.06,3.83.85,3.82,3.76,0,13,.13,26,.23,39-6.05,15.66-16.78,28.06-28.16,39.92a198.27,198.27,0,0,1-30,25.16c-1.16.8-2.14,2.17-3.87,1.94.79-10.78.84-11-9.8-13.84-11.75-3.17-23.65-5.68-35.56-8.23-24-5.14-48-6.38-72.29-4.93-24.86,1.49-48.81,7.39-72,16.26-.42.16-1,.28-1.19.61-3.91,5.6-7.36,1.09-9.93-1a222.52,222.52,0,0,1-42.76-46.7C58.3,512.65,55.12,508.71,53.08,504.07Zm131.78,26.59c2.59-.57,3.62-2.41,2.56-4.58-1.29-2.68-3.62-3-6.09-1.17a7.87,7.87,0,0,1-1.1,1.8,1.84,1.84,0,0,0-.13,2.72c.35.51.87.89,1.47.58.93-.49.67-1.49.82-2.32a18.57,18.57,0,0,1,.75-2.48c3.61.15,3.33,1.92,1.75,4.22-.75,0-1.68.06-1.54,1S184.22,531.44,184.86,530.66Zm42-5.59a4.52,4.52,0,0,1,1.29.2c1.94.9,2.76-.14,3.09-1.82.17-.91,1.32-2.13.05-2.75-1.94-.94-1.62,1.59-2.66,2.09s-1.93.76-2.08,2c-1.41.11-2.66.36-2.65,2.22,0,2,1.15,3.09,3,4ZM297.62,531a1.94,1.94,0,0,0-1.35-1.47c-2.58-.58,2.7-3.41-1.09-3.75-1-.09-1-.91-.17-1.51a3.63,3.63,0,0,1,.51-.28c-.55.33-1.16,1-1.65.94-4-.64-4.21,1-2.61,4,.17.31-.1.86-.17,1.29a1.86,1.86,0,0,0-.1.84c-1.2.23-2.14.82-1.13,2,1.38,1.63,3.37,1.58,5.31,1.24S298.17,533.13,297.62,531Zm7-5.76.65.58c1.67.88.16,2.59.89,4,2.53-1.83,2.19-3.78.33-5.18s-4.31-1.41-5.8,1c-1.36,2.18-.39,3.6,1.82,5.3C302.51,528.18,300.24,525.26,304.63,525.25Zm-91,5.73c.55-1.88-2.59-3.13-.79-4.56,1.55-1.22,3.1,0,3.75,1.7.33.86.71.27,1,.2a1.12,1.12,0,0,0,.78-1.41c-.47-2.26-2.46-3.77-4.14-3.29s-4.61,1.49-4.64,4.11c0,2.32,1.47,3.73,7,1.53.3-.72.16-.87-.26-.66s-.82.34-1,.64c-.21.47.16.85.65.66C216.27,529.77,216.46,529.33,213.61,531Zm-12.34-.62,0,1c-1.78-.24-2.56.57-1.28,1.92,1.45,1.53,3.57,1.28,5.54.89a2.31,2.31,0,0,0,2.12-2c.32-2.47-2.17-2-3.47-3.24,3-.4,2.21-3.06,3.23-5.14-2.8.85-7-1.84-7,3.84l.68,1Zm-38-74.5c6,6.08,12,12.18,18.05,18.23,3.08,3.08,5.78,6.58,9.61,8.81,1.14.66,2.48,1.75,3.75.92,1.11-.73.37-2.25.26-3.38-1-10-2-19.94-3.23-29.89-.35-2.82-.19-5.34,1.71-7.74-3.22-.64-6.09.08-8.64.68,4.16,9.2,3.17,19,4.48,27.76-7.47-7-15.4-13.89-22.61-21.46-3.67-3.86-7.24-4.46-11-3.41a137.46,137.46,0,0,1,4,39.57,23.69,23.69,0,0,0,8.88-1c-5.17-3-3.8-8.06-4.51-12-1-5.53-1.71-11.4-.67-17.17ZM248.66,483c-1.6-5.71,0-11.17.18-16.65.07-1.83.94-2.65,2.92-2.42,5.37.61,10.76,1.05,16.14,1.61,1.36.14,2.84.37,2.59,2.33-.72,5.72.27,11.77-3.44,17a27.21,27.21,0,0,0,9.89.88c-2.15-5.42.81-33.6,4.12-39.47l-9.59-1c1.31,4.52.43,8.68.35,12.83,0,2.23-.93,3.24-3.39,2.88-3.57-.53-7.21-.64-10.79-1.13-8.38-1.15-8.8-1.84-7-10.4,1.5-7,1.5-7-5.95-7-.43,0-.85.22-.51.12-.69,13.5-1.2,26.65-4.53,39.58ZM133.22,450.67c4.62,8.73,6.05,17.85,8.26,26.7,1.3,5.22-1.46,9-7.08,10.73-5,1.55-9.36-.08-11.05-5-2.92-8.5-6.06-17-6.3-26.18,0-1.71-.53-1.78-1.66-1.46-2.65.73-5.27,1.59-8.51,2.59a7.65,7.65,0,0,1,4,5.41c1.64,6.25,3.53,12.44,5.08,18.72,2.25,9.12,7.13,12.51,16.44,11.13a17,17,0,0,0,9.75-5.27c.46-.47,1.12-2,1.71-1.14,3,4.43,5.65-.2,8,.16-5.16-12.42-7.93-25.28-10.71-38.29Zm156.48,38.4c-.12-1.41-.55-2.55-.21-3.37a28.35,28.35,0,0,1,6.59-10.12c1.54-1.41,4.48.76,6.82,1.16,1.34.23,2.67.51,4,.87s3.34.2,3.63,1.42c1.12,4.84,2.58,9.75.74,15a25,25,0,0,1,4.66,1.1c4.16,1.8,4-.19,3.39-3.35-2-11.13-4.12-22.25-5.41-33.47-.52-4.54-2.76-5.45-6.28-6.55-4.5-1.4-2.88,2.62-3.93,4-7.61,10.28-13.71,21.66-22.82,31.13Zm-53.95-13.85c-14,4.18-19.16,3.44-24.33-3.34-4-5.29-4.72-13.59-1-19.1,6.18-9.13,14.54-6.66,23.65-3-1.23-2.93.89-6.53-2.19-7-6.48-1.07-13.34-2-19.61.75-9.65,4.28-14.07,16.77-10.06,27,3.58,9.14,14.31,14.31,25.45,12.64C232.31,482.45,235.11,480.4,235.75,475.22ZM257,531.42c1-3.08.31-5.9.51-8.63.05-.67.28-1.64-.87-1.66s-1.08.82-1,1.58c.13,1.37-.08,2.45-1.83,2.15-1.1-.19-2.38.59-3.29-.65-.68-.93,1.21-3.4-1.21-2.92-1.71.33-.39,2.59-.64,4a10.66,10.66,0,0,0,0,3.14c.11.9-.82,2.45.8,2.55s1-1.54,1-2.39c-.15-2.12,1-2.5,2.73-2.48,1.51,0,2.65.09,2.55,2.08C255.62,529.11,255.18,530.27,257,531.42Zm15.79-.48c0-3.36.65-6.62-.94-10.17-.06,2.47-.92,3.46-3.24,3.26-1.69-.15-2.66,1.29-2.91,2.89s.22,3.12,2.73,3.56a21.77,21.77,0,0,1-.86-2.32c-.35-1.48-.08-2.88,1.64-3.1,2.17-.29,1.69,1.53,1.85,2.78C271.19,528.91,270.38,530.36,272.78,530.94Zm-139.31,1.11c1.91-2.11,1.3-3.51,1.5-4.74.16-1-.16-2.34,1.47-2.26,1.47.08,1.33,1.35,1.5,2.36.19,1.2-.56,2.65.82,3.73,1-3.09,1-3.09-5.29-10Zm104.32-2.16-.23-.33c-2-2.59.23-2,1.57-2.12.86-.06,2,.26,2.24-.9a2.34,2.34,0,0,0-.54-1.61c-.93-1.29-2.35-1.16-3.69-1a2.73,2.73,0,0,0-2.41,2.32,3.54,3.54,0,0,0,.85,3.73,1.72,1.72,0,0,0,2.41-.09Zm-112,.34c-1.22-1.93-2.17-3.82-1.47-6.15.89-3,4.05-1,6.07-2.59-3.94-1.16-6.9-.87-8,3.07C121.68,527.25,122.23,529.72,125.79,530.23Zm150.77-2.63c.76,1.9,2.74,2,3.79,3.28.53.63,1.88.28,1.86-.28a17.8,17.8,0,0,0-1-5.54c-.65-1.67-2.17-1.33-3.92-.65,1.1.51,2.45.86,2.44,1.16C279.64,527.53,277.35,526.11,276.56,527.6ZM147,524c-.84,1.58-1.46,3.33-3.73,3.12,1.8,1.51,2.59,4.15,6,3.86C148.11,528.64,148.92,526.2,147,524Zm22.81.72c-.41,2.21-4.36,1.42-3.58,4.21.66,2.35,3.22,1.28,5.21,2C170.12,529,171,526.81,169.82,524.68Zm7.25,6.37c.56-1.4-1.32-1.88-1.09-3.15s-.18-2.34,1.51-3.24c1-.54-1.62-.31-1.67-1.7,0-1.09-.47-.41-.89.1C173.4,524.91,174.53,529.54,177.07,531.05ZM152.86,531V521l-1.28.05C151.78,524.39,151.06,527.72,152.86,531Zm6-6.57c-2.1.41-2.34,1.65-2.6,2.77a2.9,2.9,0,0,0,1.39,3.08,1.34,1.34,0,0,0,1.25.1c1.27-1.14-.74-1.61-.61-2.56S158.64,525.89,158.89,524.42Zm33.1,6.72c.18-1.88.3-3.78.59-5.64.13-.83.28-1.42-.8-1.53-.89-.08-1.5.25-1.39,1.19C190.63,527.12,189.86,529.23,192,531.14Zm70.31.93c.55-3.32,1-5.62-.08-7.92-.07-.13-.78-.12-.79-.08C260.84,526.42,260.38,528.78,262.3,532.07Z"/><path class="cls-12" d="M286.67,582.16c-5.63,0-10.81-2.81-16.21-4.36-3.94-1.13-8.07-1.72-12-2.63-5.81-1.35-12.1-1.66-18-2.68-13.38-2.31-26.72-1.5-40-1.06-11.93.39-23.84,2.26-35.68,4.59-7.35,1.45-14.65,3.35-22.1,4.45-5.32.79-10.27,3.47-15.8,3.73a11.91,11.91,0,0,1-12.6-11.08c-.26-3.85,1.93-5.76,7.46-7.37,7.46-2.16,14.7-5.28,22.28-6.8,7-1.42,14-3.42,21.19-4.23,10.68-1.2,21.25-3.43,32.05-3.46,7.25,0,14.63-.79,21.72.28,7.95,1.19,16,.74,23.93,2.8,4.82,1.26,10,.87,15,2.14,7.49,1.9,15.14,3,22.63,5.12,5.17,1.44,10.38,2.87,15.63,4.08s6,3.1,3.13,7.91S293.43,582.79,286.67,582.16ZM260.9,568.23c-1-.3-1.35.32-1.45,1.18a5.31,5.31,0,0,0-1.08.71c-.53.54-1,1.17-1.47,1.76a4.24,4.24,0,0,0,1.08.7c1.45.43,1.14-.91,1.49-1.57a15.06,15.06,0,0,0,.68-1.6l1-.28,2.63.8a2.39,2.39,0,0,1,.89,2.38c-.05,1.13.09,2.39,1.49,2.13,1.8-.33.42-1.67.39-2.52a17.6,17.6,0,0,0-.57-4.41c-.42-1.44.49-3.92-1.63-4.08-1.54-.12-2.33,2.05-3.16,3.44a4.63,4.63,0,0,0-.31,1.27Zm-19.53-8.83a8,8,0,0,1,7.3,2.91c-1.94-4.14-3.57-4.5-8.37-3l-1.06.87c-3.23,1.13-1.71,3.81-1.44,5.63.35,2.44,2.49,3.45,5.07,3.53-2.65-2.35-4.51-4.86-3.12-8.54Zm-86.32,5.44c-2.81,3.41-2.52,5.87,1.38,8a19.48,19.48,0,0,1-1.44-8l.56-.34c-.1,0-.25,0-.3,0A1.25,1.25,0,0,0,155.05,564.84Zm7.26-1c-1.56-1.07-3.13-2-6.23-.68l5.8,1.25c1.29,2.15,1.3,4.64,1.74,8.14C165.35,568.51,166.18,565.74,162.31,563.87Zm17.4-5.86c-1.4,4.28-2.47,7.5-3.5,10.73-.21.65-.69,1.56.44,1.79.86.17,1.41-.38,1.23-1.33-.44-2.22,1.36-2.41,2.68-2.82,1.61-.5,2.31.36,2.79,2,.43,1.46,1.72,1.1,2.92.46C184.24,565.45,182.26,562.19,179.71,558Zm42.19-2.34c-1.57,3.22-2.72,5.56-3.86,7.89,2.1.92,5.78-1.43,5.63,3.26,0,1,1.45.83,2.21.54,1-.4.38-1.19.11-1.84C224.75,562.54,223.52,559.56,221.9,555.67Zm-16.42,11.55c-3.33-3.05-2-10.46-9.7-10.32C199.75,560.25,200.36,565.73,205.48,567.22Zm-44.4,6c-1.71.13-3-.79-4.21.51C158.34,575,159.48,574.45,161.08,573.22Z"/><path class="cls-13" d="M236.53,576.22l19.28,2.69c-4.31,6.3-7.87,12.2-9,19.16-.29,1.84-1.53,1.86-2.92,2.09-5.15.83-10.24,2.08-15.49,2.15a245.14,245.14,0,0,1-28,0c-6.59.41-13-1.35-19.36-2.38-5.26-.86-11.31-1.43-13.28-8.65-1-3.56-3.94-6.58-6.25-10.25a309.35,309.35,0,0,1,30.76-4.7A287.08,287.08,0,0,1,236.53,576.22Z"/><path class="cls-12" d="M375.68,620.45c-4.71-1.78-8.74-4-13-4.77-8.65-1.49-17.31-4.61-26.27-1.57a4.51,4.51,0,0,1-1.77.29c-8.3-.58-16.38,1.53-24.51,2.45a192,192,0,0,1-25.44,1.4c-11.72-.2-21.69-4.7-30.06-12.82a10.05,10.05,0,0,1-2.26-3.06c-.3-.67-.57-2.15,1.42-1.47,7.67,2.61,15.63,3.29,23.67,3.2,9.95-.12,20,.63,29.83-.74a340.67,340.67,0,0,1,44.42-3.43c11.39-.1,22.43,1.19,33,5.73,2.62,1.13,4.25,1.89,2.15,5.71C384,616.35,380.05,618.53,375.68,620.45Z"/><path class="cls-12" d="M79.71,596.75c9.36-1.69,18.82.47,28,2.1,18.32,3.26,36.62,3.4,55,3.21,1.88,0,4.52-1,5.5.65,1.34,2.27-1,4.61-2.18,6.26-2.51,3.5-5.73,6.16-10.89,5.73-6.75-.57-13.67.39-20.36-.5-19.08-2.54-38.21-1.1-57.32-1.37A52.82,52.82,0,0,0,53.57,618c-3.16,1.51-10.19-2.61-11.63-6.61-1.33-3.68.93-7.74,5.18-9.23C57.6,598.45,68.17,595.19,79.71,596.75Z"/><path class="cls-12" d="M412.8,635.66c-2.23,1.27-4.44.43-6.39,1.78-2.47,1.69-4.3,3.29-4,6.62.35,3.54-.73,3.73-4.09,2.36a83,83,0,0,0-14.79-4.79c-6.77-1.38-13.35-3.47-20.35-3.71-2.56-.09-3.45-1.62-1.28-3.77,6.67-6.6,13.69-10.33,23.89-7.45,5.95,1.68,12.34,2.43,18.29,4.45C407.06,632.14,410.75,632.16,412.8,635.66Z"/><path class="cls-12" d="M12.72,628.25c11.87-4.12,23.66-4.92,35.62-4.79,7.64.08,11.74,5.36,16.26,10.06,1.19,1.24.76,2.84-1.6,2.82-2.86,0-5.73-.06-8.59.1-9.56.55-19,1.89-28.06,5.13-2.35.84-5.36,1.35-4.59-3.06.71-4-2.1-5.92-4.93-7.26A17.3,17.3,0,0,1,12.72,628.25Z"/><path class="cls-12" d="M281.31,586.37c-3.59,3.65-6.94,7.08-7.83,12.2-.4,2.34-2.83,1.66-4.14,1.19-4.86-1.73-10-2-15-3.18-2.35-.58-2.79-1.87-1.92-3.48,2.18-4,4.71-7.8,7-11.73a2.65,2.65,0,0,1,3.54-1C268.89,582.75,275.41,583.1,281.31,586.37Z"/><path class="cls-12" d="M134.63,588c4.05-2.59,9.25-2,13.93-3.72,6.39-2.31,9-1,13.1,5.16,1.4,2.07,4.28,4.13,3,6.75s-4.72,1.72-7.32,2.17C147.47,600,139.68,597.12,134.63,588Z"/><path class="cls-12" d="M368.25,622.63c-4.71,3.83-9.72,6.6-13.06,11.27-.92,1.29-1.18-.24-1.8-.69-3.59-2.61-4.15-6.67-4.73-10.46-.53-3.54,2-4.34,5.57-3.44C358.66,620.43,363.2,621.19,368.25,622.63Z"/><path class="cls-12" d="M57.77,620.93c5.2-2.17,10.09-2.4,14.86-3.25,2.41-.42,3.54.19,3.57,2.51s.53,4.92-.47,6.67c-1.19,2.09-1.8,5.32-4.69,5.82-3.28.57-3.17-3.06-4.77-4.62C63.72,625.58,60.82,623.45,57.77,620.93Z"/><path class="cls-5" d="M236.53,576.22a287.08,287.08,0,0,0-44.28.08c3.07-1.46,6.36-1.56,9.68-1.55q13.81,0,27.63,0A14.1,14.1,0,0,1,236.53,576.22Z"/><path class="cls-5" d="M200.38,602.28a245.14,245.14,0,0,0,28,0,7,7,0,0,1-4.61,1.48q-9.72,0-19.43,0C202.84,603.79,201.34,603.77,200.38,602.28Z"/><path class="cls-5" d="M130.47,618c-9-.18-18-.58-27-1.49C112.46,616.59,121.55,615.62,130.47,618Z"/><path class="cls-4" d="M300.24,159.73c-.12.3-.23.6-.35.91-5.07.78-10.14,1.33-15.21,0,2-1.94,4.57-.58,6.84-1,1.72-.31,3.66.47,5.13-1.06A6.16,6.16,0,0,1,300.24,159.73Z"/><path class="cls-4" d="M214.59,159.87c1.14,2,4.53-3.13,4.8,1.54C214.78,162.83,214.46,162.73,214.59,159.87Z"/><path class="cls-8" d="M200.68,93.49l.12,0a11.36,11.36,0,0,1-4.59-9c-.28-4.47-7.28-9.61-11.74-9.75-3.29-.11-6.36,3.15-6.7,7.25-.14,1.72,0,3.46-.74,5.17-1.57-3.51-2.24-7,.15-10.51a9.1,9.1,0,0,1,10.62-3.83c5.87,1.77,13,10.62,13.7,16.79A7.67,7.67,0,0,1,200.68,93.49Z"/><path class="cls-8" d="M257.44,109.68c-.39.79-1.15.86-1.89,1-8-3.49-12.44-9.94-15-18-.28-.86-.8-1.84.56-2.09,1.18-.21,1.47.86,1.65,1.73,1.41,6.52,5.77,10.86,10.6,15C254.65,108.5,256.38,108.4,257.44,109.68Z"/><path class="cls-4" d="M141.26,106.9l-8.77,0c-6-1.62-11.35-4.13-15.37-9.28a9.24,9.24,0,0,0-9.37-3.24,4.85,4.85,0,0,0-4.15,6c.42,2.37,1.38,5,5.58,3.77-2.19-1.81-4.13-3.64-2.68-6.18,1-1.81,3-1.63,4.84-1,2.93.92,4.72,2.77,4.6,5.89s-.84,6-3.85,7.68c-4.26,2.34-8.49,1.72-12.42-.69a11.17,11.17,0,0,1-5.48-11.55c.64-5.38,3.78-9,8.56-11.32,6.35-3.06,11.7-1,16.48,3.4s10.32,8.25,16.83,10.13a21.32,21.32,0,0,0,12,.21c.75-.22,1.52-1.39,2.16,0,.47,1-.33,1.67-1,2.33C147.09,105.28,143.91,105.54,141.26,106.9Z"/><path class="cls-4" d="M143.2,115c5.41-3.46,10.75-2.56,16.13.16,10.59,5.34,21.29,7.43,32.24.91.05,4.31-2.16,6.44-10.26,9.87-7.26,2.65-14.14,2.64-20.57-2.44-3.13-2.48-7-2.8-10.76-1.94-3.24.74-4.34,3.36-3.62,6.26.65,2.62,2.18,5,5.94,3.84-.22-.55-.26-1.1-.5-1.21-2.44-1.13-4.54-2.9-2.71-5.51s4.7-2.29,7.3-.69c3.42,2.09,3.61,5.5,3,8.8-.81,4.12-4.28,5.76-7.93,6.39a12.13,12.13,0,0,1-12.62-5.1c-2.92-4-3.68-7.82-1.12-12.33A23.85,23.85,0,0,1,143.2,115Z"/><path class="cls-14" d="M85.46,114.35c-4.66.33-8.56-.8-10.71-5.14-1.26-2.53-3.25-2.73-6.07-2.17,1.78,1.63,4.54,2.83,2,5.54-1.56,1.68-3.34,1.87-5.1.47-2.62-2.08-3.13-4.83-1.46-7.62a6.2,6.2,0,0,1,10.07-.49C77.31,108.89,80.42,112.65,85.46,114.35Z"/><path class="cls-4" d="M300.24,159.73a6.16,6.16,0,0,0-3.59-1.15c.36-.67-2.15-1-.38-1.53s3.73-.25,5.61-.33c.28.91.57,1.82.85,2.73Z"/><path class="cls-7" d="M105.79,137.48a1,1,0,0,1-.88,1.12C105.21,138.23,105.5,137.85,105.79,137.48Z"/><path class="cls-6" d="M226.59,248.64c3.82-1.18,7.15-3,9.09-6.75a3.2,3.2,0,0,1,.73-1.11c1.88-1.4,3.64-4.3,5.82-3.49,1.74.65.52,3.79.5,5.81,0,2.8-.79,5.58,1.68,8,.91.88.65,2.72,0,3.9a4.83,4.83,0,0,0,.38,5.45c.45.69.93,2,.6,2.47-3,3.89-1.81,7.58-.08,11.51.56,1.27-.28,3.06-1.74,3.86-4.23,2.3-3.27,4.15.1,6.53a6.09,6.09,0,0,1,1.16,9.07c-1,1.33-1.53,2.26-.69,3.91,1.42,2.79-1.38,5.09-1.22,7.79l.07-.07c-.64,0-.89.42-1,1l.06-.06c-6.53,2.56-7.71,2.18-12.21-4.3a2.74,2.74,0,0,0-2.73-1.09q-14,.19-28.05.44c-2.61,0-4.14.6-3.42,4,.63,2.93.59,6.3-4,6.56-1.61.09-1.28,1.46-1.28,2.41q.12,14.94.32,29.87c0,2.28.42,3.73,3.43,4,3.48.35,4.35,3.56,3.84,6.55-.41,2.42-.13,3.29,2.49,3.11,13.08-.89,26.23-.15,39.3-1.57,1.43-.16,3-.71,4.16.84a3.16,3.16,0,0,0,.62,2.94q11.89,15.85,23.74,31.73c-2.66,2.21-5.05.28-7.51-.48-5.39-7.44-10.77-14.89-16.93-23.42v18.36c-1.5-.52-.68-1.93-1.11-2.87-.25-7.36-.57-14.72-.69-22.08,0-2.08-.8-2.54-2.67-2.41-5.25.37-10.5.75-15.76.88-15.33.36-30.66.61-46,.9l-12.52,0c-3.94-1-8-.62-12-.79l-.06,0c-1-1.19-2.27-.9-3.53-.78l-2.73,0c-1.49,4-.58,7.95-.1,11.93q.25,6.21.5,12.41l.38,2.28c.1,1.65.21,3.29.31,4.93-.11.58.1.83.7.67l11.82-.08h.86l2.78,0c9.79.16,19.57.28,29.35-.47l50.42-.18c.09,1.34,1.29.85,2,1.2-.56,3-3,1.45-4.36,1.46-25.67.23-51.34.27-77,.4-5.27,0-10.55.24-15.83.37-2,.05-3.49-.24-3.61-2.85-.45-10.24-.95-20.49-1.66-30.72-.26-3.8,1.28-4.9,4.7-4.23,3.22.64,4.57-.33,4.64-3.92.26-12.82.82-25.64,1.34-38.45.1-2.48-.14-3.45-3.29-3.34-6.91.26-9.12-2.79-7.61-9.47.41-1.82-.35-2.68-1.52-3.82-3.37-3.3-3.07-6.79.83-9.07,1.58-.92,1.51-1.82,1.29-3.3-1-6.91.68-9.64,7.23-10.9,2.41-.47,1.89-2,2-3.27.67-5.68,1.22-11.4,3.53-16.71,4.73-10.86,12.55-17.8,24.79-18.63,8.12-.54,16.25-.55,24.15,1.87,9.74,3,12.33,6.59,12.12,16.58a1.84,1.84,0,0,0,1.13,1.92L214.84,261l-1.74,0-.09-2.54.19-1.48c1.12.71,1.4.23,1.69-.92,2.08-8.45-1.36-14.28-10.24-16.54a66.21,66.21,0,0,0-22.47-1.79c-10.19.94-17.9,5.94-22.33,15.37a46.12,46.12,0,0,0-4.17,20.2c0,6.37,1.68,7.82,8.18,7.67,1.45,0,4,1.08,4.14-1.29.19-4.61,3.22-3.79,6-3.82,3.32,0,6.65-.13,10-.07,13,.25,25.91-1,38.85.56,2.6.3,5.35.77,7.87-1,2.76-2,5.69-2.51,8.39.36a2.3,2.3,0,0,0,3.26.35c1.25-1,.41-2.16-.08-3.25-.73-1.62-2.56-3.1-1.84-4.93,1.25-3.19,3.75-6.12.06-9.37-.31-.27.61-1.87.89-2.88s1-2.65.65-2.93c-3.87-3.08-1.42-7.36-2.09-11.68-2.12,2.53-3.74,4.63-5.54,6.56a6.92,6.92,0,0,1-7.67,1.87A3.07,3.07,0,0,0,226.59,248.64ZM181.25,311c0-1.92-.35-4,.21-5.73,1.61-5-1.47-3.06-4-3.31,1.25,3.48,2.94,6,3,9.07-2.75-1.31-3.23-4.24-4.65-6.5-1-1.53-2.17-2.41-4.11-1.94a4.77,4.77,0,0,0-3.88,3.34,3.57,3.57,0,0,0,1.5,4c1.34,1,2.24-.12,2.83-1.22.45-.85.92-1.71,1.94-1.57,1.55.22,1,1.63,1.07,2.55.94,12.93,1.83,25.86,2.74,38.8,1.28,0,.09-2.16,1.57-2s1.13,1.65,1.33,2.5c.56,2.32.76,4.73,1.15,7.1.12.8-.18,2.08,1.18,1.92a1.62,1.62,0,0,0,1.33-2,10.21,10.21,0,0,1-.35-5.31c2.87.9,1.74,5.32,5.61,6.08-1.5-3.61-1.18-6.92-1.24-10.2-.18-10.7-.41-21.41-.49-32.12,0-3-.63-6,.18-9,.29-1.06,1.18-2.62-.14-3.23s-2.42.78-3.28,1.83c-2.15,2.61-1.32,5.94-1.86,9C181.81,312.47,182.47,311,181.25,311ZM233.12,282c-3.38,0-6.8-.73-10.12.49l-3.58.09a9.24,9.24,0,0,0-7.31.09l-53.41.88c-2,0-3.92.19-5.87.17-1.07,0-2.27-.29-2.26-1.66s1.21-.95,2.05-1,2,.3,2-1.08a2.78,2.78,0,0,0-1.29-2.7c-2.13-1.13-4.08-1-5.75.79a5.83,5.83,0,0,0,2.52,9.6c.85.28,2,.33,1.91,1.44s-1.29,1-2.18,1.05c-1.51,0-3-.07-4.52,0-1.79.05-3.43.44-3.2,2.78.21,2.1,1.45,3.16,3.58,3.31,1.84.13,4.08-2.71,5.15-.45.86,1.82-2.58,2.33-3.59,3.92-.08.12-.2.22-.3.34-1.54,1.78-3,3.89-1.45,6.06s4.12,2.37,6.6,2c1.9-.29,2.22-1.76,2.13-3.42-.06-1.19-.26-2.05-1.84-1.72-1.29.27-3.42,1.72-3.63-.61-.16-1.77,2.32-1.95,3.88-2.24a24.88,24.88,0,0,1,4.06-.21q26.7-.56,53.41-1.1c7.69-.16,15.39-.38,23.08-.51.94,0,2.32-.53,2.61,1,.21,1.13-.81,1.37-1.7,1.7-3.1,1.15-1.11,2.69.1,3.34,2.2,1.2,4.77,1.62,6.38-1,1.36-2.24,2.39-4.81-.53-6.73-2.09-1.38-2.5-2.2.33-3,2.43-.65,4.14-1.85,3.08-4.86s-3.3-2.67-5.56-2c-1.54.44-3,1.42-4.63.25.27-1.76,1.73-1.93,3-2.35,3.1-1.07,2.65-3.41,1.68-5.52a4.22,4.22,0,0,0-5.61-2.43,2.23,2.23,0,0,0-1.71,1.92c0,.76.71,1.27,1.52,1.44C233.26,280.26,234.72,280.35,233.12,282ZM165.8,302.72a37.58,37.58,0,0,1-4,0c-3.63-.46-5.13.45-5.11,4.7,0,12.37-.71,24.74-.82,37.12,0,4.37-2.75,10.3.69,12.74,3.05,2.17,8.73.65,13.25.75.12,0,.24-.12.62-.33-.87-2-1.82-4.26-1-6.41,1.23-3.29.65-6.46.24-9.74-.95-7.63-2.12-15.26-2.47-22.92C166.92,313.39,164.27,308.42,165.8,302.72Zm4.68,10c-1.64.09-1,1.58-.95,2.61.43,6.44.94,12.87,1.39,19.31.22,3.3.38,6.6.57,9.89.1,1.58,1.13,2.09,2.47,1.92,1.18-.15,2.12-1.13,1.66-2.2-2.36-5.46-1.4-11.44-1.89-17-.33-3.71-1-7.84-.59-11.79C173.31,313.81,172.47,312.9,170.48,312.71Zm20.78,41.66c.11,1.18-1.29,3,1.27,2.9,1.88,0,3.16-1,3.23-3s-.7-3.67-3-3.6C189.78,350.81,191.94,353.27,191.26,354.37Zm-17.58,2.16c1.45-1.82,3.15-3.39,1.51-5.85-.56-.85-1.79-1.14-2.26-.35A4.72,4.72,0,0,0,173.68,356.53Zm16.83-55.27a20.62,20.62,0,0,0-.14,3.6c.28,1.51-.91,3.37.92,4.47a1.63,1.63,0,0,0,1.54-.41,5.86,5.86,0,0,0-.26-5.16A19.61,19.61,0,0,0,190.51,301.26Z"/><path class="cls-6" d="M242.94,305.56a14.9,14.9,0,0,1,9.34-.51c4.2,1.34,6.12-1.49,8.22-4,1.59-1.91-.57-2.32-1.56-2.77-3.24-1.46-5-3.81-3.28-7.1,1.86-3.5,5.41-2.62,7.89-1,3.18,2.09,5.13,1.39,7.69-.92a11.67,11.67,0,0,1,8.38-2.75c4.22.13,8.45-.08,12.67-.06,3.11,0,5.5,1.31,6.76,4.3.27.63,0,1.7,1,1.77a2.61,2.61,0,0,0,2.44-1.73,15.73,15.73,0,0,0,1.17-11.41,15.72,15.72,0,0,1,.72-11.05c1.49-3.16,3.55-5.83,7.52-5.11,3.68.67,7.35,6.06,6.83,9.45-.4,2.67-1.72,4.75-4.57,4.68-3.24-.08-3.29,1.66-3,4,.55,5.23,1.52,10.48-.94,15.56a23.5,23.5,0,0,1-5.76,8c-1.38,1.18-4.16,1.8-2.73,4.83.4.87-.76,1.25-1.48,1.05-5.54-1.48-7.3,4.41-11.35,5.92-1.1.4-.73,2.84-.1,4.22a23.4,23.4,0,0,0,2.64,4.14c1.56,2.06,2.16,4.42,0,6a4.77,4.77,0,0,1-6.87-.65,2.45,2.45,0,0,0-.29-.35c-1.77-1.4-2.08-5.12-4.05-4.89-2.59.29-5.06,2.34-7.4,3.91-3.26,2.17-.61,4.9-.29,7.33.21,1.54,1.51,2.81.43,4.64-2.1,3.54-4.69,4-8.16,1.17-1.13-.92-2.54-3.27-3.25-2.61-2.84,2.69-7.46-.41-9.82,3.55a63.75,63.75,0,0,1-6.07,7.82c-1.5,1.79-3.35,3.29-5.87,2.32s-4.5-2.74-4.26-5.74c.16-1.92-.25-3.08-2.11-3.86-.9-.38-2.12-1.38-2.16-2.16-.27-4.38-3.59-6.53-6.08-9.44-2.65-3.1-1.11-6.33,3.09-7.32,2.33-.56,4.74-.84,7.07-1.4,2.67-.64,5.85.07,6.66-4.32.53-2.88,2.37-5.39.07-8.27-1.07-1.35-.14-2.9.05-4.36l-.06.06,1-1Zm42.32,9.57c-2.79,6.45-2.31,11,1.44,13.81.85.63,1.68,1.3,2.77.41a1.38,1.38,0,0,0,.1-2.29c-3.24-3.33-3.55-7.71-4.34-11.92l.69.27c.05-.44-.06-.47-.34-.12A1.49,1.49,0,0,1,285.26,315.13ZM281.9,301c3.25-3.12,6.49-6.22,10.93-7.67,1.28-.42,3.56.13,3.44-2-.1-1.7-2-2-3.48-2.34a13.34,13.34,0,0,0-3.11-.49c-9.38.3-18.84.48-23.92,10.59a9.73,9.73,0,0,1-1.78,2c-1.81,1.94-3.7,3.52-2.11,6.87,1.11,2.33-1,4-3.69,5.05,0-2.06,2.18-3.73.3-5.77-3.24,3.61-6.13,7.19-6.89,12a4.57,4.57,0,0,0,2,4.74c1.76,1.15,2.6-.68,3.78-1.42,4.83-3.06,9.63-6.17,14.54-9.11,3.25-2,6.76-1.74,10.48-1.35,3.31.35,7,.58,10.77-1.55-12-2.87-12.63-3.48-11.2-9.62Zm-27.74,36.59c-3.06-2.2-6.83-3.75-8.13-6.77-3.12-7.28-8.4-5.31-13.7-4.24-.74.15-1.46.39-2.19.55-1.42.29-3.41.08-3.47,2-.06,1.73,1.33,3,3,3.6a15.26,15.26,0,0,0,3.51.6c1.46.16,3.49-1.84,4.27.25.72,1.93-2,1.7-3,2.66s-2.48,1.42-1.55,3.18c.75,1.39,1.77,2.56,3.51,2.33a11.27,11.27,0,0,0,2.93-1c.79-.36,1.5-1.21,2.35-.21s-.15,1.56-.72,2.18-1.07,1.06-1.55,1.64c-1.56,1.87-2.71,3.77-.11,5.73s3.87.07,5.15-1.66C247.28,344.57,249.94,340.54,254.16,337.61ZM293.73,303c6.61,2.6,7.41,2.39,11.56-2.8a16.73,16.73,0,0,0,3.8-11.77c-.27-4.52-.55-9-.91-13.55-.33-4.22,1.1-6.92,6.08-6.82-3.61-3.06-5.48-2.85-7.32.63-1.46,2.78-1.42,5.72-.94,8.81.82,5.37,1.9,11.13-2.16,15.58-3,3.26-4,8.88-9.86,9.12C293.89,302.22,293.81,302.74,293.73,303Zm-47.44,13.31A13.15,13.15,0,0,0,245,318a7.89,7.89,0,0,0,.33,8.49,23.25,23.25,0,0,0,8.07,7.68c1.84,1.13,3.84,4.32,6.09,2s-.88-4.48-1.8-6.68a2.71,2.71,0,0,0-2-1.69c-4.46-.9-6.32-3.85-6.5-8.09C249.2,317.8,247.78,317.3,246.29,316.33ZM296.92,308c-.59-1.95-1.92-1.55-2.81-2-1.37-.62-3-1-3.06-2.84-.06-2.07,1.29-3.25,3.07-4,.68-.29,1.43-.44,2.14-.68s2,0,1.9-1.33c-.09-1.15-1.17-1.19-2-1.39-3-.7-9.06,2.47-11.42,5.92-1.53,2.24-1.33,3.75,1.47,4.75C289.66,307.71,293.3,307.19,296.92,308Zm-16.13,6.3c-8.91-.32-13.62,5.53-19.48,9C268.35,322.37,274.9,320.4,280.79,314.3Zm-14,15.93c-1,1.48-5.05-.25-4.41,3.34a10.77,10.77,0,0,0,4.92,7.3c.77.5,1.61,1,2.43.11.62-.64,1.26-1.28.94-2.34-.74-2.44-1.49-4.88-2.14-7.35C268.31,330.43,268.05,329.9,266.79,330.23Zm-17.74-23.1c-1.65.6-4.5-.77-4.64,2.09s2.49,5.64,4.71,5.78c2.61.17,3.84-3.73,4.3-5.81C254,306.63,250.64,307.93,249.05,307.13Zm13.26-10.67c1.79.29,3.69,0,3.44-1.08-.59-2.58-3.19-3.25-5.5-3.8-1.15-.28-2.77-.25-2.69,1.37C257.72,296.23,260.68,295.93,262.31,296.46Zm53.9-24.24c-.14-1.34-.84-2-2.09-1.71s-3.23.51-2.95,2.59c.18,1.31,1.29,1.86,2.67,1.75C315.54,274.71,316,273.59,316.21,272.22Z"/><path class="cls-4" d="M268.35,391.92Q256.49,376,244.61,360.19a3.16,3.16,0,0,1-.62-2.94,42.87,42.87,0,0,0,4.95-.36c3.25-.6,5.82-.54,5.06,3.93a1.16,1.16,0,0,0,0,.45c.85,3.38,4.73,0,5.83,2.57.75,1.74-.82,5.08,3.23,4.31,3.05-.59,3.9.8,3.74,3.67-.12,2.26-.69,5.28,3.55,4.16,2.07-.54,1.71,1.28,1.62,2.3-.2,2.53.11,4.56,2.46,6.23,2.19,1.54,2,4.29.83,6.18C273.7,393.36,270.87,392.55,268.35,391.92Z"/><path class="cls-7" d="M243.91,386.38V368c6.16,8.53,11.54,16,16.93,23.42l-14.95.42c-.7-.35-1.9.14-2-1.2S243.91,387.81,243.91,386.38Z"/><path class="cls-13" d="M370.77,407.93c-.59,4-3.8-.95-4.87,1.42-.94-1-.8-1.81-.19-3.13,1-2.2,1.4-4.7,2.11-7.27,2.8,2.74,2.13,6.11,3,9Z"/><path class="cls-13" d="M84.41,404.32c0-5.07.91-6,2.94-3.22,1,1.42,1.23,3.37,2.9,4.64.46-2,1.43-3.73,1.1-5.74-.15-.89.54-1,1.15-.93,1.1.05,1.09.54.68,1.45s-.46,2-.81,3c-.71,1.92-1.52,3.8-2.28,5.7-2-.94-2.35-3.06-3.1-4.76C86,402.29,85.28,403.88,84.41,404.32Z"/><path class="cls-13" d="M97.19,414.19c1.2,0,.51,1.61,1.47,1.84s2,.53,1.64,1.65c-.59,1.7-1.41-.36-1.9-.1-1.6.87-1.72,2.6-1.92,4.17-.07.6,1.51,1.39-.16,1.84s.19,4.21-2.37,3.24c-1.91-.72,0-2.84.34-4.16C95,419.81,94.08,416.32,97.19,414.19Z"/><path class="cls-13" d="M287.07,409.75c-3.12.1-4.34-1.34-3.53-4.47.15-.58-.05-1.41.29-1.75,1.25-1.26-.78-5,2.19-4.23,2.61.66-.41,2.85-.27,4.43.18,1.91-1.33,4.28,1.59,5.38.07,0,.16.21.13.26A2.14,2.14,0,0,1,287.07,409.75Z"/><path class="cls-13" d="M327.22,404.82c-1.59,1.14,1,4.16-1.37,4.69s-2.47-2.33-2.77-3.83,1.51-2.44,2.83-2.86C327,402.46,327.31,403.56,327.22,404.82Z"/><path class="cls-15" d="M226.59,248.64a3.09,3.09,0,0,1,.11.8c-2.4,2.41-4.8,4.82-7.92,6.34a1.84,1.84,0,0,1-1.13-1.92C221.4,253.43,223.11,249.52,226.59,248.64Z"/><path class="cls-13" d="M355.72,423.84c-.7-2.56-1.29-4.69-1.87-6.8C359.16,417.18,359.28,417.56,355.72,423.84Z"/><path class="cls-13" d="M306.88,398.57c.63,3.86-1.23,6.85-1,10,0,.24-.67.8-.89.74a1.69,1.69,0,0,1-1.18-2.07C304.2,404.45,304.2,401.51,306.88,398.57Z"/><path class="cls-13" d="M316.42,413.15c2.28-2.32,2.34-5.28,2.17-8.27,0-1.07.31-2,1.31-2,1.22,0,1.32,1.3,1,2.06C319.54,407.8,320.91,412.12,316.42,413.15Z"/><path class="cls-13" d="M370.8,408a6.77,6.77,0,0,0,1.48-1.61c.48-1.07-1.08-2.75.94-3.39a.86.86,0,0,1,1.16.94c-.18,1.86.05,4.09-.9,5.46s-1.6-1.21-2.71-1.44Z"/><path class="cls-13" d="M97.81,407.87c-1,.33-1.18,2.42-2.76,1.53-1.23-.7-.67-1.78-.16-2.69.75-1.34-.92-3.36,1.22-4.29C98,403.81,96.26,406.36,97.81,407.87Z"/><path class="cls-13" d="M97.81,407.87c-1.55-1.51.22-4.06-1.7-5.45.08-.71-.21-1.7.61-2,1.12-.39,1.17.67,1.15,1.33a9.33,9.33,0,0,0,1.51,5.95.89.89,0,0,1-1.06,1.3C98.08,409,98,408.26,97.81,407.87Z"/><path class="cls-13" d="M340.64,410.54c-3.61-2.92-.66-5.41-1.73-7.48a3.14,3.14,0,0,1,1.22-.16,1.11,1.11,0,0,1,.71,1.45C340.29,406,340.29,407.75,340.64,410.54Z"/><path class="cls-13" d="M66.5,419.69c-.58,1,1.17,3.07-1.09,3.19-1.38.07-1.4-1.65-.83-2.42,1-1.31-.49-4,1.32-4S66.74,418.47,66.5,419.69Z"/><path class="cls-13" d="M289.45,407c.38-2.16.89-4.31,1.08-6.49.09-.92.16-1.51,1.14-1.32,1.15.23.73,1,.48,1.74q-1.11,3.15-2.2,6.3Z"/><path class="cls-13" d="M332.71,408.88c-1.23,1.13-2.67,1.25-3.18-.4s-.16-3.32-.07-5a2.62,2.62,0,0,1,1.66-.19c.73.29.1.94.09,1.44,0,1.56-1.41,3.69,1.54,4.16Z"/><path class="cls-13" d="M83.67,406.74c.34,1.13,1.71,2.12.32,2.86-.4.2-1.08-.13-1.64-.22Z"/><path class="cls-16" d="M332.75,408.9c.17-1,0-2.14,1.81-3.5l-1.85,3.48Z"/><path class="cls-13" d="M302.8,405a5.63,5.63,0,0,1-.84.73c-.07,0-.53-.41-.51-.44a7.3,7.3,0,0,1,.7-.88Z"/><path class="cls-8" d="M248.66,483l-9-.82c3.33-12.93,3.84-26.08,4.53-39.58-.34.1.08-.12.51-.12,7.45,0,7.45,0,5.95,7-1.83,8.56-1.41,9.25,7,10.4,3.58.49,7.22.6,10.79,1.13,2.46.36,3.35-.65,3.39-2.88.08-4.15,1-8.31-.35-12.83l9.59,1c-3.31,5.87-6.27,34.05-4.12,39.47a27.21,27.21,0,0,1-9.89-.88c3.71-5.23,2.72-11.28,3.44-17,.25-2-1.23-2.19-2.59-2.33-5.38-.56-10.77-1-16.14-1.61-2-.23-2.85.59-2.92,2.42C248.63,471.79,247.06,477.25,248.66,483Z"/><path class="cls-8" d="M163.34,455.75c-1,5.77-.32,11.64.67,17.17.71,3.95-.66,9,4.51,12a23.69,23.69,0,0,1-8.88,1,137.46,137.46,0,0,0-4-39.57c3.77-1.05,7.34-.45,11,3.41,7.21,7.57,15.14,14.45,22.61,21.46-1.31-8.76-.32-18.56-4.48-27.76,2.55-.6,5.42-1.32,8.64-.68-1.9,2.4-2.06,4.92-1.71,7.74,1.21,9.95,2.21,19.92,3.23,29.89.11,1.13.85,2.65-.26,3.38-1.27.83-2.61-.26-3.75-.92-3.83-2.23-6.53-5.73-9.61-8.81-6-6-12-12.15-18.05-18.22l-.7-.16.15.37Z"/><path class="cls-8" d="M133.22,450.67l8-1.9c2.78,13,5.55,25.87,10.71,38.29-2.36-.36-5,4.27-8-.16-.59-.85-1.25.67-1.71,1.14a17,17,0,0,1-9.75,5.27c-9.31,1.38-14.19-2-16.44-11.13-1.55-6.28-3.44-12.47-5.08-18.72a7.65,7.65,0,0,0-4-5.41c3.24-1,5.86-1.86,8.51-2.59,1.13-.32,1.61-.25,1.66,1.46.24,9.14,3.38,17.68,6.3,26.18,1.69,4.92,6.1,6.55,11.05,5,5.62-1.75,8.38-5.51,7.08-10.73C139.27,468.52,137.84,459.4,133.22,450.67Z"/><path class="cls-8" d="M289.7,489.07l-8.85-2.14c9.11-9.47,15.21-20.85,22.82-31.13,1.05-1.42-.57-5.44,3.93-4,3.52,1.1,5.76,2,6.28,6.55,1.29,11.22,3.44,22.34,5.41,33.47.56,3.16.77,5.15-3.39,3.35a25,25,0,0,0-4.66-1.1c1.84-5.25.38-10.16-.74-15-.29-1.22-2.35-1.07-3.63-1.42s-2.63-.64-4-.87c-2.34-.4-5.28-2.57-6.82-1.16a28.35,28.35,0,0,0-6.59,10.12C289.15,486.52,289.58,487.66,289.7,489.07Zm17.93-31c-2.89,3.85-5.48,7.22-7.95,10.67-.44.62-1.05,2,.08,2.32a67.43,67.43,0,0,0,9.2,2c1.32.18,1-1.28.84-2.06C309.16,466.92,308.44,462.84,307.63,458.06Z"/><path class="cls-8" d="M235.75,475.22c-.64,5.18-3.44,7.23-8.08,7.93-11.14,1.67-21.87-3.5-25.45-12.64-4-10.25.41-22.74,10.06-27,6.27-2.77,13.13-1.82,19.61-.75,3.08.51,1,4.11,2.19,7-9.11-3.66-17.47-6.13-23.65,3-3.73,5.51-3.06,13.81,1,19.1C216.59,478.66,221.72,479.4,235.75,475.22Z"/><path class="cls-2" d="M200.39,527.58c0-5.68,4.2-3,7-3.84-1,2.08-.19,4.74-3.23,5.14,1.3,1.22,3.79.77,3.47,3.24a2.31,2.31,0,0,1-2.12,2c-2,.39-4.09.64-5.54-.89-1.28-1.35-.5-2.16,1.28-1.92.16,2.64,2.06,1.85,3.56,1.77.65,0,1.2-.56,1-1.15-.49-1.64-2-1.46-3.26-1.48-.44,0-.87-.07-1.31-.1-.07-.6-.13-1.2-.2-1.8C200.84,528.23,200.61,527.91,200.39,527.58Z"/><path class="cls-2" d="M257,531.42c-1.81-1.15-1.37-2.31-1.32-3.26.1-2-1-2.06-2.55-2.08-1.78,0-2.88.36-2.73,2.48.05.85.77,2.49-1,2.39s-.69-1.65-.8-2.55a10.66,10.66,0,0,1,0-3.14c.25-1.38-1.07-3.64.64-4,2.42-.48.53,2,1.21,2.92.91,1.24,2.19.46,3.29.65,1.75.3,2-.78,1.83-2.15-.07-.76-.05-1.61,1-1.58s.92,1,.87,1.66C257.3,525.52,258,528.34,257,531.42Z"/><path class="cls-2" d="M291.09,530.23c.07-.43.34-1,.17-1.29-1.6-3-1.37-4.64,2.61-4,.49.08,1.1-.61,1.65-.94a3.63,3.63,0,0,0-.51.28c-.8.6-.86,1.42.17,1.51,3.79.34-1.49,3.17,1.09,3.75.05.73.72,1.84-1,1.48C293.91,530.72,292.49,530.49,291.09,530.23Z"/><path class="cls-2" d="M272.78,530.94c-2.4-.58-1.59-2-1.73-3.1-.16-1.25.32-3.07-1.85-2.78-1.72.22-2,1.62-1.64,3.1a21.77,21.77,0,0,0,.86,2.32c-2.51-.44-3-1.82-2.73-3.56s1.22-3,2.91-2.89c2.32.2,3.18-.79,3.24-3.26C273.43,524.32,272.81,527.58,272.78,530.94Z"/><path class="cls-2" d="M133.47,532.05V521.12c6.33,6.93,6.33,6.93,5.29,10-1.38-1.08-.63-2.53-.82-3.73-.17-1,0-2.28-1.5-2.36-1.63-.08-1.31,1.3-1.47,2.26C134.77,528.54,135.38,529.94,133.47,532.05Z"/><path class="cls-2" d="M237.79,529.89h.2a1.72,1.72,0,0,1-2.41.09,3.54,3.54,0,0,1-.85-3.73,2.73,2.73,0,0,1,2.41-2.32c1.34-.17,2.76-.3,3.69,1a2.34,2.34,0,0,1,.54,1.61c-.29,1.16-1.38.84-2.24.9-1.34.1-3.61-.47-1.57,2.12Z"/><path class="cls-2" d="M213.61,531c-2.6.48-4.1-.93-4.07-3.25,0-2.62,2.82-3.58,4.64-4.11s3.67,1,4.14,3.29a1.12,1.12,0,0,1-.78,1.41c-.26.07-.64.66-1-.2-.65-1.74-2.2-2.92-3.75-1.7C211,527.85,214.16,529.1,213.61,531Z"/><path class="cls-2" d="M125.79,530.23c-3.56-.51-4.11-3-3.38-5.67,1.08-3.94,4-4.23,8-3.07-2,1.64-5.18-.36-6.07,2.59C123.62,526.41,124.57,528.3,125.79,530.23Z"/><path class="cls-2" d="M276.56,527.6c.79-1.49,3.08-.07,3.16-2,0-.3-1.34-.65-2.44-1.16,1.75-.68,3.27-1,3.92.65a17.8,17.8,0,0,1,1,5.54c0,.56-1.33.91-1.86.28C279.3,529.6,277.32,529.5,276.56,527.6Z"/><path class="cls-2" d="M147,524c1.91,2.24,1.1,4.68,2.24,7-3.38.29-4.17-2.35-6-3.86C145.55,527.29,146.17,525.54,147,524Z"/><path class="cls-2" d="M169.82,524.68c1.21,2.13.3,4.3,1.63,6.22-2-.73-4.55.34-5.21-2C165.46,526.1,169.41,526.89,169.82,524.68Z"/><path class="cls-2" d="M304.63,525.25c-4.39,0-2.12,2.93-2.11,5.74-2.21-1.7-3.18-3.12-1.82-5.3,1.49-2.4,3.81-2.48,5.8-1s2.2,3.35-.33,5.18c-.73-1.46.78-3.17-.89-4C305.3,525.37,305.11,525.14,304.63,525.25Z"/><path class="cls-2" d="M177.07,531.05c-2.54-1.51-3.67-6.14-2.14-8,.42-.51.85-1.19.89-.1.05,1.39,2.67,1.16,1.67,1.7-1.69.9-1.28,2-1.51,3.24S177.63,529.65,177.07,531.05Z"/><path class="cls-2" d="M152.86,531c-1.8-3.27-1.08-6.6-1.28-9.92l1.28-.05Z"/><path class="cls-2" d="M297.62,531c.55,2.12-.59,3-2.45,3.33s-3.93.39-5.31-1.24c-1-1.21-.07-1.8,1.13-2C293.46,533.94,294.4,533.93,297.62,531Z"/><path class="cls-2" d="M226.53,524.78c.15-1.23,1.14-1.53,2.08-2s.72-3,2.66-2.09c1.27.62.12,1.84-.05,2.75-.33,1.68-1.15,2.72-3.09,1.82a4.52,4.52,0,0,0-1.29-.2Z"/><path class="cls-2" d="M181.33,524.91c2.47-1.87,4.8-1.51,6.09,1.17,1.06,2.17,0,4-2.56,4.58l0-1.23c1.58-2.3,1.86-4.07-1.75-4.22Z"/><path class="cls-2" d="M158.89,524.42c-.25,1.47-.42,2.43-.57,3.39s1.88,1.42.61,2.56a1.34,1.34,0,0,1-1.25-.1,2.9,2.9,0,0,1-1.39-3.08C156.55,526.07,156.79,524.83,158.89,524.42Z"/><path class="cls-2" d="M226.84,525.07V531c-1.81-.87-3-1.94-3-4,0-1.86,1.24-2.11,2.65-2.22Z"/><path class="cls-2" d="M192,531.14c-2.13-1.91-1.36-4-1.6-6-.11-.94.5-1.27,1.39-1.19,1.08.11.93.7.8,1.53C192.29,527.36,192.17,529.26,192,531.14Z"/><path class="cls-2" d="M262.3,532.07c-1.92-3.29-1.46-5.65-.87-8,0,0,.72-.05.79.08C263.34,526.45,262.85,528.75,262.3,532.07Z"/><path class="cls-2" d="M297.62,531c-3.22,2.92-4.16,2.93-6.63.06a1.86,1.86,0,0,1,.1-.84c1.4.26,2.82.49,4.21.79,1.69.36,1-.75,1-1.48A1.94,1.94,0,0,1,297.62,531Z"/><path class="cls-2" d="M201.27,530.36c.44,0,.87.09,1.31.1,1.31,0,2.77-.16,3.26,1.48.17.59-.38,1.12-1,1.15-1.5.08-3.4.87-3.56-1.77Z"/><path class="cls-2" d="M181.33,524.91l1.81.3a18.57,18.57,0,0,0-.75,2.48c-.15.83.11,1.83-.82,2.32-.6.31-1.12-.07-1.47-.58a1.84,1.84,0,0,1,.13-2.72A7.87,7.87,0,0,0,181.33,524.91Z"/><path class="cls-2" d="M184.89,529.43l0,1.23c-.64.78-1.36.7-1.51-.22S184.14,529.42,184.89,529.43Z"/><path class="cls-2" d="M216.52,529.26c-.06.07-.25.51-.57.64-.49.19-.86-.19-.65-.66.14-.3.61-.47,1-.64S216.82,528.54,216.52,529.26Z"/><path class="cls-2" d="M304.63,525.25c.48-.11.67.12.65.58Z"/><path class="cls-2" d="M200.39,527.58c.22.33.45.65.68,1C200.84,528.23,200.61,527.91,200.39,527.58Z"/><path class="cls-6" d="M179.71,558c2.55,4.18,4.53,7.44,6.56,10.8-1.2.64-2.49,1-2.92-.46-.48-1.61-1.18-2.47-2.79-2-1.32.41-3.12.6-2.68,2.82.18.95-.37,1.5-1.23,1.33-1.13-.23-.65-1.14-.44-1.79C177.24,565.51,178.31,562.29,179.71,558Z"/><path class="cls-6" d="M221.9,555.67c1.62,3.89,2.85,6.87,4.09,9.85.27.65.91,1.44-.11,1.84-.76.29-2.25.46-2.21-.54.15-4.69-3.53-2.34-5.63-3.26C219.18,561.23,220.33,558.89,221.9,555.67Z"/><path class="cls-6" d="M205.48,567.22c-5.12-1.49-5.73-7-9.7-10.32C203.47,556.76,202.15,564.17,205.48,567.22Z"/><path class="cls-6" d="M260.88,568.14a4.63,4.63,0,0,1,.31-1.27c.83-1.39,1.62-3.56,3.16-3.44,2.12.16,1.21,2.64,1.63,4.08a17.6,17.6,0,0,1,.57,4.41c0,.85,1.41,2.19-.39,2.52-1.4.26-1.54-1-1.49-2.13a2.39,2.39,0,0,0-.89-2.38c-.14-1,1.42-2.15.22-2.74C263.29,566.84,261.94,567.78,260.88,568.14Z"/><path class="cls-6" d="M239.76,560.8c-1.4,3.67.46,6.18,3.11,8.53-2.58-.08-4.72-1.09-5.07-3.53-.27-1.82-1.79-4.5,1.44-5.63Z"/><path class="cls-6" d="M162.31,563.87c3.87,1.87,3,4.64,1.31,8.71-.44-3.5-.45-6-1.74-8.14C162,564.26,162.17,564.07,162.31,563.87Z"/><path class="cls-6" d="M155,564.78a19.48,19.48,0,0,0,1.44,8c-3.9-2.11-4.19-4.57-1.38-8Z"/><path class="cls-15" d="M240.3,559.3c4.8-1.49,6.43-1.13,8.37,3a8,8,0,0,0-7.3-2.91Z"/><path class="cls-15" d="M260.15,569.41a15.06,15.06,0,0,1-.68,1.6c-.35.66,0,2-1.49,1.57a4.24,4.24,0,0,1-1.08-.7c.48-.59.94-1.22,1.47-1.76a5.31,5.31,0,0,1,1.08-.71l.35,0Z"/><path class="cls-15" d="M260.88,568.14c1.06-.36,2.41-1.3,3.12-.95,1.2.59-.36,1.76-.22,2.74l-2.63-.8c-.08-.3-.17-.6-.25-.9Z"/><path class="cls-6" d="M161.88,564.44l-5.8-1.25c3.1-1.37,4.67-.39,6.23.68C162.17,564.07,162,564.26,161.88,564.44Z"/><path class="cls-6" d="M161.08,573.22c-1.6,1.23-2.74,1.8-4.21.51C158.07,572.43,159.37,573.35,161.08,573.22Z"/><path class="cls-6" d="M240.3,559.3l1.07.1-1.61,1.4-.52-.63Z"/><path class="cls-6" d="M260.9,568.23c.08.3.17.6.25.9l-1,.28-.35,0-.35,0C259.55,568.55,259.86,567.93,260.9,568.23Z"/><path class="cls-6" d="M155.05,564.84a1.25,1.25,0,0,1,.2-.38c.05-.06.2,0,.3,0l-.56.34Z"/><path class="cls-4" d="M218.78,255.78c3.12-1.52,5.52-3.93,7.92-6.34a6.94,6.94,0,0,0,7.67-1.88c1.8-1.93,3.42-4,5.54-6.56.67,4.32-1.78,8.6,2.09,11.68.34.28-.37,1.94-.65,2.93s-1.2,2.61-.89,2.88c3.69,3.25,1.19,6.18-.06,9.37-.72,1.83,1.11,3.31,1.84,4.93.49,1.09,1.33,2.27.08,3.25a2.3,2.3,0,0,1-3.26-.35c-2.7-2.87-5.63-2.33-8.39-.36-2.52,1.79-5.27,1.32-7.87,1-12.94-1.51-25.9-.31-38.85-.56-3.32-.06-6.65,0-10,.07-2.76,0-5.79-.79-6,3.82-.1,2.37-2.69,1.25-4.14,1.29-6.5.15-8.13-1.3-8.18-7.67a46.12,46.12,0,0,1,4.17-20.2c4.43-9.43,12.14-14.43,22.33-15.37a66.21,66.21,0,0,1,22.47,1.79c8.88,2.26,12.32,8.09,10.24,16.54-.29,1.15-.57,1.63-1.69.92a1.35,1.35,0,0,0-.89-1.48l-.87-.94-1-.85c-.32-.93.29-2.16-.91-2.8a36.63,36.63,0,0,0-2.51-3.16c-7.18-7.33-23.25-6.58-27.54,2.49-1.07,4.59-2.33,9.06-5.59,12.74-.72.82-1.65,2.61.08,3.49a9.94,9.94,0,0,0,7.86.8c2.1-.77.94-2.91.31-3.87-2.7-4.11-2.77-8.63-2.71-13.22,1.71,0,2.5-1.48,3.68-2.32,6.93-4.92,17.93-4,23.42,2-2.25,1.17-5.58-1.4-7.14,2.09-6.15.11-8.53,2.19-8.23,7.19-2.81,1.53-2.17,3.5-.71,5.57a4.58,4.58,0,0,0,1.57,2.84,3,3,0,0,0,1.76,1.86c3.43,3.08,7.27,4.39,11.79,2.66.77-.22,1.78.27,2.23-.71.08-.16-.4-.81-.7-.87-1.26-.25-1.23.84-1.49,1.61-3.63-1.34-8-.28-11.09-3.43L193,267l-1.65-2.54c0-1.67-.82-3.36.1-5,1.73-3.5,5.3-5,8.09-7.31,2.29.32,4.59.72,6.86-.16l1.23,1,2.37,1.69a1.4,1.4,0,0,0,.62.56l.76.86,1.67,2.4.09,2.54c-.48,1.09-.67,2,1.06,1.89,1.56-.12.89-1.07.68-1.85Zm-12,10.74-.09.09c2.09.36,2.36-1.25,2.84-2.63,1.31-2.15,1.25-4.07-.95-5.62l0,0c.08-1.28-.58-1.82-1.8-1.8h0c-2.17-2.36-4.65-2.41-7.33-1a2.81,2.81,0,0,0-2.74,1.92l0,0c-1.43.39-1.59,1.74-2.11,2.82a1.75,1.75,0,0,0-.06,2.64c.46.61.18,1.71,1.25,1.92l0,0a1.22,1.22,0,0,0,1,1.38l.89.4c.58,1.81,2.34,1.61,3.67,2.15a1.72,1.72,0,0,0,2.67-.08c.64-.36,1.7,0,1.9-1.14l-.07,0C206.41,267.47,207.29,267.68,206.78,266.52Zm7.09-1.19a1.86,1.86,0,0,0-.72-.2c-.94-.05-1.07.75-1.29,1.4s.23.76.67.79C213.4,267.37,213.79,266.85,213.87,265.33Zm-4,5.11c.14-.25.36-.5.36-.73s-.25-.47-.39-.7c-.13.24-.37.48-.37.71S209.75,270.19,209.9,270.44Z"/><path class="cls-4" d="M219.42,282.61l3.58-.09c3.39.19,6.8.72,10.12-.49,1.6-1.68.14-1.77-1-2-.81-.17-1.52-.68-1.52-1.44a2.23,2.23,0,0,1,1.71-1.92,4.22,4.22,0,0,1,5.61,2.43c1,2.11,1.42,4.45-1.68,5.52-1.23.42-2.69.59-3,2.35,1.66,1.17,3.09.19,4.63-.25,2.26-.64,4.5-1,5.56,2s-.65,4.21-3.08,4.86c-2.83.77-2.42,1.59-.33,3,2.92,1.92,1.89,4.49.53,6.73-1.61,2.63-4.18,2.21-6.38,1-1.21-.65-3.2-2.19-.1-3.34.89-.33,1.91-.57,1.7-1.7-.29-1.5-1.67-1-2.61-1-7.69.13-15.39.35-23.08.51q-26.72.57-53.41,1.1a24.88,24.88,0,0,0-4.06.21c-1.56.29-4,.47-3.88,2.24.21,2.33,2.34.88,3.63.61,1.58-.33,1.78.53,1.84,1.72.09,1.66-.23,3.13-2.13,3.42-2.48.36-5.11,0-6.6-2s-.09-4.28,1.45-6.06c.1-.12.22-.22.3-.34,1-1.59,4.45-2.1,3.59-3.92-1.07-2.26-3.31.58-5.15.45-2.13-.15-3.37-1.21-3.58-3.31-.23-2.34,1.41-2.73,3.2-2.78,1.51-.05,3,0,4.52,0,.89,0,2.07.11,2.18-1.05s-1.06-1.16-1.91-1.44a5.83,5.83,0,0,1-2.52-9.6c1.67-1.79,3.62-1.92,5.75-.79a2.78,2.78,0,0,1,1.29,2.7c.06,1.38-1.16,1-2,1.08s-2-.32-2.05,1,1.19,1.64,2.26,1.66c1.95,0,3.91-.14,5.87-.17l53.41-.88Z"/><path class="cls-4" d="M165.8,302.72c-1.53,5.7,1.12,10.67,1.36,15.89.35,7.66,1.52,15.29,2.47,22.92.41,3.28,1,6.45-.24,9.74-.8,2.15.15,4.41,1,6.41-.38.21-.5.34-.62.33-4.52-.1-10.2,1.42-13.25-.75-3.44-2.44-.72-8.37-.69-12.74.11-12.38.86-24.75.82-37.12,0-4.25,1.48-5.16,5.11-4.7A37.58,37.58,0,0,0,165.8,302.72Z"/><path class="cls-4" d="M243.91,386.38c0,1.43,0,2.85,0,4.28l-50.43.18c-9.78.05-19.58-.8-29.34.47l-2.78,0c-.29-.4-.58-.38-.86,0l-11.82.08-.7-.67c-.1-1.64-.21-3.28-.31-4.93a2.61,2.61,0,0,0-.38-2.28c-.17-4.14-.33-8.27-.5-12.42q0-6,.1-11.92l2.73,0c1,1.09,2.32.67,3.53.78l.06,0c3.89,1.81,8,.55,12,.79l12.52,0v.95c-8.44.06-16.88.09-25.32.2-1.56,0-3.39-.65-4.49,1.21,0,1.65-.59,3.35.49,4.89.62,1.73-.25,3.78,1.12,5.9.95-1.68,1.58-3,2.41-4.19a8.79,8.79,0,0,1,11-2.58c-1.95,2.26-4.1,4.49-.73,7.27,2.43.75,1.2,1.73.17,2.7-1.14.65-.85,1.75-.87,2.74-1,.4-2,1-1.89,2.23.32,4.45-2.26,3.2-4.61,2.41-1.63-.55-2.74-1.82-3.94-3-.75-.71-1.64-1.66-2.33.11l.48.86c.75,1.35-.65,3.91,2.28,4,3.74,1.22,7.56.41,11.35.5l36.69.39c3.74,1.26,7.57.42,11.36.52,8.74,0,17.49-.09,26.23.18,3,.09,4.14-1,4.25-3.73l1.48-.9C243.23,384.45,242.41,385.86,243.91,386.38Z"/><path class="cls-7" d="M181.25,311c1.22.07.56,1.52,1.66,2,.54-3.1-.29-6.43,1.86-9,.86-1.05,1.91-2.45,3.28-1.83s.43,2.17.14,3.23c-.81,3-.2,6-.18,9,.08,10.71.31,21.42.49,32.12.06,3.28-.26,6.59,1.24,10.2-3.87-.76-2.74-5.18-5.61-6.08a10.21,10.21,0,0,0,.35,5.31,1.62,1.62,0,0,1-1.33,2c-1.36.16-1.06-1.12-1.18-1.92-.39-2.37-.59-4.78-1.15-7.1-.2-.85.2-2.33-1.33-2.5s-.29,2-1.57,2c-.91-12.94-1.8-25.87-2.74-38.8-.06-.92.48-2.33-1.07-2.55-1-.14-1.49.72-1.94,1.57-.59,1.1-1.49,2.22-2.83,1.22a3.57,3.57,0,0,1-1.5-4,4.77,4.77,0,0,1,3.88-3.34c1.94-.47,3.14.41,4.11,1.94,1.42,2.26,1.9,5.19,4.65,6.5l-.13-.06a1,1,0,0,0,.59,1.62l.44-1.61Z"/><path class="cls-7" d="M242.8,383.51l-1.48.9c.36-5.6-.79-11.09-1.06-16.63-.22-4.62-2-5.78-6.57-5.75-18.66.15-37.33-.15-56-.28v-.95c15.33-.29,30.66-.54,46-.9,5.26-.13,10.51-.51,15.76-.88,1.87-.13,2.64.33,2.67,2.41C242.23,368.79,242.55,376.15,242.8,383.51Z"/><path class="cls-14" d="M170.48,312.71c2,.19,2.83,1.1,2.66,2.72-.41,3.95.26,8.08.59,11.79.49,5.58-.47,11.56,1.89,17,.46,1.07-.48,2.05-1.66,2.2-1.34.17-2.37-.34-2.47-1.92-.19-3.29-.35-6.59-.57-9.89-.45-6.44-1-12.87-1.39-19.31C169.46,314.29,168.84,312.8,170.48,312.71Z"/><path class="cls-7" d="M191.26,354.37c.68-1.1-1.48-3.56,1.52-3.66,2.28-.07,3.05,1.58,3,3.6s-1.35,2.91-3.23,3C190,357.35,191.37,355.55,191.26,354.37Z"/><path class="cls-7" d="M164.13,391.31c9.76-1.27,19.56-.42,29.34-.47C183.7,391.59,173.92,391.47,164.13,391.31Z"/><path class="cls-14" d="M180.48,311c-.07-3.05-1.76-5.59-3-9.07,2.52.25,5.6-1.72,4,3.31-.56,1.75-.17,3.81-.21,5.73l.13,0h-1Z"/><path class="cls-14" d="M173.68,356.53a4.72,4.72,0,0,1-.75-6.2c.47-.79,1.7-.5,2.26.35C176.83,353.14,175.13,354.71,173.68,356.53Z"/><path class="cls-7" d="M190.51,301.26a19.61,19.61,0,0,1,2.06,2.5,5.86,5.86,0,0,1,.26,5.16,1.63,1.63,0,0,1-1.54.41c-1.83-1.1-.64-3-.92-4.47A20.62,20.62,0,0,1,190.51,301.26Z"/><path class="cls-7" d="M165.17,360.77c-4-.24-8.08,1-12-.79C157.2,360.15,161.23,359.73,165.17,360.77Z"/><path class="cls-7" d="M146.88,359.2q0,6-.1,11.92C146.3,367.15,145.39,363.17,146.88,359.2Z"/><path class="cls-17" d="M233.12,282c-3.32,1.21-6.73.68-10.12.49C226.32,281.3,229.74,282,233.12,282Z"/><path class="cls-17" d="M219.42,282.61l-7.31.09A9.24,9.24,0,0,1,219.42,282.61Z"/><path class="cls-7" d="M214.84,261c.21.78.88,1.73-.68,1.85-1.73.14-1.54-.8-1.06-1.89Z"/><path class="cls-7" d="M153.14,360c-1.21-.11-2.54.31-3.53-.78C150.87,359.06,152.17,358.77,153.14,360Z"/><path class="cls-17" d="M213,258.46l-1.67-2.4,1-.56a1.35,1.35,0,0,1,.89,1.48C213.13,257.47,213.07,258,213,258.46Z"/><path class="cls-7" d="M147.28,383.54a2.61,2.61,0,0,1,.38,2.28C147.53,385.06,147.4,384.3,147.28,383.54Z"/><path class="cls-11" d="M243,305.49l-1,1C242.12,305.91,242.37,305.51,243,305.49Z"/><path class="cls-7" d="M160.49,391.34c.28-.38.57-.4.86,0Z"/><path class="cls-7" d="M148,390.75l.7.67C148.07,391.58,147.86,391.33,148,390.75Z"/><path class="cls-7" d="M282,301c-1.43,6.14-.76,6.75,11.2,9.62-3.81,2.13-7.46,1.9-10.77,1.55-3.72-.39-7.23-.61-10.48,1.35-4.91,2.94-9.71,6-14.54,9.11-1.18.74-2,2.57-3.78,1.42a4.57,4.57,0,0,1-2-4.74c.76-4.8,3.65-8.38,6.89-12,1.88,2-.31,3.71-.3,5.77,2.65-1.09,4.8-2.72,3.69-5.05-1.59-3.35.3-4.93,2.11-6.87a9.73,9.73,0,0,0,1.78-2c5.08-10.11,14.54-10.29,23.92-10.59a13.34,13.34,0,0,1,3.11.49c1.48.32,3.38.64,3.48,2.34.12,2.16-2.16,1.61-3.44,2-4.44,1.45-7.68,4.55-10.93,7.67-1-1.4.84-1.88,1-3,.33-2.27.12-4.28-2-5.55a4.46,4.46,0,0,0-5.45.36,4.18,4.18,0,0,0-1.47,4.85,4.77,4.77,0,0,0,4.8,3.38C279.88,301.14,280.88,299.67,282,301Z"/><path class="cls-7" d="M254.16,337.61c-4.22,2.93-6.88,7-9.74,10.84-1.28,1.73-2.65,3.53-5.15,1.66s-1.45-3.86.11-5.73c.48-.58,1.05-1.08,1.55-1.64s1.61-1.13.72-2.18-1.56-.15-2.35.21a11.27,11.27,0,0,1-2.93,1c-1.74.23-2.76-.94-3.51-2.33-.93-1.76.61-2.27,1.55-3.18s3.73-.73,3-2.66c-.78-2.09-2.81-.09-4.27-.25a15.26,15.26,0,0,1-3.51-.6c-1.64-.58-3-1.87-3-3.6.06-2,2.05-1.75,3.47-2,.73-.16,1.45-.4,2.19-.55,5.3-1.07,10.58-3,13.7,4.24C247.33,333.86,251.1,335.41,254.16,337.61Z"/><path class="cls-7" d="M293.73,303c.08-.28.16-.8.25-.8,5.85-.24,6.88-5.86,9.86-9.12,4.06-4.45,3-10.21,2.16-15.58-.48-3.09-.52-6,.94-8.81,1.84-3.48,3.71-3.69,7.32-.63-5-.1-6.41,2.6-6.08,6.82.36,4.51.64,9,.91,13.55a16.73,16.73,0,0,1-3.8,11.77C301.14,305.41,300.34,305.62,293.73,303Z"/><path class="cls-7" d="M246.29,316.33c1.49,1,2.91,1.47,3,3.36.18,4.24,2,7.19,6.5,8.09a2.71,2.71,0,0,1,2,1.69c.92,2.2,4,4.38,1.8,6.68s-4.25-.88-6.09-2a23.25,23.25,0,0,1-8.07-7.68A7.89,7.89,0,0,1,245,318,13.15,13.15,0,0,1,246.29,316.33Z"/><path class="cls-7" d="M296.92,308c-3.62-.81-7.26-.29-10.73-1.52-2.8-1-3-2.51-1.47-4.75,2.36-3.45,8.4-6.62,11.42-5.92.85.2,1.93.24,2,1.39.11,1.36-1.14,1.06-1.9,1.33s-1.46.39-2.14.68c-1.78.74-3.13,1.92-3.07,4,.05,1.87,1.69,2.22,3.06,2.84C295,306.45,296.33,306.05,296.92,308Z"/><path class="cls-7" d="M280.79,314.3c-5.89,6.1-12.44,8.07-19.48,9C267.17,319.83,271.88,314,280.79,314.3Z"/><path class="cls-7" d="M266.79,330.23c1.26-.33,1.52.2,1.74,1.06.65,2.47,1.4,4.91,2.14,7.35.32,1.06-.32,1.7-.94,2.34-.82.85-1.66.39-2.43-.11a10.77,10.77,0,0,1-4.92-7.3C261.74,330,265.77,331.71,266.79,330.23Z"/><path class="cls-7" d="M249.05,307.13c1.59.8,4.94-.5,4.37,2.06-.46,2.08-1.69,6-4.3,5.81-2.22-.14-4.86-2.86-4.71-5.78S247.4,307.73,249.05,307.13Z"/><path class="cls-14" d="M285.22,315.14c.8,4.21,1.11,8.59,4.35,11.92a1.38,1.38,0,0,1-.1,2.29c-1.09.89-1.92.22-2.77-.41-3.75-2.8-4.23-7.36-1.44-13.81Z"/><path class="cls-14" d="M262.31,296.46c-1.63-.53-4.59-.23-4.75-3.51-.08-1.62,1.54-1.65,2.69-1.37,2.31.55,4.91,1.22,5.5,3.8C266,296.49,264.1,296.75,262.31,296.46Z"/><path class="cls-14" d="M316.21,272.22c-.18,1.37-.67,2.49-2.37,2.63-1.38.11-2.49-.44-2.67-1.75-.28-2.08,1.56-2.25,2.95-2.59S316.07,270.88,316.21,272.22Z"/><path class="cls-14" d="M285.26,315.13a1.49,1.49,0,0,0,.32.16c.28-.35.39-.32.34.12l-.7-.27Z"/><path class="cls-13" d="M163.34,455.75l-.6.33-.15-.37.7.16Z"/><path class="cls-7" d="M307.63,458.06c.81,4.78,1.53,8.86,2.17,13,.12.78.48,2.24-.84,2.06a67.43,67.43,0,0,1-9.2-2c-1.13-.34-.52-1.7-.08-2.32C302.15,465.28,304.74,461.91,307.63,458.06Z"/><path class="cls-6" d="M179.46,250.18c-.06,4.59,0,9.11,2.71,13.22.63,1,1.79,3.1-.31,3.87a9.94,9.94,0,0,1-7.86-.8c-1.73-.88-.8-2.67-.08-3.49,3.26-3.68,4.52-8.15,5.59-12.74Z"/><path class="cls-14" d="M197.63,266.54l-.89-.4c.32-.51.51-1.05,0-1.53a.55.55,0,0,0-1,.15l0,0c.31-2.46.61-4.92.92-7.38l0,0c1.36,1,1.81-.73,2.77-.94,2.43-1,4.86.77,7.3,0h0c-.48,1.68.11,2.3,1.8,1.8l0,0c-.81,1.56.4,3.07.12,4.62l-2,3.63.09-.09c-.6.07-1.56-.21-1,1l.07,0A30.53,30.53,0,0,1,197.63,266.54Zm7.26-2.69c2.48-1.4,1.66-3.21.2-4.57a3.88,3.88,0,0,0-5.64.07,2.94,2.94,0,0,0,0,4.71c1.73,1.49,3.81,2.45,5.53-.25Z"/><path class="cls-15" d="M179.51,250.24c4.29-9.07,20.36-9.82,27.54-2.49a36.63,36.63,0,0,1,2.51,3.16l-2,2-1.23-1a.39.39,0,0,0-.44-.27c1.35-.19,1.52-.78.59-1.74h.05c-5.49-6-16.49-7-23.42-2-1.18.84-2,2.31-3.68,2.32Z"/><path class="cls-7" d="M199.5,252.08c-2.79,2.34-6.36,3.81-8.09,7.31l-.22-.2c-.3-5,2.08-7.08,8.23-7.19Z"/><path class="cls-17" d="M194.55,268.72c3.08,3.15,7.46,2.09,11.09,3.43l0,0c-4.52,1.73-8.36.42-11.79-2.66Z"/><path class="cls-7" d="M205.92,251.65a.39.39,0,0,1,.44.27c-2.27.88-4.57.48-6.86.16l-.08-.08c1.56-3.49,4.89-.92,7.14-2.09h-.05C206.31,250.49,206.11,251.07,205.92,251.65Z"/><path class="cls-17" d="M206.74,256.52c-2.44.76-4.87-1-7.3,0l0-1C202.09,254.11,204.57,254.16,206.74,256.52Z"/><path class="cls-7" d="M190.48,264.76c-1.46-2.07-2.1-4,.71-5.57l.22.2c-.92,1.66-.06,3.35-.1,5Z"/><path class="cls-2" d="M197.63,266.54a30.53,30.53,0,0,0,8.24.93c-.2,1.1-1.26.78-1.9,1.14l-2.67.08C200,268.15,198.21,268.35,197.63,266.54Z"/><path class="cls-2" d="M196.71,257.41c-.31,2.46-.61,4.92-.92,7.38-1.07-.21-.79-1.31-1.25-1.92l.06-2.64C195.12,259.15,195.28,257.8,196.71,257.41Z"/><path class="cls-17" d="M208.7,263c.28-1.55-.93-3.06-.12-4.62,2.2,1.55,2.26,3.47.95,5.62Z"/><path class="cls-7" d="M213.87,265.33c-.08,1.52-.47,2-1.34,2-.44,0-.87-.22-.67-.79s.35-1.45,1.29-1.4A1.86,1.86,0,0,1,213.87,265.33Z"/><path class="cls-17" d="M207.59,253l2-2c1.2.64.59,1.87.91,2.8l-.51.93Z"/><path class="cls-2" d="M208.7,263l.83,1c-.48,1.38-.75,3-2.84,2.63Z"/><path class="cls-17" d="M190.48,264.76l.83-.35L193,267l-.91.65A4.58,4.58,0,0,1,190.48,264.76Z"/><path class="cls-7" d="M205.64,272.15c.26-.77.23-1.86,1.49-1.61.3.06.78.71.7.87-.45,1-1.46.49-2.23.71Z"/><path class="cls-2" d="M199.41,255.53l0,1c-1,.21-1.41,1.92-2.77.94A2.81,2.81,0,0,1,199.41,255.53Z"/><path class="cls-17" d="M208.55,258.33c-1.69.5-2.28-.12-1.8-1.8C208,256.51,208.63,257.05,208.55,258.33Z"/><path class="cls-17" d="M193,267l1.59,1.77c-.24.25-.49.5-.74.74a3,3,0,0,1-1.76-1.86Z"/><path class="cls-7" d="M201.3,268.69l2.67-.08A1.72,1.72,0,0,1,201.3,268.69Z"/><path class="cls-7" d="M209.9,270.44c-.15-.25-.39-.48-.4-.72s.24-.47.37-.71c.14.23.38.46.39.7S210,270.19,209.9,270.44Z"/><path class="cls-7" d="M194.6,260.23l-.06,2.64A1.75,1.75,0,0,1,194.6,260.23Z"/><path class="cls-2" d="M195.77,264.76a.55.55,0,0,1,1-.15c.51.48.32,1,0,1.53A1.22,1.22,0,0,1,195.77,264.76Z"/><path class="cls-2" d="M205.8,267.52c-.58-1.21.38-.93,1-1C207.29,267.68,206.41,267.47,205.8,267.52Z"/><path class="cls-17" d="M211.34,256.06l-.76-.86.86-.64.87.94Z"/><path class="cls-17" d="M210.58,255.2a1.4,1.4,0,0,1-.62-.56l.51-.93,1,.85Z"/><path class="cls-6" d="M177.69,361.75c18.67.13,37.34.43,56,.28,4.52,0,6.35,1.13,6.57,5.75.27,5.54,1.42,11,1.06,16.63-.11,2.74-1.24,3.82-4.25,3.73-8.74-.27-17.49-.15-26.23-.18-3.75-.9-7.56-.65-11.36-.52l-36.69-.39c-3.75-.93-7.56-.6-11.35-.5-2.93-.1-1.53-2.66-2.28-4,.28-.53-.14-.67-.48-.86.69-1.77,1.58-.82,2.33-.11,1.2,1.14,2.31,2.41,3.94,3,2.35.79,4.93,2,4.61-2.41-.08-1.19.85-1.83,1.89-2.23l.26.06.25-.06c.56,1.35-.6,4,1.75,3.88,2.12-.09.54-2.94,1.75-4.1,2.17,5,2.17,5,7.91,4.81,1.48-.06,3.27.19,3.36-2,.12-3-2.32-1.29-3.58-1.75l-1.78-1.67.94-2-.09.08c.71-.17.86.42,1.13.85.47,3.57,3.07.49,4.39,1.41a8.36,8.36,0,0,0,5.86,4.46c1.3.32,3.32.39,3.06-1.32-.39-2.61,1.94-3.48,2.43-5.54.86,1.9-1.06,4.94,1.47,5.45s.71-2.89,2.08-3.92c1,.52.84,1.53,1,2.37,1,4.65,4.65,1.85,7,2.43s3.62-.86,3.26-3.4c0-1.55,0-3.11,0-4.67-.42-1.54-1.89-.56-2.71-1.12v-1.34c.36-.52,2.14.29,1.28-1.39s-.33-3.21-.31-4.83c0-1,1.74-2.35-.3-2.89-1.25-.33-2.11.79-2.76,1.86-1.15,1.91-.92,4.4-2.55,6.1h-.9c1-2.72-1-4.65-2.33-6.25-1.1-1.33-1.55,2.49-3.47,1.71a1.36,1.36,0,0,0-.45,0c1.09-1.42,1.19-2.51-1-2.37-4.46.28-8.71,1.07-10.63,5.91-.39,1-.53,2.2-2,1.82s-.78-1.7-.88-2.63a11.24,11.24,0,0,1,.14-2.23c.06-.91,1.37-2.06-.13-2.68-1.32-.55-2.21.56-2.84,1.57-1.36,2.15-1.22,4.95-3,6.94l-.58-.94c-.14-4.59-1.53-5.81-5.06-4.49-.09,0-.44-.58-.66-.89a8.79,8.79,0,0,0-11,2.58c-.83,1.18-1.46,2.51-2.41,4.19-1.37-2.12-.5-4.17-1.12-5.9a9.17,9.17,0,0,0-.49-4.89c1.1-1.86,2.93-1.19,4.49-1.21C160.81,361.84,169.25,361.81,177.69,361.75Zm56.24,12.84c4.73-.26,2.38-3.79,2.61-6,.13-1.14,2.09-2.73,0-3.47s-3.54.89-4.14,2.62a34.76,34.76,0,0,1-3,6.5C230.83,376.05,232.36,375.64,233.93,374.59Zm-1.89,7c-2.36.62-3.73-.22-4.1-2.68-.47-3-2.79-2.16-4.57-1.92-2.43.33-2.36,2.28-2.25,4.16.07,1.22.12,2.84,1.51,2.85,2.75,0,1.4-2.78,2.35-4.07.11-.14.38-.17,1.16-.48-.91,6.38,3.46,5.1,7,5.07,1.84,0,3.92.86,5.39-1a1.46,1.46,0,0,0,0-2.06c-1.78-1.4-3.67-.33-5.52,0,.37-1.72,4.16-2.16,2.25-4.42-2.25-2.66-.8,2.66-2.69,1.61a1.59,1.59,0,0,0-2.49.86C229.77,380.68,231.55,380.65,232,381.55ZM221.2,366.29a17.37,17.37,0,0,0-9.71,1.28c-3.86,1.72-6.08,6.76-5,11,.92,3.52,5.45,6.81,9.24,6.61,1.1-.05,2.39.23,2.53-1.71a9.14,9.14,0,0,1,4.56-7.24c2-1.3-1.34-.83-.64-1.77,2.08-.37,4.7,1,6.15-1.39,2.12-3.54-2.29-4.7-2.57-7.74C223.52,368.26,223.52,368.26,221.2,366.29Z"/><path class="cls-14" d="M162.88,367.18c.22.31.57.92.66.89,3.53-1.32,4.92-.1,5.06,4.49-1.43,1.83-3.08,2.68-5.17,1-1.52-1.2-1.08.28-1.28.88C158.78,371.67,160.93,369.44,162.88,367.18Z"/><path class="cls-15" d="M162.15,374.45c.2-.6-.24-2.08,1.28-.88,2.09,1.67,3.74.82,5.17-1,.19.31.39.62.58.94.53,1.69,1.9.88,3,1l.58.88c-.17.61-.33,1.22-.5,1.83l.09-.08c-1.24.23-2.3.53-.94,2l1.78,1.67c-1.77.86-4.65,2.05-4.91-.34-.52-4.8-3.31-3.54-6-3.34l.09.06C163.35,376.18,164.58,375.2,162.15,374.45Z"/><path class="cls-7" d="M151.44,386.55c3.79-.1,7.6-.43,11.35.5C159,387,155.18,387.77,151.44,386.55Z"/><path class="cls-7" d="M199.48,387.44c3.8-.13,7.61-.38,11.36.52C207.05,387.86,203.22,388.7,199.48,387.44Z"/><path class="cls-7" d="M147.88,363.16a9.17,9.17,0,0,1,.49,4.89C147.29,366.51,147.83,364.81,147.88,363.16Z"/><path class="cls-15" d="M162,379.89l-.25.06-.26-.06c0-1-.27-2.09.87-2.74l-.09-.06Z"/><path class="cls-7" d="M148.68,381.68c.34.19.76.33.48.86Z"/><path class="cls-6" d="M180.35,310.92h1l-.44,1.61A1,1,0,0,1,180.35,310.92Z"/><path class="cls-2" d="M282,301c-1.09-1.28-2.09.19-3.17.15a4.77,4.77,0,0,1-4.8-3.38,4.18,4.18,0,0,1,1.47-4.85,4.46,4.46,0,0,1,5.45-.36c2.11,1.27,2.32,3.28,2,5.55-.17,1.08-2,1.56-1,3Zm-1.11-4.45a2.5,2.5,0,0,0-2.28-2.32c-1.4-.17-2.18.74-2.27,2.12a2,2,0,0,0,2.09,2.36A2.33,2.33,0,0,0,280.86,296.5Z"/><path class="cls-15" d="M204.93,263.81c-1.72,2.7-3.8,1.74-5.53.25a2.94,2.94,0,0,1,0-4.71,3.88,3.88,0,0,1,5.64-.07c1.46,1.36,2.28,3.17-.2,4.57-.28-.27-.75-.35-.52-1,.71-1.94-.35-2.88-2.1-3a1.71,1.71,0,0,0-2,1.87c.18,2.08,1.61,2.33,3.26,1.84C204.11,263.36,204.57,263.1,204.93,263.81Z"/><path class="cls-4" d="M205.92,251.65c.19-.58.39-1.16.59-1.74C207.44,250.87,207.27,251.46,205.92,251.65Z"/><path class="cls-7" d="M172.22,377.19c.17-.61.33-1.22.5-1.83.58-.07,1.33-.3,1.09-.91-.42-1.06-1.1,0-1.67,0-1.06-.1-2.43.71-3-1,1.74-2,1.6-4.79,3-6.94.63-1,1.52-2.12,2.84-1.57,1.5.62.19,1.77.13,2.68a11.24,11.24,0,0,0-.14,2.23c.1.93-.61,2.25.88,2.63s1.59-.84,2-1.82c1.92-4.84,6.17-5.63,10.63-5.91,2.22-.14,2.12.95,1,2.37-2,2.48-3.54,4.89,1,6.37-.31,1.74.65,2,2.1,1.95,1.1-.08,2.27,0,2.27,1.51,0,3.94,2.14,4,5.11,3a5.47,5.47,0,0,1,4,0c.36,2.54-.84,4-3.26,3.4s-6.05,2.22-7-2.43c-.17-.84,0-1.85-1-2.37-1.37,1,.55,4.45-2.08,3.92s-.61-3.55-1.47-5.45c-.49,2.06-2.82,2.93-2.43,5.54.26,1.71-1.76,1.64-3.06,1.32a8.36,8.36,0,0,1-5.86-4.46c.09-1.84-.86-3.25-2-4.92-.41,1.58.55,4-2.35,3.51C173.08,377.61,172.93,377,172.22,377.19Z"/><path class="cls-4" d="M222.2,374.46c-.7.94,2.69.47.64,1.77a9.14,9.14,0,0,0-4.56,7.24c-.14,1.94-1.43,1.66-2.53,1.71-3.79.2-8.32-3.09-9.24-6.61-1.1-4.24,1.12-9.28,5-11a17.37,17.37,0,0,1,9.71-1.28C221,369.08,217,372.34,222.2,374.46Z"/><path class="cls-7" d="M233,381.41c1.85-.33,3.74-1.4,5.52,0a1.46,1.46,0,0,1,0,2.06c-1.47,1.87-3.55,1-5.39,1-3.51,0-7.88,1.31-7-5.07-.78.31-1,.34-1.16.48-.95,1.29.4,4.1-2.35,4.07-1.39,0-1.44-1.63-1.51-2.85-.11-1.88-.18-3.83,2.25-4.16,1.78-.24,4.1-1.12,4.57,1.92.37,2.46,1.74,3.3,4.1,2.68Z"/><path class="cls-14" d="M222.2,374.46c-5.22-2.12-1.22-5.38-1-8.17,2.32,2,2.32,2,4.58-1,.28,3,4.69,4.2,2.57,7.74C226.9,375.5,224.28,374.09,222.2,374.46Z"/><path class="cls-7" d="M162,379.89l.27-2.8c2.7-.2,5.49-1.46,6,3.34.26,2.39,3.14,1.2,4.91.34,1.26.46,3.7-1.29,3.58,1.75-.09,2.15-1.88,1.9-3.36,2-5.74.23-5.74.23-7.91-4.81-1.21,1.16.37,4-1.75,4.1C161.36,383.87,162.52,381.24,162,379.89Z"/><path class="cls-14" d="M190.46,373.54c-4.51-1.48-3-3.89-1-6.37a1.36,1.36,0,0,1,.45,0c1.92.78,2.37-3,3.47-1.71,1.31,1.6,3.34,3.53,2.33,6.25-.08.12-.24.26-.22.35a3.26,3.26,0,0,0,.31.62l0-.11Z"/><path class="cls-2" d="M190.46,373.54l5.39-1c1.71,1.89,3.58.84,5.43.28,0,.45,0,.89,0,1.34-1.37.24-2.28.78-1.59,2.39-.93-.77-1.92-2.35-2.83-.15-.32.76-.62,2.13.85,2.5,2.38.59,1.24-1.65,1.91-2.45,1.38-.67,3.21.35,4.37-1.17,0,1.56,0,3.12,0,4.67a5.47,5.47,0,0,0-4,0c-3,1-5.09.94-5.11-3,0-1.49-1.17-1.59-2.27-1.51C191.11,375.59,190.15,375.28,190.46,373.54Z"/><path class="cls-7" d="M229.46,374.26a34.76,34.76,0,0,0,3-6.5c.6-1.73,2.15-3.34,4.14-2.62s.09,2.33,0,3.47c-.23,2.19,2.12,5.72-2.61,6Z"/><path class="cls-7" d="M201.28,372.85c-1.85.56-3.72,1.61-5.43-.28l0,.11c.62,0,.83-.41.81-1,1.63-1.7,1.4-4.19,2.55-6.1.65-1.07,1.51-2.19,2.76-1.86,2,.54.32,1.9.3,2.89,0,1.62-.49,3.27.31,4.83S201.64,372.33,201.28,372.85Z"/><path class="cls-17" d="M233,381.41l-1,.14c-.49-.9-2.27-.87-2-2.09a1.59,1.59,0,0,1,2.49-.86c1.89,1,.44-4.27,2.69-1.61C237.16,379.25,233.37,379.69,233,381.41Z"/><path class="cls-14" d="M173.35,378c2.9.52,1.94-1.93,2.35-3.51,1.18,1.67,2.13,3.08,2,4.92C176.42,378.53,173.82,381.61,173.35,378Z"/><path class="cls-14" d="M204,375.31c-1.16,1.52-3,.5-4.37,1.17l.07.1c-.69-1.61.22-2.15,1.59-2.39C202.09,374.75,203.56,373.77,204,375.31Z"/><path class="cls-17" d="M229.46,374.26l4.47.33C232.36,375.64,230.83,376.05,229.46,374.26Z"/><path class="cls-14" d="M171.37,379.1c-1.36-1.46-.3-1.76.94-2C172,377.78,171.68,378.44,171.37,379.1Z"/><path class="cls-2" d="M196.64,371.7c0,.57-.19.94-.81,1a3.26,3.26,0,0,1-.31-.62c0-.09.14-.23.22-.35Z"/><path class="cls-14" d="M172.14,374.48c.57,0,1.25-1.09,1.67,0,.24.61-.51.84-1.09.91Z"/><path class="cls-14" d="M280.86,296.5a2.33,2.33,0,0,1-2.46,2.16,2,2,0,0,1-2.09-2.36c.09-1.38.87-2.29,2.27-2.12A2.5,2.5,0,0,1,280.86,296.5Z"/><path class="cls-14" d="M204.93,263.81c-.36-.71-.82-.45-1.43-.27-1.65.49-3.08.24-3.26-1.84a1.71,1.71,0,0,1,2-1.87c1.75.14,2.81,1.08,2.1,3-.23.65.24.73.52,1Z"/><path class="cls-14" d="M199.61,376.48c-.67.8.47,3-1.91,2.45-1.47-.37-1.17-1.74-.85-2.5.91-2.2,1.9-.62,2.83.15Z"/></g></g></svg>