<svg xmlns="http://www.w3.org/2000/svg" viewBox="0 0 425.2 123.02"><defs><style>.cls-1{fill:#e7383b;}.cls-2{fill:#e8edec;}.cls-3{fill:#2aab62;}.cls-4{fill:#faea2e;}.cls-5{fill:#e7373b;}.cls-6{fill:#fbec53;}.cls-7{fill:#49887c;}.cls-8{fill:#f8e82c;}.cls-9{fill:#e63a3a;}.cls-10{fill:#ea554d;}.cls-11{fill:#b43736;}.cls-12{fill:#b4aea8;}</style></defs><title>Recurso 8</title><g id="Capa_2" data-name="Capa 2"><g id="Layer_1" data-name="Layer 1"><path class="cls-1" d="M0,60.68C.9,59.24.73,57.54,1.07,56,4,43,11.69,33.66,22.59,26.6c8.8-5.69,18.69-8.55,28.74-10.89,15-3.5,30.34-5.49,45.7-7C133.88,5.1,170.87,3.92,207.86,3Q240.43,2.17,273,1.31c7-.18,14-.44,21-.67-.74,5.94-.37,11.91-.42,17.87-.05,6.55,0,13.1,0,19.65,0,1.11,0,2.22,1.23,2.75a2.81,2.81,0,0,0,3.22-.39c.27-.23.62-.37.9-.59,2.57-2,5.1-3.94,7.7-5.84.72-.52,1.42-1.29,2.48-1.12l.16,11.14a28.27,28.27,0,0,1-1.92,5.81c-.32.73-.77,1.37.09,2a36.8,36.8,0,1,1-63.32,37.49c-10.66-18.73-3.1-44,19.73-53.12-3.86-.73-7.18-1.42-10.52-2A620.15,620.15,0,0,0,191,27.25a866.37,866.37,0,0,0-87.38-1.54c-20.48.69-40.91,2-61.18,5.14-6.12.94-12.26,1.87-18,4.33-4.43,1.89-8.48,4.34-11.47,8.23C8.4,49.34,7.84,56,9.9,62.89A38.2,38.2,0,0,0,25.65,84.18a20.2,20.2,0,0,0,10.78,3.39c4.83.19,7.63-3.45,6.25-8.11a23.6,23.6,0,0,0-2.82-5.58,31.58,31.58,0,0,1-4.78-11.49c-2.78-16.8,12.79-31.26,29.58-27.5C70,36.09,70,36.09,70,41.64v15c-1.29.11-2.28-.61-3.38-.85-2.44-.53-4.79-.65-6.6,1.41s-1.56,4.55-.44,6.89c1,2.14,2.24,4.19,3.34,6.29,5.36,10.29,4.27,22-2.8,29.68A24.06,24.06,0,0,1,43.41,108c-18,1.31-35.08-12-40.82-29.17A52.35,52.35,0,0,1,.46,69.56c-.05-.4.09-.89-.46-1.09ZM292.27,71.19A16.3,16.3,0,1,0,276,87.56,16.09,16.09,0,0,0,292.27,71.19ZM33.65,88.43h-.16v9.35h.16Z"/><path class="cls-2" d="M18.18,123l.05-.51c.94,0,1.87.08,2.81.08H385.46c.94,0,1.87-.08,2.81-.12l.07.55Z"/><path class="cls-1" d="M104.89,59.12c0-7.14,0-14.28,0-21.42,0-1.57.34-2.13,2-2.09q8.44.15,16.88,0c1.6,0,1.86.55,1.86,2-.06,13.41,0,26.83-.07,40.24,0,6-1,11.82-3.88,17.11-4.79,8.72-12.2,13.37-22.24,12.89-9.63-.46-16.47-5.48-20.64-14.11a36.61,36.61,0,0,1-3.32-16c-.1-13.49,0-27-.1-40.46,0-1.37.43-1.7,1.73-1.69,5.7.06,11.4.09,17.09,0,1.66,0,2,.46,2,2.06-.06,13.41,0,26.82,0,40.24a22.67,22.67,0,0,0,.46,4.94,3.82,3.82,0,0,0,4.1,3.37c2.17,0,3.34-.94,3.82-3.33a22.83,22.83,0,0,0,.34-4.3C104.9,72.1,104.88,65.61,104.89,59.12Z"/><path class="cls-1" d="M134.74,81c.15-6.18-.4-13.62.35-21,1-9.49,4.49-17.6,13.18-22.57,13.42-7.68,29.92-.71,34.84,14.65a38,38,0,0,1,1.71,11.29c.09,13.85.06,27.71.12,41.56,0,1.31-.31,1.72-1.67,1.71-5.56-.08-11.12-.12-16.67,0-1.87,0-2.42-.39-2.4-2.35.09-13.27.05-26.55,0-39.83a17.21,17.21,0,0,0-.46-5.15c-.71-2.34-2.22-3.48-4.41-3.3-2,.17-3.19,1.36-3.5,3.73a39.25,39.25,0,0,0-.35,5c0,13.2-.06,26.41,0,39.61,0,2-.55,2.37-2.4,2.33-5.48-.13-11-.12-16.45,0-1.67,0-2-.5-2-2.07C134.78,97.1,134.74,89.66,134.74,81Z"/><path class="cls-3" d="M352.86,65c1-.13,1.22-1.09,1.67-1.74Q368.74,43.17,382.87,23a4,4,0,0,1,3.11-1.9c7.35-.85,14.92,4,17.81,11.71a2.64,2.64,0,0,0,2.85,2.08c8.16.31,14.63,3.48,18.19,11.28a2.28,2.28,0,0,1-.07,2.58q-15,21.45-29.87,43a7.44,7.44,0,0,0-.5,1,31.22,31.22,0,0,0-7.12-9.15c-3.29-2.76-7-4.65-11.35-4.62-1.33,0-1.47-.83-1.83-1.67-2.64-6.13-6.83-10.45-13.7-11.57a16.16,16.16,0,0,0-5.8.14c-.7.14-1.59.5-1.72-.75Z"/><path class="cls-4" d="M307.39,51.92c-.86-.63-.41-1.27-.09-2a28.27,28.27,0,0,0,1.92-5.81c2.14-5.49,3.93-11.1,5.73-16.72.51,1,1.15.85,1.9.27,1.69-1.3,3.47-2.49,5.08-3.88a3.9,3.9,0,0,0-.28-5.71c-.87-.71-1.76-1.41-2.64-2.12,1.44-4.37,2.9-8.74,4.31-13.12.32-1,1.11-1.23,1.91-1.55a16.59,16.59,0,0,1,19.23,5.29c1.42,1.81,2.61,2.15,4.79,1.6,6.92-1.75,13.11-.36,18.26,4.89a3.57,3.57,0,0,1,1,4.19c-5.06,15-10,30.06-15,45.1a5.71,5.71,0,0,0-.65,2.69h0c-1-.11-1.4-.94-2-1.49-5.52-4.75-11.56-7.88-19.13-6-1.14.28-1.52-.42-2.07-1.09-3.8-4.52-8.4-7.4-14.56-7.07A15.59,15.59,0,0,0,307.39,51.92Z"/><path class="cls-5" d="M233.44,46.15c0,2.88-.05,5.77,0,8.65,0,1.22-.34,1.6-1.57,1.58-4.18-.07-8.37-.08-12.55,0-2.9,0-4,1.62-3.36,4.43.49,2.08,2.15,2.37,3.85,2.39,3.68.06,7.36.08,11,0,1.29,0,1.76.27,1.73,1.66-.09,4.18-.07,8.36,0,12.54,0,1.22-.35,1.61-1.58,1.59-4.33-.06-8.65-.07-13,0-1.55,0-3.25,0-3.92,2-.9,2.7.49,4.79,3.41,4.84,4.68.07,9.37.09,14,0,1.55,0,1.93.47,1.91,2q-.12,8.43,0,16.87c0,1.44-.26,2-1.86,2-6.55-.23-13.11.28-19.66-.43-8.47-.91-15.8-7-17.72-14.9a14.62,14.62,0,0,1-.42-3.42c0-10.39.1-20.77.08-31.15,0-13.49,9.74-20.1,20.31-20.77,5.84-.37,11.68-.12,17.51-.3,1.53,0,1.8.55,1.76,1.88C233.39,40.38,233.44,43.26,233.44,46.15Z"/><path class="cls-6" d="M203.27,111.82h182c.64,0,1.29,0,1.94,0,1.09,0,1.06.71,1.08,1.46s-.11,1.46-1.14,1.41c-.51,0-1,0-1.52,0q-182.43,0-364.87,0c-1.14,0-2.82.64-2.59-1.67.08-.79.3-1.22,1.14-1.18.65,0,1.3,0,1.95,0Z"/><path class="cls-7" d="M388.27,122.47c-.94,0-1.87.12-2.81.12H21c-.94,0-1.87-.06-2.81-.08-.42-2.1.44-2.58,2.52-2.58q182.46.07,364.92,0C387.68,119.93,388.68,120.31,388.27,122.47Z"/><path class="cls-8" d="M319,16c.88.71,1.77,1.41,2.64,2.12a3.9,3.9,0,0,1,.28,5.71c-1.61,1.39-3.39,2.58-5.08,3.88-.75.58-1.39.74-1.9-.27.09-.32.17-.65.26-1q.94-2.19,1.9-4.38l-.33-.3-7.64,5.63q-7.32,4.94-14.31,10.33c-.85-.47-.45-1.28-.46-1.93q0-16.42,0-32.86a2.87,2.87,0,0,1,.35-2L297,2.42c4.08,2.83,7.93,6,12.16,8.58,2.52,1.85,5.12,3.61,7.53,5.6C318,17.71,318.53,17.27,319,16Z"/><path class="cls-9" d="M309.12,11C304.89,8.39,301,5.25,297,2.42L294.72.85a2.87,2.87,0,0,0-.35,2.05q0,16.42,0,32.86c0,.65-.39,1.46.46,1.93.87,1.63,2.22,1.78,3.95.65,3.51-2.28,6.48-5.32,10.31-7.13l0,1.76c-1.06-.17-1.76.6-2.48,1.12-2.6,1.9-5.13,3.89-7.7,5.84-.28.22-.63.36-.9.59a2.81,2.81,0,0,1-3.22.39c-1.19-.53-1.23-1.64-1.23-2.75,0-6.55,0-13.1,0-19.65,0-6-.32-11.93.42-17.87C298.49.44,303,.3,307.53,0c1.46-.09,1.65.48,1.62,1.71C309.08,4.81,309.13,7.9,309.12,11Z"/><ellipse class="cls-10" cx="33.57" cy="93.1" rx="0.11" ry="6.61"/><path class="cls-11" d="M309.23,30.36c-.05.28-.09.57-.14.85-3.83,1.81-6.8,4.85-10.31,7.13-1.73,1.13-3.08,1-3.95-.65q7-5.38,14.31-10.33Z"/><path class="cls-12" d="M309.23,30.36l-.09-3,7.64-5.63.33.3q-1,2.19-1.9,4.38C312.91,27.27,311.45,29.39,309.23,30.36Z"/></g></g></svg>